M48
;Layer_Color=6321
;FILE_FORMAT=2:5
INCH,TZ
;TYPE=PLATED
T1F00S00C0.01500
T2F00S00C0.02000
T3F00S00C0.02200
T4F00S00C0.02800
T5F00S00C0.04331
T6F00S00C0.04724
T7F00S00C0.07087
;TYPE=NON_PLATED
T8F00S00C0.11811
T9F00S00C0.12205
%
T01
X338000Y214000
X346500
X342744Y227000
X335500Y230000
X340500Y256500
Y260000
Y263500
Y267000
Y270500
X355000Y274000
X372500Y275500
Y272000
Y268500
Y279000
Y282500
X324000Y289000
X301284Y276783
X268500Y279500
Y283000
X277000Y247000
X274500Y242500
X268500Y235500
Y232000
X284000Y229500
X248000Y244626
Y252500
T02
X385177Y195500
X385000Y211000
X376500
X390000Y221000
X394000
X364000Y242500
X360000Y245000
X360126Y260374
X364000Y257000
X344000Y276000
X323000Y276500
X312000Y289000
X294000Y272000
X283500Y273000
X278000Y260500
X253000Y258000
X235000Y264500
X198500
X176500Y252500
X162000Y266000
X264500Y289500
X269000
X266000Y296000
Y300500
X272500
Y304500
Y308500
X275000Y233000
X279500Y221000
X283500
X276500Y208000
X295000Y231000
X150500Y233500
X272500Y312500
X270000Y352500
X291000Y353500
X311000Y347500
X341000Y343500
X347000
X353000
X359000
X365000
X371000
X377000
X383000
X408000
X414000
X420000
X426000
X432000
X438000
X444000
X450000
X456000
X462000
X456000Y359500
X444000
T03
X192000Y139000
T04
X158500Y142500
X282500Y147500
X385000Y107500
X393839Y178661
X333000Y167000
X379000Y264000
X450500Y259000
X335500Y309256
X301000Y302500
X306000Y289000
X247000Y290000
X237000
Y305000
X247000
X244500Y274000
X208000
X211000Y290000
X201000
Y305000
X211000
X175000Y305500
X165000Y305000
Y290500
X175000
X172000Y274000
X170000Y268500
X185000Y257500
X192000Y263000
X216000Y257500
X222000
X229000Y189000
X211000Y180000
Y160000
X162500Y180000
X154500Y263500
X132500Y279000
X165000Y337500
X175000
Y350000
X165000
X201000
X211000
Y337500
X201000
X237000
X247000
Y350000
X237000
X289000Y319000
X323500Y313500
T05
X173567Y367500
Y379311
X185378
Y367500
X197189
Y379311
X209000
Y367500
X273067Y367000
Y378811
X284878
Y367000
X296689
Y378811
X308500
Y367000
X344567
Y378811
X356378
Y367000
X368189
Y378811
X380000
Y367000
X416567
Y378811
X428378
Y367000
X440189
Y378811
X452000
Y367000
T06
X320000Y191500
X330000
X340000
X339000Y206000
X329000
X319000
X450000Y207500
X460000
X309000Y206000
X299000
X289000
X290000Y191500
X300000
X310000
X133000Y210000
X123000
T07
X123232Y155224
X139768
X439232
X455768
Y176878
X439232
X139768
X123232
X132500Y330248
Y351902
T08
X131500Y126484
X447500
X132500Y380642
T09
X181992Y396319
X200496
X281492Y395819
X299996
X352992
X371496
X424992
X443496
M30
