G04*
G04 #@! TF.GenerationSoftware,Altium Limited,CircuitStudio,1.5.2 (30)*
G04*
G04 Layer_Color=20142*
%FSLAX25Y25*%
%MOIN*%
G70*
G01*
G75*
%ADD18R,0.03937X0.03937*%
%ADD55R,0.04343X0.04737*%
G04:AMPARAMS|DCode=56|XSize=29.65mil|YSize=39.5mil|CornerRadius=5.95mil|HoleSize=0mil|Usage=FLASHONLY|Rotation=0.000|XOffset=0mil|YOffset=0mil|HoleType=Round|Shape=RoundedRectangle|*
%AMROUNDEDRECTD56*
21,1,0.02965,0.02760,0,0,0.0*
21,1,0.01776,0.03950,0,0,0.0*
1,1,0.01190,0.00888,-0.01380*
1,1,0.01190,-0.00888,-0.01380*
1,1,0.01190,-0.00888,0.01380*
1,1,0.01190,0.00888,0.01380*
%
%ADD56ROUNDEDRECTD56*%
G04:AMPARAMS|DCode=57|XSize=31.62mil|YSize=47.37mil|CornerRadius=6.01mil|HoleSize=0mil|Usage=FLASHONLY|Rotation=270.000|XOffset=0mil|YOffset=0mil|HoleType=Round|Shape=RoundedRectangle|*
%AMROUNDEDRECTD57*
21,1,0.03162,0.03535,0,0,270.0*
21,1,0.01961,0.04737,0,0,270.0*
1,1,0.01202,-0.01768,-0.00980*
1,1,0.01202,-0.01768,0.00980*
1,1,0.01202,0.01768,0.00980*
1,1,0.01202,0.01768,-0.00980*
%
%ADD57ROUNDEDRECTD57*%
%ADD58R,0.04343X0.03556*%
%ADD59R,0.03556X0.04343*%
%ADD60R,0.04737X0.04343*%
%ADD61O,0.03556X0.11036*%
%ADD62C,0.04737*%
%ADD63R,0.05131X0.03162*%
%ADD64R,0.06600X0.01900*%
%ADD65R,0.01900X0.06600*%
%ADD66R,0.03950X0.04343*%
%ADD67R,0.03162X0.05131*%
%ADD68R,0.05131X0.03162*%
G04:AMPARAMS|DCode=69|XSize=31.62mil|YSize=65.09mil|CornerRadius=6.01mil|HoleSize=0mil|Usage=FLASHONLY|Rotation=0.000|XOffset=0mil|YOffset=0mil|HoleType=Round|Shape=RoundedRectangle|*
%AMROUNDEDRECTD69*
21,1,0.03162,0.05307,0,0,0.0*
21,1,0.01961,0.06509,0,0,0.0*
1,1,0.01202,0.00980,-0.02654*
1,1,0.01202,-0.00980,-0.02654*
1,1,0.01202,-0.00980,0.02654*
1,1,0.01202,0.00980,0.02654*
%
%ADD69ROUNDEDRECTD69*%
%ADD70R,0.13398X0.07099*%
%ADD71R,0.08674X0.07493*%
%ADD72R,0.05918X0.04147*%
%ADD73R,0.04934X0.06312*%
%ADD74C,0.09068*%
%ADD75C,0.00800*%
%ADD76C,0.08280*%
%ADD77C,0.06800*%
%ADD78C,0.11036*%
%ADD79C,0.03800*%
%ADD80C,0.05800*%
D18*
X302362Y405709D02*
D03*
Y412402D02*
D03*
X309449Y405709D02*
D03*
Y412402D02*
D03*
X326378Y405709D02*
D03*
Y412402D02*
D03*
X333858Y405709D02*
D03*
Y412402D02*
D03*
D55*
X369181Y389378D02*
D03*
X375480D02*
D03*
X369181Y395378D02*
D03*
X375480D02*
D03*
X387181Y401378D02*
D03*
X393480D02*
D03*
X397244Y385433D02*
D03*
X403543D02*
D03*
X255480Y356378D02*
D03*
X249181D02*
D03*
X255480Y330378D02*
D03*
X249181D02*
D03*
X321181Y360378D02*
D03*
X327480D02*
D03*
Y352378D02*
D03*
X321181D02*
D03*
X162205Y216535D02*
D03*
X155905D02*
D03*
X194850Y251016D02*
D03*
X201150D02*
D03*
D56*
X391071Y385358D02*
D03*
X383591D02*
D03*
Y395398D02*
D03*
X387331D02*
D03*
X391071D02*
D03*
X136260Y294035D02*
D03*
X140000D02*
D03*
X143740D02*
D03*
Y283996D02*
D03*
X140000D02*
D03*
X136260D02*
D03*
D57*
X393327Y368740D02*
D03*
Y372480D02*
D03*
Y376220D02*
D03*
X382500D02*
D03*
Y372480D02*
D03*
Y368740D02*
D03*
D58*
X400913Y367724D02*
D03*
Y373236D02*
D03*
X188000Y186260D02*
D03*
Y191772D02*
D03*
D59*
X390551Y362992D02*
D03*
X385039D02*
D03*
X198756Y186016D02*
D03*
X193244D02*
D03*
D60*
X395331Y458528D02*
D03*
Y452228D02*
D03*
X407874Y412205D02*
D03*
Y418504D02*
D03*
X117323Y412205D02*
D03*
Y418504D02*
D03*
X333858Y398031D02*
D03*
Y391732D02*
D03*
X326378Y398031D02*
D03*
Y391732D02*
D03*
X302362Y398031D02*
D03*
Y391732D02*
D03*
X309449Y398031D02*
D03*
Y391732D02*
D03*
X291339Y377953D02*
D03*
Y384252D02*
D03*
X279528Y377953D02*
D03*
Y384252D02*
D03*
X303331Y312528D02*
D03*
Y306228D02*
D03*
X188000Y250866D02*
D03*
Y257165D02*
D03*
X159055Y320362D02*
D03*
Y314063D02*
D03*
X153055Y314063D02*
D03*
Y320362D02*
D03*
X144425Y300866D02*
D03*
Y307165D02*
D03*
X138425D02*
D03*
Y300866D02*
D03*
X132425Y307165D02*
D03*
Y300866D02*
D03*
X174118Y433591D02*
D03*
Y427291D02*
D03*
X180118Y427291D02*
D03*
Y433591D02*
D03*
X191732Y427165D02*
D03*
Y433465D02*
D03*
X197638D02*
D03*
Y427165D02*
D03*
X205512Y433465D02*
D03*
Y427165D02*
D03*
X211417Y433465D02*
D03*
Y427165D02*
D03*
X219291D02*
D03*
Y433465D02*
D03*
X225197D02*
D03*
Y427165D02*
D03*
X233465D02*
D03*
Y433465D02*
D03*
X239370D02*
D03*
Y427165D02*
D03*
X344331Y433528D02*
D03*
Y427228D02*
D03*
X350331Y433528D02*
D03*
Y427228D02*
D03*
X359331Y433528D02*
D03*
Y427228D02*
D03*
X365331Y433528D02*
D03*
Y427228D02*
D03*
X380331Y433528D02*
D03*
Y427228D02*
D03*
X374331Y433528D02*
D03*
Y427228D02*
D03*
X266331Y427228D02*
D03*
Y433528D02*
D03*
X272331Y427228D02*
D03*
Y433528D02*
D03*
X281331Y427228D02*
D03*
Y433528D02*
D03*
X287331Y427228D02*
D03*
Y433528D02*
D03*
X297331Y427228D02*
D03*
Y433528D02*
D03*
X303331Y427228D02*
D03*
Y433528D02*
D03*
X312331Y427228D02*
D03*
Y433528D02*
D03*
X318331Y427228D02*
D03*
Y433528D02*
D03*
X465748Y427165D02*
D03*
Y433465D02*
D03*
X459842Y433465D02*
D03*
Y427165D02*
D03*
D61*
X415831Y382268D02*
D03*
X420831D02*
D03*
X425831D02*
D03*
X430831D02*
D03*
X435831D02*
D03*
X440831D02*
D03*
X445831D02*
D03*
X450831D02*
D03*
X415831Y418488D02*
D03*
X420831D02*
D03*
X425831D02*
D03*
X430831D02*
D03*
X435831D02*
D03*
X440831D02*
D03*
X445831D02*
D03*
X450831D02*
D03*
X125831Y382268D02*
D03*
X130831D02*
D03*
X135831D02*
D03*
X140831D02*
D03*
X145831D02*
D03*
X150831D02*
D03*
X155831D02*
D03*
X160831D02*
D03*
X125831Y418488D02*
D03*
X130831D02*
D03*
X135831D02*
D03*
X140831D02*
D03*
X145831D02*
D03*
X150831D02*
D03*
X155831D02*
D03*
X160831D02*
D03*
D62*
X473331Y425378D02*
D03*
Y415378D02*
D03*
X253937Y429134D02*
D03*
X331496D02*
D03*
D63*
X336024Y379331D02*
D03*
Y383071D02*
D03*
Y386811D02*
D03*
X324606D02*
D03*
Y383071D02*
D03*
Y379331D02*
D03*
X311614Y378543D02*
D03*
Y382283D02*
D03*
Y386024D02*
D03*
X300197D02*
D03*
Y382283D02*
D03*
Y378543D02*
D03*
D64*
X310431Y360178D02*
D03*
Y358178D02*
D03*
Y356178D02*
D03*
Y354278D02*
D03*
Y352278D02*
D03*
Y350278D02*
D03*
Y348378D02*
D03*
Y346378D02*
D03*
Y344378D02*
D03*
Y342378D02*
D03*
Y340478D02*
D03*
Y338478D02*
D03*
Y336478D02*
D03*
Y334578D02*
D03*
Y332578D02*
D03*
Y330578D02*
D03*
X266231D02*
D03*
Y332578D02*
D03*
Y334578D02*
D03*
Y336478D02*
D03*
Y338478D02*
D03*
Y340478D02*
D03*
Y342378D02*
D03*
Y344378D02*
D03*
Y346378D02*
D03*
Y348378D02*
D03*
Y350278D02*
D03*
Y352278D02*
D03*
Y354278D02*
D03*
Y356178D02*
D03*
Y358178D02*
D03*
Y360178D02*
D03*
D65*
X303131Y323278D02*
D03*
X301131D02*
D03*
X299131D02*
D03*
X297231D02*
D03*
X295231D02*
D03*
X293231D02*
D03*
X291331D02*
D03*
X289331D02*
D03*
X287331D02*
D03*
X285331D02*
D03*
X283431D02*
D03*
X281431D02*
D03*
X279431D02*
D03*
X277531D02*
D03*
X275531D02*
D03*
X273531D02*
D03*
Y367478D02*
D03*
X275531D02*
D03*
X277531D02*
D03*
X279431D02*
D03*
X281431D02*
D03*
X283431D02*
D03*
X285331D02*
D03*
X287331D02*
D03*
X289331D02*
D03*
X291331D02*
D03*
X293231D02*
D03*
X295231D02*
D03*
X297231D02*
D03*
X299131D02*
D03*
X301131D02*
D03*
X303131D02*
D03*
D66*
X438740Y278937D02*
D03*
X431260D02*
D03*
X435000Y271063D02*
D03*
D67*
X376969Y291142D02*
D03*
X373228D02*
D03*
X369488D02*
D03*
Y279724D02*
D03*
X373228D02*
D03*
X376969D02*
D03*
X360433Y291142D02*
D03*
X356693D02*
D03*
X352953D02*
D03*
Y279724D02*
D03*
X356693D02*
D03*
X360433D02*
D03*
D68*
X201118Y200276D02*
D03*
Y204016D02*
D03*
Y207756D02*
D03*
X190882Y200276D02*
D03*
Y207756D02*
D03*
Y272756D02*
D03*
Y265276D02*
D03*
X201118Y272756D02*
D03*
Y269016D02*
D03*
Y265276D02*
D03*
D69*
X176500Y206744D02*
D03*
X171500D02*
D03*
X166500D02*
D03*
X161500D02*
D03*
X176500Y185287D02*
D03*
X171500D02*
D03*
X166500D02*
D03*
X161500D02*
D03*
D70*
X187843Y229016D02*
D03*
X168157D02*
D03*
X213158Y196016D02*
D03*
X232842D02*
D03*
X187843Y294016D02*
D03*
X168157D02*
D03*
X213158Y261016D02*
D03*
X232842D02*
D03*
D71*
X227842Y229016D02*
D03*
X208157D02*
D03*
X227842Y294016D02*
D03*
X208157D02*
D03*
D72*
X153000Y292362D02*
D03*
Y285669D02*
D03*
D73*
X123425Y269291D02*
D03*
X115945D02*
D03*
D74*
X153331Y446378D02*
D03*
X141520D02*
D03*
X129709D02*
D03*
Y458189D02*
D03*
X141520D02*
D03*
X153331D02*
D03*
X233331Y446378D02*
D03*
X221520D02*
D03*
X209709D02*
D03*
X197898D02*
D03*
Y458189D02*
D03*
X209709D02*
D03*
X221520D02*
D03*
X233331D02*
D03*
X304331Y446378D02*
D03*
X292520D02*
D03*
X280709D02*
D03*
Y458189D02*
D03*
X292520D02*
D03*
X304331D02*
D03*
X463331Y446378D02*
D03*
X451520D02*
D03*
X439709D02*
D03*
X427898D02*
D03*
X416087D02*
D03*
Y458189D02*
D03*
X427898D02*
D03*
X439709D02*
D03*
X451520D02*
D03*
X463331D02*
D03*
X374331Y446378D02*
D03*
X362520D02*
D03*
X350709D02*
D03*
Y458189D02*
D03*
X362520D02*
D03*
X374331D02*
D03*
D75*
X141520Y475197D02*
D03*
X224827D02*
D03*
X206323D02*
D03*
X292520D02*
D03*
X454827D02*
D03*
X424512D02*
D03*
X362520D02*
D03*
D76*
X395331Y435378D02*
D03*
Y425378D02*
D03*
Y415378D02*
D03*
X120000Y290000D02*
D03*
Y280000D02*
D03*
X260000Y200000D02*
D03*
X270000D02*
D03*
X280000D02*
D03*
X290000D02*
D03*
X300000D02*
D03*
X310000D02*
D03*
X320000D02*
D03*
Y210000D02*
D03*
X310000D02*
D03*
X300000D02*
D03*
X290000D02*
D03*
X280000D02*
D03*
X270000D02*
D03*
X260000D02*
D03*
X468504Y380709D02*
D03*
Y370709D02*
D03*
Y360709D02*
D03*
Y350709D02*
D03*
Y340709D02*
D03*
Y330709D02*
D03*
Y300000D02*
D03*
Y290000D02*
D03*
Y280000D02*
D03*
Y270000D02*
D03*
Y260000D02*
D03*
Y250000D02*
D03*
D77*
X435000Y205984D02*
D03*
X365000D02*
D03*
X133000Y205000D02*
D03*
D78*
X435000Y234724D02*
D03*
Y256378D02*
D03*
X373268Y234724D02*
D03*
Y256378D02*
D03*
X356732D02*
D03*
Y234724D02*
D03*
X141268Y233740D02*
D03*
Y255394D02*
D03*
X124732D02*
D03*
Y233740D02*
D03*
D79*
X136221Y288976D02*
D03*
X132425Y312992D02*
D03*
X148031Y313386D02*
D03*
X385039Y427165D02*
D03*
X448425Y374410D02*
D03*
X340551Y261024D02*
D03*
X364961Y290945D02*
D03*
X255906Y261024D02*
D03*
X234252Y348425D02*
D03*
Y336614D02*
D03*
X230315Y348425D02*
D03*
Y336614D02*
D03*
X340354Y379331D02*
D03*
X346063Y319685D02*
D03*
X283465Y361811D02*
D03*
X341339Y318898D02*
D03*
X303331Y301756D02*
D03*
X420472Y354724D02*
D03*
X422835Y357480D02*
D03*
X383857Y354724D02*
D03*
X386221Y357480D02*
D03*
X315748Y366929D02*
D03*
X285039Y346063D02*
D03*
X277953Y348425D02*
D03*
X144488Y323622D02*
D03*
X364567Y389370D02*
D03*
X405118Y367717D02*
D03*
X397835Y401378D02*
D03*
X408268Y385433D02*
D03*
X382677Y401181D02*
D03*
X407874Y407480D02*
D03*
X350394Y438583D02*
D03*
X244094Y358268D02*
D03*
Y330315D02*
D03*
X233465Y422441D02*
D03*
X219291D02*
D03*
X205512D02*
D03*
X191732D02*
D03*
X180315Y438976D02*
D03*
X362992D02*
D03*
X275590Y337795D02*
D03*
X332283Y360236D02*
D03*
Y352362D02*
D03*
X316929Y384252D02*
D03*
X297638Y389370D02*
D03*
X431260Y283307D02*
D03*
X140000Y280079D02*
D03*
X278346Y415354D02*
D03*
Y411417D02*
D03*
X358012Y438839D02*
D03*
X197638Y437795D02*
D03*
X211417D02*
D03*
X216142Y346850D02*
D03*
X212598Y354331D02*
D03*
X135831Y374020D02*
D03*
X127559Y374016D02*
D03*
X177165D02*
D03*
X171260D02*
D03*
X291339Y388976D02*
D03*
X279528D02*
D03*
X292126Y400000D02*
D03*
X281496D02*
D03*
Y437402D02*
D03*
X266535Y437795D02*
D03*
X279431Y373228D02*
D03*
X316535Y360178D02*
D03*
X303150Y316929D02*
D03*
X260236Y356178D02*
D03*
Y330578D02*
D03*
X327953D02*
D03*
X285039Y228346D02*
D03*
X286221Y233071D02*
D03*
X322835Y336614D02*
D03*
X318898D02*
D03*
Y343307D02*
D03*
X335433Y329921D02*
D03*
X256692Y351969D02*
D03*
X322835Y313779D02*
D03*
X318898Y308661D02*
D03*
X306299Y370472D02*
D03*
X183071Y192520D02*
D03*
X164961Y200000D02*
D03*
X182087Y202165D02*
D03*
X279134Y330709D02*
D03*
X271654Y400000D02*
D03*
X273622Y283465D02*
D03*
X314961D02*
D03*
X159055Y309449D02*
D03*
X265748Y228346D02*
D03*
X269291Y225197D02*
D03*
X262992Y316929D02*
D03*
X255906Y265748D02*
D03*
X256693Y230315D02*
D03*
X343307Y385433D02*
D03*
X261811Y247244D02*
D03*
X320079D02*
D03*
X260236Y370866D02*
D03*
X369291Y400394D02*
D03*
X470472Y397638D02*
D03*
X463386Y420079D02*
D03*
X294094Y287402D02*
D03*
X290551Y290551D02*
D03*
D80*
X451575Y405512D02*
D03*
X364961Y279528D02*
D03*
X347638D02*
D03*
X408661Y426378D02*
D03*
X117323Y406299D02*
D03*
X109055Y418504D02*
D03*
X160927Y373325D02*
D03*
X157087Y224016D02*
D03*
X153150Y299213D02*
D03*
X187795Y300787D02*
D03*
X182283Y250787D02*
D03*
X187795Y236614D02*
D03*
X212874Y269016D02*
D03*
X212913Y204016D02*
D03*
X238189Y293701D02*
D03*
M02*
