G04*
G04 #@! TF.GenerationSoftware,Altium Limited,CircuitStudio,1.5.2 (30)*
G04*
G04 Layer_Physical_Order=1*
G04 Layer_Color=11767835*
%FSLAX25Y25*%
%MOIN*%
G70*
G01*
G75*
%ADD10R,0.03937X0.03543*%
%ADD11C,0.03937*%
%ADD12O,0.02756X0.10236*%
%ADD13R,0.07874X0.06693*%
%ADD14R,0.12598X0.06299*%
%ADD15R,0.04134X0.05512*%
G04:AMPARAMS|DCode=16|XSize=21.65mil|YSize=31.5mil|CornerRadius=1.95mil|HoleSize=0mil|Usage=FLASHONLY|Rotation=180.000|XOffset=0mil|YOffset=0mil|HoleType=Round|Shape=RoundedRectangle|*
%AMROUNDEDRECTD16*
21,1,0.02165,0.02760,0,0,180.0*
21,1,0.01776,0.03150,0,0,180.0*
1,1,0.00390,-0.00888,0.01380*
1,1,0.00390,0.00888,0.01380*
1,1,0.00390,0.00888,-0.01380*
1,1,0.00390,-0.00888,-0.01380*
%
%ADD16ROUNDEDRECTD16*%
%ADD17R,0.05118X0.03347*%
%ADD18R,0.04331X0.02362*%
%ADD19R,0.03543X0.03937*%
G04:AMPARAMS|DCode=20|XSize=23.62mil|YSize=57.09mil|CornerRadius=2.01mil|HoleSize=0mil|Usage=FLASHONLY|Rotation=0.000|XOffset=0mil|YOffset=0mil|HoleType=Round|Shape=RoundedRectangle|*
%AMROUNDEDRECTD20*
21,1,0.02362,0.05307,0,0,0.0*
21,1,0.01961,0.05709,0,0,0.0*
1,1,0.00402,0.00980,-0.02654*
1,1,0.00402,-0.00980,-0.02654*
1,1,0.00402,-0.00980,0.02654*
1,1,0.00402,0.00980,0.02654*
%
%ADD20ROUNDEDRECTD20*%
%ADD21R,0.02756X0.03543*%
%ADD22R,0.03543X0.02756*%
%ADD23R,0.02362X0.04331*%
%ADD24R,0.03150X0.03543*%
%ADD25R,0.01100X0.05800*%
%ADD26R,0.05800X0.01100*%
%ADD27R,0.04331X0.02362*%
%ADD28R,0.03937X0.03937*%
G04:AMPARAMS|DCode=29|XSize=23.62mil|YSize=39.37mil|CornerRadius=2.01mil|HoleSize=0mil|Usage=FLASHONLY|Rotation=270.000|XOffset=0mil|YOffset=0mil|HoleType=Round|Shape=RoundedRectangle|*
%AMROUNDEDRECTD29*
21,1,0.02362,0.03535,0,0,270.0*
21,1,0.01961,0.03937,0,0,270.0*
1,1,0.00402,-0.01768,-0.00980*
1,1,0.00402,-0.01768,0.00980*
1,1,0.00402,0.01768,0.00980*
1,1,0.00402,0.01768,-0.00980*
%
%ADD29ROUNDEDRECTD29*%
%ADD30C,0.00600*%
%ADD31C,0.00800*%
%ADD32C,0.03000*%
%ADD33C,0.01000*%
%ADD34C,0.01800*%
%ADD35C,0.06000*%
%ADD36C,0.07874*%
%ADD37C,0.02000*%
%ADD38C,0.02500*%
%ADD39C,0.00500*%
%ADD40C,0.04000*%
%ADD41C,0.07480*%
%ADD42C,0.10236*%
%ADD43C,0.06000*%
%ADD44C,0.08268*%
%ADD45C,0.03000*%
%ADD46C,0.05000*%
G36*
X492913Y179528D02*
X100787D01*
Y492913D01*
X492913D01*
Y179528D01*
D02*
G37*
%LPC*%
G36*
X468504Y345086D02*
X467371Y344937D01*
X466315Y344500D01*
X465409Y343804D01*
X464713Y342898D01*
X464276Y341842D01*
X464126Y340709D01*
X464276Y339576D01*
X464713Y338520D01*
X465409Y337613D01*
X466315Y336917D01*
X467371Y336480D01*
X468504Y336331D01*
X469637Y336480D01*
X470693Y336917D01*
X471599Y337613D01*
X472295Y338520D01*
X472732Y339576D01*
X472882Y340709D01*
X472732Y341842D01*
X472295Y342898D01*
X471599Y343804D01*
X470693Y344500D01*
X469637Y344937D01*
X468504Y345086D01*
D02*
G37*
G36*
X317500Y214056D02*
X316619Y213381D01*
X315944Y212500D01*
X317500D01*
Y214056D01*
D02*
G37*
G36*
X324057Y207500D02*
X322500D01*
Y205943D01*
X323381Y206619D01*
X324057Y207500D01*
D02*
G37*
G36*
X472560Y348209D02*
X471004D01*
Y346652D01*
X471885Y347328D01*
X472560Y348209D01*
D02*
G37*
G36*
X260000Y214378D02*
X258867Y214228D01*
X257811Y213791D01*
X256905Y213095D01*
X256209Y212189D01*
X255772Y211133D01*
X255622Y210000D01*
X255772Y208867D01*
X256209Y207811D01*
X256905Y206905D01*
X257811Y206209D01*
X258867Y205772D01*
X260000Y205622D01*
X261133Y205772D01*
X262189Y206209D01*
X263095Y206905D01*
X263791Y207811D01*
X264228Y208867D01*
X264378Y210000D01*
X264228Y211133D01*
X263791Y212189D01*
X263095Y213095D01*
X262189Y213791D01*
X261133Y214228D01*
X260000Y214378D01*
D02*
G37*
G36*
X317500Y207500D02*
X315944D01*
X316619Y206619D01*
X317500Y205943D01*
Y207500D01*
D02*
G37*
G36*
X466004Y348209D02*
X464447D01*
X465123Y347328D01*
X466004Y346652D01*
Y348209D01*
D02*
G37*
G36*
X161624Y316435D02*
X156487D01*
Y311691D01*
X157546D01*
X157623Y311611D01*
X157555Y310972D01*
X157541Y310963D01*
X157077Y310268D01*
X156914Y309449D01*
X157077Y308629D01*
X157541Y307935D01*
X158236Y307471D01*
X159055Y307308D01*
X159874Y307471D01*
X160569Y307935D01*
X161033Y308629D01*
X161196Y309449D01*
X161033Y310268D01*
X160569Y310963D01*
X160555Y310972D01*
X160487Y311611D01*
X160564Y311691D01*
X161624D01*
Y316435D01*
D02*
G37*
G36*
X144488Y325763D02*
X143669Y325600D01*
X142974Y325136D01*
X142510Y324441D01*
X142347Y323622D01*
X142510Y322803D01*
X142974Y322108D01*
X143571Y321709D01*
Y309537D01*
X141857D01*
Y308083D01*
X140994D01*
Y309537D01*
X135857D01*
Y304855D01*
X134994D01*
Y309537D01*
X133547D01*
Y311216D01*
X133939Y311478D01*
X134403Y312173D01*
X134566Y312992D01*
X134403Y313811D01*
X133939Y314506D01*
X133245Y314970D01*
X132425Y315133D01*
X131606Y314970D01*
X130911Y314506D01*
X130447Y313811D01*
X130284Y312992D01*
X130447Y312173D01*
X130911Y311478D01*
X131304Y311216D01*
Y309537D01*
X129857D01*
Y304842D01*
X129628Y304796D01*
X129570Y304785D01*
X129272Y304586D01*
X127698Y303011D01*
X127499Y302713D01*
X127429Y302362D01*
Y287402D01*
X127499Y287050D01*
X127698Y286753D01*
X131103Y283347D01*
X131401Y283148D01*
X131752Y283078D01*
X134562D01*
Y282616D01*
X134623Y282306D01*
X134799Y282043D01*
X135062Y281867D01*
X135372Y281806D01*
X137148D01*
X137458Y281867D01*
X137721Y282043D01*
X138295Y282060D01*
X138466Y281939D01*
X138486Y281593D01*
X138022Y280898D01*
X137859Y280079D01*
X138022Y279259D01*
X138486Y278565D01*
X139181Y278101D01*
X140000Y277938D01*
X140819Y278101D01*
X141514Y278565D01*
X141978Y279259D01*
X142141Y280079D01*
X141978Y280898D01*
X141514Y281593D01*
X141534Y281939D01*
X141705Y282060D01*
X142279Y282043D01*
X142542Y281867D01*
X142852Y281806D01*
X144628D01*
X144938Y281867D01*
X145201Y282043D01*
X145377Y282306D01*
X145438Y282616D01*
Y282977D01*
X146988D01*
X147378Y283054D01*
X147709Y283275D01*
X148065Y283631D01*
X148541Y283473D01*
X148575Y283434D01*
X148424Y282283D01*
Y261195D01*
X147199Y259970D01*
X144697D01*
X144151Y260388D01*
X142760Y260965D01*
X141268Y261161D01*
X139775Y260965D01*
X138384Y260388D01*
X137189Y259472D01*
X136273Y258277D01*
X135697Y256886D01*
X135500Y255394D01*
X135697Y253901D01*
X136273Y252510D01*
X137189Y251315D01*
X138384Y250399D01*
X139775Y249823D01*
X141268Y249626D01*
X142760Y249823D01*
X144151Y250399D01*
X144697Y250817D01*
X149094D01*
X150279Y250974D01*
X151383Y251431D01*
X152330Y252158D01*
X156236Y256063D01*
X156963Y257011D01*
X157231Y257658D01*
X157420Y258115D01*
X157576Y259299D01*
Y282283D01*
X157420Y283468D01*
X156963Y284572D01*
X156236Y285519D01*
X156159Y285578D01*
Y287943D01*
X149841D01*
Y286689D01*
X148661D01*
X148271Y286611D01*
X147941Y286390D01*
X146566Y285016D01*
X145438D01*
Y285376D01*
X145377Y285686D01*
X145201Y285949D01*
X144938Y286125D01*
X144628Y286186D01*
X142852D01*
X142542Y286125D01*
X142279Y285949D01*
X142137Y285735D01*
X141870Y285709D01*
X141604Y285735D01*
X141461Y285949D01*
X141198Y286125D01*
X140888Y286186D01*
X139112D01*
X138802Y286125D01*
X138539Y285949D01*
X138396Y285735D01*
X138130Y285709D01*
X137863Y285735D01*
X137721Y285949D01*
X137458Y286125D01*
X137324Y286151D01*
X137266Y286365D01*
X137268Y286476D01*
X135199D01*
X135202Y286431D01*
X135135Y286139D01*
X135062Y286125D01*
X134799Y285949D01*
X134623Y285686D01*
X134562Y285376D01*
Y284914D01*
X132132D01*
X129264Y287782D01*
Y297674D01*
X129457Y298095D01*
X129925D01*
Y300866D01*
X134925D01*
Y298095D01*
X135394D01*
Y298405D01*
X135857Y298495D01*
X135857Y298495D01*
X135857Y298495D01*
X140994D01*
Y303238D01*
X139278D01*
X139273Y303265D01*
X139074Y303562D01*
X138343Y304294D01*
X138550Y304794D01*
X140994D01*
Y306248D01*
X141857D01*
Y304794D01*
X146910D01*
Y303238D01*
X141857D01*
Y298495D01*
X146994D01*
Y299409D01*
X147323Y299745D01*
X147752Y299830D01*
X148116Y300073D01*
X148301Y300258D01*
X148775Y300025D01*
X148668Y299213D01*
Y295748D01*
X148824Y294564D01*
X149031Y294062D01*
X148608Y293779D01*
X147630Y294756D01*
X147300Y294977D01*
X146909Y295055D01*
X145438D01*
Y295415D01*
X145377Y295725D01*
X145201Y295988D01*
X144938Y296164D01*
X144628Y296226D01*
X142852D01*
X142542Y296164D01*
X142279Y295988D01*
X142137Y295775D01*
X141870Y295748D01*
X141604Y295775D01*
X141461Y295988D01*
X141198Y296164D01*
X140888Y296226D01*
X139112D01*
X138802Y296164D01*
X138701Y296097D01*
X138167Y296145D01*
X138070Y296186D01*
X138273Y295882D01*
X138334Y295578D01*
X138302Y295415D01*
Y294035D01*
X136260D01*
Y291535D01*
X134786D01*
X134794Y291476D01*
X137685D01*
X137706Y291592D01*
X138009Y291794D01*
X138070Y291885D01*
X138167Y291926D01*
X138701Y291974D01*
X138802Y291907D01*
X139112Y291845D01*
X140888D01*
X141198Y291907D01*
X141461Y292082D01*
X141604Y292296D01*
X141870Y292322D01*
X142137Y292296D01*
X142279Y292082D01*
X142542Y291907D01*
X142852Y291845D01*
X144628D01*
X144938Y291907D01*
X145201Y292082D01*
X145377Y292345D01*
X145438Y292655D01*
Y293016D01*
X146487D01*
X147862Y291641D01*
X148193Y291420D01*
X148583Y291343D01*
X149841D01*
Y290089D01*
X156159D01*
Y290731D01*
X158110D01*
X158735Y290855D01*
X159264Y291209D01*
X160440Y292384D01*
X161258D01*
Y290266D01*
X166526D01*
Y272835D01*
Y232765D01*
X161258D01*
Y225535D01*
X161258Y225266D01*
X160854Y225035D01*
X160854Y225035D01*
X160020D01*
X159794Y225579D01*
X159298Y226227D01*
X158650Y226724D01*
X157896Y227036D01*
X157087Y227143D01*
X156277Y227036D01*
X155523Y226724D01*
X154876Y226227D01*
X154379Y225579D01*
X154066Y224825D01*
X153960Y224016D01*
X154066Y223206D01*
X154379Y222452D01*
X154876Y221805D01*
X155523Y221308D01*
X155700Y221235D01*
X155817Y220645D01*
X155185Y220012D01*
X154964Y219682D01*
X154886Y219291D01*
Y219104D01*
X153534D01*
Y213967D01*
X158277D01*
Y219104D01*
X157813D01*
X157622Y219566D01*
X157808Y219752D01*
X158029Y220082D01*
X158106Y220472D01*
Y221083D01*
X158650Y221308D01*
X159298Y221805D01*
X159794Y222452D01*
X160020Y222996D01*
X162570D01*
X170480Y215086D01*
Y210206D01*
X170207Y210152D01*
X169942Y209975D01*
X169765Y209710D01*
X169703Y209398D01*
Y204091D01*
X169765Y203778D01*
X169942Y203513D01*
X170207Y203336D01*
X170520Y203274D01*
X172480D01*
X172793Y203336D01*
X173058Y203513D01*
X173235Y203778D01*
X173297Y204091D01*
Y209398D01*
X173235Y209710D01*
X173058Y209975D01*
X172793Y210152D01*
X172520Y210206D01*
Y215508D01*
X172442Y215898D01*
X172221Y216229D01*
X163713Y224737D01*
X163669Y224766D01*
X163821Y225266D01*
X166526D01*
Y224756D01*
X166650Y224132D01*
X167004Y223602D01*
X169319Y221287D01*
X169848Y220934D01*
X170473Y220810D01*
X186726D01*
X189251Y218285D01*
Y209537D01*
X188117D01*
Y205975D01*
X193647D01*
Y209537D01*
X192513D01*
Y218961D01*
X192389Y219585D01*
X192035Y220114D01*
X188555Y223594D01*
X188026Y223948D01*
X187402Y224072D01*
X171148D01*
X170416Y224804D01*
X170608Y225266D01*
X175057D01*
Y232765D01*
X169789D01*
Y271125D01*
X188117D01*
Y270975D01*
X193647D01*
Y274537D01*
X188117D01*
Y274387D01*
X169789D01*
Y290266D01*
X175057D01*
Y297765D01*
X161258D01*
Y295647D01*
X159764D01*
X159140Y295523D01*
X158610Y295169D01*
X158194Y294753D01*
X157720Y294986D01*
X157820Y295748D01*
Y299213D01*
X157664Y300397D01*
X157207Y301501D01*
X156480Y302448D01*
X155532Y303176D01*
X154429Y303633D01*
X153973Y303693D01*
Y311691D01*
X155624D01*
Y316435D01*
X150487D01*
Y314533D01*
X150023Y314235D01*
X149987Y314240D01*
X149546Y314900D01*
X148851Y315364D01*
X148031Y315527D01*
X147212Y315364D01*
X146518Y314900D01*
X146053Y314205D01*
X145985Y313863D01*
X145765Y313750D01*
X145446Y313716D01*
X145406Y313761D01*
Y321709D01*
X146002Y322108D01*
X146466Y322803D01*
X146629Y323622D01*
X146466Y324441D01*
X146002Y325136D01*
X145308Y325600D01*
X144488Y325763D01*
D02*
G37*
G36*
X164976Y219504D02*
X164705D01*
Y219035D01*
X164976D01*
Y219504D01*
D02*
G37*
G36*
X159705D02*
X159433D01*
Y219035D01*
X159705D01*
Y219504D01*
D02*
G37*
G36*
X468504Y335086D02*
X467371Y334937D01*
X466315Y334500D01*
X465409Y333804D01*
X464713Y332897D01*
X464276Y331842D01*
X464126Y330709D01*
X464276Y329576D01*
X464713Y328520D01*
X465409Y327613D01*
X466315Y326918D01*
X467371Y326480D01*
X468504Y326331D01*
X469637Y326480D01*
X470693Y326918D01*
X471599Y327613D01*
X472295Y328520D01*
X472732Y329576D01*
X472882Y330709D01*
X472732Y331842D01*
X472295Y332897D01*
X471599Y333804D01*
X470693Y334500D01*
X469637Y334937D01*
X468504Y335086D01*
D02*
G37*
G36*
X322500Y214056D02*
Y212500D01*
X324057D01*
X323381Y213381D01*
X322500Y214056D01*
D02*
G37*
G36*
X164976Y214035D02*
X164705D01*
Y213567D01*
X164976D01*
Y214035D01*
D02*
G37*
G36*
X159705D02*
X159433D01*
Y213567D01*
X159705D01*
Y214035D01*
D02*
G37*
G36*
X468504Y385086D02*
X467371Y384937D01*
X466315Y384500D01*
X465409Y383804D01*
X464713Y382897D01*
X464276Y381842D01*
X464126Y380709D01*
X464276Y379576D01*
X464713Y378520D01*
X465409Y377613D01*
X466315Y376918D01*
X467371Y376480D01*
X468504Y376331D01*
X469637Y376480D01*
X470693Y376918D01*
X471599Y377613D01*
X472295Y378520D01*
X472732Y379576D01*
X472882Y380709D01*
X472732Y381842D01*
X472295Y382897D01*
X471599Y383804D01*
X470693Y384500D01*
X469637Y384937D01*
X468504Y385086D01*
D02*
G37*
G36*
X450831Y388025D02*
X450059Y387871D01*
X449405Y387434D01*
X448968Y386780D01*
X448814Y386008D01*
Y378528D01*
X448968Y377756D01*
X449405Y377102D01*
X449416Y376986D01*
X448888Y376459D01*
X448425Y376551D01*
X447962Y376459D01*
X447282Y377139D01*
X447694Y377756D01*
X447847Y378528D01*
Y386008D01*
X447694Y386780D01*
X447257Y387434D01*
X446602Y387871D01*
X445831Y388025D01*
X445059Y387871D01*
X444405Y387434D01*
X443967Y386780D01*
X443814Y386008D01*
Y378528D01*
X443967Y377756D01*
X444405Y377101D01*
X444733Y376882D01*
X444795Y376575D01*
X445038Y376211D01*
X446376Y374872D01*
X446284Y374410D01*
X446447Y373590D01*
X446911Y372895D01*
X447606Y372431D01*
X448425Y372268D01*
X449245Y372431D01*
X449939Y372895D01*
X450403Y373590D01*
X450566Y374410D01*
X450474Y374872D01*
X451624Y376022D01*
X451624Y376022D01*
X451867Y376386D01*
X451952Y376815D01*
Y376898D01*
X452257Y377101D01*
X452694Y377756D01*
X452847Y378528D01*
Y386008D01*
X452694Y386780D01*
X452257Y387434D01*
X451603Y387871D01*
X450831Y388025D01*
D02*
G37*
G36*
X135831D02*
X135059Y387871D01*
X134405Y387434D01*
X133967Y386780D01*
X133814Y386008D01*
Y378528D01*
X133967Y377756D01*
X134405Y377101D01*
X134913Y376762D01*
Y375932D01*
X134317Y375534D01*
X133853Y374839D01*
X133690Y374020D01*
X133853Y373200D01*
X134317Y372506D01*
X135011Y372042D01*
X135831Y371879D01*
X136650Y372042D01*
X137345Y372506D01*
X137809Y373200D01*
X137972Y374020D01*
X137809Y374839D01*
X137345Y375534D01*
X136748Y375932D01*
Y376762D01*
X137257Y377101D01*
X137694Y377756D01*
X137847Y378528D01*
Y386008D01*
X137694Y386780D01*
X137257Y387434D01*
X136602Y387871D01*
X135831Y388025D01*
D02*
G37*
G36*
X160831D02*
X160059Y387871D01*
X159405Y387434D01*
X158967Y386780D01*
X158814Y386008D01*
Y378528D01*
X158967Y377756D01*
X159301Y377256D01*
Y375985D01*
X158716Y375536D01*
X158404Y375129D01*
X157809Y375081D01*
X157775Y375097D01*
X157360Y375511D01*
Y377256D01*
X157694Y377756D01*
X157847Y378528D01*
Y386008D01*
X157694Y386780D01*
X157257Y387434D01*
X156603Y387871D01*
X155831Y388025D01*
X155059Y387871D01*
X154405Y387434D01*
X153967Y386780D01*
X153814Y386008D01*
Y378528D01*
X153967Y377756D01*
X154301Y377256D01*
Y374878D01*
X154418Y374293D01*
X154749Y373797D01*
X156302Y372243D01*
X156799Y371912D01*
X157384Y371795D01*
X158205D01*
X158219Y371761D01*
X158716Y371114D01*
X159364Y370617D01*
X160118Y370305D01*
X160927Y370198D01*
X161736Y370305D01*
X162490Y370617D01*
X163138Y371114D01*
X163635Y371761D01*
X163947Y372516D01*
X164054Y373325D01*
X163947Y374134D01*
X163635Y374888D01*
X163138Y375536D01*
X162490Y376033D01*
X162360Y376087D01*
Y377256D01*
X162694Y377756D01*
X162847Y378528D01*
Y386008D01*
X162694Y386780D01*
X162257Y387434D01*
X161602Y387871D01*
X160831Y388025D01*
D02*
G37*
G36*
X280000Y204378D02*
X278867Y204228D01*
X277811Y203791D01*
X276905Y203095D01*
X276209Y202189D01*
X275772Y201133D01*
X275622Y200000D01*
X275772Y198867D01*
X276209Y197811D01*
X276905Y196905D01*
X277811Y196209D01*
X278867Y195772D01*
X280000Y195622D01*
X281133Y195772D01*
X282189Y196209D01*
X283095Y196905D01*
X283791Y197811D01*
X284228Y198867D01*
X284378Y200000D01*
X284228Y201133D01*
X283791Y202189D01*
X283095Y203095D01*
X282189Y203791D01*
X281133Y204228D01*
X280000Y204378D01*
D02*
G37*
G36*
X260000D02*
X258867Y204228D01*
X257811Y203791D01*
X256905Y203095D01*
X256209Y202189D01*
X255772Y201133D01*
X255622Y200000D01*
X255772Y198867D01*
X256209Y197811D01*
X256905Y196905D01*
X257811Y196209D01*
X258867Y195772D01*
X260000Y195622D01*
X261133Y195772D01*
X262189Y196209D01*
X263095Y196905D01*
X263791Y197811D01*
X264228Y198867D01*
X264378Y200000D01*
X264228Y201133D01*
X263791Y202189D01*
X263095Y203095D01*
X262189Y203791D01*
X261133Y204228D01*
X260000Y204378D01*
D02*
G37*
G36*
X290000D02*
X288867Y204228D01*
X287811Y203791D01*
X286905Y203095D01*
X286209Y202189D01*
X285772Y201133D01*
X285622Y200000D01*
X285772Y198867D01*
X286209Y197811D01*
X286905Y196905D01*
X287811Y196209D01*
X288867Y195772D01*
X290000Y195622D01*
X291133Y195772D01*
X292189Y196209D01*
X293095Y196905D01*
X293791Y197811D01*
X294228Y198867D01*
X294378Y200000D01*
X294228Y201133D01*
X293791Y202189D01*
X293095Y203095D01*
X292189Y203791D01*
X291133Y204228D01*
X290000Y204378D01*
D02*
G37*
G36*
X399616Y388002D02*
X394872D01*
Y386555D01*
X392769D01*
Y386738D01*
X392707Y387048D01*
X392532Y387311D01*
X392269Y387487D01*
X391959Y387549D01*
X390183D01*
X389873Y387487D01*
X389610Y387311D01*
X389434Y387048D01*
X389373Y386738D01*
Y383978D01*
X389434Y383668D01*
X389610Y383405D01*
X389873Y383230D01*
X390183Y383168D01*
X391959D01*
X392269Y383230D01*
X392532Y383405D01*
X392707Y383668D01*
X392769Y383978D01*
Y384312D01*
X394872D01*
Y382865D01*
X396123D01*
Y380315D01*
X396123Y380315D01*
X396208Y379886D01*
X396451Y379522D01*
X399792Y376181D01*
Y375214D01*
X398542D01*
Y374358D01*
X397646D01*
X397217Y374272D01*
X396853Y374029D01*
X396853Y374029D01*
X396425Y373602D01*
X395883D01*
X395849Y373773D01*
X395672Y374038D01*
X395638Y374061D01*
Y374640D01*
X395672Y374663D01*
X395849Y374928D01*
X395911Y375240D01*
Y377201D01*
X395849Y377513D01*
X395672Y377778D01*
X395407Y377955D01*
X395094Y378017D01*
X391559D01*
X391247Y377955D01*
X390982Y377778D01*
X390805Y377513D01*
X390394Y377342D01*
X389965Y377257D01*
X389601Y377013D01*
X389601Y377013D01*
X388971Y376384D01*
X388728Y376020D01*
X388642Y375590D01*
X388642Y375590D01*
Y367323D01*
X388642Y367323D01*
X388728Y366894D01*
X388971Y366530D01*
X389430Y366071D01*
Y365364D01*
X388573D01*
Y360620D01*
X392529D01*
Y365364D01*
X391673D01*
Y366535D01*
X391673Y366535D01*
X391669Y366557D01*
X391986Y366943D01*
X395094D01*
X395407Y367005D01*
X395672Y367182D01*
X395770Y367329D01*
X396211Y367425D01*
X396352Y367416D01*
X396837Y366931D01*
X396837Y366931D01*
X397201Y366688D01*
X397630Y366603D01*
X397630Y366603D01*
X398542D01*
Y365746D01*
X403285D01*
Y365848D01*
X403785Y366082D01*
X404299Y365738D01*
X405118Y365575D01*
X405937Y365738D01*
X406632Y366202D01*
X407096Y366897D01*
X407259Y367717D01*
X407096Y368536D01*
X406632Y369231D01*
X405937Y369695D01*
X405118Y369858D01*
X404299Y369695D01*
X403785Y369352D01*
X403285Y369584D01*
Y369702D01*
X398542D01*
Y368973D01*
X398042Y368899D01*
X397407Y369533D01*
X397043Y369776D01*
X396614Y369862D01*
X396614Y369862D01*
X395883D01*
X395849Y370033D01*
X395672Y370298D01*
X395638Y370321D01*
Y370900D01*
X395672Y370923D01*
X395849Y371188D01*
X395883Y371359D01*
X396890D01*
X396890Y371359D01*
X397319Y371444D01*
X397683Y371687D01*
X398042Y372046D01*
X398542Y371949D01*
Y371258D01*
X403285D01*
Y375214D01*
X402035D01*
Y376646D01*
X402035Y376646D01*
X401950Y377075D01*
X401707Y377439D01*
X401706Y377439D01*
X398366Y380780D01*
Y382865D01*
X399616D01*
Y388002D01*
D02*
G37*
G36*
X177480Y210214D02*
X175520D01*
X175207Y210152D01*
X174942Y209975D01*
X174765Y209710D01*
X174703Y209398D01*
Y204091D01*
X174765Y203778D01*
X174942Y203513D01*
X175207Y203336D01*
X175520Y203274D01*
X175582D01*
Y203028D01*
X175652Y202676D01*
X175851Y202379D01*
X176713Y201517D01*
X177011Y201318D01*
X177362Y201248D01*
X180174D01*
X180573Y200651D01*
X181267Y200187D01*
X182087Y200024D01*
X182906Y200187D01*
X183601Y200651D01*
X184065Y201346D01*
X184228Y202165D01*
X184065Y202985D01*
X183601Y203679D01*
X182906Y204144D01*
X182087Y204307D01*
X181267Y204144D01*
X180573Y203679D01*
X180174Y203083D01*
X178314D01*
X178184Y203302D01*
X178104Y203583D01*
X178235Y203778D01*
X178297Y204091D01*
Y209398D01*
X178235Y209710D01*
X178058Y209975D01*
X177793Y210152D01*
X177480Y210214D01*
D02*
G37*
G36*
X435000Y212521D02*
X433725Y212396D01*
X432498Y212024D01*
X431368Y211420D01*
X430378Y210607D01*
X429565Y209616D01*
X428961Y208486D01*
X428589Y207259D01*
X428463Y205984D01*
X428589Y204709D01*
X428961Y203483D01*
X429565Y202352D01*
X430378Y201362D01*
X431368Y200549D01*
X432498Y199945D01*
X433725Y199573D01*
X435000Y199447D01*
X436275Y199573D01*
X437502Y199945D01*
X438632Y200549D01*
X439622Y201362D01*
X440435Y202352D01*
X441039Y203483D01*
X441411Y204709D01*
X441537Y205984D01*
X441411Y207259D01*
X441039Y208486D01*
X440435Y209616D01*
X439622Y210607D01*
X438632Y211420D01*
X437502Y212024D01*
X436275Y212396D01*
X435000Y212521D01*
D02*
G37*
G36*
X466004Y354765D02*
X465123Y354089D01*
X464447Y353209D01*
X466004D01*
Y354765D01*
D02*
G37*
G36*
X471004Y354765D02*
Y353209D01*
X472560D01*
X471885Y354089D01*
X471004Y354765D01*
D02*
G37*
G36*
X384268Y370537D02*
X382500D01*
X380732D01*
X380420Y370475D01*
X380155Y370298D01*
X379978Y370033D01*
X379978Y370033D01*
X379916Y369721D01*
Y367760D01*
X379978Y367447D01*
X380155Y367182D01*
X380420Y367005D01*
X380732Y366943D01*
X381379D01*
Y363957D01*
X381379Y363957D01*
X381464Y363527D01*
X381707Y363164D01*
X382671Y362199D01*
X383035Y361956D01*
X383061Y361951D01*
Y360620D01*
X387017D01*
Y365364D01*
X383622D01*
Y366943D01*
X384268D01*
X384580Y367005D01*
X384845Y367182D01*
X385022Y367447D01*
X385084Y367760D01*
Y369721D01*
X385022Y370033D01*
X385022Y370033D01*
X384845Y370298D01*
X384580Y370475D01*
X384268Y370537D01*
D02*
G37*
G36*
X320000Y204378D02*
X318867Y204228D01*
X317811Y203791D01*
X316905Y203095D01*
X316209Y202189D01*
X315772Y201133D01*
X315622Y200000D01*
X315772Y198867D01*
X316209Y197811D01*
X316905Y196905D01*
X317811Y196209D01*
X318867Y195772D01*
X320000Y195622D01*
X321133Y195772D01*
X322189Y196209D01*
X323095Y196905D01*
X323791Y197811D01*
X324228Y198867D01*
X324378Y200000D01*
X324228Y201133D01*
X323791Y202189D01*
X323095Y203095D01*
X322189Y203791D01*
X321133Y204228D01*
X320000Y204378D01*
D02*
G37*
G36*
X365000Y212521D02*
X363725Y212396D01*
X362498Y212024D01*
X361368Y211420D01*
X360378Y210607D01*
X359565Y209616D01*
X358961Y208486D01*
X358589Y207259D01*
X358463Y205984D01*
X358589Y204709D01*
X358961Y203483D01*
X359565Y202352D01*
X360378Y201362D01*
X361368Y200549D01*
X362498Y199945D01*
X363725Y199573D01*
X365000Y199447D01*
X366275Y199573D01*
X367502Y199945D01*
X368632Y200549D01*
X369622Y201362D01*
X370435Y202352D01*
X371039Y203483D01*
X371411Y204709D01*
X371537Y205984D01*
X371411Y207259D01*
X371039Y208486D01*
X370435Y209616D01*
X369622Y210607D01*
X368632Y211420D01*
X367502Y212024D01*
X366275Y212396D01*
X365000Y212521D01*
D02*
G37*
G36*
X133000Y211537D02*
X131725Y211411D01*
X130498Y211039D01*
X129368Y210435D01*
X128378Y209622D01*
X127565Y208632D01*
X126961Y207502D01*
X126589Y206275D01*
X126463Y205000D01*
X126589Y203725D01*
X126961Y202498D01*
X127565Y201368D01*
X128378Y200378D01*
X129368Y199565D01*
X130498Y198961D01*
X131725Y198589D01*
X133000Y198463D01*
X134275Y198589D01*
X135502Y198961D01*
X136632Y199565D01*
X137622Y200378D01*
X138435Y201368D01*
X139039Y202498D01*
X139411Y203725D01*
X139537Y205000D01*
X139411Y206275D01*
X139039Y207502D01*
X138435Y208632D01*
X137622Y209622D01*
X136632Y210435D01*
X135502Y211039D01*
X134275Y211411D01*
X133000Y211537D01*
D02*
G37*
G36*
X232780Y298362D02*
X230343D01*
Y296516D01*
X232780D01*
Y298362D01*
D02*
G37*
G36*
X182283Y253914D02*
X181474Y253808D01*
X180720Y253495D01*
X180072Y252998D01*
X179576Y252351D01*
X179263Y251597D01*
X179157Y250787D01*
X179263Y249978D01*
X179576Y249224D01*
X180072Y248576D01*
X180720Y248080D01*
X181474Y247767D01*
X182283Y247661D01*
X183093Y247767D01*
X183847Y248080D01*
X184494Y248576D01*
X184932Y249146D01*
X185232Y249108D01*
X185432Y249011D01*
Y248495D01*
X190568D01*
Y253238D01*
X185432D01*
Y252564D01*
X185232Y252467D01*
X184932Y252429D01*
X184494Y252998D01*
X183847Y253495D01*
X183093Y253808D01*
X182283Y253914D01*
D02*
G37*
G36*
X193647Y267057D02*
X188117D01*
Y266218D01*
X188114Y266218D01*
X187783Y265997D01*
X187279Y265493D01*
X187058Y265162D01*
X186980Y264772D01*
Y259537D01*
X185432D01*
Y254794D01*
X190568D01*
Y256146D01*
X193200D01*
X193862Y255483D01*
Y253584D01*
X192479D01*
Y248447D01*
X197222D01*
Y253584D01*
X195902D01*
Y255906D01*
X195824Y256296D01*
X195603Y256627D01*
X194343Y257886D01*
X194012Y258107D01*
X193622Y258185D01*
X190568D01*
Y259537D01*
X189020D01*
Y263494D01*
X193647D01*
Y267057D01*
D02*
G37*
G36*
X203921Y248516D02*
X203650D01*
Y248047D01*
X203921D01*
Y248516D01*
D02*
G37*
G36*
X437175Y273435D02*
X432825D01*
Y268691D01*
X433471D01*
Y261934D01*
X432116Y261373D01*
X430922Y260456D01*
X430005Y259262D01*
X429429Y257871D01*
X429233Y256378D01*
X429429Y254885D01*
X430005Y253494D01*
X430922Y252300D01*
X432116Y251383D01*
X433507Y250807D01*
X435000Y250610D01*
X436493Y250807D01*
X437884Y251383D01*
X439078Y252300D01*
X439995Y253494D01*
X440571Y254885D01*
X440767Y256378D01*
X440571Y257871D01*
X439995Y259262D01*
X439078Y260456D01*
X437884Y261373D01*
X436529Y261934D01*
Y268691D01*
X437175D01*
Y273435D01*
D02*
G37*
G36*
X198650Y253984D02*
X198378D01*
Y253516D01*
X198650D01*
Y253984D01*
D02*
G37*
G36*
X471004Y254057D02*
Y252500D01*
X472560D01*
X471885Y253381D01*
X471004Y254057D01*
D02*
G37*
G36*
X466004Y254057D02*
X465123Y253381D01*
X464447Y252500D01*
X466004D01*
Y254057D01*
D02*
G37*
G36*
X198650Y248516D02*
X198378D01*
Y248047D01*
X198650D01*
Y248516D01*
D02*
G37*
G36*
X435000Y240492D02*
X433507Y240295D01*
X432116Y239719D01*
X430922Y238803D01*
X430005Y237608D01*
X429429Y236217D01*
X429233Y234724D01*
X429429Y233232D01*
X430005Y231841D01*
X430922Y230646D01*
X432116Y229730D01*
X433507Y229153D01*
X435000Y228957D01*
X436493Y229153D01*
X437884Y229730D01*
X439078Y230646D01*
X439995Y231841D01*
X440571Y233232D01*
X440767Y234724D01*
X440571Y236217D01*
X439995Y237608D01*
X439078Y238803D01*
X437884Y239719D01*
X436493Y240295D01*
X435000Y240492D01*
D02*
G37*
G36*
X373268D02*
X371775Y240295D01*
X370384Y239719D01*
X369190Y238803D01*
X368273Y237608D01*
X367697Y236217D01*
X367500Y234724D01*
X367697Y233232D01*
X368273Y231841D01*
X369190Y230646D01*
X370384Y229730D01*
X371775Y229153D01*
X373268Y228957D01*
X374760Y229153D01*
X376151Y229730D01*
X377346Y230646D01*
X378262Y231841D01*
X378839Y233232D01*
X379035Y234724D01*
X378839Y236217D01*
X378262Y237608D01*
X377346Y238803D01*
X376151Y239719D01*
X374760Y240295D01*
X373268Y240492D01*
D02*
G37*
G36*
X356732D02*
X355240Y240295D01*
X353849Y239719D01*
X352654Y238803D01*
X351737Y237608D01*
X351161Y236217D01*
X350965Y234724D01*
X351161Y233232D01*
X351737Y231841D01*
X352654Y230646D01*
X353849Y229730D01*
X355240Y229153D01*
X356732Y228957D01*
X358225Y229153D01*
X359616Y229730D01*
X360810Y230646D01*
X361727Y231841D01*
X362303Y233232D01*
X362500Y234724D01*
X362303Y236217D01*
X361727Y237608D01*
X360810Y238803D01*
X359616Y239719D01*
X358225Y240295D01*
X356732Y240492D01*
D02*
G37*
G36*
X141268Y239508D02*
X139775Y239311D01*
X138384Y238735D01*
X137189Y237818D01*
X136273Y236624D01*
X135697Y235233D01*
X135500Y233740D01*
X135697Y232247D01*
X136273Y230856D01*
X137189Y229662D01*
X138384Y228745D01*
X139775Y228169D01*
X141268Y227973D01*
X142760Y228169D01*
X144151Y228745D01*
X145346Y229662D01*
X146263Y230856D01*
X146839Y232247D01*
X147035Y233740D01*
X146839Y235233D01*
X146263Y236624D01*
X145346Y237818D01*
X144151Y238735D01*
X142760Y239311D01*
X141268Y239508D01*
D02*
G37*
G36*
X466004Y247500D02*
X464447D01*
X465123Y246619D01*
X466004Y245943D01*
Y247500D01*
D02*
G37*
G36*
X472561D02*
X471004D01*
Y245943D01*
X471885Y246619D01*
X472561Y247500D01*
D02*
G37*
G36*
X120000Y284378D02*
X118867Y284228D01*
X117811Y283791D01*
X116905Y283095D01*
X116209Y282189D01*
X115772Y281133D01*
X115622Y280000D01*
X115772Y278867D01*
X116209Y277811D01*
X116905Y276905D01*
X117811Y276209D01*
X118867Y275772D01*
X120000Y275622D01*
X121133Y275772D01*
X122189Y276209D01*
X123095Y276905D01*
X123791Y277811D01*
X124228Y278867D01*
X124243Y278980D01*
X126271D01*
X126933Y278318D01*
Y265383D01*
X124011Y262461D01*
X123790Y262130D01*
X123713Y261740D01*
Y261027D01*
X123240Y260965D01*
X121849Y260388D01*
X120654Y259472D01*
X119738Y258277D01*
X119161Y256886D01*
X118965Y255394D01*
X119161Y253901D01*
X119738Y252510D01*
X120654Y251315D01*
X121849Y250399D01*
X123240Y249823D01*
X124732Y249626D01*
X126225Y249823D01*
X127616Y250399D01*
X127995Y250689D01*
X130476Y248208D01*
Y236121D01*
X129976Y236022D01*
X129727Y236624D01*
X128811Y237818D01*
X127616Y238735D01*
X126225Y239311D01*
X124732Y239508D01*
X123240Y239311D01*
X121849Y238735D01*
X121470Y238444D01*
X118342Y241572D01*
Y258239D01*
X124146Y264043D01*
X124367Y264374D01*
X124445Y264764D01*
Y265935D01*
X126092D01*
Y272647D01*
X120758D01*
Y265935D01*
X122406D01*
Y265186D01*
X116602Y259382D01*
X116381Y259052D01*
X116303Y258661D01*
Y241150D01*
X116381Y240759D01*
X116602Y240429D01*
X120028Y237002D01*
X119738Y236624D01*
X119161Y235233D01*
X118965Y233740D01*
X119161Y232247D01*
X119738Y230856D01*
X120654Y229662D01*
X121849Y228745D01*
X123240Y228169D01*
X124732Y227973D01*
X126225Y228169D01*
X127616Y228745D01*
X128102Y229118D01*
X165480Y191739D01*
Y188750D01*
X165207Y188695D01*
X164942Y188518D01*
X164765Y188253D01*
X164703Y187941D01*
Y182634D01*
X164765Y182321D01*
X164942Y182056D01*
X165207Y181879D01*
X165520Y181817D01*
X167480D01*
X167793Y181879D01*
X168058Y182056D01*
X168235Y182321D01*
X168297Y182634D01*
Y187941D01*
X168235Y188253D01*
X168058Y188518D01*
X167793Y188695D01*
X167520Y188750D01*
Y191409D01*
X167982Y191600D01*
X170349Y189233D01*
X170238Y188701D01*
X170207Y188695D01*
X169942Y188518D01*
X169765Y188253D01*
X169703Y187941D01*
Y182634D01*
X169765Y182321D01*
X169942Y182056D01*
X170207Y181879D01*
X170520Y181817D01*
X172480D01*
X172793Y181879D01*
X173058Y182056D01*
X173235Y182321D01*
X173297Y182634D01*
Y187941D01*
X173235Y188253D01*
X173058Y188518D01*
X172793Y188695D01*
X172520Y188750D01*
Y189524D01*
X172442Y189914D01*
X172221Y190245D01*
X165091Y197375D01*
X165255Y197917D01*
X165780Y198022D01*
X166475Y198486D01*
X166939Y199181D01*
X167102Y200000D01*
X166939Y200819D01*
X166475Y201514D01*
X165780Y201978D01*
X164961Y202141D01*
X164141Y201978D01*
X163447Y201514D01*
X162987Y201469D01*
X162418Y202038D01*
Y203274D01*
X162480D01*
X162793Y203336D01*
X163058Y203513D01*
X163235Y203778D01*
X163297Y204091D01*
Y209398D01*
X163235Y209710D01*
X163058Y209975D01*
X162793Y210152D01*
X162480Y210214D01*
X160520D01*
X160207Y210152D01*
X159942Y209975D01*
X159765Y209710D01*
X159703Y209398D01*
Y204091D01*
X159765Y203778D01*
X159942Y203513D01*
X160207Y203336D01*
X160520Y203274D01*
X160582D01*
Y202537D01*
X160120Y202345D01*
X132516Y229950D01*
Y248630D01*
X132438Y249020D01*
X132217Y249351D01*
X129437Y252131D01*
X129727Y252510D01*
X130303Y253901D01*
X130500Y255394D01*
X130303Y256886D01*
X129727Y258277D01*
X128811Y259472D01*
X127616Y260388D01*
X126225Y260965D01*
X126120Y260979D01*
X125941Y261506D01*
X128674Y264240D01*
X128895Y264570D01*
X128972Y264961D01*
Y278740D01*
X128895Y279130D01*
X128674Y279461D01*
X127414Y280721D01*
X127083Y280942D01*
X126693Y281020D01*
X124243D01*
X124228Y281133D01*
X123791Y282189D01*
X123095Y283095D01*
X122189Y283791D01*
X121133Y284228D01*
X120000Y284378D01*
D02*
G37*
G36*
X203921Y253984D02*
X203650D01*
Y253516D01*
X203921D01*
Y253984D01*
D02*
G37*
G36*
X187795Y303914D02*
X186986Y303808D01*
X186232Y303495D01*
X185584Y302998D01*
X185087Y302351D01*
X184775Y301597D01*
X184669Y300787D01*
X184775Y299978D01*
X185087Y299224D01*
X185584Y298576D01*
X185654Y298523D01*
Y297765D01*
X180943D01*
Y290266D01*
X194742D01*
Y297765D01*
X189936D01*
Y298523D01*
X190006Y298576D01*
X190503Y299224D01*
X190815Y299978D01*
X190922Y300787D01*
X190815Y301597D01*
X190503Y302351D01*
X190006Y302998D01*
X189359Y303495D01*
X188604Y303808D01*
X187795Y303914D01*
D02*
G37*
G36*
X232780Y291516D02*
X230343D01*
Y289669D01*
X232780D01*
Y291516D01*
D02*
G37*
G36*
X225342D02*
X222905D01*
Y289669D01*
X225342D01*
Y291516D01*
D02*
G37*
G36*
X187795Y239741D02*
X186986Y239634D01*
X186232Y239322D01*
X185584Y238825D01*
X185087Y238177D01*
X184775Y237423D01*
X184669Y236614D01*
X184775Y235805D01*
X185087Y235051D01*
X185584Y234403D01*
X185654Y234350D01*
Y232765D01*
X180943D01*
Y225266D01*
X194742D01*
Y232765D01*
X189936D01*
Y234350D01*
X190006Y234403D01*
X190503Y235051D01*
X190815Y235805D01*
X190922Y236614D01*
X190815Y237423D01*
X190503Y238177D01*
X190006Y238825D01*
X189359Y239322D01*
X188604Y239634D01*
X187795Y239741D01*
D02*
G37*
G36*
X225342Y298362D02*
X222905D01*
Y296516D01*
X225342D01*
Y298362D01*
D02*
G37*
G36*
X468504Y304378D02*
X467371Y304228D01*
X466315Y303791D01*
X465409Y303095D01*
X464713Y302189D01*
X464276Y301133D01*
X464126Y300000D01*
X464276Y298867D01*
X464713Y297811D01*
X465409Y296905D01*
X466315Y296209D01*
X467371Y295772D01*
X468504Y295622D01*
X469637Y295772D01*
X470693Y296209D01*
X471599Y296905D01*
X472295Y297811D01*
X472732Y298867D01*
X472882Y300000D01*
X472732Y301133D01*
X472295Y302189D01*
X471599Y303095D01*
X470693Y303791D01*
X469637Y304228D01*
X468504Y304378D01*
D02*
G37*
G36*
X358652Y293907D02*
X358474D01*
Y293907D01*
X358474Y293907D01*
X355234D01*
X354912Y293907D01*
X354823D01*
X354734D01*
X354412Y293907D01*
X351172D01*
Y292059D01*
X343898D01*
X343547Y291989D01*
X343249Y291791D01*
X339902Y288444D01*
X339703Y288146D01*
X339634Y287795D01*
Y262936D01*
X339037Y262538D01*
X338573Y261843D01*
X338410Y261024D01*
X338573Y260204D01*
X339037Y259510D01*
X339732Y259046D01*
X340551Y258882D01*
X341371Y259046D01*
X342065Y259510D01*
X342529Y260204D01*
X342692Y261024D01*
X342529Y261843D01*
X342065Y262538D01*
X341469Y262936D01*
Y287415D01*
X344278Y290224D01*
X351172D01*
Y288376D01*
X354412D01*
X354734Y288376D01*
X355030Y287999D01*
Y282867D01*
X354734Y282490D01*
X354412Y282490D01*
X351172D01*
Y282150D01*
X349312D01*
X349201Y282235D01*
X348447Y282548D01*
X347638Y282654D01*
X346829Y282548D01*
X346074Y282235D01*
X345427Y281738D01*
X344930Y281091D01*
X344618Y280337D01*
X344511Y279528D01*
X344618Y278718D01*
X344930Y277964D01*
X345427Y277317D01*
X346074Y276820D01*
X346829Y276507D01*
X347638Y276401D01*
X348447Y276507D01*
X349201Y276820D01*
X349312Y276905D01*
X351575D01*
X351985Y276959D01*
X354412D01*
X354734Y276959D01*
X355030Y276582D01*
Y270795D01*
X354165Y269930D01*
X353588Y269178D01*
X353225Y268302D01*
X353101Y267362D01*
Y260799D01*
X352654Y260456D01*
X351737Y259262D01*
X351161Y257871D01*
X350965Y256378D01*
X351161Y254885D01*
X351737Y253494D01*
X352654Y252300D01*
X353849Y251383D01*
X355240Y250807D01*
X356732Y250610D01*
X358225Y250807D01*
X359616Y251383D01*
X360810Y252300D01*
X361727Y253494D01*
X362303Y254885D01*
X362500Y256378D01*
X362303Y257871D01*
X361727Y259262D01*
X360810Y260456D01*
X360363Y260799D01*
Y265858D01*
X361229Y266724D01*
X361229Y266724D01*
X361806Y267476D01*
X361956Y267839D01*
X362169Y268352D01*
X362293Y269291D01*
X362293Y269291D01*
Y277161D01*
X362457Y277217D01*
X362792Y277284D01*
X363397Y276820D01*
X364151Y276507D01*
X364961Y276401D01*
X365770Y276507D01*
X366524Y276820D01*
X366635Y276905D01*
X368504D01*
X368914Y276959D01*
X370947D01*
X371269Y276959D01*
X371566Y276582D01*
X371566Y276582D01*
Y270008D01*
X370700Y269142D01*
X370123Y268390D01*
X369760Y267515D01*
X369637Y266575D01*
Y260799D01*
X369190Y260456D01*
X368273Y259262D01*
X367697Y257871D01*
X367500Y256378D01*
X367697Y254885D01*
X368273Y253494D01*
X369190Y252300D01*
X370384Y251383D01*
X371775Y250807D01*
X373268Y250610D01*
X374760Y250807D01*
X376151Y251383D01*
X377346Y252300D01*
X378262Y253494D01*
X378839Y254885D01*
X379035Y256378D01*
X378839Y257871D01*
X378262Y259262D01*
X377346Y260456D01*
X376899Y260799D01*
Y265071D01*
X377764Y265936D01*
X378341Y266688D01*
X378704Y267564D01*
X378828Y268504D01*
Y290158D01*
X378750Y290752D01*
Y293907D01*
X375510D01*
X375187Y293907D01*
Y293907D01*
D01*
X375009D01*
Y293907D01*
X375009Y293907D01*
X371769D01*
X371447Y293907D01*
X371358D01*
X371269D01*
X370947Y293907D01*
X367707D01*
Y291863D01*
X366873D01*
X366475Y292459D01*
X365780Y292923D01*
X364961Y293086D01*
X364141Y292923D01*
X363447Y292459D01*
X362983Y291764D01*
X362820Y290945D01*
X362983Y290125D01*
X363447Y289431D01*
X364141Y288967D01*
X364961Y288804D01*
X365780Y288967D01*
X366475Y289431D01*
X366873Y290027D01*
X367707D01*
Y288376D01*
X370947D01*
X371269Y288376D01*
X371566Y287999D01*
Y282867D01*
X371269Y282490D01*
X370947Y282490D01*
X367707D01*
Y282150D01*
X366635D01*
X366524Y282235D01*
X365770Y282548D01*
X364961Y282654D01*
X364151Y282548D01*
X363397Y282235D01*
X362792Y281771D01*
X362457Y281838D01*
X362293Y281894D01*
Y290158D01*
X362214Y290752D01*
Y293907D01*
X358974D01*
X358652Y293907D01*
X358652Y293907D01*
D02*
G37*
G36*
X468504Y294378D02*
X467371Y294228D01*
X466315Y293791D01*
X465409Y293095D01*
X464713Y292189D01*
X464276Y291133D01*
X464126Y290000D01*
X464276Y288867D01*
X464713Y287811D01*
X465409Y286905D01*
X466315Y286209D01*
X467371Y285772D01*
X468504Y285622D01*
X469637Y285772D01*
X470693Y286209D01*
X471599Y286905D01*
X472295Y287811D01*
X472732Y288867D01*
X472882Y290000D01*
X472732Y291133D01*
X472295Y292189D01*
X471599Y293095D01*
X470693Y293791D01*
X469637Y294228D01*
X468504Y294378D01*
D02*
G37*
G36*
X212695Y297962D02*
X203621D01*
Y290069D01*
X206271D01*
Y276262D01*
X204652Y274642D01*
X201118D01*
X200589Y274537D01*
X198353D01*
Y270975D01*
X198353D01*
X198353Y270975D01*
Y270797D01*
X198353D01*
X198353Y270797D01*
Y267557D01*
X198353Y267235D01*
Y267146D01*
Y267057D01*
X198353Y266735D01*
Y263494D01*
X203884D01*
Y266630D01*
X203884Y267057D01*
X204353Y267129D01*
X204353D01*
X210414D01*
X210663Y266805D01*
X210988Y266556D01*
Y264765D01*
X206258D01*
Y257266D01*
X220057D01*
Y264765D01*
X214760D01*
Y266556D01*
X215085Y266805D01*
X215582Y267452D01*
X215894Y268207D01*
X216001Y269016D01*
X215894Y269825D01*
X215582Y270579D01*
X215085Y271227D01*
X214437Y271724D01*
X213683Y272036D01*
X212874Y272143D01*
X212065Y272036D01*
X211311Y271724D01*
X210663Y271227D01*
X210414Y270902D01*
X206888D01*
X206737Y271402D01*
X206767Y271422D01*
X209491Y274147D01*
X209900Y274759D01*
X209924Y274878D01*
X210044Y275480D01*
Y290069D01*
X212695D01*
Y297962D01*
D02*
G37*
G36*
X240142Y258516D02*
X235343D01*
Y256866D01*
X240142D01*
Y258516D01*
D02*
G37*
G36*
X230343D02*
X225543D01*
Y256866D01*
X230343D01*
Y258516D01*
D02*
G37*
G36*
Y265165D02*
X225543D01*
Y263516D01*
X230343D01*
Y265165D01*
D02*
G37*
G36*
X120000Y294378D02*
X118867Y294228D01*
X117811Y293791D01*
X116905Y293095D01*
X116209Y292189D01*
X115772Y291133D01*
X115622Y290000D01*
X115772Y288867D01*
X116209Y287811D01*
X116279Y287720D01*
X111878Y283319D01*
X111656Y282989D01*
X111579Y282598D01*
Y270079D01*
X111656Y269689D01*
X111878Y269358D01*
X112665Y268570D01*
X112996Y268349D01*
X113278Y268293D01*
Y265935D01*
X118612D01*
Y272647D01*
X113618D01*
Y282176D01*
X117720Y286279D01*
X117811Y286209D01*
X118867Y285772D01*
X120000Y285622D01*
X121133Y285772D01*
X122189Y286209D01*
X123095Y286905D01*
X123791Y287811D01*
X124228Y288867D01*
X124378Y290000D01*
X124228Y291133D01*
X123791Y292189D01*
X123095Y293095D01*
X122189Y293791D01*
X121133Y294228D01*
X120000Y294378D01*
D02*
G37*
G36*
X431260Y285448D02*
X430441Y285285D01*
X429746Y284821D01*
X429282Y284126D01*
X429119Y283307D01*
X429282Y282488D01*
X429731Y281816D01*
Y281309D01*
X429085D01*
Y276565D01*
X433435D01*
Y281309D01*
X432789D01*
Y281816D01*
X433238Y282488D01*
X433401Y283307D01*
X433238Y284126D01*
X432774Y284821D01*
X432079Y285285D01*
X431260Y285448D01*
D02*
G37*
G36*
X240142Y265165D02*
X235343D01*
Y263516D01*
X240142D01*
Y265165D01*
D02*
G37*
G36*
X304931Y408277D02*
X299794D01*
Y403140D01*
X301343D01*
Y400403D01*
X299794D01*
Y395660D01*
X304931D01*
Y400403D01*
X303382D01*
Y403140D01*
X304931D01*
Y408277D01*
D02*
G37*
G36*
X399387Y432878D02*
X397831D01*
Y431321D01*
X398711Y431997D01*
X399387Y432878D01*
D02*
G37*
G36*
X162480Y188757D02*
X160520D01*
X160207Y188695D01*
X159942Y188518D01*
X159765Y188253D01*
X159703Y187941D01*
Y182634D01*
X159765Y182321D01*
X159942Y182056D01*
X160207Y181879D01*
X160520Y181817D01*
X162480D01*
X162793Y181879D01*
X163058Y182056D01*
X163235Y182321D01*
X163297Y182634D01*
Y187941D01*
X163235Y188253D01*
X163058Y188518D01*
X162793Y188695D01*
X162480Y188757D01*
D02*
G37*
G36*
X180315Y441117D02*
X179496Y440954D01*
X178801Y440490D01*
X178337Y439796D01*
X178174Y438976D01*
X178337Y438157D01*
X178801Y437462D01*
X179397Y437064D01*
Y435962D01*
X177550D01*
Y431219D01*
X182687D01*
Y435962D01*
X181233D01*
Y437064D01*
X181829Y437462D01*
X182293Y438157D01*
X182456Y438976D01*
X182293Y439796D01*
X181829Y440490D01*
X181134Y440954D01*
X180315Y441117D01*
D02*
G37*
G36*
X392831Y432878D02*
X391274D01*
X391950Y431997D01*
X392831Y431321D01*
Y432878D01*
D02*
G37*
G36*
Y439434D02*
X391950Y438759D01*
X391274Y437878D01*
X392831D01*
Y439434D01*
D02*
G37*
G36*
X397831Y439434D02*
Y437878D01*
X399387D01*
X398711Y438759D01*
X397831Y439434D01*
D02*
G37*
G36*
X197898Y451153D02*
X196662Y450990D01*
X195510Y450513D01*
X194521Y449754D01*
X193763Y448765D01*
X193286Y447614D01*
X193123Y446378D01*
X193286Y445142D01*
X193763Y443991D01*
X194521Y443002D01*
X195510Y442243D01*
X196662Y441766D01*
X196720Y441758D01*
Y439708D01*
X196124Y439309D01*
X195660Y438615D01*
X195497Y437795D01*
X195660Y436976D01*
X196087Y436336D01*
X196024Y436092D01*
X195890Y435836D01*
X195069D01*
Y434382D01*
X194301D01*
Y435836D01*
X189164D01*
Y431093D01*
X194301D01*
Y432547D01*
X195069D01*
Y431093D01*
X200206D01*
Y435836D01*
X199386D01*
X199251Y436092D01*
X199188Y436336D01*
X199616Y436976D01*
X199779Y437795D01*
X199616Y438615D01*
X199152Y439309D01*
X198555Y439708D01*
Y441690D01*
X199133Y441766D01*
X200285Y442243D01*
X201274Y443002D01*
X202033Y443991D01*
X202510Y445142D01*
X202672Y446378D01*
X202510Y447614D01*
X202033Y448765D01*
X201274Y449754D01*
X200285Y450513D01*
X199133Y450990D01*
X197898Y451153D01*
D02*
G37*
G36*
X209709D02*
X208473Y450990D01*
X207321Y450513D01*
X206332Y449754D01*
X205574Y448765D01*
X205097Y447614D01*
X204934Y446378D01*
X205097Y445142D01*
X205574Y443991D01*
X206332Y443002D01*
X207321Y442243D01*
X208473Y441766D01*
X208791Y441724D01*
Y439504D01*
X208861Y439153D01*
X209060Y438855D01*
X209416Y438499D01*
X209276Y437795D01*
X209439Y436976D01*
X209867Y436336D01*
X209804Y436092D01*
X209669Y435836D01*
X208849D01*
Y434382D01*
X208080D01*
Y435836D01*
X202943D01*
Y431093D01*
X208080D01*
Y432547D01*
X208849D01*
Y431093D01*
X213986D01*
Y435836D01*
X213165D01*
X213031Y436092D01*
X212968Y436336D01*
X213396Y436976D01*
X213559Y437795D01*
X213396Y438615D01*
X212931Y439309D01*
X212237Y439773D01*
X211417Y439936D01*
X211124Y439878D01*
X210626Y440289D01*
Y441724D01*
X210945Y441766D01*
X212096Y442243D01*
X213085Y443002D01*
X213844Y443991D01*
X214321Y445142D01*
X214483Y446378D01*
X214321Y447614D01*
X213844Y448765D01*
X213085Y449754D01*
X212096Y450513D01*
X210945Y450990D01*
X209709Y451153D01*
D02*
G37*
G36*
X228165Y429937D02*
X227697D01*
Y429665D01*
X228165D01*
Y429937D01*
D02*
G37*
G36*
X242339D02*
X241870D01*
Y429665D01*
X242339D01*
Y429937D01*
D02*
G37*
G36*
X200606D02*
X200138D01*
Y429665D01*
X200606D01*
Y429937D01*
D02*
G37*
G36*
X214386D02*
X213917D01*
Y429665D01*
X214386D01*
Y429937D01*
D02*
G37*
G36*
X371831Y430000D02*
X371362D01*
Y429728D01*
X371831D01*
Y430000D01*
D02*
G37*
G36*
X266535Y439936D02*
X265716Y439773D01*
X265021Y439309D01*
X264557Y438615D01*
X264394Y437795D01*
X264557Y436976D01*
X264943Y436399D01*
X264762Y435899D01*
X263762D01*
Y431156D01*
X268899D01*
Y435899D01*
X268309D01*
X268128Y436399D01*
X268514Y436976D01*
X268677Y437795D01*
X268514Y438615D01*
X268049Y439309D01*
X267355Y439773D01*
X266535Y439936D01*
D02*
G37*
G36*
X353299Y430000D02*
X352831D01*
Y429728D01*
X353299D01*
Y430000D01*
D02*
G37*
G36*
X356831D02*
X356362D01*
Y429728D01*
X356831D01*
Y430000D01*
D02*
G37*
G36*
X206323Y481932D02*
X205009Y481802D01*
X203746Y481419D01*
X202581Y480797D01*
X201561Y479959D01*
X200723Y478938D01*
X200101Y477774D01*
X199717Y476511D01*
X199588Y475197D01*
X199717Y473883D01*
X200101Y472620D01*
X200723Y471455D01*
X201561Y470435D01*
X202581Y469597D01*
X203746Y468975D01*
X205009Y468591D01*
X206323Y468462D01*
X207637Y468591D01*
X208900Y468975D01*
X210065Y469597D01*
X211085Y470435D01*
X211923Y471455D01*
X212545Y472620D01*
X212928Y473883D01*
X213058Y475197D01*
X212928Y476511D01*
X212545Y477774D01*
X211923Y478938D01*
X211085Y479959D01*
X210065Y480797D01*
X208900Y481419D01*
X207637Y481802D01*
X206323Y481932D01*
D02*
G37*
G36*
X224827D02*
X223513Y481802D01*
X222250Y481419D01*
X221085Y480797D01*
X220065Y479959D01*
X219227Y478938D01*
X218605Y477774D01*
X218221Y476511D01*
X218092Y475197D01*
X218221Y473883D01*
X218605Y472620D01*
X219227Y471455D01*
X220065Y470435D01*
X221085Y469597D01*
X222250Y468975D01*
X223513Y468591D01*
X224827Y468462D01*
X226141Y468591D01*
X227404Y468975D01*
X228568Y469597D01*
X229589Y470435D01*
X230427Y471455D01*
X231049Y472620D01*
X231432Y473883D01*
X231562Y475197D01*
X231432Y476511D01*
X231049Y477774D01*
X230427Y478938D01*
X229589Y479959D01*
X228568Y480797D01*
X227404Y481419D01*
X226141Y481802D01*
X224827Y481932D01*
D02*
G37*
G36*
X153331Y462964D02*
X152095Y462801D01*
X150943Y462324D01*
X149954Y461565D01*
X149196Y460576D01*
X148719Y459425D01*
X148571Y458302D01*
X148276Y458140D01*
X148063Y458103D01*
X147256Y458910D01*
X146926Y459131D01*
X146535Y459209D01*
X146160D01*
X146132Y459425D01*
X145655Y460576D01*
X144896Y461565D01*
X143907Y462324D01*
X142755Y462801D01*
X141520Y462964D01*
X140284Y462801D01*
X139132Y462324D01*
X138144Y461565D01*
X137385Y460576D01*
X136908Y459425D01*
X136745Y458189D01*
X136908Y456953D01*
X137385Y455802D01*
X138144Y454813D01*
X139132Y454054D01*
X139548Y453882D01*
X139448Y453382D01*
X135693D01*
X135303Y453304D01*
X134972Y453083D01*
X132269Y450380D01*
X132096Y450513D01*
X130945Y450990D01*
X129709Y451153D01*
X128473Y450990D01*
X127321Y450513D01*
X126332Y449754D01*
X125574Y448765D01*
X125097Y447614D01*
X124934Y446378D01*
X125097Y445142D01*
X125574Y443991D01*
X126332Y443002D01*
X127321Y442243D01*
X128473Y441766D01*
X129709Y441603D01*
X130945Y441766D01*
X132096Y442243D01*
X133085Y443002D01*
X133844Y443991D01*
X134321Y445142D01*
X134483Y446378D01*
X134321Y447614D01*
X133844Y448765D01*
X133711Y448938D01*
X136115Y451343D01*
X139829D01*
X139928Y450843D01*
X139132Y450513D01*
X138144Y449754D01*
X137385Y448765D01*
X136908Y447614D01*
X136745Y446378D01*
X136908Y445142D01*
X137385Y443991D01*
X137517Y443818D01*
X135110Y441410D01*
X134889Y441079D01*
X134811Y440689D01*
Y423926D01*
X134405Y423654D01*
X133967Y423000D01*
X133814Y422228D01*
Y414748D01*
X133967Y413976D01*
X134405Y413322D01*
X135059Y412885D01*
X135831Y412731D01*
X136602Y412885D01*
X137257Y413322D01*
X137694Y413976D01*
X137847Y414748D01*
Y422228D01*
X137694Y423000D01*
X137257Y423654D01*
X136850Y423926D01*
Y440267D01*
X138959Y442376D01*
X139132Y442243D01*
X140284Y441766D01*
X141520Y441603D01*
X142755Y441766D01*
X143907Y442243D01*
X144896Y443002D01*
X145655Y443991D01*
X146132Y445142D01*
X146618Y445061D01*
Y443729D01*
X140110Y437221D01*
X139889Y436890D01*
X139811Y436500D01*
Y423926D01*
X139405Y423654D01*
X138968Y423000D01*
X138814Y422228D01*
Y414748D01*
X138968Y413976D01*
X139405Y413322D01*
X140059Y412885D01*
X140831Y412731D01*
X141603Y412885D01*
X142257Y413322D01*
X142694Y413976D01*
X142847Y414748D01*
Y422228D01*
X142694Y423000D01*
X142257Y423654D01*
X141850Y423926D01*
Y436078D01*
X148359Y442586D01*
X148580Y442917D01*
X148657Y443307D01*
Y443984D01*
X149157Y444083D01*
X149196Y443991D01*
X149954Y443002D01*
X150943Y442243D01*
X152095Y441766D01*
X153331Y441603D01*
X154567Y441766D01*
X155718Y442243D01*
X156707Y443002D01*
X157466Y443991D01*
X157943Y445142D01*
X158105Y446378D01*
X157943Y447614D01*
X157466Y448765D01*
X156707Y449754D01*
X155802Y450449D01*
X155876Y450949D01*
X169656D01*
X173099Y447507D01*
Y435962D01*
X171550D01*
Y431219D01*
X176687D01*
Y435962D01*
X175138D01*
Y447929D01*
X175060Y448319D01*
X174839Y448650D01*
X170800Y452690D01*
X170469Y452911D01*
X170079Y452988D01*
X153924D01*
X153892Y453488D01*
X154567Y453577D01*
X155718Y454054D01*
X156707Y454813D01*
X157466Y455802D01*
X157943Y456953D01*
X158105Y458189D01*
X157943Y459425D01*
X157466Y460576D01*
X156707Y461565D01*
X155718Y462324D01*
X154567Y462801D01*
X153331Y462964D01*
D02*
G37*
G36*
X141520Y481932D02*
X140206Y481802D01*
X138942Y481419D01*
X137778Y480797D01*
X136758Y479959D01*
X135920Y478938D01*
X135298Y477774D01*
X134914Y476511D01*
X134785Y475197D01*
X134914Y473883D01*
X135298Y472620D01*
X135920Y471455D01*
X136758Y470435D01*
X137778Y469597D01*
X138942Y468975D01*
X140206Y468591D01*
X141520Y468462D01*
X142834Y468591D01*
X144097Y468975D01*
X145261Y469597D01*
X146282Y470435D01*
X147119Y471455D01*
X147742Y472620D01*
X148125Y473883D01*
X148255Y475197D01*
X148125Y476511D01*
X147742Y477774D01*
X147119Y478938D01*
X146282Y479959D01*
X145261Y480797D01*
X144097Y481419D01*
X142834Y481802D01*
X141520Y481932D01*
D02*
G37*
G36*
X424512D02*
X423198Y481802D01*
X421935Y481419D01*
X420770Y480797D01*
X419750Y479959D01*
X418912Y478938D01*
X418290Y477774D01*
X417906Y476511D01*
X417777Y475197D01*
X417906Y473883D01*
X418290Y472620D01*
X418912Y471455D01*
X419750Y470435D01*
X420770Y469597D01*
X421935Y468975D01*
X423198Y468591D01*
X424512Y468462D01*
X425826Y468591D01*
X427089Y468975D01*
X428254Y469597D01*
X429274Y470435D01*
X430112Y471455D01*
X430734Y472620D01*
X431117Y473883D01*
X431247Y475197D01*
X431117Y476511D01*
X430734Y477774D01*
X430112Y478938D01*
X429274Y479959D01*
X428254Y480797D01*
X427089Y481419D01*
X425826Y481802D01*
X424512Y481932D01*
D02*
G37*
G36*
X454827D02*
X453513Y481802D01*
X452249Y481419D01*
X451085Y480797D01*
X450065Y479959D01*
X449227Y478938D01*
X448605Y477774D01*
X448221Y476511D01*
X448092Y475197D01*
X448221Y473883D01*
X448605Y472620D01*
X449227Y471455D01*
X450065Y470435D01*
X451085Y469597D01*
X452249Y468975D01*
X453513Y468591D01*
X454827Y468462D01*
X456141Y468591D01*
X457404Y468975D01*
X458568Y469597D01*
X459589Y470435D01*
X460427Y471455D01*
X461049Y472620D01*
X461432Y473883D01*
X461562Y475197D01*
X461432Y476511D01*
X461049Y477774D01*
X460427Y478938D01*
X459589Y479959D01*
X458568Y480797D01*
X457404Y481419D01*
X456141Y481802D01*
X454827Y481932D01*
D02*
G37*
G36*
X292520D02*
X291206Y481802D01*
X289942Y481419D01*
X288778Y480797D01*
X287757Y479959D01*
X286920Y478938D01*
X286298Y477774D01*
X285914Y476511D01*
X285785Y475197D01*
X285914Y473883D01*
X286298Y472620D01*
X286920Y471455D01*
X287757Y470435D01*
X288778Y469597D01*
X289942Y468975D01*
X291206Y468591D01*
X292520Y468462D01*
X293834Y468591D01*
X295097Y468975D01*
X296261Y469597D01*
X297282Y470435D01*
X298119Y471455D01*
X298742Y472620D01*
X299125Y473883D01*
X299254Y475197D01*
X299125Y476511D01*
X298742Y477774D01*
X298119Y478938D01*
X297282Y479959D01*
X296261Y480797D01*
X295097Y481419D01*
X293834Y481802D01*
X292520Y481932D01*
D02*
G37*
G36*
X362520D02*
X361206Y481802D01*
X359942Y481419D01*
X358778Y480797D01*
X357757Y479959D01*
X356920Y478938D01*
X356298Y477774D01*
X355914Y476511D01*
X355785Y475197D01*
X355914Y473883D01*
X356298Y472620D01*
X356920Y471455D01*
X357757Y470435D01*
X358778Y469597D01*
X359942Y468975D01*
X361206Y468591D01*
X362520Y468462D01*
X363834Y468591D01*
X365097Y468975D01*
X366261Y469597D01*
X367282Y470435D01*
X368120Y471455D01*
X368742Y472620D01*
X369125Y473883D01*
X369254Y475197D01*
X369125Y476511D01*
X368742Y477774D01*
X368120Y478938D01*
X367282Y479959D01*
X366261Y480797D01*
X365097Y481419D01*
X363834Y481802D01*
X362520Y481932D01*
D02*
G37*
G36*
X209709Y462964D02*
X208473Y462801D01*
X207321Y462324D01*
X206332Y461565D01*
X205574Y460576D01*
X205097Y459425D01*
X204934Y458189D01*
X205097Y456953D01*
X205574Y455802D01*
X206332Y454813D01*
X207321Y454054D01*
X208473Y453577D01*
X209709Y453414D01*
X210945Y453577D01*
X212096Y454054D01*
X213085Y454813D01*
X213844Y455802D01*
X214321Y456953D01*
X214483Y458189D01*
X214321Y459425D01*
X213844Y460576D01*
X213085Y461565D01*
X212096Y462324D01*
X210945Y462801D01*
X209709Y462964D01*
D02*
G37*
G36*
X221520D02*
X220284Y462801D01*
X219132Y462324D01*
X218144Y461565D01*
X217385Y460576D01*
X216908Y459425D01*
X216745Y458189D01*
X216908Y456953D01*
X217385Y455802D01*
X218144Y454813D01*
X219132Y454054D01*
X220284Y453577D01*
X221520Y453414D01*
X222756Y453577D01*
X223907Y454054D01*
X224896Y454813D01*
X225655Y455802D01*
X226132Y456953D01*
X226294Y458189D01*
X226132Y459425D01*
X225655Y460576D01*
X224896Y461565D01*
X223907Y462324D01*
X222756Y462801D01*
X221520Y462964D01*
D02*
G37*
G36*
X374331Y451153D02*
X373095Y450990D01*
X371943Y450513D01*
X370954Y449754D01*
X370196Y448765D01*
X369719Y447614D01*
X369556Y446378D01*
X369719Y445142D01*
X370196Y443991D01*
X370954Y443002D01*
X371943Y442243D01*
X373095Y441766D01*
X374331Y441603D01*
X375567Y441766D01*
X376718Y442243D01*
X377707Y443002D01*
X378466Y443991D01*
X378943Y445142D01*
X379105Y446378D01*
X378943Y447614D01*
X378466Y448765D01*
X377707Y449754D01*
X376718Y450513D01*
X375567Y450990D01*
X374331Y451153D01*
D02*
G37*
G36*
X197898Y462964D02*
X196662Y462801D01*
X195510Y462324D01*
X194521Y461565D01*
X193763Y460576D01*
X193286Y459425D01*
X193123Y458189D01*
X193286Y456953D01*
X193763Y455802D01*
X194521Y454813D01*
X195510Y454054D01*
X196662Y453577D01*
X197898Y453414D01*
X199133Y453577D01*
X200285Y454054D01*
X201274Y454813D01*
X202033Y455802D01*
X202510Y456953D01*
X202672Y458189D01*
X202510Y459425D01*
X202033Y460576D01*
X201274Y461565D01*
X200285Y462324D01*
X199133Y462801D01*
X197898Y462964D01*
D02*
G37*
G36*
X416087D02*
X414851Y462801D01*
X413699Y462324D01*
X412710Y461565D01*
X411952Y460576D01*
X411475Y459425D01*
X411312Y458189D01*
X411475Y456953D01*
X411952Y455802D01*
X412710Y454813D01*
X413699Y454054D01*
X414851Y453577D01*
X416087Y453414D01*
X417322Y453577D01*
X418474Y454054D01*
X419463Y454813D01*
X420222Y455802D01*
X420699Y456953D01*
X420861Y458189D01*
X420699Y459425D01*
X420222Y460576D01*
X419463Y461565D01*
X418474Y462324D01*
X417322Y462801D01*
X416087Y462964D01*
D02*
G37*
G36*
X463331D02*
X462095Y462801D01*
X460943Y462324D01*
X459955Y461565D01*
X459196Y460576D01*
X458719Y459425D01*
X458556Y458189D01*
X458719Y456953D01*
X459196Y455802D01*
X459955Y454813D01*
X460943Y454054D01*
X462095Y453577D01*
X463331Y453414D01*
X464567Y453577D01*
X465718Y454054D01*
X466707Y454813D01*
X467466Y455802D01*
X467943Y456953D01*
X468105Y458189D01*
X467943Y459425D01*
X467466Y460576D01*
X466707Y461565D01*
X465718Y462324D01*
X464567Y462801D01*
X463331Y462964D01*
D02*
G37*
G36*
X350709D02*
X349473Y462801D01*
X348321Y462324D01*
X347332Y461565D01*
X346574Y460576D01*
X346097Y459425D01*
X346068Y459209D01*
X333780D01*
X333389Y459131D01*
X333059Y458910D01*
X330775Y456627D01*
X330554Y456296D01*
X330476Y455905D01*
Y431492D01*
X330201Y431377D01*
X329664Y430966D01*
X329253Y430429D01*
X328994Y429804D01*
X328905Y429134D01*
X328994Y428463D01*
X329253Y427839D01*
X329664Y427302D01*
X330201Y426890D01*
X330826Y426631D01*
X331496Y426543D01*
X332167Y426631D01*
X332791Y426890D01*
X333328Y427302D01*
X333740Y427839D01*
X333998Y428463D01*
X334087Y429134D01*
X333998Y429804D01*
X333740Y430429D01*
X333328Y430966D01*
X332791Y431377D01*
X332516Y431492D01*
Y455483D01*
X334202Y457169D01*
X346068D01*
X346097Y456953D01*
X346574Y455802D01*
X347332Y454813D01*
X348321Y454054D01*
X349473Y453577D01*
X350709Y453414D01*
X351944Y453577D01*
X353096Y454054D01*
X354085Y454813D01*
X354844Y455802D01*
X355321Y456953D01*
X355483Y458189D01*
X355321Y459425D01*
X354844Y460576D01*
X354085Y461565D01*
X353096Y462324D01*
X351944Y462801D01*
X350709Y462964D01*
D02*
G37*
G36*
X362520D02*
X361284Y462801D01*
X360132Y462324D01*
X359143Y461565D01*
X358385Y460576D01*
X357908Y459425D01*
X357745Y458189D01*
X357908Y456953D01*
X358385Y455802D01*
X358580Y455547D01*
X356044Y453011D01*
X355845Y452713D01*
X355775Y452362D01*
Y447823D01*
X355275Y447723D01*
X354844Y448765D01*
X354085Y449754D01*
X353096Y450513D01*
X351944Y450990D01*
X350709Y451153D01*
X349473Y450990D01*
X348321Y450513D01*
X347332Y449754D01*
X346574Y448765D01*
X346097Y447614D01*
X345934Y446378D01*
X346097Y445142D01*
X346574Y443991D01*
X347332Y443002D01*
X348321Y442243D01*
X349413Y441791D01*
Y440453D01*
X348880Y440097D01*
X348415Y439402D01*
X348253Y438583D01*
X348415Y437763D01*
X348880Y437069D01*
X349413Y436712D01*
Y435899D01*
X347762D01*
Y434445D01*
X346899D01*
Y435899D01*
X341762D01*
Y431156D01*
X346899D01*
Y432610D01*
X347762D01*
Y431156D01*
X352899D01*
Y435899D01*
X351248D01*
Y436628D01*
X351908Y437069D01*
X352372Y437763D01*
X352535Y438583D01*
X352372Y439402D01*
X351908Y440097D01*
X351248Y440537D01*
Y441674D01*
X351944Y441766D01*
X353096Y442243D01*
X354085Y443002D01*
X354844Y443991D01*
X355275Y445033D01*
X355775Y444933D01*
Y440158D01*
X355845Y439806D01*
X356013Y439555D01*
X355871Y438839D01*
X356034Y438019D01*
X356498Y437325D01*
X357192Y436860D01*
X358012Y436697D01*
X358027Y436700D01*
X358413Y436383D01*
Y435899D01*
X356762D01*
Y431156D01*
X361899D01*
Y432610D01*
X362762D01*
Y431156D01*
X367899D01*
Y435899D01*
X362762D01*
Y434445D01*
X361899D01*
Y435899D01*
X360248D01*
Y437520D01*
X360178Y437871D01*
X360011Y438122D01*
X360153Y438839D01*
X359990Y439658D01*
X359526Y440353D01*
X358831Y440817D01*
X358012Y440980D01*
X357997Y440977D01*
X357611Y441294D01*
Y444553D01*
X358110Y444652D01*
X358385Y443991D01*
X359143Y443002D01*
X360132Y442243D01*
X361284Y441766D01*
X361602Y441724D01*
Y440573D01*
X361478Y440490D01*
X361014Y439796D01*
X360851Y438976D01*
X361014Y438157D01*
X361478Y437462D01*
X362173Y436998D01*
X362992Y436835D01*
X363761Y436988D01*
X363822Y436947D01*
X364173Y436878D01*
X373242D01*
X373413Y436706D01*
Y435899D01*
X371762D01*
Y431156D01*
X376899D01*
Y432610D01*
X377762D01*
Y431156D01*
X382899D01*
Y435899D01*
X377762D01*
Y434445D01*
X376899D01*
Y435899D01*
X375248D01*
Y437087D01*
X375179Y437438D01*
X374980Y437736D01*
X374271Y438444D01*
X373973Y438643D01*
X373622Y438713D01*
X365350D01*
X365133Y438976D01*
X364970Y439796D01*
X364506Y440490D01*
X363811Y440954D01*
X363437Y441029D01*
Y441724D01*
X363755Y441766D01*
X364907Y442243D01*
X365896Y443002D01*
X366655Y443991D01*
X367132Y445142D01*
X367294Y446378D01*
X367132Y447614D01*
X366655Y448765D01*
X365896Y449754D01*
X364907Y450513D01*
X363755Y450990D01*
X362520Y451153D01*
X361284Y450990D01*
X360132Y450513D01*
X359143Y449754D01*
X358385Y448765D01*
X358110Y448104D01*
X357611Y448203D01*
Y451982D01*
X359878Y454249D01*
X360132Y454054D01*
X361284Y453577D01*
X362520Y453414D01*
X363755Y453577D01*
X364907Y454054D01*
X365896Y454813D01*
X366655Y455802D01*
X367132Y456953D01*
X367294Y458189D01*
X367132Y459425D01*
X366655Y460576D01*
X365896Y461565D01*
X364907Y462324D01*
X363755Y462801D01*
X362520Y462964D01*
D02*
G37*
G36*
X389953Y404347D02*
X389681D01*
Y403878D01*
X389953D01*
Y404347D01*
D02*
G37*
G36*
X410442Y414576D02*
X405305D01*
Y409833D01*
X406345D01*
Y408971D01*
X405896Y408300D01*
X405733Y407480D01*
X405896Y406661D01*
X406360Y405966D01*
X407055Y405502D01*
X407874Y405339D01*
X408693Y405502D01*
X409388Y405966D01*
X409852Y406661D01*
X410015Y407480D01*
X409852Y408300D01*
X409403Y408971D01*
Y409833D01*
X410442D01*
Y414576D01*
D02*
G37*
G36*
X474016Y487181D02*
X312992D01*
X312173Y487017D01*
X311478Y486553D01*
X302817Y477892D01*
X302353Y477197D01*
X302190Y476378D01*
Y462426D01*
X301943Y462324D01*
X300955Y461565D01*
X300196Y460576D01*
X299719Y459425D01*
X299556Y458189D01*
X299719Y456953D01*
X300196Y455802D01*
X300955Y454813D01*
X301943Y454054D01*
X303095Y453577D01*
X303770Y453488D01*
X303737Y452988D01*
X300029D01*
X296819Y456198D01*
X297132Y456953D01*
X297294Y458189D01*
X297132Y459425D01*
X296655Y460576D01*
X295896Y461565D01*
X294907Y462324D01*
X293756Y462801D01*
X292520Y462964D01*
X291284Y462801D01*
X290132Y462324D01*
X289143Y461565D01*
X288385Y460576D01*
X287908Y459425D01*
X287745Y458189D01*
X287908Y456953D01*
X288385Y455802D01*
X289143Y454813D01*
X290132Y454054D01*
X290548Y453882D01*
X290448Y453382D01*
X283164D01*
X283067Y453501D01*
X283082Y453788D01*
X283196Y454131D01*
X284085Y454813D01*
X284844Y455802D01*
X285321Y456953D01*
X285483Y458189D01*
X285321Y459425D01*
X284844Y460576D01*
X284085Y461565D01*
X283096Y462324D01*
X281944Y462801D01*
X280709Y462964D01*
X279473Y462801D01*
X278321Y462324D01*
X277332Y461565D01*
X276574Y460576D01*
X276097Y459425D01*
X275934Y458189D01*
X276097Y456953D01*
X276574Y455802D01*
X277332Y454813D01*
X278321Y454054D01*
X279473Y453577D01*
X279773Y453538D01*
X279988Y453216D01*
X281562Y451641D01*
X281743Y451521D01*
X281562Y451040D01*
X280709Y451153D01*
X279473Y450990D01*
X278321Y450513D01*
X277332Y449754D01*
X276574Y448765D01*
X276097Y447614D01*
X276068Y447398D01*
X274724D01*
X274334Y447320D01*
X274004Y447099D01*
X271610Y444705D01*
X271389Y444374D01*
X271311Y443984D01*
Y435899D01*
X269762D01*
Y431156D01*
X274899D01*
Y435899D01*
X273350D01*
Y443562D01*
X275147Y445358D01*
X276068D01*
X276097Y445142D01*
X276574Y443991D01*
X277332Y443002D01*
X278321Y442243D01*
X279473Y441766D01*
X280709Y441603D01*
X281944Y441766D01*
X283096Y442243D01*
X284085Y443002D01*
X284844Y443991D01*
X285321Y445142D01*
X285483Y446378D01*
X285321Y447614D01*
X284844Y448765D01*
X284085Y449754D01*
X283096Y450513D01*
X282300Y450843D01*
X282400Y451343D01*
X290829D01*
X290928Y450843D01*
X290132Y450513D01*
X289143Y449754D01*
X288385Y448765D01*
X287908Y447614D01*
X287745Y446378D01*
X287908Y445142D01*
X288385Y443991D01*
X289143Y443002D01*
X290132Y442243D01*
X291284Y441766D01*
X291500Y441738D01*
Y439792D01*
X291310Y439602D01*
X288189D01*
X287799Y439525D01*
X287468Y439304D01*
X286610Y438445D01*
X286389Y438115D01*
X286311Y437724D01*
Y435899D01*
X284762D01*
Y431233D01*
X283899D01*
Y435899D01*
X283548D01*
X283313Y436340D01*
X283474Y436582D01*
X283637Y437402D01*
X283474Y438221D01*
X283010Y438916D01*
X282315Y439380D01*
X281496Y439543D01*
X280677Y439380D01*
X279982Y438916D01*
X279518Y438221D01*
X279355Y437402D01*
X279518Y436582D01*
X279680Y436340D01*
X279444Y435899D01*
X278762D01*
Y431233D01*
X277953D01*
X277602Y431163D01*
X277304Y430964D01*
X276517Y430176D01*
X276318Y429879D01*
X276248Y429528D01*
Y428333D01*
X275998Y428083D01*
X274899D01*
Y429600D01*
X269762D01*
Y428146D01*
X268899D01*
Y429600D01*
X263762D01*
Y424857D01*
X268899D01*
Y426311D01*
X269762D01*
Y424857D01*
X274899D01*
Y426248D01*
X276378D01*
X276729Y426318D01*
X277027Y426516D01*
X277814Y427304D01*
X278013Y427602D01*
X278083Y427953D01*
Y428891D01*
X278262Y429044D01*
X278762Y428813D01*
Y424857D01*
X283899D01*
Y426311D01*
X284762D01*
Y424857D01*
X286413D01*
Y422759D01*
X286003Y422349D01*
X285804Y422051D01*
X285734Y421700D01*
Y421063D01*
X285272Y420872D01*
X284217Y421928D01*
X283919Y422126D01*
X283568Y422196D01*
X252452D01*
X250918Y423731D01*
Y428560D01*
X251418Y428592D01*
X251435Y428463D01*
X251693Y427839D01*
X252105Y427302D01*
X252642Y426890D01*
X253267Y426631D01*
X253937Y426543D01*
X254608Y426631D01*
X255232Y426890D01*
X255769Y427302D01*
X256181Y427839D01*
X256439Y428463D01*
X256528Y429134D01*
X256439Y429804D01*
X256181Y430429D01*
X255769Y430966D01*
X255232Y431377D01*
X254957Y431492D01*
Y463386D01*
X254879Y463776D01*
X254658Y464107D01*
X251508Y467256D01*
X251178Y467477D01*
X250787Y467555D01*
X131890D01*
X131500Y467477D01*
X131169Y467256D01*
X128988Y465075D01*
X128767Y464745D01*
X128689Y464354D01*
Y462829D01*
X128473Y462801D01*
X127321Y462324D01*
X126332Y461565D01*
X125574Y460576D01*
X125097Y459425D01*
X124934Y458189D01*
X125097Y456953D01*
X125574Y455802D01*
X126332Y454813D01*
X127321Y454054D01*
X128473Y453577D01*
X129709Y453414D01*
X130945Y453577D01*
X132096Y454054D01*
X133085Y454813D01*
X133844Y455802D01*
X134321Y456953D01*
X134483Y458189D01*
X134321Y459425D01*
X133844Y460576D01*
X133085Y461565D01*
X132096Y462324D01*
X130945Y462801D01*
X130728Y462829D01*
Y463932D01*
X132312Y465516D01*
X250365D01*
X252917Y462963D01*
Y431492D01*
X252642Y431377D01*
X252105Y430966D01*
X251693Y430429D01*
X251435Y429804D01*
X251418Y429675D01*
X250918Y429708D01*
Y450787D01*
X250848Y451139D01*
X250649Y451436D01*
X248680Y453405D01*
X248383Y453604D01*
X248031Y453674D01*
X236044D01*
X235874Y454174D01*
X236707Y454813D01*
X237466Y455802D01*
X237943Y456953D01*
X238105Y458189D01*
X237943Y459425D01*
X237466Y460576D01*
X236707Y461565D01*
X235718Y462324D01*
X234566Y462801D01*
X233331Y462964D01*
X232095Y462801D01*
X230943Y462324D01*
X229955Y461565D01*
X229196Y460576D01*
X228719Y459425D01*
X228556Y458189D01*
X228719Y456953D01*
X229196Y455802D01*
X229955Y454813D01*
X230787Y454174D01*
X230618Y453674D01*
X229134D01*
X228841Y453615D01*
X228783Y453604D01*
X228485Y453405D01*
X226517Y451436D01*
X226318Y451139D01*
X226248Y450787D01*
Y448640D01*
X225748Y448541D01*
X225655Y448765D01*
X224896Y449754D01*
X223907Y450513D01*
X222756Y450990D01*
X221520Y451153D01*
X220284Y450990D01*
X219132Y450513D01*
X218144Y449754D01*
X217385Y448765D01*
X216908Y447614D01*
X216745Y446378D01*
X216908Y445142D01*
X217385Y443991D01*
X218144Y443002D01*
X219132Y442243D01*
X220284Y441766D01*
X220602Y441724D01*
Y440404D01*
X218642Y438444D01*
X218444Y438146D01*
X218374Y437795D01*
Y435836D01*
X216723D01*
Y431093D01*
X221860D01*
Y432547D01*
X222628D01*
Y431093D01*
X227765D01*
Y435836D01*
X226115D01*
Y436628D01*
X227814Y438328D01*
X228013Y438625D01*
X228083Y438976D01*
Y446115D01*
X228087Y446140D01*
X228092Y446141D01*
X228567Y446172D01*
X228576Y446173D01*
X228583Y446173D01*
X228583Y446173D01*
X228593Y446098D01*
Y446098D01*
Y446098D01*
X228719Y445142D01*
X229196Y443991D01*
X229955Y443002D01*
X230943Y442243D01*
X232095Y441766D01*
X232547Y441706D01*
Y435836D01*
X230896D01*
Y431093D01*
X236033D01*
Y432547D01*
X236802D01*
Y431093D01*
X241939D01*
Y432547D01*
X246864D01*
X247508Y431903D01*
Y423106D01*
X247577Y422755D01*
X247776Y422457D01*
X250804Y419430D01*
X251101Y419231D01*
X251160Y419219D01*
X251453Y419161D01*
X271487D01*
X271694Y418661D01*
X271005Y417972D01*
X270806Y417674D01*
X270736Y417323D01*
Y401912D01*
X270140Y401514D01*
X269675Y400819D01*
X269512Y400000D01*
X269675Y399181D01*
X270140Y398486D01*
X270834Y398022D01*
X271654Y397859D01*
X272473Y398022D01*
X273167Y398486D01*
X273632Y399181D01*
X273735Y399698D01*
X273735D01*
Y399698D01*
X273760Y399827D01*
X273762Y399827D01*
X273776Y399826D01*
X273798Y399823D01*
X274216Y399782D01*
X274238Y399780D01*
X274260Y399720D01*
Y399720D01*
Y399720D01*
Y372338D01*
X274330Y371986D01*
X274529Y371689D01*
X274613Y371605D01*
Y370978D01*
X272381D01*
Y365791D01*
X271919Y365599D01*
X269153Y368365D01*
X268855Y368564D01*
X268504Y368634D01*
X262227D01*
X262086Y369134D01*
X262591Y369891D01*
X262785Y370866D01*
X262736Y371112D01*
Y370866D01*
X257736D01*
Y371112D01*
X257687Y370866D01*
X257881Y369891D01*
X258387Y369134D01*
X258245Y368634D01*
X235331D01*
X231156Y372810D01*
X230858Y373008D01*
X230507Y373078D01*
X184912D01*
X181036Y376955D01*
Y424920D01*
X182687D01*
Y429663D01*
X177550D01*
Y428209D01*
X176687D01*
Y429663D01*
X171550D01*
Y424920D01*
X176687D01*
Y426374D01*
X177550D01*
Y424920D01*
X179200D01*
Y376575D01*
X179270Y376224D01*
X179469Y375926D01*
X183055Y372340D01*
X182864Y371878D01*
X180601D01*
X179167Y373312D01*
X179306Y374016D01*
X179144Y374835D01*
X178679Y375530D01*
X177985Y375994D01*
X177165Y376157D01*
X176346Y375994D01*
X175651Y375530D01*
X175187Y374835D01*
X175024Y374016D01*
X175187Y373196D01*
X175651Y372502D01*
X176346Y372038D01*
X177165Y371875D01*
X177869Y372014D01*
X178743Y371140D01*
X178552Y370678D01*
X175895D01*
X173261Y373312D01*
X173401Y374016D01*
X173238Y374835D01*
X172774Y375530D01*
X172079Y375994D01*
X171260Y376157D01*
X170440Y375994D01*
X169746Y375530D01*
X169282Y374835D01*
X169119Y374016D01*
X169282Y373196D01*
X169746Y372502D01*
X170440Y372038D01*
X171260Y371875D01*
X171963Y372014D01*
X174038Y369940D01*
X173846Y369478D01*
X153473D01*
X151748Y371203D01*
Y376762D01*
X152257Y377101D01*
X152694Y377756D01*
X152847Y378528D01*
Y386008D01*
X152694Y386780D01*
X152257Y387434D01*
X151602Y387871D01*
X150831Y388025D01*
X150059Y387871D01*
X149405Y387434D01*
X148968Y386780D01*
X148814Y386008D01*
Y383185D01*
X147847D01*
Y386008D01*
X147694Y386780D01*
X147257Y387434D01*
X146602Y387871D01*
X145831Y388025D01*
X145059Y387871D01*
X144725Y387648D01*
X144225Y387915D01*
Y392927D01*
X156480Y405182D01*
X156678Y405479D01*
X156690Y405538D01*
X156748Y405831D01*
Y412982D01*
X157257Y413322D01*
X157694Y413976D01*
X157847Y414748D01*
Y417571D01*
X158814D01*
Y414748D01*
X158967Y413976D01*
X159405Y413322D01*
X160059Y412885D01*
X160831Y412731D01*
X161602Y412885D01*
X162257Y413322D01*
X162694Y413976D01*
X162847Y414748D01*
Y422228D01*
X162694Y423000D01*
X162257Y423654D01*
X161602Y424092D01*
X160831Y424245D01*
X160059Y424092D01*
X159405Y423654D01*
X158967Y423000D01*
X158814Y422228D01*
Y419406D01*
X157847D01*
Y422228D01*
X157694Y423000D01*
X157257Y423654D01*
X156603Y424092D01*
X155831Y424245D01*
X155059Y424092D01*
X154405Y423654D01*
X153967Y423000D01*
X153814Y422228D01*
Y414748D01*
X153967Y413976D01*
X154405Y413322D01*
X154913Y412982D01*
Y406211D01*
X142658Y393956D01*
X142459Y393658D01*
X142390Y393307D01*
Y388369D01*
X141890Y388086D01*
X141748Y388171D01*
Y390665D01*
X141679Y391017D01*
X141480Y391314D01*
X140413Y392381D01*
X140115Y392580D01*
X139764Y392650D01*
X131890D01*
X131597Y392592D01*
X131539Y392580D01*
X131241Y392381D01*
X130182Y391322D01*
X129983Y391024D01*
X129913Y390673D01*
Y387774D01*
X129405Y387434D01*
X128967Y386780D01*
X128814Y386008D01*
Y383185D01*
X127847D01*
Y386008D01*
X127694Y386780D01*
X127257Y387434D01*
X126602Y387871D01*
X125831Y388025D01*
X125059Y387871D01*
X124405Y387434D01*
X123968Y386780D01*
X123814Y386008D01*
Y378528D01*
X123968Y377756D01*
X124405Y377101D01*
X124913Y376762D01*
Y375744D01*
X124983Y375393D01*
X125182Y375095D01*
X125558Y374719D01*
X125418Y374016D01*
X125581Y373196D01*
X126045Y372502D01*
X126740Y372038D01*
X127559Y371875D01*
X128378Y372038D01*
X129073Y372502D01*
X129537Y373196D01*
X129700Y374016D01*
X129537Y374835D01*
X129073Y375530D01*
X128378Y375994D01*
X127559Y376157D01*
X127361Y376117D01*
X126956Y376462D01*
X126976Y376914D01*
X127257Y377101D01*
X127694Y377756D01*
X127847Y378528D01*
Y381350D01*
X128814D01*
Y378528D01*
X128967Y377756D01*
X129405Y377101D01*
X130059Y376664D01*
X130831Y376511D01*
X131603Y376664D01*
X132257Y377101D01*
X132694Y377756D01*
X132847Y378528D01*
Y386008D01*
X132694Y386780D01*
X132257Y387434D01*
X131748Y387774D01*
Y390293D01*
X132270Y390815D01*
X139384D01*
X139913Y390285D01*
Y387774D01*
X139405Y387434D01*
X138968Y386780D01*
X138814Y386008D01*
Y378528D01*
X138968Y377756D01*
X139405Y377101D01*
X140059Y376664D01*
X140831Y376511D01*
X141603Y376664D01*
X141890Y376856D01*
X142390Y376589D01*
Y370866D01*
X142459Y370515D01*
X142658Y370217D01*
X145335Y367540D01*
X145144Y367078D01*
X113122D01*
Y392140D01*
X114179Y393197D01*
X132697D01*
X133048Y393267D01*
X133346Y393465D01*
X151480Y411599D01*
X151679Y411897D01*
X151748Y412248D01*
Y412982D01*
X152257Y413322D01*
X152694Y413976D01*
X152847Y414748D01*
Y422228D01*
X152694Y423000D01*
X152257Y423654D01*
X151602Y424092D01*
X150831Y424245D01*
X150059Y424092D01*
X149405Y423654D01*
X148968Y423000D01*
X148814Y422228D01*
Y414748D01*
X148968Y413976D01*
X149405Y413322D01*
X149778Y413072D01*
X149816Y412531D01*
X147231Y409946D01*
X147187Y409951D01*
X146748Y410171D01*
Y412982D01*
X147257Y413322D01*
X147694Y413976D01*
X147847Y414748D01*
Y422228D01*
X147694Y423000D01*
X147257Y423654D01*
X146602Y424092D01*
X145831Y424245D01*
X145059Y424092D01*
X144405Y423654D01*
X143967Y423000D01*
X143814Y422228D01*
Y414748D01*
X143967Y413976D01*
X144405Y413322D01*
X144913Y412982D01*
Y410384D01*
X131510Y396981D01*
X112992D01*
X112641Y396911D01*
X112343Y396712D01*
X110178Y394547D01*
X109979Y394249D01*
X109909Y393898D01*
Y365823D01*
X109979Y365472D01*
X110178Y365174D01*
X111040Y364312D01*
X111338Y364113D01*
X111689Y364043D01*
X226785D01*
X229397Y361431D01*
Y358267D01*
X229397Y358265D01*
Y350338D01*
X228801Y349939D01*
X228337Y349245D01*
X228174Y348425D01*
X228337Y347606D01*
X228801Y346911D01*
X229496Y346447D01*
X230315Y346284D01*
X231134Y346447D01*
X231829Y346911D01*
X232033Y347217D01*
X232534D01*
X232738Y346911D01*
X233433Y346447D01*
X234252Y346284D01*
X235071Y346447D01*
X235766Y346911D01*
X236230Y347606D01*
X236393Y348425D01*
X236230Y349245D01*
X235766Y349939D01*
X235170Y350338D01*
Y358759D01*
X235631Y358950D01*
X246862Y347720D01*
X247160Y347521D01*
X247511Y347451D01*
X262731D01*
Y347228D01*
Y345296D01*
X227262D01*
X214428Y358129D01*
X214131Y358328D01*
X213779Y358398D01*
X166142D01*
X165791Y358328D01*
X165493Y358129D01*
X158406Y351043D01*
X158207Y350745D01*
X158138Y350394D01*
Y322734D01*
X156487D01*
Y321280D01*
X155624D01*
Y322734D01*
X150487D01*
Y317991D01*
X155624D01*
Y319445D01*
X156487D01*
Y317990D01*
X161624D01*
Y322734D01*
X159973D01*
Y350014D01*
X166522Y356563D01*
X211259D01*
X211411Y356063D01*
X211084Y355845D01*
X210620Y355150D01*
X210457Y354331D01*
X210620Y353511D01*
X211084Y352817D01*
X211779Y352353D01*
X212598Y352190D01*
X213302Y352329D01*
X216176Y349456D01*
X215967Y348957D01*
X215322Y348829D01*
X214628Y348364D01*
X214164Y347670D01*
X214001Y346850D01*
X214164Y346031D01*
X214628Y345336D01*
X215322Y344872D01*
X216142Y344709D01*
X216845Y344849D01*
X220824Y340871D01*
X221121Y340672D01*
X221180Y340660D01*
X221472Y340602D01*
X260644D01*
X261350Y339896D01*
X261299Y339627D01*
X261165Y339396D01*
X243202D01*
X242851Y339326D01*
X242553Y339127D01*
X240690Y337263D01*
X240491Y336965D01*
X240421Y336614D01*
Y328513D01*
X239921Y328306D01*
X235170Y333057D01*
Y334702D01*
X235766Y335100D01*
X236230Y335795D01*
X236393Y336614D01*
X236230Y337434D01*
X235766Y338128D01*
X235071Y338592D01*
X234252Y338755D01*
X233433Y338592D01*
X232738Y338128D01*
X232534Y337822D01*
X232033D01*
X231829Y338128D01*
X231134Y338592D01*
X230315Y338755D01*
X229496Y338592D01*
X228801Y338128D01*
X228337Y337434D01*
X228174Y336614D01*
X228337Y335795D01*
X228801Y335100D01*
X229447Y334669D01*
X229467Y334566D01*
X229666Y334268D01*
X240567Y323367D01*
X240865Y323168D01*
X241216Y323098D01*
X252131D01*
X256563Y318667D01*
Y268152D01*
X256176Y267835D01*
X255906Y267889D01*
X255086Y267726D01*
X254392Y267262D01*
X253927Y266567D01*
X253764Y265748D01*
X253927Y264929D01*
X254392Y264234D01*
X255086Y263770D01*
X255588Y263670D01*
Y263670D01*
X255684Y263386D01*
X255588Y263102D01*
X255588D01*
X255588D01*
X255086Y263002D01*
X254392Y262538D01*
X253927Y261843D01*
X253764Y261024D01*
X253927Y260204D01*
X254392Y259510D01*
X255086Y259046D01*
X255906Y258882D01*
X256136Y258928D01*
X256382Y258468D01*
X256044Y258129D01*
X255845Y257832D01*
X255775Y257480D01*
Y232227D01*
X255179Y231829D01*
X254715Y231134D01*
X254552Y230315D01*
X254715Y229496D01*
X255179Y228801D01*
X255873Y228337D01*
X256693Y228174D01*
X257512Y228337D01*
X258207Y228801D01*
X258671Y229496D01*
X258834Y230315D01*
X258671Y231134D01*
X258207Y231829D01*
X257611Y232227D01*
Y257100D01*
X260649Y260139D01*
X260848Y260436D01*
X260918Y260787D01*
Y314707D01*
X261418Y314974D01*
X262017Y314574D01*
X262992Y314380D01*
X263968Y314574D01*
X264330Y314817D01*
X264830Y314549D01*
Y247442D01*
X264381Y247398D01*
X264352Y247395D01*
X264334Y247393D01*
X264330Y247393D01*
X264311Y247490D01*
Y247244D01*
Y246998D01*
X264330Y247095D01*
X264334Y247095D01*
X264352Y247093D01*
X264381Y247090D01*
X264830Y247046D01*
Y230259D01*
X264234Y229860D01*
X263770Y229166D01*
X263607Y228346D01*
X263770Y227527D01*
X264234Y226833D01*
X264929Y226368D01*
X265748Y226205D01*
X266567Y226368D01*
X267026Y226675D01*
X267026Y226675D01*
X267044Y226687D01*
X267044Y226687D01*
X267262Y226832D01*
X267262Y226832D01*
X267322Y226790D01*
X267608Y226591D01*
X267619Y226584D01*
X267619Y226584D01*
X267661Y226555D01*
X267664Y226553D01*
X267669Y226549D01*
X267667Y226545D01*
X267502Y226298D01*
D01*
X267313Y226016D01*
X267150Y225197D01*
X267313Y224377D01*
X267777Y223683D01*
X268472Y223219D01*
X269291Y223056D01*
X270111Y223219D01*
X270805Y223683D01*
X271269Y224377D01*
X271432Y225197D01*
X271269Y226016D01*
X270805Y226711D01*
X270209Y227109D01*
Y228740D01*
X270139Y229091D01*
X269940Y229389D01*
X268033Y231296D01*
X268063Y231507D01*
X268593Y231684D01*
X273723Y226555D01*
Y213056D01*
X273249Y212895D01*
X273095Y213095D01*
X272189Y213791D01*
X271133Y214228D01*
X270000Y214378D01*
X268867Y214228D01*
X267811Y213791D01*
X266905Y213095D01*
X266209Y212189D01*
X265772Y211133D01*
X265622Y210000D01*
X265772Y208867D01*
X266209Y207811D01*
X266905Y206905D01*
X267811Y206209D01*
X268867Y205772D01*
X270000Y205622D01*
X271133Y205772D01*
X272189Y206209D01*
X273095Y206905D01*
X273249Y207105D01*
X273723Y206944D01*
Y205020D01*
X272361Y203659D01*
X272189Y203791D01*
X271133Y204228D01*
X270000Y204378D01*
X268867Y204228D01*
X267811Y203791D01*
X266905Y203095D01*
X266209Y202189D01*
X265772Y201133D01*
X265622Y200000D01*
X265772Y198867D01*
X266209Y197811D01*
X266905Y196905D01*
X267811Y196209D01*
X268867Y195772D01*
X270000Y195622D01*
X271133Y195772D01*
X272189Y196209D01*
X273095Y196905D01*
X273791Y197811D01*
X274228Y198867D01*
X274378Y200000D01*
X274228Y201133D01*
X273791Y202189D01*
X273659Y202361D01*
X275289Y203991D01*
X275488Y204289D01*
X275558Y204640D01*
Y208077D01*
X276058Y208176D01*
X276209Y207811D01*
X276905Y206905D01*
X277811Y206209D01*
X278867Y205772D01*
X280000Y205622D01*
X281133Y205772D01*
X282189Y206209D01*
X283095Y206905D01*
X283791Y207811D01*
X284228Y208867D01*
X284378Y210000D01*
X284228Y211133D01*
X283791Y212189D01*
X283095Y213095D01*
X282189Y213791D01*
X281133Y214228D01*
X280748Y214279D01*
Y224781D01*
X281210Y224972D01*
X289082Y217100D01*
Y214257D01*
X288867Y214228D01*
X287811Y213791D01*
X286905Y213095D01*
X286209Y212189D01*
X285772Y211133D01*
X285622Y210000D01*
X285772Y208867D01*
X286209Y207811D01*
X286905Y206905D01*
X287811Y206209D01*
X288867Y205772D01*
X290000Y205622D01*
X291133Y205772D01*
X292189Y206209D01*
X293095Y206905D01*
X293249Y207105D01*
X293723Y206944D01*
Y205360D01*
X293792Y205009D01*
X293991Y204711D01*
X296341Y202361D01*
X296209Y202189D01*
X295772Y201133D01*
X295622Y200000D01*
X295772Y198867D01*
X296209Y197811D01*
X296905Y196905D01*
X297811Y196209D01*
X298867Y195772D01*
X300000Y195622D01*
X301133Y195772D01*
X302189Y196209D01*
X303095Y196905D01*
X303791Y197811D01*
X304228Y198867D01*
X304378Y200000D01*
X304228Y201133D01*
X303791Y202189D01*
X303095Y203095D01*
X302189Y203791D01*
X301133Y204228D01*
X300000Y204378D01*
X298867Y204228D01*
X297811Y203791D01*
X297639Y203659D01*
X295558Y205740D01*
Y208077D01*
X296058Y208176D01*
X296209Y207811D01*
X296905Y206905D01*
X297811Y206209D01*
X298867Y205772D01*
X300000Y205622D01*
X301133Y205772D01*
X302189Y206209D01*
X303095Y206905D01*
X303791Y207811D01*
X304228Y208867D01*
X304378Y210000D01*
X304228Y211133D01*
X303791Y212189D01*
X303095Y213095D01*
X302189Y213791D01*
X301133Y214228D01*
X300918Y214257D01*
Y291081D01*
X308620Y298783D01*
X309082Y298592D01*
Y214257D01*
X308867Y214228D01*
X307811Y213791D01*
X306905Y213095D01*
X306209Y212189D01*
X305772Y211133D01*
X305622Y210000D01*
X305772Y208867D01*
X306209Y207811D01*
X306905Y206905D01*
X307811Y206209D01*
X308867Y205772D01*
X310000Y205622D01*
X311133Y205772D01*
X312189Y206209D01*
X313095Y206905D01*
X313791Y207811D01*
X314228Y208867D01*
X314378Y210000D01*
X314228Y211133D01*
X313791Y212189D01*
X313095Y213095D01*
X312189Y213791D01*
X311133Y214228D01*
X310918Y214257D01*
Y299384D01*
X318194Y306660D01*
X318898Y306520D01*
X319199Y306580D01*
X319445Y306119D01*
X314312Y300986D01*
X314113Y300688D01*
X314043Y300337D01*
Y285377D01*
X313447Y284979D01*
X312983Y284284D01*
X312820Y283465D01*
X312983Y282645D01*
X313447Y281951D01*
X314141Y281486D01*
X314961Y281323D01*
X315780Y281486D01*
X316475Y281951D01*
X316939Y282645D01*
X317102Y283465D01*
X316939Y284284D01*
X316475Y284979D01*
X315878Y285377D01*
Y299957D01*
X329120Y313199D01*
X434716D01*
X437822Y310092D01*
Y281309D01*
X436565D01*
Y276565D01*
X440915D01*
Y281309D01*
X439658D01*
Y310472D01*
X439588Y310824D01*
X439389Y311121D01*
X436573Y313937D01*
X436765Y314399D01*
X449807D01*
X455775Y308431D01*
Y264173D01*
X455834Y263880D01*
X455845Y263822D01*
X456044Y263524D01*
X460217Y259351D01*
X460515Y259152D01*
X460866Y259082D01*
X464247D01*
X464276Y258867D01*
X464713Y257811D01*
X465409Y256905D01*
X466315Y256209D01*
X467371Y255772D01*
X468504Y255622D01*
X469637Y255772D01*
X470693Y256209D01*
X471599Y256905D01*
X472295Y257811D01*
X472732Y258867D01*
X472882Y260000D01*
X472732Y261133D01*
X472295Y262189D01*
X471599Y263095D01*
X470693Y263791D01*
X469637Y264228D01*
X468504Y264378D01*
X467371Y264228D01*
X466315Y263791D01*
X465409Y263095D01*
X464713Y262189D01*
X464276Y261133D01*
X464247Y260918D01*
X461246D01*
X457611Y264553D01*
Y271147D01*
X458073Y271339D01*
X460060Y269351D01*
X460358Y269152D01*
X460709Y269082D01*
X464247D01*
X464276Y268867D01*
X464713Y267811D01*
X465409Y266905D01*
X466315Y266209D01*
X467371Y265772D01*
X468504Y265622D01*
X469637Y265772D01*
X470693Y266209D01*
X471599Y266905D01*
X472295Y267811D01*
X472732Y268867D01*
X472882Y270000D01*
X472732Y271133D01*
X472295Y272189D01*
X471599Y273095D01*
X470693Y273791D01*
X469637Y274228D01*
X468504Y274378D01*
X467371Y274228D01*
X466315Y273791D01*
X465409Y273095D01*
X464713Y272189D01*
X464276Y271133D01*
X464247Y270918D01*
X461089D01*
X458811Y273196D01*
Y281393D01*
X459310Y281600D01*
X461560Y279351D01*
X461858Y279152D01*
X461916Y279141D01*
X462209Y279082D01*
X464247D01*
X464276Y278867D01*
X464713Y277811D01*
X465409Y276905D01*
X466315Y276209D01*
X467371Y275772D01*
X468504Y275622D01*
X469637Y275772D01*
X470693Y276209D01*
X471599Y276905D01*
X472295Y277811D01*
X472732Y278867D01*
X472882Y280000D01*
X472732Y281133D01*
X472295Y282189D01*
X471599Y283095D01*
X470693Y283791D01*
X469637Y284228D01*
X468504Y284378D01*
X467371Y284228D01*
X466315Y283791D01*
X465409Y283095D01*
X464713Y282189D01*
X464276Y281133D01*
X464247Y280918D01*
X462589D01*
X460408Y283099D01*
Y309407D01*
X460350Y309700D01*
X460338Y309759D01*
X460139Y310056D01*
X451830Y318365D01*
X451532Y318564D01*
X451181Y318634D01*
X348412D01*
X348064Y318982D01*
X348204Y319685D01*
X348041Y320504D01*
X347577Y321199D01*
X347027Y321567D01*
X347179Y322067D01*
X382406D01*
X382757Y322136D01*
X383055Y322335D01*
X419055Y358335D01*
X419517Y358144D01*
Y356611D01*
X418958Y356238D01*
X418493Y355543D01*
X418330Y354724D01*
X418493Y353904D01*
X418958Y353210D01*
X419652Y352746D01*
X420472Y352583D01*
X421291Y352746D01*
X421986Y353210D01*
X422450Y353904D01*
X422613Y354724D01*
X422574Y354920D01*
X422994Y355371D01*
X423654Y355502D01*
X424349Y355966D01*
X424813Y356661D01*
X424976Y357480D01*
X424836Y358184D01*
X426443Y359791D01*
X464247D01*
X464276Y359576D01*
X464713Y358520D01*
X465409Y357613D01*
X466315Y356918D01*
X467371Y356480D01*
X468504Y356331D01*
X469637Y356480D01*
X470693Y356918D01*
X471599Y357613D01*
X472295Y358520D01*
X472732Y359576D01*
X472882Y360709D01*
X472732Y361842D01*
X472295Y362897D01*
X471599Y363804D01*
X470693Y364500D01*
X469637Y364937D01*
X468504Y365086D01*
X467371Y364937D01*
X466315Y364500D01*
X465409Y363804D01*
X464713Y362897D01*
X464276Y361842D01*
X464247Y361626D01*
X426063D01*
X425712Y361556D01*
X425414Y361357D01*
X423538Y359482D01*
X422835Y359622D01*
X422723Y359599D01*
X422477Y360060D01*
X432208Y369791D01*
X464247D01*
X464276Y369576D01*
X464713Y368520D01*
X465409Y367613D01*
X466315Y366917D01*
X467371Y366480D01*
X468504Y366331D01*
X469637Y366480D01*
X470693Y366917D01*
X471599Y367613D01*
X472295Y368520D01*
X472732Y369576D01*
X472882Y370709D01*
X472732Y371842D01*
X472295Y372898D01*
X471599Y373804D01*
X470693Y374500D01*
X469637Y374937D01*
X468504Y375086D01*
X467371Y374937D01*
X466315Y374500D01*
X465409Y373804D01*
X464713Y372898D01*
X464276Y371842D01*
X464247Y371626D01*
X432999D01*
X432808Y372088D01*
X436480Y375760D01*
X436679Y376058D01*
X436690Y376116D01*
X436748Y376409D01*
Y376762D01*
X437257Y377101D01*
X437694Y377756D01*
X437847Y378528D01*
Y386008D01*
X437694Y386780D01*
X437257Y387434D01*
X436602Y387871D01*
X435831Y388025D01*
X435059Y387871D01*
X434405Y387434D01*
X433967Y386780D01*
X433814Y386008D01*
Y378528D01*
X433967Y377756D01*
X434405Y377101D01*
X434569Y376992D01*
X434618Y376494D01*
X427210Y369086D01*
X426748Y369278D01*
Y376762D01*
X427257Y377101D01*
X427694Y377756D01*
X427847Y378528D01*
Y386008D01*
X427694Y386780D01*
X427257Y387434D01*
X426603Y387871D01*
X425831Y388025D01*
X425059Y387871D01*
X424405Y387434D01*
X423968Y386780D01*
X423814Y386008D01*
Y378528D01*
X423968Y377756D01*
X424405Y377101D01*
X424913Y376762D01*
Y368486D01*
X417210Y360783D01*
X416748Y360975D01*
Y376762D01*
X417257Y377101D01*
X417694Y377756D01*
X417847Y378528D01*
Y386008D01*
X417694Y386780D01*
X417257Y387434D01*
X416603Y387871D01*
X415831Y388025D01*
X415059Y387871D01*
X414405Y387434D01*
X413968Y386780D01*
X413814Y386008D01*
Y378528D01*
X413968Y377756D01*
X414405Y377101D01*
X414913Y376762D01*
Y360183D01*
X413584Y358854D01*
X413122Y359046D01*
Y392715D01*
X415159Y394752D01*
X420360D01*
X420551Y394290D01*
X420182Y393920D01*
X419983Y393623D01*
X419913Y393272D01*
Y387774D01*
X419405Y387434D01*
X418967Y386780D01*
X418814Y386008D01*
Y378528D01*
X418967Y377756D01*
X419405Y377101D01*
X420059Y376664D01*
X420831Y376511D01*
X421602Y376664D01*
X422257Y377101D01*
X422694Y377756D01*
X422847Y378528D01*
Y386008D01*
X422694Y386780D01*
X422257Y387434D01*
X421748Y387774D01*
Y392892D01*
X423608Y394752D01*
X430202D01*
X430394Y394290D01*
X430182Y394078D01*
X429983Y393780D01*
X429913Y393429D01*
Y387774D01*
X429405Y387434D01*
X428968Y386780D01*
X428814Y386008D01*
Y378528D01*
X428968Y377756D01*
X429405Y377101D01*
X430059Y376664D01*
X430831Y376511D01*
X431602Y376664D01*
X432257Y377101D01*
X432694Y377756D01*
X432847Y378528D01*
Y386008D01*
X432694Y386780D01*
X432257Y387434D01*
X431748Y387774D01*
Y393049D01*
X433451Y394752D01*
X440438D01*
X440630Y394290D01*
X440182Y393842D01*
X439983Y393544D01*
X439913Y393193D01*
Y387774D01*
X439405Y387434D01*
X438968Y386780D01*
X438814Y386008D01*
Y378528D01*
X438968Y377756D01*
X439405Y377101D01*
X440059Y376664D01*
X440831Y376511D01*
X441603Y376664D01*
X442257Y377101D01*
X442694Y377756D01*
X442847Y378528D01*
Y386008D01*
X442694Y386780D01*
X442257Y387434D01*
X441748Y387774D01*
Y392813D01*
X443956Y395020D01*
X443956Y395021D01*
X446480Y397544D01*
X446678Y397842D01*
X446748Y398193D01*
Y412982D01*
X447257Y413322D01*
X447694Y413976D01*
X447847Y414748D01*
Y417571D01*
X448814D01*
Y414748D01*
X448968Y413976D01*
X449405Y413322D01*
X450059Y412885D01*
X450831Y412731D01*
X451603Y412885D01*
X452257Y413322D01*
X452694Y413976D01*
X452847Y414748D01*
Y422228D01*
X452694Y423000D01*
X452257Y423654D01*
X451603Y424092D01*
X450831Y424245D01*
X450059Y424092D01*
X449405Y423654D01*
X448968Y423000D01*
X448814Y422228D01*
Y419406D01*
X447847D01*
Y422228D01*
X447694Y423000D01*
X447257Y423654D01*
X446602Y424092D01*
X445831Y424245D01*
X445059Y424092D01*
X444926Y424003D01*
X444423Y424248D01*
X444385Y424584D01*
X446049Y426248D01*
X457274D01*
Y424794D01*
X462411D01*
Y426248D01*
X463179D01*
Y424794D01*
X468317D01*
Y429537D01*
X463179D01*
Y428083D01*
X462411D01*
Y429537D01*
X457274D01*
Y428083D01*
X445669D01*
X445318Y428013D01*
X445020Y427814D01*
X442658Y425452D01*
X442459Y425154D01*
X442389Y424803D01*
Y424706D01*
X441889Y424422D01*
X441850Y424446D01*
Y435267D01*
X448959Y442376D01*
X449132Y442243D01*
X450284Y441766D01*
X451520Y441603D01*
X452755Y441766D01*
X453907Y442243D01*
X454896Y443002D01*
X455655Y443991D01*
X455961Y444729D01*
X456461Y444630D01*
Y440551D01*
X456538Y440161D01*
X456759Y439830D01*
X458823Y437767D01*
Y435836D01*
X457274D01*
Y431093D01*
X462411D01*
Y435836D01*
X460862D01*
Y438189D01*
X460784Y438579D01*
X460564Y438910D01*
X458500Y440974D01*
Y444364D01*
X459000Y444463D01*
X459196Y443991D01*
X459955Y443002D01*
X460943Y442243D01*
X462095Y441766D01*
X462311Y441738D01*
Y440606D01*
X462389Y440216D01*
X462610Y439885D01*
X464728Y437767D01*
Y435836D01*
X463179D01*
Y431093D01*
X468317D01*
Y435836D01*
X466768D01*
Y438189D01*
X466690Y438579D01*
X466469Y438910D01*
X464350Y441029D01*
Y441738D01*
X464567Y441766D01*
X465718Y442243D01*
X466707Y443002D01*
X467466Y443991D01*
X467943Y445142D01*
X468105Y446378D01*
X467943Y447614D01*
X467466Y448765D01*
X466707Y449754D01*
X465718Y450513D01*
X464567Y450990D01*
X463331Y451153D01*
X462095Y450990D01*
X460943Y450513D01*
X459955Y449754D01*
X459196Y448765D01*
X459000Y448293D01*
X458500Y448392D01*
Y452228D01*
X458422Y452619D01*
X458201Y452949D01*
X455522Y455629D01*
X455655Y455802D01*
X456132Y456953D01*
X456294Y458189D01*
X456132Y459425D01*
X455655Y460576D01*
X454896Y461565D01*
X453907Y462324D01*
X452755Y462801D01*
X451520Y462964D01*
X450284Y462801D01*
X449132Y462324D01*
X448143Y461565D01*
X447385Y460576D01*
X447189Y460104D01*
X446689Y460203D01*
Y461389D01*
X448847Y463547D01*
X469656D01*
X472311Y460893D01*
Y427736D01*
X472035Y427622D01*
X471499Y427210D01*
X471087Y426673D01*
X470828Y426049D01*
X470740Y425378D01*
X470828Y424707D01*
X471087Y424083D01*
X471499Y423546D01*
X472035Y423134D01*
X472660Y422876D01*
X473331Y422787D01*
X474001Y422876D01*
X474626Y423134D01*
X475163Y423546D01*
X475574Y424083D01*
X475833Y424707D01*
X475921Y425378D01*
X475833Y426049D01*
X475574Y426673D01*
X475163Y427210D01*
X474626Y427622D01*
X474350Y427736D01*
Y461315D01*
X474273Y461705D01*
X474052Y462036D01*
X470800Y465288D01*
X470469Y465509D01*
X470079Y465587D01*
X448425D01*
X448035Y465509D01*
X447704Y465288D01*
X444948Y462532D01*
X444727Y462201D01*
X444650Y461811D01*
Y459937D01*
X444150Y459838D01*
X443844Y460576D01*
X443085Y461565D01*
X442096Y462324D01*
X440944Y462801D01*
X440728Y462829D01*
Y463441D01*
X440651Y463831D01*
X440430Y464162D01*
X437729Y466863D01*
X437398Y467084D01*
X437008Y467161D01*
X398425D01*
X398035Y467084D01*
X397704Y466863D01*
X394610Y463768D01*
X394389Y463437D01*
X394311Y463047D01*
Y460899D01*
X392762D01*
Y456156D01*
X397899D01*
Y460899D01*
X396350D01*
Y462625D01*
X398848Y465122D01*
X436586D01*
X438411Y463297D01*
X438424Y463194D01*
X438280Y462721D01*
X437321Y462324D01*
X436332Y461565D01*
X435574Y460576D01*
X435097Y459425D01*
X434934Y458189D01*
X435097Y456953D01*
X435574Y455802D01*
X436332Y454813D01*
X437321Y454054D01*
X437737Y453882D01*
X437638Y453382D01*
X434147D01*
X431900Y455629D01*
X432033Y455802D01*
X432510Y456953D01*
X432672Y458189D01*
X432510Y459425D01*
X432033Y460576D01*
X431274Y461565D01*
X430285Y462324D01*
X429133Y462801D01*
X427898Y462964D01*
X426662Y462801D01*
X425510Y462324D01*
X424521Y461565D01*
X423763Y460576D01*
X423286Y459425D01*
X423123Y458189D01*
X423286Y456953D01*
X423763Y455802D01*
X424521Y454813D01*
X425510Y454054D01*
X426662Y453577D01*
X427898Y453414D01*
X429133Y453577D01*
X430285Y454054D01*
X430458Y454187D01*
X433004Y451641D01*
X433334Y451420D01*
X433724Y451343D01*
X438018D01*
X438117Y450843D01*
X437321Y450513D01*
X436332Y449754D01*
X435574Y448765D01*
X435097Y447614D01*
X434934Y446378D01*
X435097Y445142D01*
X435574Y443991D01*
X436332Y443002D01*
X437321Y442243D01*
X438473Y441766D01*
X438689Y441738D01*
Y440131D01*
X435106Y436548D01*
X434885Y436217D01*
X434807Y435827D01*
Y423923D01*
X434405Y423654D01*
X433967Y423000D01*
X433814Y422228D01*
Y414748D01*
X433967Y413976D01*
X434405Y413322D01*
X435059Y412885D01*
X435831Y412731D01*
X436602Y412885D01*
X437257Y413322D01*
X437694Y413976D01*
X437847Y414748D01*
Y422228D01*
X437694Y423000D01*
X437257Y423654D01*
X436846Y423929D01*
Y435404D01*
X440430Y438988D01*
X440651Y439319D01*
X440728Y439709D01*
Y441738D01*
X440944Y441766D01*
X442096Y442243D01*
X443085Y443002D01*
X443844Y443991D01*
X444321Y445142D01*
X444483Y446378D01*
X444321Y447614D01*
X443844Y448765D01*
X443085Y449754D01*
X442096Y450513D01*
X441300Y450843D01*
X441400Y451343D01*
X444095D01*
X444485Y451420D01*
X444815Y451641D01*
X446390Y453216D01*
X446611Y453547D01*
X446689Y453937D01*
Y456175D01*
X447189Y456274D01*
X447385Y455802D01*
X448143Y454813D01*
X449132Y454054D01*
X450284Y453577D01*
X451520Y453414D01*
X452755Y453577D01*
X453907Y454054D01*
X454080Y454187D01*
X456461Y451806D01*
Y448126D01*
X455961Y448027D01*
X455655Y448765D01*
X454896Y449754D01*
X453907Y450513D01*
X452755Y450990D01*
X451520Y451153D01*
X450284Y450990D01*
X449132Y450513D01*
X448143Y449754D01*
X447385Y448765D01*
X446908Y447614D01*
X446745Y446378D01*
X446908Y445142D01*
X447385Y443991D01*
X447517Y443818D01*
X440110Y436410D01*
X439889Y436079D01*
X439811Y435689D01*
Y423926D01*
X439405Y423654D01*
X438968Y423000D01*
X438814Y422228D01*
Y414748D01*
X438968Y413976D01*
X439405Y413322D01*
X440059Y412885D01*
X440831Y412731D01*
X441603Y412885D01*
X441889Y413077D01*
X442389Y412809D01*
Y399986D01*
X440190Y397787D01*
X414141D01*
X413789Y397717D01*
X413492Y397518D01*
X410356Y394382D01*
X410157Y394085D01*
X410087Y393733D01*
Y387322D01*
X409587Y387077D01*
X409087Y387411D01*
X408268Y387574D01*
X407448Y387411D01*
X406754Y386947D01*
X406492Y386555D01*
X405915D01*
Y388002D01*
X401172D01*
Y382865D01*
X405915D01*
Y384312D01*
X406492D01*
X406754Y383919D01*
X407448Y383455D01*
X408268Y383292D01*
X409087Y383455D01*
X409587Y383789D01*
X410087Y383545D01*
Y358852D01*
X404476Y353241D01*
X385923D01*
X385687Y353682D01*
X385836Y353904D01*
X385999Y354724D01*
X385960Y354920D01*
X386380Y355371D01*
X387040Y355502D01*
X387735Y355966D01*
X388199Y356661D01*
X388362Y357480D01*
X388199Y358300D01*
X387735Y358994D01*
X387040Y359458D01*
X386221Y359622D01*
X385401Y359458D01*
X384706Y358994D01*
X384308Y358398D01*
X374640D01*
X365460Y367578D01*
X365163Y367777D01*
X364811Y367847D01*
X317660D01*
X317262Y368443D01*
X316567Y368907D01*
X315748Y369070D01*
X314929Y368907D01*
X314234Y368443D01*
X313770Y367748D01*
X313607Y366929D01*
X313770Y366110D01*
X314117Y365591D01*
X313888Y365091D01*
X309449D01*
X309098Y365021D01*
X308800Y364822D01*
X303557Y359579D01*
X284804D01*
X284652Y360079D01*
X284979Y360297D01*
X285377Y360893D01*
X290158D01*
X290509Y360963D01*
X290806Y361162D01*
X291980Y362335D01*
X292179Y362633D01*
X292248Y362984D01*
Y363978D01*
X301581D01*
Y363978D01*
X302281D01*
Y367478D01*
X304681D01*
Y368017D01*
X305122Y368252D01*
X305324Y368117D01*
X306299Y367923D01*
X306545Y367972D01*
X306299D01*
Y372972D01*
X307648D01*
X307700Y373145D01*
X323957D01*
X324308Y373214D01*
X324606Y373413D01*
X330570Y379378D01*
X330769Y379675D01*
X330782Y379741D01*
X330788Y379750D01*
X330858Y380101D01*
Y381710D01*
X331301Y382153D01*
X332905D01*
X333258Y381800D01*
Y381612D01*
X333258Y381290D01*
Y381201D01*
Y381112D01*
X333258Y380790D01*
Y377550D01*
X338789D01*
X338789Y377550D01*
Y377550D01*
X339278Y377524D01*
X339535Y377353D01*
X340354Y377190D01*
X341174Y377353D01*
X341868Y377817D01*
X342333Y378511D01*
X342495Y379331D01*
X342333Y380150D01*
X341868Y380845D01*
X341174Y381309D01*
X340354Y381472D01*
X339535Y381309D01*
X339278Y381137D01*
X339173Y381132D01*
X338789Y381470D01*
X338789Y381612D01*
Y384530D01*
X338789Y384852D01*
Y384941D01*
Y385030D01*
X338789Y385352D01*
Y388592D01*
X336900D01*
X336883Y388679D01*
X336871Y388737D01*
X336672Y389035D01*
X336656Y389051D01*
X336427Y389361D01*
X336427D01*
Y394104D01*
X331290D01*
Y389361D01*
X332943D01*
X333011Y389019D01*
X333026Y388996D01*
X333026Y388996D01*
X333258Y388592D01*
Y388592D01*
X333258Y388592D01*
X333258Y388592D01*
Y385352D01*
X333258Y385030D01*
Y384941D01*
Y384852D01*
X333258Y384530D01*
Y383988D01*
X330921D01*
X330570Y383919D01*
X330272Y383720D01*
X330120Y383567D01*
X329658Y383758D01*
Y387402D01*
X329588Y387753D01*
X329389Y388050D01*
X328541Y388899D01*
X328732Y389361D01*
X328946D01*
Y394104D01*
X323810D01*
Y389361D01*
X325443D01*
X325642Y389074D01*
X325416Y388592D01*
X321841D01*
Y387729D01*
X317913D01*
X317562Y387659D01*
X317265Y387460D01*
X316280Y386476D01*
X316117Y386232D01*
X316110Y386230D01*
X315415Y385766D01*
X314951Y385071D01*
X314879Y384712D01*
X314380Y384761D01*
Y387805D01*
X312593D01*
X312556Y387989D01*
X312335Y388319D01*
X311756Y388899D01*
X311947Y389361D01*
X312017D01*
Y394104D01*
X306880D01*
Y389361D01*
X308516D01*
X308728Y389043D01*
X309504Y388267D01*
X309313Y387805D01*
X308849D01*
Y384565D01*
X308849Y384243D01*
Y384154D01*
Y384065D01*
X308849Y383742D01*
Y383201D01*
X306693D01*
X306342Y383131D01*
X306044Y382932D01*
X305812Y382700D01*
X305350Y382892D01*
Y387795D01*
X305273Y388186D01*
X305052Y388516D01*
X304707Y388861D01*
X304914Y389361D01*
X304931D01*
Y394104D01*
X299794D01*
Y390823D01*
X299294Y390672D01*
X299152Y390884D01*
X298457Y391348D01*
X297638Y391511D01*
X296818Y391348D01*
X296281Y390989D01*
X295781Y391202D01*
Y420861D01*
X297624Y422704D01*
X311024D01*
X311375Y422774D01*
X311672Y422973D01*
X312980Y424280D01*
X313178Y424578D01*
X313190Y424636D01*
X313234Y424857D01*
X314899D01*
Y426311D01*
X315762D01*
Y424857D01*
X320899D01*
Y429600D01*
X315762D01*
Y428146D01*
X314899D01*
Y429600D01*
X309762D01*
Y424857D01*
X309394Y424540D01*
X306268D01*
X305899Y424857D01*
Y429600D01*
X300762D01*
Y428146D01*
X299899D01*
Y429600D01*
X294762D01*
Y428146D01*
X293370D01*
X293019Y428076D01*
X292721Y427877D01*
X291969Y427125D01*
X291469Y427332D01*
Y429528D01*
X291399Y429879D01*
X291200Y430176D01*
X290413Y430964D01*
X290115Y431163D01*
X289899Y431206D01*
Y435899D01*
X288350D01*
Y437302D01*
X288611Y437563D01*
X291732D01*
X292123Y437641D01*
X292453Y437862D01*
X293241Y438649D01*
X293462Y438980D01*
X293539Y439370D01*
Y441738D01*
X293756Y441766D01*
X294907Y442243D01*
X295896Y443002D01*
X296655Y443991D01*
X296906Y444596D01*
X297406Y444497D01*
Y441367D01*
X296523Y440485D01*
X296302Y440154D01*
X296224Y439764D01*
Y435899D01*
X294762D01*
Y431156D01*
X299899D01*
Y435899D01*
X298264D01*
Y439341D01*
X299146Y440224D01*
X299367Y440555D01*
X299445Y440945D01*
Y444497D01*
X299945Y444596D01*
X300196Y443991D01*
X300955Y443002D01*
X301943Y442243D01*
X303095Y441766D01*
X303311Y441738D01*
Y438611D01*
X302610Y437910D01*
X302389Y437579D01*
X302311Y437189D01*
Y435899D01*
X300762D01*
Y431156D01*
X305899D01*
Y432508D01*
X309762D01*
Y431156D01*
X314899D01*
Y435899D01*
X309762D01*
Y434547D01*
X305899D01*
Y435899D01*
X304350D01*
Y436767D01*
X305052Y437468D01*
X305273Y437799D01*
X305350Y438189D01*
Y441738D01*
X305567Y441766D01*
X306718Y442243D01*
X307707Y443002D01*
X308466Y443991D01*
X308943Y445142D01*
X309105Y446378D01*
X308943Y447614D01*
X308466Y448765D01*
X307707Y449754D01*
X306802Y450449D01*
X306876Y450949D01*
X312964D01*
X317311Y446601D01*
Y435899D01*
X315762D01*
Y431156D01*
X320899D01*
Y435899D01*
X319350D01*
Y447024D01*
X319273Y447414D01*
X319052Y447745D01*
X314107Y452690D01*
X313776Y452911D01*
X313386Y452988D01*
X304924D01*
X304891Y453488D01*
X305567Y453577D01*
X306718Y454054D01*
X307707Y454813D01*
X308466Y455802D01*
X308943Y456953D01*
X309105Y458189D01*
X308943Y459425D01*
X308466Y460576D01*
X307707Y461565D01*
X306718Y462324D01*
X306472Y462426D01*
Y475491D01*
X313879Y482898D01*
X473129D01*
X483686Y472341D01*
Y402673D01*
X483224Y402482D01*
X478679Y407026D01*
X477985Y407490D01*
X477165Y407653D01*
X453839D01*
X453786Y407723D01*
X453138Y408220D01*
X452384Y408532D01*
X451575Y408639D01*
X450766Y408532D01*
X450011Y408220D01*
X449364Y407723D01*
X448867Y407075D01*
X448555Y406321D01*
X448448Y405512D01*
X448555Y404703D01*
X448867Y403948D01*
X449364Y403301D01*
X450011Y402804D01*
X450766Y402492D01*
X451575Y402385D01*
X452384Y402492D01*
X453138Y402804D01*
X453786Y403301D01*
X453839Y403371D01*
X476278D01*
X483686Y395964D01*
Y201281D01*
X469979Y187574D01*
X300535D01*
X300343Y188036D01*
X308310Y196002D01*
X308867Y195772D01*
X310000Y195622D01*
X311133Y195772D01*
X312189Y196209D01*
X313095Y196905D01*
X313791Y197811D01*
X314228Y198867D01*
X314378Y200000D01*
X314228Y201133D01*
X313791Y202189D01*
X313095Y203095D01*
X312189Y203791D01*
X311133Y204228D01*
X310000Y204378D01*
X308867Y204228D01*
X307811Y203791D01*
X306905Y203095D01*
X306209Y202189D01*
X305772Y201133D01*
X305622Y200000D01*
X305772Y198867D01*
X306002Y198310D01*
X295267Y187574D01*
X254824D01*
X244868Y197530D01*
X244174Y197994D01*
X243354Y198157D01*
X239742D01*
Y199765D01*
X234818D01*
Y206299D01*
X234655Y207119D01*
X234191Y207813D01*
X229984Y212021D01*
Y225069D01*
X232380D01*
Y232962D01*
X223306D01*
Y225069D01*
X225701D01*
Y211134D01*
X225864Y210314D01*
X226328Y209620D01*
X230536Y205412D01*
Y199765D01*
X225943D01*
Y192266D01*
X231658D01*
Y190186D01*
X231074Y189602D01*
X205118D01*
X204728Y189525D01*
X204397Y189304D01*
X202129Y187035D01*
X200734D01*
Y188387D01*
X196778D01*
Y183644D01*
X200734D01*
Y184996D01*
X202551D01*
X202941Y185074D01*
X203272Y185295D01*
X205540Y187563D01*
X231496D01*
X231886Y187641D01*
X232217Y187862D01*
X233398Y189043D01*
X233619Y189374D01*
X233697Y189764D01*
Y192266D01*
X239742D01*
Y193875D01*
X242467D01*
X252423Y183919D01*
X253118Y183455D01*
X253937Y183292D01*
X470866D01*
X471686Y183455D01*
X472380Y183919D01*
X487341Y198880D01*
X487805Y199574D01*
X487968Y200394D01*
Y396850D01*
Y473228D01*
X487805Y474048D01*
X487341Y474742D01*
X475530Y486553D01*
X474835Y487017D01*
X474016Y487181D01*
D02*
G37*
G36*
X119891Y414576D02*
X114754D01*
Y409833D01*
X115793D01*
Y409021D01*
X115760Y409007D01*
X115112Y408510D01*
X114615Y407863D01*
X114303Y407108D01*
X114196Y406299D01*
X114303Y405490D01*
X114615Y404736D01*
X115112Y404088D01*
X115760Y403591D01*
X116514Y403279D01*
X117323Y403172D01*
X118132Y403279D01*
X118886Y403591D01*
X119534Y404088D01*
X120031Y404736D01*
X120343Y405490D01*
X120450Y406299D01*
X120343Y407108D01*
X120031Y407863D01*
X119534Y408510D01*
X118886Y409007D01*
X118852Y409021D01*
Y409833D01*
X119891D01*
Y414576D01*
D02*
G37*
G36*
X408661Y429505D02*
X407852Y429398D01*
X407098Y429086D01*
X406451Y428589D01*
X405954Y427941D01*
X405641Y427187D01*
X405535Y426378D01*
X405641Y425569D01*
X405954Y424815D01*
X406345Y424305D01*
Y420876D01*
X405305D01*
Y416132D01*
X410442D01*
Y420876D01*
X409403D01*
Y423349D01*
X409471Y423358D01*
X410225Y423670D01*
X410872Y424167D01*
X411369Y424815D01*
X411682Y425569D01*
X411691Y425636D01*
X414301D01*
Y423500D01*
X413968Y423000D01*
X413814Y422228D01*
Y414748D01*
X413968Y413976D01*
X414405Y413322D01*
X415059Y412885D01*
X415831Y412731D01*
X416603Y412885D01*
X417257Y413322D01*
X417694Y413976D01*
X417847Y414748D01*
Y422228D01*
X417694Y423000D01*
X417360Y423500D01*
Y425636D01*
X419052D01*
X419337Y425351D01*
Y423553D01*
X418967Y423000D01*
X418814Y422228D01*
Y414748D01*
X418967Y413976D01*
X419405Y413322D01*
X420059Y412885D01*
X420831Y412731D01*
X421602Y412885D01*
X422257Y413322D01*
X422694Y413976D01*
X422847Y414748D01*
Y422228D01*
X422694Y423000D01*
X422396Y423447D01*
Y425984D01*
X422279Y426570D01*
X421948Y427066D01*
X420766Y428247D01*
X420270Y428578D01*
X419685Y428695D01*
X410734D01*
X410225Y429086D01*
X409471Y429398D01*
X408661Y429505D01*
D02*
G37*
G36*
X416087Y451153D02*
X414851Y450990D01*
X413699Y450513D01*
X412710Y449754D01*
X411952Y448765D01*
X411475Y447614D01*
X411312Y446378D01*
X411475Y445142D01*
X411952Y443991D01*
X412710Y443002D01*
X413699Y442243D01*
X414851Y441766D01*
X416087Y441603D01*
X417322Y441766D01*
X418474Y442243D01*
X418647Y442376D01*
X424811Y436211D01*
Y423926D01*
X424405Y423654D01*
X423968Y423000D01*
X423814Y422228D01*
Y414748D01*
X423968Y413976D01*
X424405Y413322D01*
X425059Y412885D01*
X425831Y412731D01*
X426603Y412885D01*
X427257Y413322D01*
X427694Y413976D01*
X427847Y414748D01*
Y422228D01*
X427694Y423000D01*
X427257Y423654D01*
X426850Y423926D01*
Y436634D01*
X426773Y437024D01*
X426552Y437355D01*
X420089Y443818D01*
X420222Y443991D01*
X420699Y445142D01*
X420861Y446378D01*
X420699Y447614D01*
X420222Y448765D01*
X419463Y449754D01*
X418474Y450513D01*
X417322Y450990D01*
X416087Y451153D01*
D02*
G37*
G36*
X177480Y188757D02*
X175520D01*
X175207Y188695D01*
X174942Y188518D01*
X174765Y188253D01*
X174703Y187941D01*
Y182634D01*
X174765Y182321D01*
X174942Y182056D01*
X175207Y181879D01*
X175520Y181817D01*
X177480D01*
X177793Y181879D01*
X178058Y182056D01*
X178235Y182321D01*
X178297Y182634D01*
Y187941D01*
X178235Y188253D01*
X178058Y188518D01*
X177793Y188695D01*
X177480Y188757D01*
D02*
G37*
G36*
X129528Y429088D02*
X118898D01*
X118312Y428972D01*
X117816Y428641D01*
X116241Y427066D01*
X115910Y426570D01*
X115793Y425984D01*
Y420876D01*
X114754D01*
Y420033D01*
X111777D01*
X111763Y420067D01*
X111266Y420715D01*
X110618Y421212D01*
X109864Y421524D01*
X109055Y421631D01*
X108246Y421524D01*
X107492Y421212D01*
X106844Y420715D01*
X106347Y420067D01*
X106035Y419313D01*
X105928Y418504D01*
X106035Y417695D01*
X106347Y416941D01*
X106844Y416293D01*
X107492Y415796D01*
X108246Y415484D01*
X109055Y415377D01*
X109864Y415484D01*
X110618Y415796D01*
X111266Y416293D01*
X111763Y416941D01*
X111777Y416974D01*
X114754D01*
Y416132D01*
X119891D01*
Y420876D01*
X118852D01*
Y425351D01*
X119531Y426030D01*
X124301D01*
Y423500D01*
X123968Y423000D01*
X123814Y422228D01*
Y414748D01*
X123968Y413976D01*
X124405Y413322D01*
X125059Y412885D01*
X125831Y412731D01*
X126602Y412885D01*
X127257Y413322D01*
X127694Y413976D01*
X127847Y414748D01*
Y422228D01*
X127694Y423000D01*
X127360Y423500D01*
Y426030D01*
X128894D01*
X129301Y425622D01*
Y423500D01*
X128967Y423000D01*
X128814Y422228D01*
Y414748D01*
X128967Y413976D01*
X129405Y413322D01*
X130059Y412885D01*
X130831Y412731D01*
X131603Y412885D01*
X132257Y413322D01*
X132694Y413976D01*
X132847Y414748D01*
Y422228D01*
X132694Y423000D01*
X132360Y423500D01*
Y426256D01*
X132244Y426841D01*
X131912Y427337D01*
X130609Y428641D01*
X130113Y428972D01*
X129528Y429088D01*
D02*
G37*
G36*
X336427Y408277D02*
X331290D01*
Y403140D01*
X332839D01*
Y400403D01*
X331290D01*
Y395660D01*
X336427D01*
Y400403D01*
X334878D01*
Y403140D01*
X336427D01*
Y408277D01*
D02*
G37*
G36*
X397899Y454600D02*
X392762D01*
Y449857D01*
X397899D01*
Y451311D01*
X398966D01*
X401445Y448833D01*
Y409435D01*
X398833Y406823D01*
X380315D01*
X379964Y406753D01*
X379666Y406554D01*
X378485Y405373D01*
X378286Y405076D01*
X378216Y404724D01*
Y399213D01*
X378286Y398861D01*
X378485Y398564D01*
X379666Y397383D01*
X379964Y397184D01*
X380315Y397114D01*
X381449D01*
X381843Y396815D01*
X381834Y396315D01*
X377852D01*
Y397947D01*
X373109D01*
Y392810D01*
X374563D01*
Y391947D01*
X373109D01*
Y386809D01*
X373109D01*
X373009Y386351D01*
X371652D01*
X371553Y386809D01*
X371553Y386851D01*
Y391910D01*
X371553Y391947D01*
X371642Y392409D01*
X371953D01*
Y392878D01*
X369181D01*
X366409D01*
Y392409D01*
X366720D01*
X366809Y391947D01*
X366810Y391910D01*
Y390499D01*
X366338D01*
X366081Y390884D01*
X365386Y391348D01*
X364567Y391511D01*
X363748Y391348D01*
X363053Y390884D01*
X362589Y390190D01*
X362426Y389370D01*
X362589Y388551D01*
X363053Y387856D01*
X363748Y387392D01*
X364567Y387229D01*
X365386Y387392D01*
X366081Y387856D01*
X366091Y387871D01*
X366727Y387931D01*
X366810Y387850D01*
Y386851D01*
X366809Y386809D01*
X366710Y386351D01*
X345220D01*
X344821Y386947D01*
X344127Y387411D01*
X343307Y387574D01*
X342488Y387411D01*
X341793Y386947D01*
X341329Y386252D01*
X341166Y385433D01*
X341329Y384614D01*
X341793Y383919D01*
X342488Y383455D01*
X343307Y383292D01*
X344127Y383455D01*
X344821Y383919D01*
X345220Y384515D01*
X381892D01*
Y383978D01*
X381954Y383668D01*
X382130Y383405D01*
X382393Y383230D01*
X382703Y383168D01*
X384478D01*
X384788Y383230D01*
X385051Y383405D01*
X385227Y383668D01*
X385289Y383978D01*
Y386738D01*
X385227Y387048D01*
X385051Y387311D01*
X384788Y387487D01*
X384478Y387549D01*
X384433D01*
Y389041D01*
X385026Y389634D01*
X389764D01*
X390115Y389703D01*
X390413Y389902D01*
X391720Y391209D01*
X391919Y391507D01*
X391930Y391565D01*
X391988Y391858D01*
Y393213D01*
X392269Y393269D01*
X392532Y393445D01*
X392707Y393708D01*
X392769Y394018D01*
Y396778D01*
X392707Y397088D01*
X392532Y397351D01*
X392269Y397526D01*
X391959Y397588D01*
X390183D01*
X389873Y397526D01*
X389772Y397459D01*
X389238Y397507D01*
X389141Y397548D01*
X389080Y397639D01*
X388685Y397903D01*
X388653Y397909D01*
X388702Y398410D01*
X389953D01*
Y398878D01*
X387181D01*
Y401378D01*
X385177D01*
Y401181D01*
X380177D01*
Y402613D01*
X380051Y402651D01*
Y404344D01*
X380695Y404988D01*
X399213D01*
X399564Y405058D01*
X399862Y405257D01*
X403011Y408406D01*
X403210Y408704D01*
X403280Y409055D01*
Y449213D01*
X403222Y449506D01*
X403210Y449564D01*
X403011Y449861D01*
X399995Y452877D01*
X399698Y453076D01*
X399346Y453146D01*
X397899D01*
Y454600D01*
D02*
G37*
G36*
X312017Y408277D02*
X306880D01*
Y403140D01*
X308429D01*
Y400403D01*
X306880D01*
Y395660D01*
X312017D01*
Y400403D01*
X310468D01*
Y403140D01*
X312017D01*
Y408277D01*
D02*
G37*
G36*
X328946D02*
X323810D01*
Y403140D01*
X325358D01*
Y400403D01*
X323810D01*
Y395660D01*
X328946D01*
Y400403D01*
X327397D01*
Y403140D01*
X328946D01*
Y408277D01*
D02*
G37*
G36*
X193647Y202057D02*
X188117D01*
Y201226D01*
X188074Y201218D01*
X187744Y200997D01*
X187279Y200532D01*
X187058Y200201D01*
X186980Y199811D01*
Y193750D01*
X185628D01*
Y192990D01*
X185128Y192940D01*
X185049Y193339D01*
X184585Y194034D01*
X183890Y194498D01*
X183071Y194661D01*
X182252Y194498D01*
X181557Y194034D01*
X181093Y193339D01*
X180930Y192520D01*
X181093Y191700D01*
X181557Y191006D01*
X182153Y190607D01*
Y187008D01*
X182223Y186657D01*
X182422Y186359D01*
X183170Y185611D01*
X183468Y185412D01*
X183526Y185400D01*
X183819Y185342D01*
X185628D01*
Y184282D01*
X190372D01*
Y188238D01*
X185628D01*
Y187178D01*
X184199D01*
X183988Y187388D01*
Y190607D01*
X184585Y191006D01*
X185049Y191700D01*
X185128Y192099D01*
X185628Y192050D01*
Y189794D01*
X190372D01*
Y190713D01*
X192097D01*
X192225Y190585D01*
Y188387D01*
X191266D01*
Y183644D01*
X195222D01*
Y188387D01*
X194264D01*
Y191008D01*
X194186Y191398D01*
X193965Y191729D01*
X193241Y192453D01*
X192910Y192674D01*
X192520Y192752D01*
X190372D01*
Y193750D01*
X189020D01*
Y198495D01*
X193647D01*
Y202057D01*
D02*
G37*
G36*
X212695Y232962D02*
X203621D01*
Y225069D01*
X206271D01*
Y210907D01*
X205006Y209642D01*
X201118D01*
X200589Y209537D01*
X198353D01*
Y205975D01*
X198353D01*
X198353Y205975D01*
Y205797D01*
X198353D01*
X198353Y205797D01*
Y202557D01*
X198353Y202235D01*
Y202146D01*
Y202057D01*
X198353Y201735D01*
Y198495D01*
X203884D01*
Y201629D01*
X203884Y202057D01*
X204353Y202130D01*
X204353D01*
X210453D01*
X210702Y201805D01*
X211027Y201556D01*
Y199765D01*
X206258D01*
Y192266D01*
X220057D01*
Y199765D01*
X214800D01*
Y201556D01*
X215124Y201805D01*
X215621Y202452D01*
X215934Y203206D01*
X216040Y204016D01*
X215934Y204825D01*
X215621Y205579D01*
X215124Y206227D01*
X214477Y206724D01*
X213723Y207036D01*
X212913Y207142D01*
X212104Y207036D01*
X211350Y206724D01*
X210702Y206227D01*
X210453Y205902D01*
X207243D01*
X207091Y206402D01*
X207121Y206422D01*
X209491Y208792D01*
X209900Y209404D01*
X210044Y210126D01*
Y225069D01*
X212695D01*
Y232962D01*
D02*
G37*
G36*
X371953Y397894D02*
X366409D01*
Y397878D01*
X369181D01*
X371953D01*
Y397894D01*
D02*
G37*
G36*
X395852Y403946D02*
X391109D01*
Y398810D01*
X395852D01*
Y399665D01*
X396185Y399807D01*
X396352Y399843D01*
X397015Y399400D01*
X397835Y399237D01*
X398654Y399400D01*
X399349Y399864D01*
X399813Y400559D01*
X399976Y401378D01*
X399813Y402197D01*
X399349Y402892D01*
X398654Y403356D01*
X397835Y403519D01*
X397015Y403356D01*
X396352Y402913D01*
X396185Y402949D01*
X395852Y403090D01*
Y403946D01*
D02*
G37*
G36*
X236870Y429937D02*
X236402D01*
Y429854D01*
X236033Y429537D01*
X235902Y429537D01*
X230896D01*
Y424794D01*
X232392D01*
X232457Y424294D01*
X231951Y423955D01*
X231486Y423260D01*
X231323Y422441D01*
X231486Y421622D01*
X231951Y420927D01*
X232645Y420463D01*
X233465Y420300D01*
X234284Y420463D01*
X234979Y420927D01*
X235443Y421622D01*
X235606Y422441D01*
X235443Y423260D01*
X234979Y423955D01*
X234472Y424294D01*
X234537Y424794D01*
X235902D01*
X236033Y424794D01*
X236402Y424476D01*
Y424394D01*
X236870D01*
Y427165D01*
Y429937D01*
D02*
G37*
G36*
X242339Y424665D02*
X241870D01*
Y424394D01*
X242339D01*
Y424665D01*
D02*
G37*
G36*
X222697Y429937D02*
X222228D01*
Y429854D01*
X221860Y429537D01*
X221728Y429537D01*
X216723D01*
Y424794D01*
X218219D01*
X218284Y424294D01*
X217777Y423955D01*
X217313Y423260D01*
X217150Y422441D01*
X217313Y421622D01*
X217777Y420927D01*
X218472Y420463D01*
X219291Y420300D01*
X220111Y420463D01*
X220805Y420927D01*
X221269Y421622D01*
X221432Y422441D01*
X221269Y423260D01*
X220805Y423955D01*
X220298Y424294D01*
X220363Y424794D01*
X221728D01*
X221860Y424794D01*
X222228Y424476D01*
Y424394D01*
X222697D01*
Y427165D01*
Y429937D01*
D02*
G37*
G36*
X228165Y424665D02*
X227697D01*
Y424394D01*
X228165D01*
Y424665D01*
D02*
G37*
G36*
X371831Y424728D02*
X371362D01*
Y424457D01*
X371831D01*
Y424728D01*
D02*
G37*
G36*
X374331Y462964D02*
X373095Y462801D01*
X371943Y462324D01*
X370954Y461565D01*
X370196Y460576D01*
X369719Y459425D01*
X369556Y458189D01*
X369719Y456953D01*
X370196Y455802D01*
X370954Y454813D01*
X371943Y454054D01*
X373095Y453577D01*
X374331Y453414D01*
X375567Y453577D01*
X376718Y454054D01*
X377707Y454813D01*
X378466Y455802D01*
X378943Y456953D01*
X378971Y457169D01*
X385483D01*
X387169Y455483D01*
Y428657D01*
X386669Y428506D01*
X386553Y428679D01*
X385859Y429143D01*
X385039Y429307D01*
X384220Y429143D01*
X383525Y428679D01*
X383399Y428491D01*
X382899Y428642D01*
Y429600D01*
X377799D01*
X377762Y429600D01*
X377299Y429689D01*
Y430000D01*
X376831D01*
Y427228D01*
Y424457D01*
X377299D01*
Y424767D01*
X377299D01*
X377762Y424857D01*
X377799Y424857D01*
X379272D01*
Y424165D01*
X377488Y422381D01*
X366452D01*
Y424857D01*
X367899D01*
Y429600D01*
X362799D01*
X362762Y429600D01*
X362299Y429689D01*
Y430000D01*
X361831D01*
Y427228D01*
Y424457D01*
X362299D01*
Y424767D01*
X362299D01*
X362762Y424857D01*
X362799Y424857D01*
X364209D01*
Y422381D01*
X346921D01*
X345452Y423850D01*
Y424503D01*
X345806Y424857D01*
X346862D01*
X346899Y424857D01*
X347362Y424767D01*
Y424457D01*
X347831D01*
Y427228D01*
Y430000D01*
X347362D01*
Y429689D01*
X347362D01*
X346899Y429600D01*
X346862Y429600D01*
X341762D01*
Y424857D01*
X343209D01*
Y423386D01*
X343209Y423386D01*
X343295Y422957D01*
X343538Y422593D01*
X345664Y420467D01*
X345664Y420467D01*
X346027Y420224D01*
X346457Y420138D01*
X377953D01*
X377953Y420138D01*
X378382Y420224D01*
X378746Y420467D01*
X381187Y422908D01*
X381187Y422908D01*
X381430Y423272D01*
X381515Y423701D01*
X381515Y423701D01*
Y424857D01*
X382899D01*
Y425689D01*
X383399Y425840D01*
X383525Y425651D01*
X384220Y425187D01*
X385039Y425024D01*
X385859Y425187D01*
X386553Y425651D01*
X386975Y426282D01*
X387205Y426358D01*
X387534Y426379D01*
X389255Y424657D01*
X389586Y424436D01*
X389976Y424358D01*
X391087D01*
X391102Y424245D01*
X391540Y423189D01*
X392235Y422283D01*
X393142Y421587D01*
X394198Y421149D01*
X395331Y421000D01*
X396464Y421149D01*
X397519Y421587D01*
X398426Y422283D01*
X399122Y423189D01*
X399559Y424245D01*
X399708Y425378D01*
X399559Y426511D01*
X399122Y427567D01*
X398426Y428473D01*
X397519Y429169D01*
X396464Y429606D01*
X395331Y429756D01*
X394198Y429606D01*
X393142Y429169D01*
X392235Y428473D01*
X391540Y427567D01*
X391102Y426511D01*
X391087Y426398D01*
X390399D01*
X389209Y427588D01*
Y455905D01*
X389131Y456296D01*
X388910Y456627D01*
X386627Y458910D01*
X386296Y459131D01*
X385906Y459209D01*
X378971D01*
X378943Y459425D01*
X378466Y460576D01*
X377707Y461565D01*
X376718Y462324D01*
X375567Y462801D01*
X374331Y462964D01*
D02*
G37*
G36*
X353299Y424728D02*
X352831D01*
Y424457D01*
X353299D01*
Y424728D01*
D02*
G37*
G36*
X356831D02*
X356362D01*
Y424457D01*
X356831D01*
Y424728D01*
D02*
G37*
G36*
X395331Y419756D02*
X394198Y419606D01*
X393142Y419169D01*
X392235Y418473D01*
X391540Y417567D01*
X391102Y416511D01*
X391087Y416397D01*
X387032D01*
X386641Y416320D01*
X386311Y416099D01*
X383633Y413421D01*
X336427D01*
Y414970D01*
X331290D01*
Y413421D01*
X328946D01*
Y414970D01*
X323810D01*
Y413421D01*
X312017D01*
Y414970D01*
X306880D01*
Y413421D01*
X304931D01*
Y414970D01*
X299794D01*
Y409833D01*
X304931D01*
Y411382D01*
X306880D01*
Y409833D01*
X312017D01*
Y411382D01*
X323810D01*
Y409833D01*
X328946D01*
Y411382D01*
X331290D01*
Y409833D01*
X336427D01*
Y411382D01*
X384055D01*
X384445Y411460D01*
X384776Y411681D01*
X387454Y414358D01*
X391087D01*
X391102Y414245D01*
X391540Y413189D01*
X392235Y412283D01*
X393142Y411587D01*
X394198Y411150D01*
X395331Y411000D01*
X396464Y411150D01*
X397519Y411587D01*
X398426Y412283D01*
X399122Y413189D01*
X399559Y414245D01*
X399708Y415378D01*
X399559Y416511D01*
X399122Y417567D01*
X398426Y418473D01*
X397519Y419169D01*
X396464Y419606D01*
X395331Y419756D01*
D02*
G37*
G36*
X195138Y429937D02*
X194669D01*
Y429854D01*
X194301Y429537D01*
X194169Y429537D01*
X189164D01*
Y424794D01*
X190660D01*
X190725Y424294D01*
X190218Y423955D01*
X189754Y423260D01*
X189591Y422441D01*
X189754Y421622D01*
X190218Y420927D01*
X190913Y420463D01*
X191732Y420300D01*
X192552Y420463D01*
X193246Y420927D01*
X193710Y421622D01*
X193873Y422441D01*
X193710Y423260D01*
X193246Y423955D01*
X192739Y424294D01*
X192804Y424794D01*
X194169D01*
X194301Y424794D01*
X194669Y424476D01*
Y424394D01*
X195138D01*
Y427165D01*
Y429937D01*
D02*
G37*
G36*
X427898Y451153D02*
X426662Y450990D01*
X425510Y450513D01*
X424521Y449754D01*
X423763Y448765D01*
X423286Y447614D01*
X423123Y446378D01*
X423286Y445142D01*
X423763Y443991D01*
X424521Y443002D01*
X425510Y442243D01*
X426662Y441766D01*
X426878Y441738D01*
Y439032D01*
X426956Y438641D01*
X427177Y438310D01*
X429811Y435676D01*
Y423926D01*
X429405Y423654D01*
X428968Y423000D01*
X428814Y422228D01*
Y414748D01*
X428968Y413976D01*
X429405Y413322D01*
X430059Y412885D01*
X430831Y412731D01*
X431602Y412885D01*
X432257Y413322D01*
X432694Y413976D01*
X432847Y414748D01*
Y422228D01*
X432694Y423000D01*
X432257Y423654D01*
X431850Y423926D01*
Y436098D01*
X431773Y436489D01*
X431552Y436819D01*
X428917Y439454D01*
Y441738D01*
X429133Y441766D01*
X430285Y442243D01*
X431274Y443002D01*
X432033Y443991D01*
X432510Y445142D01*
X432672Y446378D01*
X432510Y447614D01*
X432033Y448765D01*
X431274Y449754D01*
X430285Y450513D01*
X429133Y450990D01*
X427898Y451153D01*
D02*
G37*
G36*
X463386Y422220D02*
X462566Y422057D01*
X461872Y421593D01*
X461408Y420898D01*
X461245Y420079D01*
X461408Y419259D01*
X461872Y418565D01*
X462566Y418101D01*
X463386Y417938D01*
X464205Y418101D01*
X464900Y418565D01*
X465230Y419059D01*
X468208D01*
X470942Y416324D01*
X470828Y416048D01*
X470740Y415378D01*
X470828Y414707D01*
X471087Y414083D01*
X471499Y413546D01*
X472035Y413134D01*
X472660Y412876D01*
X473331Y412787D01*
X474001Y412876D01*
X474626Y413134D01*
X475163Y413546D01*
X475574Y414083D01*
X475833Y414707D01*
X475921Y415378D01*
X475833Y416048D01*
X475574Y416673D01*
X475163Y417210D01*
X474626Y417622D01*
X474001Y417880D01*
X473331Y417969D01*
X472660Y417880D01*
X472385Y417766D01*
X469351Y420800D01*
X469020Y421021D01*
X468630Y421098D01*
X465230D01*
X464900Y421593D01*
X464205Y422057D01*
X463386Y422220D01*
D02*
G37*
G36*
X214386Y424665D02*
X213917D01*
Y424394D01*
X214386D01*
Y424665D01*
D02*
G37*
G36*
X208917Y429937D02*
X208449D01*
Y429854D01*
X208080Y429537D01*
X207949Y429537D01*
X202943D01*
Y424794D01*
X204440D01*
X204505Y424294D01*
X203998Y423955D01*
X203534Y423260D01*
X203371Y422441D01*
X203534Y421622D01*
X203998Y420927D01*
X204692Y420463D01*
X205512Y420300D01*
X206331Y420463D01*
X207026Y420927D01*
X207490Y421622D01*
X207653Y422441D01*
X207490Y423260D01*
X207026Y423955D01*
X206519Y424294D01*
X206584Y424794D01*
X207949D01*
X208080Y424794D01*
X208449Y424476D01*
Y424394D01*
X208917D01*
Y427165D01*
Y429937D01*
D02*
G37*
G36*
X200606Y424665D02*
X200138D01*
Y424394D01*
X200606D01*
Y424665D01*
D02*
G37*
%LPD*%
G36*
X272381Y326431D02*
Y319778D01*
X274613D01*
Y313802D01*
X274683Y313451D01*
X274882Y313153D01*
X277713Y310322D01*
Y288853D01*
X274325Y285466D01*
X273622Y285606D01*
X272803Y285443D01*
X272108Y284979D01*
X271644Y284284D01*
X271481Y283465D01*
X271644Y282645D01*
X272108Y281951D01*
X272803Y281486D01*
X273622Y281323D01*
X274441Y281486D01*
X275136Y281951D01*
X275600Y282645D01*
X275763Y283465D01*
X275623Y284168D01*
X278451Y286996D01*
X278913Y286805D01*
Y214234D01*
X278867Y214228D01*
X277811Y213791D01*
X276905Y213095D01*
X276209Y212189D01*
X276058Y211824D01*
X275558Y211924D01*
Y226935D01*
X275488Y227286D01*
X275289Y227584D01*
X269066Y233807D01*
Y323823D01*
X271881Y326638D01*
X272381Y326431D01*
D02*
G37*
G36*
X364890Y365553D02*
X364699Y365091D01*
X317608D01*
X317379Y365591D01*
X317660Y366012D01*
X364431D01*
X364890Y365553D01*
D02*
G37*
G36*
X148814Y378528D02*
X148968Y377756D01*
X149405Y377101D01*
X149913Y376762D01*
Y370823D01*
X149983Y370472D01*
X150182Y370174D01*
X151616Y368740D01*
X151424Y368278D01*
X147193D01*
X144225Y371246D01*
Y376620D01*
X144725Y376888D01*
X145059Y376664D01*
X145831Y376511D01*
X146602Y376664D01*
X147257Y377101D01*
X147694Y377756D01*
X147847Y378528D01*
Y381350D01*
X148814D01*
Y378528D01*
D02*
G37*
G36*
X291208Y422555D02*
Y401912D01*
X290612Y401514D01*
X290148Y400819D01*
X289985Y400000D01*
X290148Y399181D01*
X290612Y398486D01*
X291307Y398022D01*
X292126Y397859D01*
X292945Y398022D01*
X293445Y398356D01*
X293945Y398112D01*
Y389198D01*
X293445Y389149D01*
X293317Y389796D01*
X292853Y390490D01*
X292158Y390954D01*
X291339Y391118D01*
X290519Y390954D01*
X289825Y390490D01*
X289360Y389796D01*
X289270Y389339D01*
X288770Y389388D01*
Y420823D01*
X290708Y422762D01*
X291208Y422555D01*
D02*
G37*
G36*
X306531Y359304D02*
Y358628D01*
X306931D01*
Y357028D01*
Y355196D01*
X282323D01*
X280236Y357282D01*
X280428Y357744D01*
X303937D01*
X304288Y357814D01*
X304586Y358013D01*
X306069Y359495D01*
X306531Y359304D01*
D02*
G37*
G36*
X371257Y357489D02*
X371065Y357027D01*
X328899D01*
X328622Y357509D01*
X328783Y357809D01*
X329852D01*
Y359358D01*
X330344D01*
X330769Y358722D01*
X331464Y358258D01*
X332283Y358095D01*
X333103Y358258D01*
X333798Y358722D01*
X334262Y359417D01*
X334425Y360236D01*
X334262Y361056D01*
X333798Y361750D01*
X333103Y362214D01*
X332283Y362377D01*
X331464Y362214D01*
X330769Y361750D01*
X330640Y361556D01*
X330086Y361517D01*
X329852Y361751D01*
Y362947D01*
X330224Y363256D01*
X365490D01*
X371257Y357489D01*
D02*
G37*
G36*
X269701Y361828D02*
X269494Y361328D01*
X262731D01*
Y359891D01*
X262231Y359684D01*
X261745Y360170D01*
X261414Y360391D01*
X261024Y360468D01*
X249606D01*
X249216Y360391D01*
X248885Y360170D01*
X248492Y359776D01*
X248271Y359445D01*
X248193Y359055D01*
Y358946D01*
X246810D01*
Y358000D01*
X246309Y357794D01*
X246169Y357935D01*
X246236Y358268D01*
X246073Y359087D01*
X245608Y359782D01*
X244914Y360246D01*
X244094Y360409D01*
X243275Y360246D01*
X242581Y359782D01*
X242116Y359087D01*
X241953Y358268D01*
X242112Y357469D01*
X242091Y357437D01*
X241695Y357180D01*
X234937Y363937D01*
X235129Y364399D01*
X267130D01*
X269701Y361828D01*
D02*
G37*
G36*
X280578Y410078D02*
Y401912D01*
X279982Y401514D01*
X279518Y400819D01*
X279355Y400000D01*
X279518Y399181D01*
X279982Y398486D01*
X280677Y398022D01*
X281496Y397859D01*
X282315Y398022D01*
X282834Y398369D01*
X283334Y398140D01*
Y384903D01*
X282872Y384711D01*
X282611Y384973D01*
X282280Y385194D01*
X282096Y385230D01*
Y386624D01*
X280547D01*
Y387132D01*
X281042Y387462D01*
X281506Y388157D01*
X281669Y388976D01*
X281506Y389796D01*
X281042Y390490D01*
X280347Y390954D01*
X279528Y391118D01*
X278708Y390954D01*
X278013Y390490D01*
X277796Y390164D01*
X277296Y390316D01*
Y409038D01*
X277796Y409386D01*
X278346Y409276D01*
X279166Y409439D01*
X279860Y409903D01*
X280078Y410229D01*
X280578Y410078D01*
D02*
G37*
G36*
X249082Y450407D02*
Y433631D01*
X248582Y433424D01*
X247893Y434113D01*
X247595Y434312D01*
X247244Y434382D01*
X247244Y434382D01*
X241939D01*
Y435836D01*
X236802D01*
Y434382D01*
X236033D01*
Y435836D01*
X234382D01*
Y441742D01*
X234566Y441766D01*
X235718Y442243D01*
X236707Y443002D01*
X237466Y443991D01*
X237943Y445142D01*
X238105Y446378D01*
X237943Y447614D01*
X237466Y448765D01*
X236707Y449754D01*
X235718Y450513D01*
X234566Y450990D01*
X233331Y451153D01*
X232095Y450990D01*
X230943Y450513D01*
X229955Y449754D01*
X229196Y448765D01*
X228719Y447614D01*
X228593Y446658D01*
X228593D01*
X228593Y446658D01*
X228583Y446583D01*
X228583Y446583D01*
X228576Y446583D01*
X228567Y446584D01*
X228092Y446615D01*
X228087Y446615D01*
X228083Y446641D01*
Y446641D01*
Y450407D01*
X229514Y451838D01*
X247651D01*
X249082Y450407D01*
D02*
G37*
G36*
X226248Y444116D02*
Y439357D01*
X224548Y437657D01*
X224349Y437359D01*
X224279Y437008D01*
Y435836D01*
X222628D01*
Y434382D01*
X221860D01*
Y435836D01*
X220209D01*
Y437415D01*
X222169Y439375D01*
X222368Y439673D01*
X222379Y439731D01*
X222437Y440024D01*
Y441724D01*
X222756Y441766D01*
X223907Y442243D01*
X224896Y443002D01*
X225655Y443991D01*
X225748Y444215D01*
X226248Y444116D01*
D02*
G37*
G36*
X389372Y394018D02*
X389434Y393707D01*
X389610Y393444D01*
X389831Y393297D01*
Y393240D01*
X390153Y393014D01*
Y392238D01*
X389384Y391469D01*
X384646D01*
X384295Y391399D01*
X383997Y391200D01*
X382867Y390070D01*
X382668Y389772D01*
X382598Y389421D01*
Y387528D01*
X382393Y387487D01*
X382130Y387311D01*
X381954Y387048D01*
X381892Y386738D01*
Y386351D01*
X377952D01*
X377852Y386809D01*
X377852D01*
Y391947D01*
X376398D01*
Y392810D01*
X377852D01*
Y394480D01*
X381892D01*
Y394018D01*
X381954Y393708D01*
X382130Y393445D01*
X382393Y393269D01*
X382703Y393207D01*
X384478D01*
X384788Y393269D01*
X384889Y393336D01*
X384890Y393336D01*
X385052Y393444D01*
X385227Y393707D01*
X385289Y394018D01*
Y395398D01*
X389372D01*
Y394018D01*
D02*
G37*
G36*
X277159Y417086D02*
X276833Y416868D01*
X276368Y416174D01*
X276205Y415354D01*
X276345Y414651D01*
X274529Y412835D01*
X274330Y412537D01*
X274260Y412186D01*
Y400280D01*
Y400280D01*
Y400280D01*
X274238Y400220D01*
X274216Y400218D01*
X273798Y400176D01*
X273776Y400174D01*
X273762Y400173D01*
X273760Y400173D01*
X273735Y400302D01*
Y400302D01*
X273735D01*
X273632Y400819D01*
X273167Y401514D01*
X272571Y401912D01*
Y416943D01*
X273215Y417586D01*
X277007D01*
X277159Y417086D01*
D02*
G37*
G36*
X294762Y424857D02*
X296572D01*
X296724Y424357D01*
X296595Y424271D01*
X294214Y421890D01*
X294015Y421592D01*
X293945Y421241D01*
Y401889D01*
X293445Y401644D01*
X293044Y401912D01*
Y425604D01*
X293750Y426311D01*
X294762D01*
Y424857D01*
D02*
G37*
G36*
X252709Y353410D02*
X254598D01*
X254834Y352969D01*
X254714Y352788D01*
X254551Y351969D01*
X254714Y351149D01*
X254862Y350927D01*
X254626Y350486D01*
X248388D01*
X243007Y355868D01*
X243264Y356264D01*
X243296Y356285D01*
X244094Y356127D01*
X244678Y356243D01*
X245263Y355657D01*
X245594Y355436D01*
X245984Y355358D01*
X246810D01*
Y353809D01*
X251553D01*
Y358429D01*
X252709D01*
Y353410D01*
D02*
G37*
G36*
X320543Y314762D02*
X320504Y314697D01*
X320079D01*
X319786Y314639D01*
X319728Y314627D01*
X319430Y314428D01*
X315493Y310491D01*
X315294Y310194D01*
X315224Y309842D01*
Y307983D01*
X311414Y304173D01*
X310952Y304364D01*
Y311229D01*
X314985Y315262D01*
X320260D01*
X320543Y314762D01*
D02*
G37*
G36*
X307469Y322335D02*
X307767Y322136D01*
X308118Y322067D01*
X344947D01*
X345099Y321567D01*
X344549Y321199D01*
X344085Y320504D01*
X343922Y319685D01*
X344085Y318866D01*
X344549Y318171D01*
X344903Y317934D01*
X344752Y317434D01*
X344100D01*
X343340Y318194D01*
X343480Y318898D01*
X343317Y319717D01*
X342853Y320412D01*
X342158Y320876D01*
X341339Y321039D01*
X340519Y320876D01*
X339825Y320412D01*
X339360Y319717D01*
X339197Y318898D01*
X339360Y318078D01*
X339825Y317384D01*
X340519Y316919D01*
X341339Y316757D01*
X341761Y316841D01*
X341848Y316734D01*
X341612Y316234D01*
X325072D01*
X324478Y316828D01*
X324180Y317027D01*
X323829Y317097D01*
X314605D01*
X314254Y317027D01*
X313956Y316828D01*
X309386Y312258D01*
X309187Y311961D01*
X309117Y311610D01*
Y303722D01*
X305795Y300399D01*
X305573Y300432D01*
X305318Y300920D01*
X305317Y300976D01*
X305472Y301756D01*
X305309Y302575D01*
X304845Y303270D01*
X304715Y303357D01*
X304867Y303857D01*
X305899D01*
Y308600D01*
X301382D01*
Y309756D01*
X306299D01*
Y310028D01*
X303331D01*
Y314429D01*
X303150D01*
Y319429D01*
X304681D01*
Y324471D01*
X305143Y324662D01*
X307469Y322335D01*
D02*
G37*
G36*
X262736Y329028D02*
X267628D01*
X267819Y328566D01*
X265099Y325846D01*
X264900Y325548D01*
X264830Y325197D01*
Y319309D01*
X264330Y319042D01*
X263968Y319284D01*
X262992Y319478D01*
X262017Y319284D01*
X261418Y318884D01*
X260918Y319151D01*
Y319921D01*
X260848Y320272D01*
X260649Y320570D01*
X254310Y326909D01*
X254517Y327410D01*
X257736D01*
Y330578D01*
X262736D01*
Y329028D01*
D02*
G37*
G36*
X294313Y315690D02*
X289902Y311279D01*
X289703Y310981D01*
X289634Y310630D01*
Y292464D01*
X289037Y292065D01*
X288573Y291371D01*
X288410Y290551D01*
X288573Y289732D01*
X289037Y289037D01*
X289732Y288573D01*
X290551Y288410D01*
X291371Y288573D01*
X292065Y289037D01*
X292472Y288754D01*
X292116Y288221D01*
X291953Y287402D01*
X292116Y286582D01*
X292581Y285888D01*
X293275Y285423D01*
X294094Y285260D01*
X294914Y285423D01*
X295608Y285888D01*
X296073Y286582D01*
X296236Y287402D01*
X296073Y288221D01*
X295608Y288916D01*
X295012Y289314D01*
Y310644D01*
X297645Y313276D01*
X298145Y313069D01*
Y300150D01*
X298214Y299799D01*
X298413Y299501D01*
X299351Y298564D01*
X299649Y298365D01*
X300000Y298295D01*
X304883D01*
X305075Y297833D01*
X299351Y292110D01*
X299152Y291812D01*
X299082Y291461D01*
Y214257D01*
X298867Y214228D01*
X297811Y213791D01*
X296905Y213095D01*
X296209Y212189D01*
X296058Y211824D01*
X295558Y211924D01*
Y214809D01*
X295499Y215102D01*
X295488Y215160D01*
X295289Y215458D01*
X285005Y225741D01*
X285214Y226240D01*
X285859Y226368D01*
X286553Y226833D01*
X287017Y227527D01*
X287180Y228346D01*
X287017Y229166D01*
X286553Y229860D01*
X285859Y230325D01*
X285039Y230488D01*
X284735Y230427D01*
X284348Y230744D01*
Y231261D01*
X284848Y231462D01*
X285401Y231093D01*
X286221Y230930D01*
X287040Y231093D01*
X287735Y231557D01*
X288199Y232252D01*
X288362Y233071D01*
X288199Y233890D01*
X287735Y234585D01*
X287040Y235049D01*
X286221Y235212D01*
X285950Y235158D01*
X285563Y235475D01*
Y313172D01*
Y317935D01*
X285980Y318351D01*
X286178Y318649D01*
X286190Y318707D01*
X286248Y319000D01*
Y319778D01*
X294313D01*
Y315690D01*
D02*
G37*
G36*
X292739Y311383D02*
X293177Y311024D01*
Y290678D01*
X292677Y290629D01*
X292529Y291371D01*
X292065Y292065D01*
X291469Y292464D01*
Y310250D01*
X292616Y311397D01*
X292739Y311383D01*
D02*
G37*
G36*
X150487Y312239D02*
Y311691D01*
X152137D01*
Y303643D01*
X152060Y303633D01*
X150956Y303176D01*
X150008Y302448D01*
X149653Y301986D01*
X149153Y302155D01*
Y311610D01*
X149546Y311872D01*
X149987Y312532D01*
X150023Y312537D01*
X150487Y312239D01*
D02*
G37*
G36*
X277029Y350807D02*
X277001Y350315D01*
X276439Y349939D01*
X275975Y349245D01*
X275812Y348425D01*
X275975Y347606D01*
X276439Y346911D01*
X277133Y346447D01*
X277953Y346284D01*
X278772Y346447D01*
X279467Y346911D01*
X279931Y347606D01*
X280094Y348425D01*
X279950Y349147D01*
X280241Y349387D01*
X280363Y349442D01*
X282212Y347593D01*
X282293Y347539D01*
X283043Y346789D01*
X282898Y346063D01*
X283061Y345244D01*
X283525Y344549D01*
X284220Y344085D01*
X285039Y343922D01*
X285859Y344085D01*
X286553Y344549D01*
X287017Y345244D01*
X287180Y346063D01*
X287017Y346882D01*
X286926Y347019D01*
X287162Y347460D01*
X306931D01*
Y347228D01*
Y345228D01*
Y343228D01*
Y341228D01*
Y339328D01*
Y337396D01*
X303285D01*
X302934Y337326D01*
X302636Y337127D01*
X301330Y335821D01*
X277316D01*
X277163Y336155D01*
X277123Y336310D01*
X277569Y336976D01*
X277732Y337795D01*
X277569Y338615D01*
X277105Y339309D01*
X276410Y339773D01*
X275590Y339936D01*
X274771Y339773D01*
X274077Y339309D01*
X273612Y338615D01*
X273449Y337795D01*
X273452Y337782D01*
X273135Y337396D01*
X269731D01*
Y339328D01*
Y341228D01*
Y343228D01*
Y345228D01*
Y347228D01*
Y349128D01*
Y351128D01*
Y351360D01*
X276476D01*
X277029Y350807D01*
D02*
G37*
G36*
X375374Y351675D02*
X375672Y351476D01*
X376023Y351406D01*
X403786D01*
X403977Y350944D01*
X380535Y327502D01*
X336424D01*
X336392Y327583D01*
X336340Y328002D01*
X336947Y328407D01*
X337411Y329102D01*
X337574Y329921D01*
X337411Y330741D01*
X336947Y331435D01*
X336252Y331899D01*
X335433Y332062D01*
X334730Y331923D01*
X322696Y343956D01*
X322398Y344155D01*
X322047Y344225D01*
X320810D01*
X320412Y344821D01*
X319717Y345285D01*
X318898Y345448D01*
X318078Y345285D01*
X317384Y344821D01*
X316919Y344127D01*
X316757Y343307D01*
X316919Y342488D01*
X317315Y341896D01*
X317147Y341396D01*
X313931D01*
Y343228D01*
Y345228D01*
Y347228D01*
Y349128D01*
Y351128D01*
Y351258D01*
X318810D01*
Y349810D01*
X323553D01*
Y354946D01*
X323951Y355192D01*
X324710D01*
X325109Y354946D01*
X325109Y354692D01*
Y349810D01*
X329852D01*
Y351358D01*
X330429D01*
X330769Y350848D01*
X331464Y350384D01*
X332283Y350221D01*
X333103Y350384D01*
X333798Y350848D01*
X334262Y351543D01*
X334425Y352362D01*
X334262Y353182D01*
X333798Y353876D01*
X333103Y354340D01*
X332283Y354503D01*
X331464Y354340D01*
X330769Y353876D01*
X330608Y353634D01*
X330016Y353587D01*
X329852Y353751D01*
Y354692D01*
X329852Y354946D01*
X330250Y355192D01*
X330250Y355192D01*
X371857D01*
X375374Y351675D01*
D02*
G37*
G36*
X306931Y353128D02*
Y351428D01*
Y351196D01*
X284626D01*
X282923Y352898D01*
X283114Y353360D01*
X306931D01*
Y353128D01*
D02*
G37*
G36*
Y333428D02*
Y331428D01*
Y331243D01*
X306469Y331052D01*
X305712Y331808D01*
X305415Y332007D01*
X305064Y332077D01*
X291789D01*
X291438Y332007D01*
X291140Y331808D01*
X286682Y327350D01*
X286483Y327052D01*
X286428Y326778D01*
X274448D01*
Y327481D01*
X276752Y329785D01*
X277244Y329757D01*
X277620Y329195D01*
X278314Y328731D01*
X279134Y328568D01*
X279953Y328731D01*
X280648Y329195D01*
X281112Y329889D01*
X281275Y330709D01*
X281112Y331528D01*
X280648Y332223D01*
X280553Y332286D01*
X280705Y332786D01*
X302208D01*
X302559Y332856D01*
X302856Y333055D01*
X303462Y333660D01*
X306931D01*
Y333428D01*
D02*
G37*
G36*
X262731Y337328D02*
Y335328D01*
Y333843D01*
X262326Y333705D01*
X262231Y333699D01*
X261745Y334186D01*
X261414Y334407D01*
X261024Y334484D01*
X249606D01*
X249216Y334407D01*
X248885Y334186D01*
X248492Y333792D01*
X248271Y333461D01*
X248193Y333071D01*
Y332946D01*
X246810D01*
Y331398D01*
X245897D01*
X245608Y331829D01*
X244914Y332293D01*
X244094Y332456D01*
X243275Y332293D01*
X242756Y331946D01*
X242256Y332175D01*
Y336234D01*
X243583Y337560D01*
X262731D01*
Y337328D01*
D02*
G37*
G36*
X333432Y330625D02*
X333292Y329921D01*
X333455Y329102D01*
X333919Y328407D01*
X334526Y328002D01*
X334474Y327583D01*
X334442Y327502D01*
X310018D01*
X308554Y328966D01*
X308746Y329428D01*
X313931D01*
Y329660D01*
X326040D01*
X326439Y329064D01*
X327133Y328600D01*
X327953Y328437D01*
X328772Y328600D01*
X329467Y329064D01*
X329931Y329759D01*
X330094Y330578D01*
X329931Y331397D01*
X329467Y332092D01*
X328772Y332556D01*
X327953Y332719D01*
X327133Y332556D01*
X326439Y332092D01*
X326040Y331496D01*
X313931D01*
Y333428D01*
Y335328D01*
Y337328D01*
Y337560D01*
X316503D01*
X316862Y337147D01*
X316757Y336614D01*
X316919Y335795D01*
X317384Y335100D01*
X318078Y334636D01*
X318898Y334473D01*
X319717Y334636D01*
X320412Y335100D01*
X320616Y335406D01*
X321116D01*
X321321Y335100D01*
X322015Y334636D01*
X322835Y334473D01*
X323654Y334636D01*
X324349Y335100D01*
X324813Y335795D01*
X324976Y336614D01*
X324813Y337434D01*
X324349Y338128D01*
X323654Y338592D01*
X322835Y338755D01*
X322131Y338615D01*
X319871Y340876D01*
X319862Y340900D01*
X319955Y341488D01*
X320412Y341793D01*
X320810Y342389D01*
X321667D01*
X333432Y330625D01*
D02*
G37*
D10*
X459842Y427165D02*
D03*
Y433465D02*
D03*
X465748Y433465D02*
D03*
Y427165D02*
D03*
X318331Y433528D02*
D03*
Y427228D02*
D03*
X312331Y433528D02*
D03*
Y427228D02*
D03*
X303331Y433528D02*
D03*
Y427228D02*
D03*
X297331Y433528D02*
D03*
Y427228D02*
D03*
X287331Y433528D02*
D03*
Y427228D02*
D03*
X281331Y433528D02*
D03*
Y427228D02*
D03*
X272331Y433528D02*
D03*
Y427228D02*
D03*
X266331Y433528D02*
D03*
Y427228D02*
D03*
X374331Y427228D02*
D03*
Y433528D02*
D03*
X380331Y427228D02*
D03*
Y433528D02*
D03*
X365331Y427228D02*
D03*
Y433528D02*
D03*
X359331Y427228D02*
D03*
Y433528D02*
D03*
X350331Y427228D02*
D03*
Y433528D02*
D03*
X344331Y427228D02*
D03*
Y433528D02*
D03*
X239370Y427165D02*
D03*
Y433465D02*
D03*
X233465D02*
D03*
Y427165D02*
D03*
X225197D02*
D03*
Y433465D02*
D03*
X219291D02*
D03*
Y427165D02*
D03*
X211417D02*
D03*
Y433465D02*
D03*
X205512Y427165D02*
D03*
Y433465D02*
D03*
X197638Y427165D02*
D03*
Y433465D02*
D03*
X191732D02*
D03*
Y427165D02*
D03*
X180118Y433591D02*
D03*
Y427291D02*
D03*
X174118Y427291D02*
D03*
Y433591D02*
D03*
X132425Y300866D02*
D03*
Y307165D02*
D03*
X138425Y300866D02*
D03*
Y307165D02*
D03*
X144425D02*
D03*
Y300866D02*
D03*
X153055Y320362D02*
D03*
Y314063D02*
D03*
X159055Y314063D02*
D03*
Y320362D02*
D03*
X188000Y257165D02*
D03*
Y250866D02*
D03*
X303331Y306228D02*
D03*
Y312528D02*
D03*
X279528Y384252D02*
D03*
Y377953D02*
D03*
X291339Y384252D02*
D03*
Y377953D02*
D03*
X309449Y391732D02*
D03*
Y398031D02*
D03*
X302362Y391732D02*
D03*
Y398031D02*
D03*
X326378Y391732D02*
D03*
Y398031D02*
D03*
X333858Y391732D02*
D03*
Y398031D02*
D03*
X117323Y418504D02*
D03*
Y412205D02*
D03*
X407874Y418504D02*
D03*
Y412205D02*
D03*
X395331Y452228D02*
D03*
Y458528D02*
D03*
D11*
X331496Y429134D02*
D03*
X253937D02*
D03*
X473331Y415378D02*
D03*
Y425378D02*
D03*
D12*
X160831Y418488D02*
D03*
X155831D02*
D03*
X150831D02*
D03*
X145831D02*
D03*
X140831D02*
D03*
X135831D02*
D03*
X130831D02*
D03*
X125831D02*
D03*
X160831Y382268D02*
D03*
X155831D02*
D03*
X150831D02*
D03*
X145831D02*
D03*
X140831D02*
D03*
X135831D02*
D03*
X130831D02*
D03*
X125831D02*
D03*
X450831Y418488D02*
D03*
X445831D02*
D03*
X440831D02*
D03*
X435831D02*
D03*
X430831D02*
D03*
X425831D02*
D03*
X420831D02*
D03*
X415831D02*
D03*
X450831Y382268D02*
D03*
X445831D02*
D03*
X440831D02*
D03*
X435831D02*
D03*
X430831D02*
D03*
X425831D02*
D03*
X420831D02*
D03*
X415831D02*
D03*
D13*
X208157Y294016D02*
D03*
X227842D02*
D03*
X208157Y229016D02*
D03*
X227842D02*
D03*
D14*
X232842Y261016D02*
D03*
X213158D02*
D03*
X168157Y294016D02*
D03*
X187843D02*
D03*
X232842Y196016D02*
D03*
X213158D02*
D03*
X168157Y229016D02*
D03*
X187843D02*
D03*
D15*
X115945Y269291D02*
D03*
X123425D02*
D03*
D16*
X136260Y283996D02*
D03*
X140000D02*
D03*
X143740D02*
D03*
Y294035D02*
D03*
X140000D02*
D03*
X136260D02*
D03*
X391071Y395398D02*
D03*
X387331D02*
D03*
X383591D02*
D03*
Y385358D02*
D03*
X391071D02*
D03*
D17*
X153000Y285669D02*
D03*
Y292362D02*
D03*
D18*
X201118Y265276D02*
D03*
Y269016D02*
D03*
Y272756D02*
D03*
X190882Y265276D02*
D03*
Y272756D02*
D03*
Y207756D02*
D03*
Y200276D02*
D03*
X201118Y207756D02*
D03*
Y204016D02*
D03*
Y200276D02*
D03*
D19*
X201150Y251016D02*
D03*
X194850D02*
D03*
X155905Y216535D02*
D03*
X162205D02*
D03*
X321181Y352378D02*
D03*
X327480D02*
D03*
Y360378D02*
D03*
X321181D02*
D03*
X249181Y330378D02*
D03*
X255480D02*
D03*
X249181Y356378D02*
D03*
X255480D02*
D03*
X403543Y385433D02*
D03*
X397244D02*
D03*
X393480Y401378D02*
D03*
X387181D02*
D03*
X375480Y395378D02*
D03*
X369181D02*
D03*
X375480Y389378D02*
D03*
X369181D02*
D03*
D20*
X161500Y185287D02*
D03*
X166500D02*
D03*
X171500D02*
D03*
X176500D02*
D03*
X161500Y206744D02*
D03*
X166500D02*
D03*
X171500D02*
D03*
X176500D02*
D03*
D21*
X193244Y186016D02*
D03*
X198756D02*
D03*
X385039Y362992D02*
D03*
X390551D02*
D03*
D22*
X188000Y191772D02*
D03*
Y186260D02*
D03*
X400913Y373236D02*
D03*
Y367724D02*
D03*
D23*
X360433Y279724D02*
D03*
X356693D02*
D03*
X352953D02*
D03*
Y291142D02*
D03*
X356693D02*
D03*
X360433D02*
D03*
X376969Y279724D02*
D03*
X373228D02*
D03*
X369488D02*
D03*
Y291142D02*
D03*
X373228D02*
D03*
X376969D02*
D03*
D24*
X435000Y271063D02*
D03*
X431260Y278937D02*
D03*
X438740D02*
D03*
D25*
X303131Y367478D02*
D03*
X301131D02*
D03*
X299131D02*
D03*
X297231D02*
D03*
X295231D02*
D03*
X293231D02*
D03*
X291331D02*
D03*
X289331D02*
D03*
X287331D02*
D03*
X285331D02*
D03*
X283431D02*
D03*
X281431D02*
D03*
X279431D02*
D03*
X277531D02*
D03*
X275531D02*
D03*
X273531D02*
D03*
Y323278D02*
D03*
X275531D02*
D03*
X277531D02*
D03*
X279431D02*
D03*
X281431D02*
D03*
X283431D02*
D03*
X285331D02*
D03*
X287331D02*
D03*
X289331D02*
D03*
X291331D02*
D03*
X293231D02*
D03*
X295231D02*
D03*
X297231D02*
D03*
X299131D02*
D03*
X301131D02*
D03*
X303131D02*
D03*
D26*
X266231Y360178D02*
D03*
Y358178D02*
D03*
Y356178D02*
D03*
Y354278D02*
D03*
Y352278D02*
D03*
Y350278D02*
D03*
Y348378D02*
D03*
Y346378D02*
D03*
Y344378D02*
D03*
Y342378D02*
D03*
Y340478D02*
D03*
Y338478D02*
D03*
Y336478D02*
D03*
Y334578D02*
D03*
Y332578D02*
D03*
Y330578D02*
D03*
X310431D02*
D03*
Y332578D02*
D03*
Y334578D02*
D03*
Y336478D02*
D03*
Y338478D02*
D03*
Y340478D02*
D03*
Y342378D02*
D03*
Y344378D02*
D03*
Y346378D02*
D03*
Y348378D02*
D03*
Y350278D02*
D03*
Y352278D02*
D03*
Y354278D02*
D03*
Y356178D02*
D03*
Y358178D02*
D03*
Y360178D02*
D03*
D27*
X300197Y378543D02*
D03*
Y382283D02*
D03*
Y386024D02*
D03*
X311614D02*
D03*
Y382283D02*
D03*
Y378543D02*
D03*
X324606Y379331D02*
D03*
Y383071D02*
D03*
Y386811D02*
D03*
X336024D02*
D03*
Y383071D02*
D03*
Y379331D02*
D03*
D28*
X333858Y412402D02*
D03*
Y405709D02*
D03*
X326378Y412402D02*
D03*
Y405709D02*
D03*
X309449Y412402D02*
D03*
Y405709D02*
D03*
X302362Y412402D02*
D03*
Y405709D02*
D03*
D29*
X382500Y368740D02*
D03*
Y372480D02*
D03*
Y376220D02*
D03*
X393327D02*
D03*
Y372480D02*
D03*
Y368740D02*
D03*
D30*
X303937Y370472D02*
X306299D01*
X303131Y369666D02*
X303937Y370472D01*
X303131Y367478D02*
Y369666D01*
X300000Y210000D02*
Y291461D01*
X316142Y307603D02*
Y309842D01*
X300000Y291461D02*
X316142Y307603D01*
X310000Y299764D02*
X318898Y308661D01*
X310000Y210000D02*
Y299764D01*
X297231Y314160D02*
Y323278D01*
X294094Y311024D02*
X297231Y314160D01*
X294094Y287402D02*
Y311024D01*
X290551Y290551D02*
Y310630D01*
X295231Y315310D01*
Y323278D01*
X299062Y300150D02*
Y323210D01*
Y300150D02*
X300000Y299213D01*
X281031Y226450D02*
Y317272D01*
X275531Y313802D02*
X278631Y310702D01*
Y288473D02*
Y310702D01*
X273622Y283465D02*
X278631Y288473D01*
X279831Y210169D02*
Y316775D01*
X283431Y286485D02*
Y323278D01*
X284646Y313172D02*
Y318315D01*
Y234646D02*
Y313172D01*
X283431Y229955D02*
Y286485D01*
X282231Y227218D02*
Y317769D01*
X275531Y313802D02*
Y323278D01*
X277531Y319075D02*
X279831Y316775D01*
X277531Y319075D02*
Y323278D01*
X279431Y318872D02*
Y323278D01*
Y318872D02*
X281031Y317272D01*
X281431Y318569D02*
Y323278D01*
Y318569D02*
X282231Y317769D01*
X279831Y210169D02*
X280000Y210000D01*
X282231Y227218D02*
X294640Y214809D01*
X284646Y318315D02*
X285331Y319000D01*
X284646Y234646D02*
X286221Y233071D01*
X283431Y229955D02*
X285039Y228346D01*
X281031Y226450D02*
X290000Y217480D01*
X343307Y385433D02*
X383514D01*
X383515Y385432D01*
X300853Y375262D02*
X317782D01*
X299131Y373540D02*
X300853Y375262D01*
X317782D02*
X318898Y376378D01*
X305906Y377559D02*
Y381496D01*
X304809Y376462D02*
X305906Y377559D01*
X298903Y376462D02*
X304809D01*
X318898Y376378D02*
Y381890D01*
X316929Y379528D02*
Y384252D01*
X315945Y378543D02*
X316929Y379528D01*
X311614Y378543D02*
X315945D01*
X323957Y374062D02*
X329921Y380026D01*
X302409Y374062D02*
X323957D01*
X301181Y372835D02*
X302409Y374062D01*
X297263Y374822D02*
X298903Y376462D01*
X426063Y360709D02*
X468504D01*
X422835Y357480D02*
X426063Y360709D01*
X431828Y370709D02*
X468504D01*
X420435Y359316D02*
X431828Y370709D01*
X420435Y354761D02*
Y359316D01*
Y354761D02*
X420472Y354724D01*
X287331Y422379D02*
Y427228D01*
X286652Y421700D02*
X287200Y422249D01*
X286652Y372009D02*
Y421700D01*
X256693Y257480D02*
X260000Y260787D01*
X256693Y230315D02*
Y257480D01*
X260000Y260787D02*
Y319921D01*
X255906Y265748D02*
X257480Y267323D01*
X255906Y261024D02*
X258680Y263798D01*
Y319544D01*
X253009Y325216D02*
X258680Y319544D01*
X257480Y267323D02*
Y319047D01*
X252511Y324016D02*
X257480Y319047D01*
X316142Y309842D02*
X320079Y313779D01*
X322835D01*
X438740Y278937D02*
Y310472D01*
X435096Y314117D02*
X438740Y310472D01*
X328740Y314117D02*
X435096D01*
X314961Y300337D02*
X328740Y314117D01*
X314961Y283465D02*
Y300337D01*
X340551Y261024D02*
Y287795D01*
X324692Y315317D02*
X450187D01*
X343720Y316516D02*
X450684D01*
X348031Y317717D02*
X451181D01*
X456693Y264173D02*
Y308811D01*
X450187Y315317D02*
X456693Y308811D01*
X457893Y272816D02*
Y309308D01*
X450684Y316516D02*
X457893Y309308D01*
X459490Y282718D02*
Y309407D01*
X451181Y317717D02*
X459490Y309407D01*
X323829Y316179D02*
X324692Y315317D01*
X341339Y318898D02*
X343720Y316516D01*
X346063Y319685D02*
X348031Y317717D01*
X230314Y358267D02*
Y361811D01*
X227165Y364961D02*
X230314Y361811D01*
X111689Y364961D02*
X227165D01*
X227934Y366161D02*
X234252Y359842D01*
X228519Y367361D02*
X247511Y348369D01*
X229016Y368561D02*
X248008Y349569D01*
X233957Y365317D02*
X267510D01*
X229513Y369761D02*
X233957Y365317D01*
X234454Y366516D02*
X268007D01*
X230010Y370961D02*
X234454Y366516D01*
X234951Y367717D02*
X268504D01*
X230507Y372161D02*
X234951Y367717D01*
X112205Y366161D02*
X227934D01*
X146813Y367361D02*
X228519D01*
X153093Y368561D02*
X229016D01*
X175515Y369761D02*
X229513D01*
X180220Y370961D02*
X230010D01*
X184532Y372161D02*
X230507D01*
X234252Y348425D02*
Y359842D01*
X180118Y376575D02*
X184532Y372161D01*
X177165Y374016D02*
X180220Y370961D01*
X171260Y374016D02*
X175515Y369761D01*
X150831Y370823D02*
X153093Y368561D01*
X143307Y370866D02*
X146813Y367361D01*
X112205Y366161D02*
Y392520D01*
X110827Y365823D02*
X111689Y364961D01*
X230315Y334917D02*
X241216Y324016D01*
X230315Y334917D02*
Y336614D01*
X243202Y338478D02*
X266231D01*
X241339Y336614D02*
X243202Y338478D01*
X241339Y327953D02*
Y336614D01*
X241713Y325216D02*
X253009D01*
X241216Y324016D02*
X252511D01*
X253505Y326416D02*
X260000Y319921D01*
X242876Y326416D02*
X253505D01*
X241339Y327953D02*
X242876Y326416D01*
X234252Y332677D02*
X241713Y325216D01*
X269291Y225197D02*
Y228740D01*
X265748Y228346D02*
Y325197D01*
X266948Y231083D02*
X269291Y228740D01*
X271654Y400000D02*
Y417323D01*
X272835Y418504D01*
X280315D01*
X281496Y417323D01*
Y400000D02*
Y417323D01*
X276378Y330709D02*
X279134D01*
X273531Y327861D02*
X276378Y330709D01*
X273531Y323278D02*
Y327861D01*
X176500Y203028D02*
Y206744D01*
Y203028D02*
X177362Y202165D01*
X182087D01*
X163157Y200000D02*
X164961D01*
X161500Y201658D02*
X163157Y200000D01*
X161500Y201658D02*
Y206744D01*
X183071Y187008D02*
Y192520D01*
Y187008D02*
X183819Y186260D01*
X188000D01*
X301181Y367528D02*
Y372835D01*
X310035Y311610D02*
X314605Y316179D01*
X323829D01*
X310035Y303342D02*
Y311610D01*
X305906Y299213D02*
X310035Y303342D01*
X256692Y351969D02*
X260236D01*
X248008Y349569D02*
X260986D01*
X247511Y348369D02*
X266221D01*
X260986Y349569D02*
X261695Y350278D01*
X266221Y348369D02*
X266231Y348378D01*
X322047Y343307D02*
X335433Y329921D01*
X318898Y343307D02*
X322047D01*
X317034Y338478D02*
X318898Y336614D01*
X310431Y338478D02*
X317034D01*
X310431Y340478D02*
X318971D01*
X322835Y336614D01*
X285331Y319000D02*
Y323278D01*
X266948Y231083D02*
Y324700D01*
X268148Y233427D02*
X274640Y226935D01*
Y204640D02*
Y226935D01*
X310431Y330578D02*
X327953D01*
X310431D02*
X310561Y330709D01*
X294640Y205360D02*
Y214809D01*
X270000Y200000D02*
X274640Y204640D01*
X303285Y336478D02*
X310431D01*
X301711Y334904D02*
X303285Y336478D01*
X303082Y334578D02*
X310431D01*
X302208Y333704D02*
X303082Y334578D01*
X268148Y233427D02*
Y324203D01*
X277649Y333704D01*
X302208D01*
X266948Y324700D02*
X277152Y334904D01*
X301711D01*
X265748Y325197D02*
X270079Y329528D01*
Y334252D01*
X269753Y334578D02*
X270079Y334252D01*
X266231Y334578D02*
X269753D01*
X294640Y205360D02*
X300000Y200000D01*
X290000Y210000D02*
Y217480D01*
X297331Y427228D02*
X303331D01*
X312331D02*
X318331D01*
X266331D02*
X272331D01*
X219291Y433465D02*
Y437795D01*
X221520Y440024D01*
Y446378D01*
X233465Y433465D02*
Y446244D01*
X233331Y446378D02*
X233465Y446244D01*
Y433465D02*
X239370D01*
X219291D02*
X225197D01*
X374331Y433528D02*
X380331D01*
X374331Y433528D02*
X374331Y433528D01*
X373622Y437795D02*
X374331Y437087D01*
Y433528D02*
Y437087D01*
X459842Y427165D02*
X465748D01*
X465748Y427165D01*
X266535Y433732D02*
Y437795D01*
X281496Y433693D02*
Y437402D01*
X289764Y430315D02*
X290551Y429528D01*
X277953Y430315D02*
X289764D01*
X277165Y429528D02*
X277953Y430315D01*
X277165Y427953D02*
Y429528D01*
X276378Y427165D02*
X277165Y427953D01*
X272394Y427165D02*
X276378D01*
X272331Y427228D02*
X272394Y427165D01*
X293231Y367478D02*
Y371971D01*
X248031Y452756D02*
X250000Y450787D01*
X229134Y452756D02*
X248031D01*
X227165Y450787D02*
X229134Y452756D01*
X227165Y438976D02*
Y450787D01*
X225197Y437008D02*
X227165Y438976D01*
X225197Y433465D02*
Y437008D01*
X283431Y367478D02*
Y371226D01*
X247244Y433465D02*
X248425Y432283D01*
X247244Y433465D02*
X247244Y433465D01*
X239370Y433465D02*
X247244D01*
X145831Y382268D02*
X150831D01*
X155831Y418488D02*
X160831D01*
X150831Y370823D02*
Y382268D01*
X155831Y405831D02*
Y418488D01*
X143307Y370866D02*
Y393307D01*
X155831Y405831D01*
X291331Y323278D02*
Y326764D01*
X293231Y323278D02*
Y326695D01*
X289331Y323278D02*
Y326732D01*
X287331Y323278D02*
Y326701D01*
X420831Y382268D02*
Y393272D01*
X430831Y393429D02*
X433071Y395669D01*
X430831Y382268D02*
Y393429D01*
X440831Y393193D02*
X443307Y395669D01*
X440831Y382268D02*
Y393193D01*
X443307Y395669D02*
X445831Y398193D01*
Y418488D01*
X450831D01*
X297244Y423622D02*
X311024D01*
X312331Y424929D01*
Y427228D01*
X292126Y400000D02*
Y425984D01*
X293370Y427228D01*
X297331D01*
X445669Y427165D02*
X459842D01*
X443307Y399606D02*
Y424803D01*
X445669Y427165D01*
X125831Y382268D02*
X130831D01*
Y390673D01*
X140831Y382268D02*
Y390665D01*
X174118Y427291D02*
X180118D01*
X180118Y427291D01*
Y376575D02*
Y427291D01*
X125831Y375744D02*
Y382268D01*
Y375744D02*
X127559Y374016D01*
X135831Y374020D02*
Y382268D01*
X261953Y342378D02*
X266231D01*
X191732Y433465D02*
X197638D01*
Y446118D01*
X197898Y446378D01*
X262065Y340478D02*
X266231D01*
X205512Y433465D02*
X211417D01*
X205512Y433465D02*
X205512Y433465D01*
X209709Y439504D02*
Y446378D01*
Y439504D02*
X211417Y437795D01*
Y433465D02*
Y437795D01*
X216142Y346850D02*
X221472Y341520D01*
X226882Y344378D02*
X266231D01*
X159055Y320362D02*
Y350394D01*
X159055Y320362D02*
X159055Y320362D01*
X153055D02*
X159055D01*
X159055Y320362D01*
X277531Y367478D02*
Y371682D01*
X276378Y372835D02*
Y410236D01*
Y372835D02*
X277531Y371682D01*
X276378Y410236D02*
X277559Y411417D01*
X278346D01*
X359331Y433528D02*
Y437520D01*
X365331Y433528D02*
X365331Y433528D01*
X356693Y440158D02*
Y452362D01*
X359331Y433528D02*
X365331D01*
X356693Y452362D02*
X362520Y458189D01*
X350331Y433528D02*
X350331Y433528D01*
X344331Y433528D02*
X350331D01*
X350331Y446000D02*
X350709Y446378D01*
X350331Y433528D02*
Y446000D01*
X356693Y440158D02*
X358012Y438839D01*
X359331Y437520D01*
X138425Y307165D02*
X144425D01*
X140000Y280079D02*
Y283996D01*
X296850Y382283D02*
X300197D01*
X295276Y367523D02*
Y372047D01*
X295231Y367478D02*
X295276Y367523D01*
X300197Y386024D02*
Y388779D01*
X299606Y389370D02*
X300197Y388779D01*
X297638Y389370D02*
X299606D01*
X299131Y367478D02*
Y373540D01*
X318898Y381890D02*
X320079Y383071D01*
X324606D01*
X333858Y389370D02*
Y391732D01*
Y389370D02*
X334252Y388976D01*
X335433D01*
X336024Y388386D01*
Y386811D02*
Y388386D01*
X330921Y383071D02*
X336024D01*
X301131Y367478D02*
X301181Y367528D01*
X281331Y427228D02*
X287331D01*
X285221Y367588D02*
X285331Y367478D01*
X287331D02*
Y371331D01*
X289331Y367478D02*
Y371299D01*
X317913Y386811D02*
X324606D01*
X316929Y385827D02*
X317913Y386811D01*
X316929Y384252D02*
Y385827D01*
X362520Y439449D02*
Y446378D01*
X364173Y437795D02*
X373622D01*
X266231Y336478D02*
X274273D01*
X275590Y337795D01*
X362520Y439449D02*
X362992Y438976D01*
X364173Y437795D01*
X180315Y433787D02*
Y438976D01*
X233465Y422441D02*
Y427165D01*
X219291Y422441D02*
Y427165D01*
X205512Y422441D02*
Y427165D01*
X191732Y422441D02*
Y427165D01*
X275531Y367478D02*
Y371985D01*
X275178Y372338D02*
X275531Y371985D01*
X283431Y371226D02*
X284252Y372047D01*
Y418898D01*
X283071Y420079D02*
X284252Y418898D01*
X285221Y367588D02*
Y371319D01*
X285452Y371550D01*
Y419395D01*
X283568Y421279D02*
X285452Y419395D01*
X286652Y372009D02*
X287331Y371331D01*
X287852Y372778D02*
X289331Y371299D01*
X250000Y423351D02*
Y450787D01*
X248425Y423106D02*
Y432283D01*
X275178Y372338D02*
Y412186D01*
X278346Y415354D01*
X296063Y381496D02*
X296850Y382283D01*
X294863Y421241D02*
X297244Y423622D01*
X294863Y373603D02*
Y421241D01*
X295276Y372047D02*
X296063Y372835D01*
Y381496D01*
X297263Y367510D02*
Y374822D01*
X297231Y367478D02*
X297263Y367510D01*
X293231Y371971D02*
X294863Y373603D01*
X305906Y381496D02*
X306693Y382283D01*
X311614D01*
X324606Y379331D02*
X327473D01*
X328740Y380598D01*
X329921Y380026D02*
Y380082D01*
X329940Y380101D01*
Y382090D01*
X330921Y383071D01*
X326378Y389764D02*
Y391732D01*
Y389764D02*
X328740Y387402D01*
Y380598D02*
Y387402D01*
X159055Y350394D02*
X166142Y357480D01*
X213779D01*
X226882Y344378D01*
X221472Y341520D02*
X261024D01*
X262065Y340478D01*
X212598Y354331D02*
X224016Y342913D01*
X261417D01*
X261953Y342378D01*
X131752Y283996D02*
X136260D01*
X128347Y287402D02*
X131752Y283996D01*
X128347Y287402D02*
Y302362D01*
X129921Y303937D01*
X137402D01*
X138425Y302913D01*
Y300866D02*
Y302913D01*
X153055Y299307D02*
X153150Y299213D01*
X153055Y299307D02*
Y314063D01*
X293231Y326695D02*
X294094Y327559D01*
X304581Y326522D02*
Y326551D01*
Y326522D02*
X308118Y322984D01*
X305064Y331159D02*
X309638Y326584D01*
X291789Y331159D02*
X305064D01*
X292558Y329959D02*
X304567D01*
X293326Y328759D02*
X304069D01*
X303572Y327559D02*
X304581Y326551D01*
X294094Y327559D02*
X303572D01*
X291331Y326764D02*
X293326Y328759D01*
X289331Y326732D02*
X292558Y329959D01*
X287331Y326701D02*
X291789Y331159D01*
X304069Y328759D02*
X308644Y324184D01*
X304567Y329959D02*
X309141Y325384D01*
X310431Y356178D02*
X310499Y356109D01*
X372237D01*
X309638Y326584D02*
X380915D01*
X412205Y357874D01*
Y393095D01*
X411005Y358472D02*
Y393733D01*
X382406Y322984D02*
X435831Y376409D01*
X381909Y324184D02*
X425831Y368106D01*
X381412Y325384D02*
X415831Y359803D01*
X309141Y325384D02*
X381412D01*
X415831Y359803D02*
Y382268D01*
X308644Y324184D02*
X381909D01*
X425831Y368106D02*
Y382268D01*
X308118Y322984D02*
X382406D01*
X435831Y376409D02*
Y382268D01*
X433071Y395669D02*
X443307D01*
X412205Y393095D02*
X414779Y395669D01*
X423228D01*
X420831Y393272D02*
X423228Y395669D01*
X433071D01*
X440570Y396869D02*
X443307Y399606D01*
X414141Y396869D02*
X440570D01*
X411005Y393733D02*
X414141Y396869D01*
X375500Y395398D02*
X383591D01*
X375480Y395378D02*
X375500Y395398D01*
X375480Y389378D02*
Y395378D01*
X375480Y389378D02*
X375480Y389378D01*
X383516Y389421D02*
X384646Y390551D01*
X383516Y385433D02*
Y389421D01*
X383515Y385432D02*
X383516Y385433D01*
X384646Y390551D02*
X389764D01*
X391071Y391858D01*
Y395398D01*
X262546Y354278D02*
X266231D01*
X260236Y351969D02*
X262546Y354278D01*
X261695Y350278D02*
X266231D01*
X144488Y307228D02*
Y323622D01*
X144425Y307165D02*
X144488Y307228D01*
X250000Y423351D02*
X252072Y421279D01*
X283568D01*
X248425Y423106D02*
X251453Y420079D01*
X283071D01*
X287852Y372778D02*
Y421203D01*
X290551Y423902D01*
Y429528D01*
X268504Y367717D02*
X281943Y354278D01*
X310431D01*
X266231Y352278D02*
X276856D01*
X277953Y351181D01*
Y348425D02*
Y351181D01*
X285039Y346063D02*
Y346090D01*
X282888Y348242D02*
X285039Y346090D01*
X266231Y360178D02*
X270924D01*
X282860Y348242D02*
X282888D01*
X270924Y360178D02*
X282860Y348242D01*
X273531Y364387D02*
X279256Y358661D01*
X303937D01*
X273531Y364387D02*
Y367478D01*
X303937Y358661D02*
X309449Y364173D01*
X364811Y366929D02*
X374260Y357480D01*
X309449Y364173D02*
X365870D01*
X315748Y366929D02*
X364811D01*
X374260Y357480D02*
X386221D01*
X375320Y354724D02*
X383857D01*
X376023Y352324D02*
X404856D01*
X365870Y364173D02*
X375320Y354724D01*
X372237Y356109D02*
X376023Y352324D01*
X404856D02*
X411005Y358472D01*
X459490Y282718D02*
X462209Y280000D01*
X300000Y299213D02*
X305906D01*
X299062Y323210D02*
X299131Y323278D01*
X283465Y361811D02*
X290158D01*
X291331Y362984D01*
Y367478D01*
X462209Y280000D02*
X468504D01*
X457893Y272816D02*
X460709Y270000D01*
X468504D01*
X456693Y264173D02*
X460866Y260000D01*
X468504D01*
X139764Y391732D02*
X140831Y390665D01*
X130831Y390673D02*
X131890Y391732D01*
X139764D01*
X336024Y379331D02*
X340354D01*
X110827Y365823D02*
Y393898D01*
X112992Y396063D02*
X131890D01*
X110827Y393898D02*
X112992Y396063D01*
X131890D02*
X145831Y410004D01*
Y418488D01*
X230314Y358267D02*
X230315Y358267D01*
Y348425D02*
Y358267D01*
X112205Y392520D02*
X113799Y394114D01*
X132697D01*
X150831Y412248D01*
Y418488D01*
X234252Y332677D02*
Y336614D01*
X364961Y290945D02*
X369291D01*
X369488Y291142D01*
X340551Y287795D02*
X343898Y291142D01*
X352953D01*
X383591Y395398D02*
Y397118D01*
X382677Y398031D02*
X383591Y397118D01*
X380315Y398031D02*
X382677D01*
X379134Y399213D02*
X380315Y398031D01*
X379134Y399213D02*
Y404724D01*
X380315Y405905D01*
X399213D01*
X402362Y409055D01*
Y449213D01*
X399346Y452228D02*
X402362Y449213D01*
X395331Y452228D02*
X399346D01*
X286119Y348378D02*
X310431D01*
X267510Y365317D02*
X283748Y349078D01*
X268007Y366516D02*
X284245Y350278D01*
X310431D01*
X283748Y349078D02*
X285419D01*
X286119Y348378D01*
D31*
X468630Y420079D02*
X473331Y415378D01*
X463386Y420079D02*
X468630D01*
X473331Y425378D02*
Y461315D01*
X470079Y464567D02*
X473331Y461315D01*
X448425Y464567D02*
X470079D01*
X445669Y461811D02*
X448425Y464567D01*
X445669Y453937D02*
Y461811D01*
X444095Y452362D02*
X445669Y453937D01*
X427898Y458189D02*
X433724Y452362D01*
X444095D01*
X387795Y383858D02*
Y386744D01*
X382500Y378563D02*
X387795Y383858D01*
X382500Y376220D02*
Y378563D01*
X391732Y388976D02*
X394882Y392126D01*
X390027Y388976D02*
X391732D01*
X387795Y386744D02*
X390027Y388976D01*
X369291Y395488D02*
Y400394D01*
X387181Y398410D02*
X392929D01*
X394882Y396457D01*
Y392126D02*
Y396457D01*
X382500Y372480D02*
Y376220D01*
X377992Y372480D02*
X382500D01*
X375984Y370472D02*
X377992Y372480D01*
X306299Y370472D02*
X375984D01*
X225197Y419685D02*
X250008D01*
X239370Y419685D02*
Y427165D01*
X211417Y419685D02*
X225197D01*
Y427165D01*
X199213Y419685D02*
X211417D01*
Y427165D01*
X197638Y421260D02*
Y427165D01*
Y421260D02*
X199213Y419685D01*
X250008D02*
X260236Y409457D01*
Y370866D02*
Y409457D01*
X303346Y378543D02*
X304331Y379528D01*
X300197Y378543D02*
X303346D01*
X136260Y289016D02*
Y294035D01*
X279431Y373228D02*
Y377856D01*
Y367478D02*
Y373228D01*
X316535Y360178D02*
X320981D01*
X310431D02*
X316535D01*
X303131Y312728D02*
Y323278D01*
X260236Y356178D02*
X266231D01*
X255680D02*
X260236D01*
Y330578D02*
X266231D01*
X255680D02*
X260236D01*
X188000Y191772D02*
Y199811D01*
X188465Y200276D01*
X190882D01*
X193244Y186016D02*
Y191008D01*
X192520Y191732D02*
X193244Y191008D01*
X188039Y191732D02*
X192520D01*
X188000Y191772D02*
X188039Y191732D01*
X198756Y186016D02*
X202551D01*
X205118Y188583D01*
X231496D01*
X232677Y189764D01*
X201150Y251016D02*
X230543D01*
X232842Y253315D01*
Y261016D01*
X188000Y257165D02*
X193622D01*
X194882Y255906D01*
Y251047D02*
Y255906D01*
X194850Y251016D02*
X194882Y251047D01*
X188000Y257165D02*
Y264772D01*
X188504Y265276D01*
X190882D01*
X187795Y229063D02*
X187843Y229016D01*
X182362Y250866D02*
X188000D01*
X182283Y250787D02*
X182362Y250866D01*
X187795Y294063D02*
X187843Y294016D01*
X143740Y283996D02*
X146988D01*
X148661Y285669D01*
X153000D01*
X146909Y294035D02*
X148583Y292362D01*
X143740Y294035D02*
X146909D01*
X148583Y292362D02*
X153000D01*
X120000Y280000D02*
X126693D01*
X127953Y278740D01*
X124732Y255394D02*
Y261740D01*
X127953Y264961D01*
Y278740D01*
X113386Y269291D02*
X115945D01*
X112598Y270079D02*
X113386Y269291D01*
X112598Y270079D02*
Y282598D01*
X120000Y290000D01*
X117323Y241150D02*
X124732Y233740D01*
X117323Y241150D02*
Y258661D01*
X123425Y264764D01*
Y269291D01*
X166500Y185287D02*
Y192161D01*
X124921Y233740D02*
X166500Y192161D01*
X124732Y233740D02*
X124921D01*
X171500Y185287D02*
Y189524D01*
X131496Y229528D02*
X171500Y189524D01*
X131496Y229528D02*
Y248630D01*
X124732Y255394D02*
X131496Y248630D01*
X162205Y216535D02*
X165354D01*
X166500Y206744D02*
Y215390D01*
X165354Y216535D02*
X166500Y215390D01*
X155905Y216535D02*
Y219291D01*
X157087Y220472D01*
Y224016D01*
X162992D01*
X171500Y215508D01*
Y206744D02*
Y215508D01*
X166500Y202398D02*
Y206744D01*
Y202398D02*
X167717Y201181D01*
X173228D01*
X174016Y201969D01*
Y211811D01*
X174803Y212598D01*
X183465D01*
X185039Y211024D01*
Y205118D02*
Y211024D01*
Y205118D02*
X185827Y204331D01*
X194488D01*
X195669Y205512D01*
Y219685D01*
X197638Y221654D01*
Y242520D01*
X201181Y246063D01*
X232842Y261016D02*
X235433Y258425D01*
Y248425D02*
Y258425D01*
X233071Y246063D02*
X235433Y248425D01*
X201181Y246063D02*
X233071D01*
X274724Y446378D02*
X280709D01*
X272331Y433528D02*
Y443984D01*
X274724Y446378D01*
X280709Y453937D02*
Y458189D01*
Y453937D02*
X282283Y452362D01*
X296457D01*
X297244Y433614D02*
Y439764D01*
Y433614D02*
X297331Y433528D01*
X292520Y458189D02*
X293386D01*
X299606Y451968D01*
X313386D01*
X318331Y447024D01*
Y433528D02*
Y447024D01*
X297244Y439764D02*
X298425Y440945D01*
Y450394D01*
X296457Y452362D02*
X298425Y450394D01*
X287331Y433528D02*
Y437724D01*
X288189Y438583D01*
X291732D01*
X292520Y439370D01*
Y446378D01*
X388189Y427165D02*
X389976Y425378D01*
X395331D01*
X374331Y458189D02*
X385906D01*
X388189Y455905D01*
Y427165D02*
Y455905D01*
X331496Y429134D02*
Y455905D01*
X333780Y458189D01*
X350709D01*
X135831Y418488D02*
Y440689D01*
X141520Y446378D01*
X145669Y452362D02*
X147638Y450394D01*
X135693Y452362D02*
X145669D01*
X129709Y446378D02*
X135693Y452362D01*
X140831Y418488D02*
Y436500D01*
X147638Y443307D01*
Y450394D01*
X160831Y373421D02*
X160927Y373325D01*
X141520Y458189D02*
X146535D01*
X147638Y457087D01*
Y453543D02*
Y457087D01*
Y453543D02*
X149213Y451968D01*
X170079D01*
X174118Y447929D01*
Y433591D02*
Y447929D01*
X303331Y433528D02*
X312331D01*
X303331D02*
Y437189D01*
X304331Y438189D01*
Y446378D01*
X427898Y439032D02*
Y446378D01*
Y439032D02*
X430831Y436098D01*
Y418488D02*
Y436098D01*
X435827Y418492D02*
X435831Y418488D01*
X440831Y435689D02*
X451520Y446378D01*
X440831Y418488D02*
Y435689D01*
X416087Y446378D02*
X425831Y436634D01*
Y418488D02*
Y436634D01*
X435827Y418492D02*
Y435827D01*
X439709Y439709D01*
Y446378D01*
X420831Y418488D02*
X420866Y418524D01*
X415748Y427165D02*
X415831Y427083D01*
X439709Y458189D02*
Y463441D01*
X437008Y466142D02*
X439709Y463441D01*
X398425Y466142D02*
X437008D01*
X395331Y463047D02*
X398425Y466142D01*
X395331Y458528D02*
Y463047D01*
X451520Y458189D02*
X457480Y452228D01*
Y440551D02*
Y452228D01*
Y440551D02*
X459842Y438189D01*
Y433465D02*
Y438189D01*
X463331Y440606D02*
Y446378D01*
Y440606D02*
X465748Y438189D01*
Y433465D02*
Y438189D01*
X255480Y330378D02*
X255680Y330578D01*
X255480Y356378D02*
X255680Y356178D01*
X279431Y377856D02*
X279528Y377953D01*
X320981Y360178D02*
X321181Y360378D01*
X310431Y352278D02*
X321081D01*
X321181Y352378D01*
X303131Y312728D02*
X303331Y312528D01*
X262295Y358178D02*
X266231D01*
X261024Y359449D02*
X262295Y358178D01*
X249606Y359449D02*
X261024D01*
X249213Y359055D02*
X249606Y359449D01*
X249213Y356410D02*
Y359055D01*
X249181Y356378D02*
X249213Y356410D01*
X261910Y332578D02*
X266231D01*
X261024Y333465D02*
X261910Y332578D01*
X249606Y333465D02*
X261024D01*
X249213Y333071D02*
X249606Y333465D01*
X249213Y330410D02*
Y333071D01*
X249181Y330378D02*
X249213Y330410D01*
X301131Y318454D02*
Y323278D01*
X300787Y306299D02*
X303260D01*
X303331Y306228D01*
X327480Y357953D02*
Y360378D01*
X281431Y367478D02*
Y371588D01*
X281890Y384252D02*
X281890Y384252D01*
X279528Y384252D02*
X281890D01*
X279528D02*
Y388976D01*
X291339Y384252D02*
Y388976D01*
X132425Y299291D02*
X134000Y300866D01*
X132425Y295921D02*
Y299291D01*
Y295921D02*
X134311Y294035D01*
X136260D01*
X309449Y389764D02*
Y391732D01*
Y389764D02*
X311614Y387598D01*
Y386024D02*
Y387598D01*
X302362Y388976D02*
Y391732D01*
Y388976D02*
X302756Y388583D01*
X303543D01*
X304331Y387795D01*
X327480Y352378D02*
X332268D01*
X327480Y360378D02*
X332142D01*
X244158Y330378D02*
X249181D01*
X244094Y330315D02*
X244158Y330378D01*
X245984Y356378D02*
X249181D01*
X244094Y358268D02*
X245984Y356378D01*
X281431Y371588D02*
X282677Y372835D01*
Y383465D01*
X281890Y384252D02*
X282677Y383465D01*
X304331Y379528D02*
Y387795D01*
X300362Y306724D02*
Y317685D01*
Y306724D02*
X300787Y306299D01*
X300362Y317685D02*
X301131Y318454D01*
X310431Y358178D02*
X314657D01*
X315425Y357410D01*
X326937D01*
X327480Y357953D01*
X386984Y401181D02*
X387181Y401378D01*
Y395547D02*
X387331Y395398D01*
X303331Y301756D02*
Y306228D01*
X291331Y367478D02*
Y377945D01*
X291339Y377953D01*
X129709Y458189D02*
Y464354D01*
X131890Y466535D01*
X250787D01*
X253937Y463386D01*
Y429134D02*
Y463386D01*
X232677Y189764D02*
Y196181D01*
X384055Y412402D02*
X387032Y415378D01*
X302362Y412402D02*
X309449D01*
X326378D01*
X333858D01*
X384055D01*
X387032Y415378D02*
X395331D01*
X333858Y398031D02*
Y405709D01*
X326378Y398031D02*
Y405709D01*
X309449Y398031D02*
Y405709D01*
X302362Y398031D02*
Y405709D01*
D32*
X470472Y397638D02*
X482227Y385883D01*
Y346120D02*
Y385883D01*
X468504Y350709D02*
X477638D01*
X482227Y346120D01*
Y239764D02*
Y346120D01*
X471990Y250000D02*
X482227Y239764D01*
Y201885D02*
Y239764D01*
X469712Y189370D02*
X482227Y201885D01*
X333858Y189370D02*
X469712D01*
X330315Y192913D02*
X333858Y189370D01*
X330315Y192913D02*
Y205118D01*
X325433Y210000D02*
X330315Y205118D01*
X320000Y210000D02*
X325433D01*
X320079Y210079D02*
Y247244D01*
X261811D02*
Y255906D01*
Y229134D02*
Y247244D01*
X259392Y226715D02*
X261811Y229134D01*
X254387Y226715D02*
X259392D01*
X251969Y229134D02*
X254387Y226715D01*
X251969Y229134D02*
Y290551D01*
X262992Y257087D02*
Y316929D01*
X261811Y255906D02*
X262992Y257087D01*
X248819Y293701D02*
X251969Y290551D01*
X238189Y293701D02*
X248819D01*
X227842Y275701D02*
Y294016D01*
X228157Y293701D02*
X238189D01*
X227842Y211134D02*
Y229016D01*
Y211134D02*
X232677Y206299D01*
Y196181D02*
Y206299D01*
X232842Y261016D02*
Y270701D01*
X227842Y275701D02*
X232842Y270701D01*
X187795Y229063D02*
Y236614D01*
Y294063D02*
Y300787D01*
X109055Y418504D02*
X109055Y418504D01*
X232842Y196016D02*
X243354D01*
X477165Y405512D02*
X485827Y396850D01*
X451575Y405512D02*
X477165D01*
X474016Y485039D02*
X485827Y473228D01*
X312992Y485039D02*
X474016D01*
X304331Y476378D02*
X312992Y485039D01*
X485827Y200394D02*
Y396850D01*
Y473228D01*
X304331Y458189D02*
Y476378D01*
X243354Y196016D02*
X253937Y185433D01*
X295433D01*
X294488D02*
X470866D01*
X485827Y200394D01*
D33*
X387181Y395547D02*
Y398410D01*
Y398463D02*
Y401378D01*
X168157Y272835D02*
X168236Y272756D01*
X393327Y372480D02*
X396890D01*
X397646Y373236D01*
X400913D01*
X397630Y367724D02*
X400913D01*
X396614Y368740D02*
X397630Y367724D01*
X393327Y368740D02*
X396614D01*
X383465Y362992D02*
X385039D01*
X382500Y363957D02*
X383465Y362992D01*
X382500Y363957D02*
Y368740D01*
X390394Y376220D02*
X393327D01*
X389764Y375590D02*
X390394Y376220D01*
X389764Y367323D02*
Y375590D01*
Y367323D02*
X390551Y366535D01*
Y362992D02*
Y366535D01*
X400913Y373236D02*
Y376646D01*
X397244Y380315D02*
X400913Y376646D01*
X397244Y380315D02*
Y385433D01*
X391146D02*
X397244D01*
X391071Y385358D02*
X391146Y385433D01*
X403543D02*
X408268D01*
X393480Y401378D02*
X397835D01*
X400913Y367724D02*
X405110D01*
X405118Y367717D01*
X364575Y389378D02*
X369181D01*
X364567Y389370D02*
X364575Y389378D01*
X382677Y401181D02*
X386984D01*
X159055Y309449D02*
Y314063D01*
X448425Y374410D02*
X450831Y376815D01*
Y382268D01*
X445831Y377004D02*
X448425Y374410D01*
X445831Y377004D02*
Y382268D01*
X380394Y427165D02*
X385039D01*
X380394Y423701D02*
Y427165D01*
X377953Y421260D02*
X380394Y423701D01*
X344331Y423386D02*
X346457Y421260D01*
X344331Y423386D02*
Y427228D01*
X365331Y421283D02*
Y427228D01*
X346457Y421260D02*
X377953D01*
X144425Y300866D02*
X147323D01*
X148031Y301575D01*
Y313386D01*
X132425Y307165D02*
Y313244D01*
D34*
X435000Y256378D02*
Y271063D01*
X160831Y373421D02*
Y382268D01*
X155831Y374878D02*
Y382268D01*
Y374878D02*
X157384Y373325D01*
X160927D01*
X130831Y418488D02*
Y426256D01*
X129528Y427559D02*
X130831Y426256D01*
X117323Y425984D02*
X118898Y427559D01*
X117323Y418504D02*
Y425984D01*
X109055Y418504D02*
X117323D01*
X125831Y418488D02*
Y427406D01*
X118898Y427559D02*
X129528D01*
X117323Y406299D02*
Y412205D01*
X407874Y418504D02*
Y425591D01*
X419685Y427165D02*
X420866Y425984D01*
Y418524D02*
Y425984D01*
X415831Y418488D02*
Y427083D01*
X409449Y427165D02*
X415748D01*
X419685D01*
X407874Y425591D02*
X408661Y426378D01*
X409449Y427165D01*
X431260Y278937D02*
Y283307D01*
X407874Y407480D02*
Y412205D01*
D35*
X358661Y269291D02*
Y290158D01*
X356732Y267362D02*
X358661Y269291D01*
X356732Y256378D02*
Y267362D01*
X375197Y268504D02*
Y290158D01*
X373268Y266575D02*
X375197Y268504D01*
X373268Y256378D02*
Y266575D01*
D36*
X141268Y255394D02*
X149094D01*
X153000Y259299D01*
Y282283D01*
X153244Y295748D02*
Y299213D01*
D37*
X159764Y294016D02*
X168157D01*
X168236Y272756D02*
X190882D01*
X168157Y229016D02*
Y272835D01*
Y294016D01*
Y224756D02*
Y229016D01*
Y224756D02*
X170473Y222441D01*
X187402D01*
X190882Y218961D01*
Y207756D02*
Y218961D01*
X158110Y292362D02*
X159764Y294016D01*
X153000Y292362D02*
X158110D01*
X295433Y185433D02*
X310000Y200000D01*
D38*
X201118Y207756D02*
X205787D01*
X208157Y210126D01*
Y229016D01*
X201118Y204016D02*
X212913D01*
Y196260D02*
X213158Y196016D01*
X212913Y196260D02*
Y204016D01*
X201118Y269016D02*
X212874D01*
Y261299D02*
X213158Y261016D01*
X212874Y261299D02*
Y269016D01*
X201118Y272756D02*
X205433D01*
X208157Y275480D01*
Y294016D01*
D39*
X266331Y433528D02*
X266535Y433732D01*
X281331Y433528D02*
X281496Y433693D01*
X332268Y352378D02*
X332283Y352362D01*
X332142Y360378D02*
X332283Y360236D01*
X180118Y433591D02*
X180315Y433787D01*
X233465Y427165D02*
X233465Y427165D01*
D40*
X364961Y279528D02*
X368504D01*
X347638D02*
X351575D01*
D41*
X468504Y250000D02*
D03*
Y260000D02*
D03*
Y270000D02*
D03*
Y280000D02*
D03*
Y290000D02*
D03*
Y300000D02*
D03*
Y330709D02*
D03*
Y340709D02*
D03*
Y350709D02*
D03*
Y360709D02*
D03*
Y370709D02*
D03*
Y380709D02*
D03*
X260000Y210000D02*
D03*
X270000D02*
D03*
X280000D02*
D03*
X290000D02*
D03*
X300000D02*
D03*
X310000D02*
D03*
X320000D02*
D03*
Y200000D02*
D03*
X310000D02*
D03*
X300000D02*
D03*
X290000D02*
D03*
X280000D02*
D03*
X270000D02*
D03*
X260000D02*
D03*
X120000Y280000D02*
D03*
Y290000D02*
D03*
X395331Y415378D02*
D03*
Y425378D02*
D03*
Y435378D02*
D03*
D42*
X124732Y233740D02*
D03*
Y255394D02*
D03*
X141268D02*
D03*
Y233740D02*
D03*
X356732Y234724D02*
D03*
Y256378D02*
D03*
X373268D02*
D03*
Y234724D02*
D03*
X435000Y256378D02*
D03*
Y234724D02*
D03*
D43*
X133000Y205000D02*
D03*
X365000Y205984D02*
D03*
X435000D02*
D03*
D44*
X374331Y458189D02*
D03*
X362520D02*
D03*
X350709D02*
D03*
Y446378D02*
D03*
X362520D02*
D03*
X374331D02*
D03*
X463331Y458189D02*
D03*
X451520D02*
D03*
X439709D02*
D03*
X427898D02*
D03*
X416087D02*
D03*
Y446378D02*
D03*
X427898D02*
D03*
X439709D02*
D03*
X451520D02*
D03*
X463331D02*
D03*
X304331Y458189D02*
D03*
X292520D02*
D03*
X280709D02*
D03*
Y446378D02*
D03*
X292520D02*
D03*
X304331D02*
D03*
X233331Y458189D02*
D03*
X221520D02*
D03*
X209709D02*
D03*
X197898D02*
D03*
Y446378D02*
D03*
X209709D02*
D03*
X221520D02*
D03*
X233331D02*
D03*
X153331Y458189D02*
D03*
X141520D02*
D03*
X129709D02*
D03*
Y446378D02*
D03*
X141520D02*
D03*
X153331D02*
D03*
D45*
X290551Y290551D02*
D03*
X294094Y287402D02*
D03*
X463386Y420079D02*
D03*
X470472Y397638D02*
D03*
X369291Y400394D02*
D03*
X260236Y370866D02*
D03*
X320079Y247244D02*
D03*
X261811D02*
D03*
X343307Y385433D02*
D03*
X256693Y230315D02*
D03*
X255906Y265748D02*
D03*
X262992Y316929D02*
D03*
X269291Y225197D02*
D03*
X265748Y228346D02*
D03*
X159055Y309449D02*
D03*
X314961Y283465D02*
D03*
X273622D02*
D03*
X271654Y400000D02*
D03*
X279134Y330709D02*
D03*
X182087Y202165D02*
D03*
X164961Y200000D02*
D03*
X183071Y192520D02*
D03*
X306299Y370472D02*
D03*
X318898Y308661D02*
D03*
X322835Y313779D02*
D03*
X256692Y351969D02*
D03*
X335433Y329921D02*
D03*
X318898Y343307D02*
D03*
Y336614D02*
D03*
X322835D02*
D03*
X286221Y233071D02*
D03*
X285039Y228346D02*
D03*
X327953Y330578D02*
D03*
X260236D02*
D03*
Y356178D02*
D03*
X303150Y316929D02*
D03*
X316535Y360178D02*
D03*
X279431Y373228D02*
D03*
X266535Y437795D02*
D03*
X281496Y437402D02*
D03*
Y400000D02*
D03*
X292126D02*
D03*
X279528Y388976D02*
D03*
X291339D02*
D03*
X171260Y374016D02*
D03*
X177165D02*
D03*
X127559D02*
D03*
X135831Y374020D02*
D03*
X212598Y354331D02*
D03*
X216142Y346850D02*
D03*
X211417Y437795D02*
D03*
X197638D02*
D03*
X358012Y438839D02*
D03*
X278346Y411417D02*
D03*
Y415354D02*
D03*
X140000Y280079D02*
D03*
X431260Y283307D02*
D03*
X297638Y389370D02*
D03*
X316929Y384252D02*
D03*
X332283Y352362D02*
D03*
Y360236D02*
D03*
X275590Y337795D02*
D03*
X362992Y438976D02*
D03*
X180315D02*
D03*
X191732Y422441D02*
D03*
X205512D02*
D03*
X219291D02*
D03*
X233465D02*
D03*
X244094Y330315D02*
D03*
Y358268D02*
D03*
X350394Y438583D02*
D03*
X407874Y407480D02*
D03*
X382677Y401181D02*
D03*
X408268Y385433D02*
D03*
X397835Y401378D02*
D03*
X405118Y367717D02*
D03*
X364567Y389370D02*
D03*
X144488Y323622D02*
D03*
X277953Y348425D02*
D03*
X285039Y346063D02*
D03*
X315748Y366929D02*
D03*
X386221Y357480D02*
D03*
X383857Y354724D02*
D03*
X422835Y357480D02*
D03*
X420472Y354724D02*
D03*
X303331Y301756D02*
D03*
X341339Y318898D02*
D03*
X283465Y361811D02*
D03*
X346063Y319685D02*
D03*
X340354Y379331D02*
D03*
X230315Y336614D02*
D03*
Y348425D02*
D03*
X234252Y336614D02*
D03*
Y348425D02*
D03*
X255906Y261024D02*
D03*
X364961Y290945D02*
D03*
X340551Y261024D02*
D03*
X448425Y374410D02*
D03*
X385039Y427165D02*
D03*
X148031Y313386D02*
D03*
X132425Y312992D02*
D03*
X136221Y288976D02*
D03*
D46*
X238189Y293701D02*
D03*
X212913Y204016D02*
D03*
X212874Y269016D02*
D03*
X187795Y236614D02*
D03*
X182283Y250787D02*
D03*
X187795Y300787D02*
D03*
X153150Y299213D02*
D03*
X157087Y224016D02*
D03*
X160927Y373325D02*
D03*
X109055Y418504D02*
D03*
X117323Y406299D02*
D03*
X408661Y426378D02*
D03*
X347638Y279528D02*
D03*
X364961D02*
D03*
X451575Y405512D02*
D03*
M02*
