M48
;Layer_Color=6321
;FILE_FORMAT=2:5
INCH,TZ
;TYPE=PLATED
T1F00S00C0.01500
T2F00S00C0.02799
T3F00S00C0.02800
T4F00S00C0.04331
T5F00S00C0.04724
T6F00S00C0.07087
;TYPE=NON_PLATED
T7F00S00C0.11811
T8F00S00C0.12205
%
T01
X320079Y247244
X340551Y261024
X314961Y283465
X318898Y308661
X364961Y290945
X431260Y283307
X294094Y287402
X290551Y290551
X303331Y301756
X273622Y283465
X255906Y265748
Y261024
X261811Y247244
X256693Y230315
X265748Y228346
X269291Y225197
X285039Y228346
X286221Y233071
X182087Y202165
X183071Y192520
X164961Y200000
X159055Y309449
X136221Y288976
X140000Y280079
X132425Y312992
X148031Y313386
X144488Y323622
X135831Y374020
X127559Y374016
X171260
X177165
X212598Y354331
X216142Y346850
X230315Y348425
X234252
Y336614
X230315
X244094Y330315
X260236Y330578
X262992Y316929
X279134Y330709
X275590Y337795
X277953Y348425
X285039Y346063
X283465Y361811
X279431Y373228
X279528Y388976
X291339
X297638Y389370
X292126Y400000
X281496
X271654
X278346Y411417
Y415354
X281496Y437402
X266535Y437795
X233465Y422441
X219291
X205512
X191732
X197638Y437795
X211417
X180315Y438976
X244094Y358268
X260236Y356178
X256692Y351969
X260236Y370866
X306299Y370472
X303150Y316929
X322835Y313779
X327953Y330578
X335433Y329921
X341339Y318898
X346063Y319685
X322835Y336614
X318898
Y343307
X316535Y360178
X315748Y366929
X316929Y384252
X343307Y385433
X340354Y379331
X332283Y360236
Y352362
X383857Y354724
X386221Y357480
X405118Y367717
X408268Y385433
X407874Y407480
X397835Y401378
X382677Y401181
X369291Y400394
X364567Y389370
X362992Y438976
X358012Y438839
X350394Y438583
X385039Y427165
X463386Y420079
X448425Y374410
X422835Y357480
X420472Y354724
X470472Y397638
T02
X238189Y293701
X153150Y299213
X451575Y405512
T03
X347638Y279528
X364961
X212874Y269016
X182283Y250787
X187795Y236614
X157087Y224016
X212913Y204016
X187795Y300787
X117323Y406299
X109055Y418504
X160927Y373325
X408661Y426378
T04
X129709Y446378
Y458189
X141520
X153331
Y446378
X141520
X197898
Y458189
X209709
Y446378
X221520
Y458189
X233331
Y446378
X280709
Y458189
X292520
X304331
Y446378
X292520
X350709
Y458189
X362520
X374331
Y446378
X362520
X416087
Y458189
X427898
X439709
Y446378
X427898
X451520
Y458189
X463331
Y446378
T05
X320000Y200000
Y210000
X468504Y250000
Y260000
Y270000
Y280000
Y290000
Y300000
X310000Y210000
X300000
X290000
X280000
X270000
X260000
Y200000
X270000
X280000
X290000
X300000
X310000
X120000Y280000
Y290000
X468504Y330709
Y340709
Y350709
Y360709
Y370709
Y380709
X395331Y415378
Y425378
Y435378
T06
X356732Y234724
X373268
Y256378
X356732
X435000
Y234724
X141268Y233740
X124732
Y255394
X141268
T07
X365000Y205984
X435000
X133000Y205000
T08
X362520Y475197
X424512
X454827
X292520
X224827
X206323
X141520
M30
