G04*
G04 #@! TF.GenerationSoftware,Altium Limited,CircuitStudio,1.5.2 (30)*
G04*
G04 Layer_Color=15065295*
%FSLAX25Y25*%
%MOIN*%
G70*
G01*
G75*
%ADD31C,0.00600*%
%ADD32C,0.01000*%
%ADD33C,0.00800*%
%ADD48C,0.00945*%
%ADD49C,0.02362*%
%ADD50C,0.00787*%
%ADD51C,0.00984*%
%ADD52R,0.00650X0.02300*%
%ADD53R,0.06700X0.01800*%
%ADD54R,0.00730X0.02560*%
G36*
X459135Y329268D02*
X457975D01*
Y329451D01*
X459135D01*
Y329268D01*
D02*
G37*
G36*
X478331Y299814D02*
X479708D01*
Y299625D01*
X476772D01*
Y299814D01*
X478148D01*
Y301573D01*
X478331D01*
Y299814D01*
D02*
G37*
G36*
X458646Y330522D02*
X460023D01*
Y330334D01*
X457087D01*
Y330522D01*
X458463D01*
Y332282D01*
X458646D01*
Y330522D01*
D02*
G37*
G36*
X459640Y329806D02*
X457470D01*
Y329995D01*
X459640D01*
Y329806D01*
D02*
G37*
G36*
X131834Y366291D02*
X131988D01*
Y366138D01*
Y365984D01*
X132142D01*
Y365830D01*
Y365677D01*
X132295D01*
Y365523D01*
X132449D01*
Y365369D01*
Y365216D01*
X132603D01*
Y365062D01*
Y364908D01*
X132756D01*
Y364755D01*
Y364601D01*
X132910D01*
Y364447D01*
Y364294D01*
X133064D01*
Y364140D01*
Y363986D01*
X133217D01*
Y363833D01*
Y363679D01*
Y363525D01*
X133371D01*
Y363371D01*
Y363218D01*
Y363064D01*
X133525D01*
Y362911D01*
Y362757D01*
Y362603D01*
Y362450D01*
X133678D01*
Y362296D01*
Y362142D01*
Y361988D01*
Y361835D01*
Y361681D01*
Y361527D01*
X133832D01*
Y361374D01*
Y361220D01*
Y361066D01*
Y360913D01*
Y360759D01*
Y360605D01*
Y360452D01*
Y360298D01*
X133986D01*
Y360144D01*
X134293D01*
Y359991D01*
X134600D01*
Y359837D01*
X134908D01*
Y359683D01*
X135215D01*
Y359530D01*
X135523D01*
Y359376D01*
X135830D01*
Y359222D01*
X136137D01*
Y359069D01*
X136598D01*
Y358915D01*
X136906D01*
Y358761D01*
X137213D01*
Y358608D01*
X137520D01*
Y358454D01*
X137828D01*
Y358300D01*
X138135D01*
Y358147D01*
X138596D01*
Y358300D01*
X138750D01*
Y358454D01*
X138903D01*
Y358608D01*
X139211D01*
Y358761D01*
X139365D01*
Y358915D01*
X139672D01*
Y359069D01*
X139979D01*
Y359222D01*
X140287D01*
Y359376D01*
X140594D01*
Y359530D01*
X141055D01*
Y359683D01*
X141516D01*
Y359837D01*
X141977D01*
Y359991D01*
X142745D01*
Y360144D01*
X143667D01*
Y360298D01*
X144743D01*
Y360144D01*
X144897D01*
Y359991D01*
Y359837D01*
X145051D01*
Y359683D01*
X145204D01*
Y359530D01*
X145358D01*
Y359376D01*
Y359222D01*
X145512D01*
Y359069D01*
X145665D01*
Y358915D01*
X145819D01*
Y358761D01*
X145973D01*
Y358608D01*
Y358454D01*
X146126D01*
Y358300D01*
X146280D01*
Y358147D01*
X146434D01*
Y357993D01*
X146587D01*
Y357839D01*
Y357685D01*
X146741D01*
Y357532D01*
X146895D01*
Y357378D01*
X147048D01*
Y357224D01*
X147202D01*
Y357071D01*
Y356917D01*
X147356D01*
Y356763D01*
X147509D01*
Y356610D01*
X147663D01*
Y356456D01*
X147817D01*
Y356302D01*
Y356149D01*
X147970D01*
Y355995D01*
X148124D01*
Y355841D01*
X148278D01*
Y355688D01*
Y355534D01*
X148124D01*
Y355380D01*
Y355227D01*
X147970D01*
Y355073D01*
Y354919D01*
Y354766D01*
X147817D01*
Y354612D01*
Y354458D01*
Y354305D01*
X147663D01*
Y354151D01*
Y353997D01*
X147509D01*
Y353843D01*
Y353690D01*
X147356D01*
Y353536D01*
Y353382D01*
X147202D01*
Y353229D01*
Y353075D01*
X147048D01*
Y352922D01*
Y352768D01*
X146895D01*
Y352614D01*
Y352460D01*
X146741D01*
Y352307D01*
X146587D01*
Y352153D01*
X146434D01*
Y351999D01*
Y351846D01*
X146280D01*
Y351692D01*
X146126D01*
Y351538D01*
X145973D01*
Y351385D01*
Y351231D01*
X145665D01*
Y351077D01*
X145512D01*
Y350924D01*
Y350770D01*
X145204D01*
Y350616D01*
Y350463D01*
X144897D01*
Y350309D01*
X144590D01*
Y350155D01*
X144743D01*
Y350002D01*
Y349848D01*
Y349694D01*
Y349540D01*
X144897D01*
Y349387D01*
Y349233D01*
Y349079D01*
Y348926D01*
X145051D01*
Y348772D01*
Y348619D01*
Y348465D01*
Y348311D01*
Y348158D01*
X145204D01*
Y348004D01*
Y347850D01*
Y347696D01*
Y347543D01*
X145358D01*
Y347389D01*
Y347235D01*
Y347082D01*
Y346928D01*
Y346774D01*
X145512D01*
Y346621D01*
Y346467D01*
Y346313D01*
Y346160D01*
X145665D01*
Y346006D01*
Y345852D01*
Y345699D01*
Y345545D01*
X145819D01*
Y345391D01*
Y345238D01*
X146126D01*
Y345084D01*
X146741D01*
Y344930D01*
X147202D01*
Y344777D01*
X147509D01*
Y344623D01*
X147970D01*
Y344469D01*
X148124D01*
Y344316D01*
X148432D01*
Y344162D01*
X148739D01*
Y344008D01*
X148892D01*
Y343854D01*
X149200D01*
Y343701D01*
X149354D01*
Y343547D01*
X149661D01*
Y343393D01*
X149815D01*
Y343240D01*
X149968D01*
Y343086D01*
X150122D01*
Y342932D01*
X150429D01*
Y342779D01*
X150583D01*
Y342625D01*
X150737D01*
Y342471D01*
X150890D01*
Y342318D01*
X151044D01*
Y342164D01*
X151198D01*
Y342010D01*
X151351D01*
Y341857D01*
Y341703D01*
Y341549D01*
Y341396D01*
Y341242D01*
X151198D01*
Y341088D01*
Y340935D01*
Y340781D01*
Y340627D01*
Y340474D01*
X151044D01*
Y340320D01*
Y340166D01*
Y340013D01*
Y339859D01*
X150890D01*
Y339705D01*
Y339551D01*
Y339398D01*
Y339244D01*
X150737D01*
Y339090D01*
Y338937D01*
Y338783D01*
Y338629D01*
Y338476D01*
X150583D01*
Y338322D01*
Y338168D01*
Y338015D01*
Y337861D01*
X150429D01*
Y337707D01*
Y337554D01*
Y337400D01*
Y337246D01*
X150276D01*
Y337093D01*
Y336939D01*
Y336785D01*
Y336632D01*
Y336478D01*
X150122D01*
Y336324D01*
Y336171D01*
Y336017D01*
X149661D01*
Y335863D01*
X149200D01*
Y335710D01*
X148585D01*
Y335556D01*
X147970D01*
Y335402D01*
X147202D01*
Y335248D01*
X144282D01*
Y335402D01*
X143514D01*
Y335248D01*
X143360D01*
Y335095D01*
X143207D01*
Y334941D01*
X143053D01*
Y334788D01*
X142899D01*
Y334634D01*
Y334480D01*
X142745D01*
Y334327D01*
X142592D01*
Y334173D01*
X142438D01*
Y334019D01*
X142284D01*
Y333865D01*
Y333712D01*
X142131D01*
Y333558D01*
X141977D01*
Y333404D01*
X141823D01*
Y333251D01*
X141670D01*
Y333097D01*
Y332943D01*
X141516D01*
Y332790D01*
X141362D01*
Y332636D01*
X141209D01*
Y332482D01*
X141055D01*
Y332329D01*
Y332175D01*
X140901D01*
Y332021D01*
X140748D01*
Y331868D01*
X140594D01*
Y331714D01*
X140440D01*
Y331560D01*
Y331407D01*
Y331253D01*
Y331099D01*
X140594D01*
Y330945D01*
Y330792D01*
X140748D01*
Y330638D01*
Y330485D01*
X140901D01*
Y330331D01*
Y330177D01*
Y330024D01*
X141055D01*
Y329870D01*
Y329716D01*
Y329562D01*
Y329409D01*
X141209D01*
Y329255D01*
Y329101D01*
Y328948D01*
Y328794D01*
Y328640D01*
Y328487D01*
X141362D01*
Y328333D01*
Y328179D01*
Y328026D01*
Y327872D01*
Y327718D01*
Y327565D01*
Y327411D01*
Y327257D01*
Y327104D01*
Y326950D01*
Y326796D01*
Y326643D01*
Y326489D01*
Y326335D01*
Y326182D01*
Y326028D01*
X141209D01*
Y325874D01*
Y325721D01*
Y325567D01*
Y325413D01*
Y325259D01*
Y325106D01*
Y324952D01*
X141055D01*
Y324798D01*
X140748D01*
Y324645D01*
X140440D01*
Y324491D01*
X140133D01*
Y324337D01*
X139825D01*
Y324184D01*
X139518D01*
Y324030D01*
X139057D01*
Y323876D01*
X138750D01*
Y323723D01*
X138443D01*
Y323569D01*
X138135D01*
Y323415D01*
X137828D01*
Y323262D01*
X137520D01*
Y323108D01*
X137213D01*
Y322954D01*
X136906D01*
Y322801D01*
X136598D01*
Y322647D01*
X136291D01*
Y322493D01*
X135523D01*
Y322647D01*
X135369D01*
Y322801D01*
X135062D01*
Y322954D01*
X134908D01*
Y323108D01*
X134600D01*
Y323262D01*
X134447D01*
Y323415D01*
X134293D01*
Y323569D01*
X133986D01*
Y323723D01*
X133832D01*
Y323876D01*
X133678D01*
Y324030D01*
X133525D01*
Y324184D01*
X133371D01*
Y324337D01*
X133217D01*
Y324491D01*
X133064D01*
Y324645D01*
X132910D01*
Y324798D01*
X132756D01*
Y324952D01*
X132603D01*
Y325106D01*
X132449D01*
Y325259D01*
X132295D01*
Y325413D01*
X132142D01*
Y325567D01*
Y325721D01*
X131988D01*
Y325874D01*
X131834D01*
Y326028D01*
Y326182D01*
X131681D01*
Y326335D01*
Y326489D01*
X131527D01*
Y326643D01*
Y326796D01*
X131373D01*
Y326950D01*
Y327104D01*
X126148D01*
Y326950D01*
Y326796D01*
X125995D01*
Y326643D01*
Y326489D01*
X125841D01*
Y326335D01*
Y326182D01*
X125687D01*
Y326028D01*
X125533D01*
Y325874D01*
Y325721D01*
X125380D01*
Y325567D01*
X125226D01*
Y325413D01*
X125073D01*
Y325259D01*
Y325106D01*
X124919D01*
Y324952D01*
X124765D01*
Y324798D01*
X124611D01*
Y324645D01*
X124458D01*
Y324491D01*
X124304D01*
Y324337D01*
X124150D01*
Y324184D01*
X123997D01*
Y324030D01*
X123843D01*
Y323876D01*
X123689D01*
Y323723D01*
X123382D01*
Y323569D01*
X123228D01*
Y323415D01*
X123075D01*
Y323262D01*
X122921D01*
Y323108D01*
X122614D01*
Y322954D01*
X122306D01*
Y322801D01*
X122153D01*
Y322647D01*
X121845D01*
Y322493D01*
X121230D01*
Y322647D01*
X120923D01*
Y322801D01*
X120616D01*
Y322954D01*
X120308D01*
Y323108D01*
X120001D01*
Y323262D01*
X119694D01*
Y323415D01*
X119386D01*
Y323569D01*
X119079D01*
Y323723D01*
X118772D01*
Y323876D01*
X118311D01*
Y324030D01*
X118003D01*
Y324184D01*
X117696D01*
Y324337D01*
X117389D01*
Y324491D01*
X117081D01*
Y324645D01*
X116774D01*
Y324798D01*
X116466D01*
Y324952D01*
X116313D01*
Y325106D01*
Y325259D01*
Y325413D01*
Y325567D01*
X116159D01*
Y325721D01*
Y325874D01*
Y326028D01*
Y326182D01*
Y326335D01*
Y326489D01*
Y326643D01*
Y326796D01*
Y326950D01*
Y327104D01*
Y327257D01*
Y327411D01*
Y327565D01*
Y327718D01*
Y327872D01*
Y328026D01*
Y328179D01*
Y328333D01*
Y328487D01*
Y328640D01*
X116313D01*
Y328794D01*
Y328948D01*
Y329101D01*
Y329255D01*
Y329409D01*
Y329562D01*
X116466D01*
Y329716D01*
Y329870D01*
Y330024D01*
Y330177D01*
X116620D01*
Y330331D01*
Y330485D01*
Y330638D01*
X116774D01*
Y330792D01*
Y330945D01*
X116928D01*
Y331099D01*
Y331253D01*
X117081D01*
Y331407D01*
Y331560D01*
X116928D01*
Y331714D01*
Y331868D01*
X116774D01*
Y332021D01*
X116620D01*
Y332175D01*
X116466D01*
Y332329D01*
X116313D01*
Y332482D01*
Y332636D01*
X116159D01*
Y332790D01*
X116006D01*
Y332943D01*
X115852D01*
Y333097D01*
X115698D01*
Y333251D01*
Y333404D01*
X115544D01*
Y333558D01*
X115391D01*
Y333712D01*
X115237D01*
Y333865D01*
X115083D01*
Y334019D01*
Y334173D01*
X114930D01*
Y334327D01*
X114776D01*
Y334480D01*
X114622D01*
Y334634D01*
X114469D01*
Y334788D01*
Y334941D01*
X114315D01*
Y335095D01*
X114161D01*
Y335248D01*
X114008D01*
Y335402D01*
X113239D01*
Y335248D01*
X110473D01*
Y335402D01*
X109551D01*
Y335556D01*
X108936D01*
Y335710D01*
X108475D01*
Y335863D01*
X108014D01*
Y336017D01*
X107399D01*
Y336171D01*
Y336324D01*
Y336478D01*
X107246D01*
Y336632D01*
Y336785D01*
Y336939D01*
Y337093D01*
X107092D01*
Y337246D01*
Y337400D01*
Y337554D01*
Y337707D01*
X106939D01*
Y337861D01*
Y338015D01*
Y338168D01*
Y338322D01*
Y338476D01*
X106785D01*
Y338629D01*
Y338783D01*
Y338937D01*
Y339090D01*
X106631D01*
Y339244D01*
Y339398D01*
Y339551D01*
Y339705D01*
Y339859D01*
X106477D01*
Y340013D01*
Y340166D01*
Y340320D01*
Y340474D01*
X106324D01*
Y340627D01*
Y340781D01*
Y340935D01*
Y341088D01*
X106170D01*
Y341242D01*
Y341396D01*
Y341549D01*
Y341703D01*
Y341857D01*
Y342010D01*
X106324D01*
Y342164D01*
X106477D01*
Y342318D01*
X106631D01*
Y342471D01*
X106785D01*
Y342625D01*
X106939D01*
Y342779D01*
X107092D01*
Y342932D01*
X107246D01*
Y343086D01*
X107399D01*
Y343240D01*
X107707D01*
Y343393D01*
X107861D01*
Y343547D01*
X108014D01*
Y343701D01*
X108322D01*
Y343854D01*
X108475D01*
Y344008D01*
X108783D01*
Y344162D01*
X108936D01*
Y344316D01*
X109244D01*
Y344469D01*
X109551D01*
Y344623D01*
X109858D01*
Y344777D01*
X110166D01*
Y344930D01*
X110627D01*
Y345084D01*
X111241D01*
Y345238D01*
X111703D01*
Y345391D01*
Y345545D01*
X111856D01*
Y345699D01*
Y345852D01*
Y346006D01*
Y346160D01*
Y346313D01*
X112010D01*
Y346467D01*
Y346621D01*
Y346774D01*
Y346928D01*
X112164D01*
Y347082D01*
Y347235D01*
Y347389D01*
Y347543D01*
X112317D01*
Y347696D01*
Y347850D01*
Y348004D01*
Y348158D01*
Y348311D01*
X112471D01*
Y348465D01*
Y348619D01*
Y348772D01*
Y348926D01*
X112625D01*
Y349079D01*
Y349233D01*
Y349387D01*
Y349540D01*
X112778D01*
Y349694D01*
Y349848D01*
Y350002D01*
Y350155D01*
Y350309D01*
X112625D01*
Y350463D01*
X112471D01*
Y350616D01*
X112317D01*
Y350770D01*
X112010D01*
Y350924D01*
Y351077D01*
X111856D01*
Y351231D01*
X111703D01*
Y351385D01*
X111549D01*
Y351538D01*
X111395D01*
Y351692D01*
X111241D01*
Y351846D01*
X111088D01*
Y351999D01*
Y352153D01*
X110934D01*
Y352307D01*
X110780D01*
Y352460D01*
Y352614D01*
X110627D01*
Y352768D01*
X110473D01*
Y352922D01*
Y353075D01*
X110319D01*
Y353229D01*
Y353382D01*
X110166D01*
Y353536D01*
Y353690D01*
X110012D01*
Y353843D01*
Y353997D01*
X109858D01*
Y354151D01*
Y354305D01*
X109705D01*
Y354458D01*
Y354612D01*
Y354766D01*
X109551D01*
Y354919D01*
Y355073D01*
Y355227D01*
X109397D01*
Y355380D01*
Y355534D01*
Y355688D01*
Y355841D01*
Y355995D01*
X109551D01*
Y356149D01*
Y356302D01*
X109705D01*
Y356456D01*
X109858D01*
Y356610D01*
X110012D01*
Y356763D01*
X110166D01*
Y356917D01*
Y357071D01*
X110319D01*
Y357224D01*
X110473D01*
Y357378D01*
X110627D01*
Y357532D01*
X110780D01*
Y357685D01*
Y357839D01*
X110934D01*
Y357993D01*
X111088D01*
Y358147D01*
X111241D01*
Y358300D01*
X111395D01*
Y358454D01*
Y358608D01*
X111549D01*
Y358761D01*
X111703D01*
Y358915D01*
X111856D01*
Y359069D01*
X112010D01*
Y359222D01*
Y359376D01*
X112164D01*
Y359530D01*
X112317D01*
Y359683D01*
X112471D01*
Y359837D01*
X112625D01*
Y359991D01*
Y360144D01*
X112778D01*
Y360298D01*
X113854D01*
Y360144D01*
X114930D01*
Y359991D01*
X115544D01*
Y359837D01*
X116006D01*
Y359683D01*
X116620D01*
Y359530D01*
X116928D01*
Y359376D01*
X117389D01*
Y359222D01*
X117542D01*
Y359069D01*
X117850D01*
Y358915D01*
X118157D01*
Y358761D01*
X118464D01*
Y358608D01*
X118618D01*
Y358454D01*
X118772D01*
Y358300D01*
X118925D01*
Y358147D01*
X119386D01*
Y358300D01*
X119694D01*
Y358454D01*
X120001D01*
Y358608D01*
X120308D01*
Y358761D01*
X120616D01*
Y358915D01*
X120923D01*
Y359069D01*
X121230D01*
Y359222D01*
X121538D01*
Y359376D01*
X121999D01*
Y359530D01*
X122306D01*
Y359683D01*
X122614D01*
Y359837D01*
X122921D01*
Y359991D01*
X123228D01*
Y360144D01*
X123536D01*
Y360298D01*
X123689D01*
Y360452D01*
Y360605D01*
Y360759D01*
Y360913D01*
Y361066D01*
Y361220D01*
Y361374D01*
Y361527D01*
X123843D01*
Y361681D01*
Y361835D01*
Y361988D01*
Y362142D01*
Y362296D01*
Y362450D01*
X123997D01*
Y362603D01*
Y362757D01*
Y362911D01*
Y363064D01*
X124150D01*
Y363218D01*
Y363371D01*
Y363525D01*
X124304D01*
Y363679D01*
Y363833D01*
X124458D01*
Y363986D01*
Y364140D01*
Y364294D01*
X124611D01*
Y364447D01*
Y364601D01*
X124765D01*
Y364755D01*
Y364908D01*
X124919D01*
Y365062D01*
Y365216D01*
X125073D01*
Y365369D01*
Y365523D01*
X125226D01*
Y365677D01*
X125380D01*
Y365830D01*
Y365984D01*
X125533D01*
Y366138D01*
Y366291D01*
X125687D01*
Y366445D01*
X131834D01*
Y366291D01*
D02*
G37*
G36*
X478820Y298559D02*
X477660D01*
Y298743D01*
X478820D01*
Y298559D01*
D02*
G37*
G36*
X479325Y299098D02*
X477155D01*
Y299287D01*
X479325D01*
Y299098D01*
D02*
G37*
%LPC*%
G36*
X131373Y366138D02*
X126148D01*
Y365984D01*
X125995D01*
Y365830D01*
X125841D01*
Y365677D01*
Y365523D01*
X125687D01*
Y365369D01*
Y365216D01*
X125533D01*
Y365062D01*
X125380D01*
Y364908D01*
Y364755D01*
X125226D01*
Y364601D01*
Y364447D01*
X125073D01*
Y364294D01*
Y364140D01*
X124919D01*
Y363986D01*
Y363833D01*
Y363679D01*
X124765D01*
Y363525D01*
Y363371D01*
Y363218D01*
X124611D01*
Y363064D01*
Y362911D01*
Y362757D01*
X124458D01*
Y362603D01*
Y362450D01*
Y362296D01*
X124304D01*
Y362142D01*
Y361988D01*
Y361835D01*
Y361681D01*
Y361527D01*
Y361374D01*
X124150D01*
Y361220D01*
X124304D01*
Y361066D01*
X124150D01*
Y360913D01*
Y360759D01*
Y360605D01*
Y360452D01*
X124304D01*
Y360298D01*
Y360144D01*
Y359991D01*
X123997D01*
Y359837D01*
X123689D01*
Y359683D01*
X123382D01*
Y359530D01*
X122921D01*
Y359376D01*
X122614D01*
Y359222D01*
X122306D01*
Y359069D01*
X121999D01*
Y358915D01*
X121692D01*
Y358761D01*
X121384D01*
Y358608D01*
X121077D01*
Y358454D01*
X120770D01*
Y358300D01*
X120462D01*
Y358147D01*
X120155D01*
Y357993D01*
X119847D01*
Y357839D01*
X119540D01*
Y357685D01*
X119233D01*
Y357532D01*
X118772D01*
Y357685D01*
Y357839D01*
X118618D01*
Y357993D01*
X118464D01*
Y358147D01*
X118157D01*
Y358300D01*
X118003D01*
Y358454D01*
X117696D01*
Y358608D01*
X117542D01*
Y358761D01*
X117235D01*
Y358915D01*
X116928D01*
Y359069D01*
X116466D01*
Y359222D01*
X116159D01*
Y359376D01*
X115544D01*
Y359530D01*
X115083D01*
Y359683D01*
X114161D01*
Y359837D01*
X113086D01*
Y359683D01*
X112932D01*
Y359530D01*
X112778D01*
Y359376D01*
Y359222D01*
X112625D01*
Y359069D01*
X112471D01*
Y358915D01*
X112317D01*
Y358761D01*
X112164D01*
Y358608D01*
Y358454D01*
X112010D01*
Y358300D01*
X111856D01*
Y358147D01*
X111703D01*
Y357993D01*
X111549D01*
Y357839D01*
Y357685D01*
X111395D01*
Y357532D01*
X111241D01*
Y357378D01*
X111088D01*
Y357224D01*
X110934D01*
Y357071D01*
Y356917D01*
X110780D01*
Y356763D01*
X110627D01*
Y356610D01*
X110473D01*
Y356456D01*
X110319D01*
Y356302D01*
Y356149D01*
X110166D01*
Y355995D01*
X110012D01*
Y355841D01*
X109858D01*
Y355688D01*
Y355534D01*
Y355380D01*
X110012D01*
Y355227D01*
Y355073D01*
Y354919D01*
X110166D01*
Y354766D01*
Y354612D01*
Y354458D01*
X110319D01*
Y354305D01*
Y354151D01*
X110473D01*
Y353997D01*
Y353843D01*
X110627D01*
Y353690D01*
Y353536D01*
X110780D01*
Y353382D01*
Y353229D01*
X110934D01*
Y353075D01*
X111088D01*
Y352922D01*
Y352768D01*
X111241D01*
Y352614D01*
X111395D01*
Y352460D01*
Y352307D01*
X111549D01*
Y352153D01*
X111703D01*
Y351999D01*
X111856D01*
Y351846D01*
Y351692D01*
X112010D01*
Y351538D01*
X112164D01*
Y351385D01*
X112317D01*
Y351231D01*
X112471D01*
Y351077D01*
X112625D01*
Y350924D01*
X112932D01*
Y350770D01*
X113086D01*
Y350616D01*
X113393D01*
Y350463D01*
Y350309D01*
Y350155D01*
X113239D01*
Y350002D01*
Y349848D01*
Y349694D01*
Y349540D01*
Y349387D01*
X113086D01*
Y349233D01*
Y349079D01*
Y348926D01*
Y348772D01*
X112932D01*
Y348619D01*
Y348465D01*
Y348311D01*
Y348158D01*
X112778D01*
Y348004D01*
Y347850D01*
Y347696D01*
Y347543D01*
Y347389D01*
X112625D01*
Y347235D01*
Y347082D01*
Y346928D01*
Y346774D01*
X112471D01*
Y346621D01*
Y346467D01*
Y346313D01*
Y346160D01*
X112317D01*
Y346006D01*
Y345852D01*
Y345699D01*
Y345545D01*
Y345391D01*
X112164D01*
Y345238D01*
Y345084D01*
Y344930D01*
Y344777D01*
X111241D01*
Y344623D01*
X110627D01*
Y344469D01*
X110319D01*
Y344316D01*
X110012D01*
Y344162D01*
X109705D01*
Y344008D01*
X109397D01*
Y343854D01*
X109090D01*
Y343701D01*
X108936D01*
Y343547D01*
X108629D01*
Y343393D01*
X108475D01*
Y343240D01*
X108168D01*
Y343086D01*
X108014D01*
Y342932D01*
X107861D01*
Y342779D01*
X107553D01*
Y342625D01*
X107399D01*
Y342471D01*
X107246D01*
Y342318D01*
X107092D01*
Y342164D01*
X106939D01*
Y342010D01*
X106785D01*
Y341857D01*
X106631D01*
Y341703D01*
Y341549D01*
Y341396D01*
Y341242D01*
Y341088D01*
X106785D01*
Y340935D01*
Y340781D01*
Y340627D01*
Y340474D01*
X106939D01*
Y340320D01*
Y340166D01*
Y340013D01*
Y339859D01*
X107092D01*
Y339705D01*
Y339551D01*
Y339398D01*
Y339244D01*
Y339090D01*
X107246D01*
Y338937D01*
Y338783D01*
Y338629D01*
Y338476D01*
X107399D01*
Y338322D01*
Y338168D01*
Y338015D01*
Y337861D01*
X107553D01*
Y337707D01*
Y337554D01*
Y337400D01*
Y337246D01*
Y337093D01*
X107707D01*
Y336939D01*
Y336785D01*
Y336632D01*
Y336478D01*
X108014D01*
Y336324D01*
X108322D01*
Y336171D01*
X108783D01*
Y336017D01*
X109397D01*
Y335863D01*
X110166D01*
Y335710D01*
X111549D01*
Y335556D01*
X112010D01*
Y335710D01*
X113239D01*
Y335863D01*
X113854D01*
Y336017D01*
X114161D01*
Y335863D01*
X114315D01*
Y335710D01*
X114469D01*
Y335556D01*
X114622D01*
Y335402D01*
Y335248D01*
X114776D01*
Y335095D01*
X114930D01*
Y334941D01*
X115083D01*
Y334788D01*
X115237D01*
Y334634D01*
Y334480D01*
X115391D01*
Y334327D01*
X115544D01*
Y334173D01*
X115698D01*
Y334019D01*
X115852D01*
Y333865D01*
Y333712D01*
X116006D01*
Y333558D01*
X116159D01*
Y333404D01*
X116313D01*
Y333251D01*
X116466D01*
Y333097D01*
Y332943D01*
X116620D01*
Y332790D01*
X116774D01*
Y332636D01*
X116928D01*
Y332482D01*
X117081D01*
Y332329D01*
Y332175D01*
X117235D01*
Y332021D01*
X117389D01*
Y331868D01*
X117542D01*
Y331714D01*
X117696D01*
Y331560D01*
Y331407D01*
Y331253D01*
X117542D01*
Y331099D01*
X117389D01*
Y330945D01*
Y330792D01*
X117235D01*
Y330638D01*
Y330485D01*
Y330331D01*
X117081D01*
Y330177D01*
Y330024D01*
Y329870D01*
X116928D01*
Y329716D01*
Y329562D01*
Y329409D01*
X116774D01*
Y329255D01*
Y329101D01*
Y328948D01*
Y328794D01*
Y328640D01*
Y328487D01*
X116620D01*
Y328333D01*
Y328179D01*
Y328026D01*
Y327872D01*
Y327718D01*
Y327565D01*
Y327411D01*
Y327257D01*
Y327104D01*
Y326950D01*
Y326796D01*
Y326643D01*
Y326489D01*
Y326335D01*
Y326182D01*
Y326028D01*
Y325874D01*
Y325721D01*
X116774D01*
Y325567D01*
Y325413D01*
Y325259D01*
X116928D01*
Y325106D01*
X117235D01*
Y324952D01*
X117542D01*
Y324798D01*
X117850D01*
Y324645D01*
X118157D01*
Y324491D01*
X118464D01*
Y324337D01*
X118772D01*
Y324184D01*
X119079D01*
Y324030D01*
X119386D01*
Y323876D01*
X119694D01*
Y323723D01*
X120155D01*
Y323569D01*
X120462D01*
Y323415D01*
X120770D01*
Y323262D01*
X121077D01*
Y323108D01*
X121384D01*
Y322954D01*
X121692D01*
Y323108D01*
X121999D01*
Y323262D01*
X122153D01*
Y323415D01*
X122460D01*
Y323569D01*
X122614D01*
Y323723D01*
X122767D01*
Y323876D01*
X123075D01*
Y324030D01*
X123228D01*
Y324184D01*
X123382D01*
Y324337D01*
X123536D01*
Y324491D01*
X123689D01*
Y324645D01*
X123843D01*
Y324798D01*
X124150D01*
Y324952D01*
Y325106D01*
X124304D01*
Y325259D01*
X124458D01*
Y325413D01*
X124611D01*
Y325567D01*
X124765D01*
Y325721D01*
X124919D01*
Y325874D01*
Y326028D01*
X125073D01*
Y326182D01*
X125226D01*
Y326335D01*
Y326489D01*
X125380D01*
Y326643D01*
Y326796D01*
X125533D01*
Y326950D01*
Y327104D01*
X125687D01*
Y327257D01*
Y327411D01*
Y327565D01*
X131681D01*
Y327411D01*
X131834D01*
Y327257D01*
Y327104D01*
Y326950D01*
X131988D01*
Y326796D01*
Y326643D01*
X132142D01*
Y326489D01*
Y326335D01*
X132295D01*
Y326182D01*
X132449D01*
Y326028D01*
Y325874D01*
X132603D01*
Y325721D01*
X132756D01*
Y325567D01*
X132910D01*
Y325413D01*
Y325259D01*
X133064D01*
Y325106D01*
X133217D01*
Y324952D01*
X133371D01*
Y324798D01*
X133525D01*
Y324645D01*
X133678D01*
Y324491D01*
X133832D01*
Y324337D01*
X133986D01*
Y324184D01*
X134293D01*
Y324030D01*
X134447D01*
Y323876D01*
X134600D01*
Y323723D01*
X134908D01*
Y323569D01*
X135062D01*
Y323415D01*
X135215D01*
Y323262D01*
X135523D01*
Y323108D01*
X135830D01*
Y322954D01*
X136137D01*
Y323108D01*
X136445D01*
Y323262D01*
X136752D01*
Y323415D01*
X137059D01*
Y323569D01*
X137367D01*
Y323723D01*
X137674D01*
Y323876D01*
X137981D01*
Y324030D01*
X138443D01*
Y324184D01*
X138750D01*
Y324337D01*
X139057D01*
Y324491D01*
X139365D01*
Y324645D01*
X139672D01*
Y324798D01*
X139979D01*
Y324952D01*
X140287D01*
Y325106D01*
X140594D01*
Y325259D01*
X140748D01*
Y325413D01*
Y325567D01*
Y325721D01*
Y325874D01*
Y326028D01*
Y326182D01*
X140901D01*
Y326335D01*
Y326489D01*
Y326643D01*
Y326796D01*
Y326950D01*
Y327104D01*
Y327257D01*
Y327411D01*
Y327565D01*
Y327718D01*
Y327872D01*
Y328026D01*
Y328179D01*
X140748D01*
Y328333D01*
Y328487D01*
Y328640D01*
Y328794D01*
Y328948D01*
Y329101D01*
Y329255D01*
X140594D01*
Y329409D01*
Y329562D01*
Y329716D01*
Y329870D01*
X140440D01*
Y330024D01*
Y330177D01*
Y330331D01*
X140287D01*
Y330485D01*
Y330638D01*
X140133D01*
Y330792D01*
Y330945D01*
X139979D01*
Y331099D01*
Y331253D01*
X139825D01*
Y331407D01*
Y331560D01*
Y331714D01*
X139979D01*
Y331868D01*
X140133D01*
Y332021D01*
X140287D01*
Y332175D01*
X140440D01*
Y332329D01*
Y332482D01*
X140594D01*
Y332636D01*
X140748D01*
Y332790D01*
X140901D01*
Y332943D01*
Y333097D01*
X141055D01*
Y333251D01*
X141209D01*
Y333404D01*
X141362D01*
Y333558D01*
X141516D01*
Y333712D01*
Y333865D01*
X141670D01*
Y334019D01*
X141823D01*
Y334173D01*
X141977D01*
Y334327D01*
X142131D01*
Y334480D01*
Y334634D01*
X142284D01*
Y334788D01*
X142438D01*
Y334941D01*
X142592D01*
Y335095D01*
X142745D01*
Y335248D01*
Y335402D01*
X142899D01*
Y335556D01*
X143053D01*
Y335710D01*
X143207D01*
Y335863D01*
X143360D01*
Y336017D01*
X143667D01*
Y335863D01*
X144129D01*
Y335710D01*
X145051D01*
Y335556D01*
X146280D01*
Y335710D01*
X147509D01*
Y335863D01*
X148124D01*
Y336017D01*
X148739D01*
Y336171D01*
X149200D01*
Y336324D01*
X149507D01*
Y336478D01*
X149661D01*
Y336632D01*
X149815D01*
Y336785D01*
Y336939D01*
Y337093D01*
Y337246D01*
Y337400D01*
X149968D01*
Y337554D01*
Y337707D01*
Y337861D01*
Y338015D01*
X150122D01*
Y338168D01*
Y338322D01*
Y338476D01*
Y338629D01*
X150276D01*
Y338783D01*
Y338937D01*
Y339090D01*
Y339244D01*
Y339398D01*
X150429D01*
Y339551D01*
Y339705D01*
Y339859D01*
Y340013D01*
X150583D01*
Y340166D01*
Y340320D01*
Y340474D01*
Y340627D01*
X150737D01*
Y340781D01*
Y340935D01*
Y341088D01*
Y341242D01*
Y341396D01*
X150890D01*
Y341549D01*
Y341703D01*
X150737D01*
Y341857D01*
X150583D01*
Y342010D01*
X150429D01*
Y342164D01*
X150276D01*
Y342318D01*
X150122D01*
Y342471D01*
X149968D01*
Y342625D01*
X149815D01*
Y342779D01*
X149661D01*
Y342932D01*
X149354D01*
Y343086D01*
X149200D01*
Y343240D01*
X149046D01*
Y343393D01*
X148739D01*
Y343547D01*
X148585D01*
Y343701D01*
X148278D01*
Y343854D01*
X148124D01*
Y344008D01*
X147817D01*
Y344162D01*
X147509D01*
Y344316D01*
X147202D01*
Y344469D01*
X146741D01*
Y344623D01*
X146280D01*
Y344777D01*
X145358D01*
Y344930D01*
Y345084D01*
Y345238D01*
Y345391D01*
X145204D01*
Y345545D01*
Y345699D01*
Y345852D01*
Y346006D01*
X145051D01*
Y346160D01*
Y346313D01*
Y346467D01*
Y346621D01*
X144897D01*
Y346774D01*
Y346928D01*
Y347082D01*
Y347235D01*
Y347389D01*
X144743D01*
Y347543D01*
Y347696D01*
Y347850D01*
Y348004D01*
X144590D01*
Y348158D01*
Y348311D01*
Y348465D01*
Y348619D01*
X144436D01*
Y348772D01*
Y348926D01*
Y349079D01*
Y349233D01*
Y349387D01*
X144282D01*
Y349540D01*
Y349694D01*
Y349848D01*
Y350002D01*
X144129D01*
Y350155D01*
Y350309D01*
Y350463D01*
Y350616D01*
X144436D01*
Y350770D01*
X144590D01*
Y350924D01*
X144897D01*
Y351077D01*
X145051D01*
Y351231D01*
X145204D01*
Y351385D01*
X145358D01*
Y351538D01*
X145512D01*
Y351692D01*
X145665D01*
Y351846D01*
X145819D01*
Y351999D01*
Y352153D01*
X145973D01*
Y352307D01*
X146126D01*
Y352460D01*
Y352614D01*
X146280D01*
Y352768D01*
X146434D01*
Y352922D01*
Y353075D01*
X146587D01*
Y353229D01*
X146741D01*
Y353382D01*
Y353536D01*
X146895D01*
Y353690D01*
Y353843D01*
X147048D01*
Y353997D01*
Y354151D01*
X147202D01*
Y354305D01*
Y354458D01*
X147356D01*
Y354612D01*
Y354766D01*
Y354919D01*
X147509D01*
Y355073D01*
Y355227D01*
Y355380D01*
X147663D01*
Y355534D01*
Y355688D01*
Y355841D01*
X147509D01*
Y355995D01*
X147356D01*
Y356149D01*
X147202D01*
Y356302D01*
Y356456D01*
X147048D01*
Y356610D01*
X146895D01*
Y356763D01*
X146741D01*
Y356917D01*
X146587D01*
Y357071D01*
Y357224D01*
X146434D01*
Y357378D01*
X146280D01*
Y357532D01*
X146126D01*
Y357685D01*
X145973D01*
Y357839D01*
Y357993D01*
X145819D01*
Y358147D01*
X145665D01*
Y358300D01*
X145512D01*
Y358454D01*
X145358D01*
Y358608D01*
Y358761D01*
X145204D01*
Y358915D01*
X145051D01*
Y359069D01*
X144897D01*
Y359222D01*
X144743D01*
Y359376D01*
Y359530D01*
X144590D01*
Y359683D01*
X144436D01*
Y359837D01*
X143360D01*
Y359683D01*
X142592D01*
Y359530D01*
X141977D01*
Y359376D01*
X141516D01*
Y359222D01*
X141055D01*
Y359069D01*
X140748D01*
Y358915D01*
X140287D01*
Y358761D01*
X140133D01*
Y358608D01*
X139825D01*
Y358454D01*
X139518D01*
Y358300D01*
X139365D01*
Y358147D01*
X139211D01*
Y357993D01*
X138903D01*
Y357839D01*
X138750D01*
Y357685D01*
X138596D01*
Y357532D01*
X138289D01*
Y357685D01*
X137981D01*
Y357839D01*
X137674D01*
Y357993D01*
X137367D01*
Y358147D01*
X137059D01*
Y358300D01*
X136752D01*
Y358454D01*
X136445D01*
Y358608D01*
X136137D01*
Y358761D01*
X135830D01*
Y358915D01*
X135523D01*
Y359069D01*
X135215D01*
Y359222D01*
X134754D01*
Y359376D01*
X134447D01*
Y359530D01*
X134140D01*
Y359683D01*
X133832D01*
Y359837D01*
X133525D01*
Y359991D01*
X133217D01*
Y360144D01*
Y360298D01*
Y360452D01*
X133371D01*
Y360605D01*
Y360759D01*
Y360913D01*
Y361066D01*
Y361220D01*
Y361374D01*
X133217D01*
Y361527D01*
Y361681D01*
Y361835D01*
Y361988D01*
Y362142D01*
Y362296D01*
X133064D01*
Y362450D01*
Y362603D01*
Y362757D01*
Y362911D01*
X132910D01*
Y363064D01*
Y363218D01*
Y363371D01*
X132756D01*
Y363525D01*
Y363679D01*
X132603D01*
Y363833D01*
Y363986D01*
Y364140D01*
X132449D01*
Y364294D01*
Y364447D01*
X132295D01*
Y364601D01*
Y364755D01*
X132142D01*
Y364908D01*
Y365062D01*
X131988D01*
Y365216D01*
Y365369D01*
X131834D01*
Y365523D01*
X131681D01*
Y365677D01*
Y365830D01*
X131527D01*
Y365984D01*
X131373D01*
Y366138D01*
D02*
G37*
%LPD*%
G36*
X130144Y355073D02*
X130912D01*
Y354919D01*
X131527D01*
Y354766D01*
X132142D01*
Y354612D01*
X132449D01*
Y354458D01*
X132910D01*
Y354305D01*
X133217D01*
Y354151D01*
X133525D01*
Y353997D01*
X133832D01*
Y353843D01*
X134140D01*
Y353690D01*
X134293D01*
Y353536D01*
X134600D01*
Y353382D01*
X134908D01*
Y353229D01*
X135062D01*
Y353075D01*
X135215D01*
Y352922D01*
X135523D01*
Y352768D01*
X135676D01*
Y352614D01*
X135830D01*
Y352460D01*
X135984D01*
Y352307D01*
X136137D01*
Y352153D01*
X136291D01*
Y351999D01*
X136445D01*
Y351846D01*
X136598D01*
Y351692D01*
X136752D01*
Y351538D01*
X136906D01*
Y351385D01*
X137059D01*
Y351231D01*
X137213D01*
Y351077D01*
X137367D01*
Y350924D01*
Y350770D01*
X137520D01*
Y350616D01*
X137674D01*
Y350463D01*
X137828D01*
Y350309D01*
Y350155D01*
X137981D01*
Y350002D01*
X138135D01*
Y349848D01*
Y349694D01*
X138289D01*
Y349540D01*
Y349387D01*
X138443D01*
Y349233D01*
Y349079D01*
X138596D01*
Y348926D01*
Y348772D01*
X138750D01*
Y348619D01*
Y348465D01*
X138903D01*
Y348311D01*
Y348158D01*
X139057D01*
Y348004D01*
Y347850D01*
Y347696D01*
X139211D01*
Y347543D01*
Y347389D01*
Y347235D01*
X139365D01*
Y347082D01*
Y346928D01*
Y346774D01*
Y346621D01*
X139518D01*
Y346467D01*
Y346313D01*
Y346160D01*
Y346006D01*
X139672D01*
Y345852D01*
Y345699D01*
Y345545D01*
Y345391D01*
Y345238D01*
Y345084D01*
Y344930D01*
Y344777D01*
Y344623D01*
X139825D01*
Y344469D01*
Y344316D01*
Y344162D01*
Y344008D01*
Y343854D01*
Y343701D01*
Y343547D01*
Y343393D01*
Y343240D01*
Y343086D01*
X139672D01*
Y342932D01*
Y342779D01*
Y342625D01*
Y342471D01*
Y342318D01*
Y342164D01*
Y342010D01*
Y341857D01*
X139518D01*
Y341703D01*
Y341549D01*
Y341396D01*
Y341242D01*
Y341088D01*
X139365D01*
Y340935D01*
Y340781D01*
Y340627D01*
Y340474D01*
X139211D01*
Y340320D01*
Y340166D01*
Y340013D01*
X139057D01*
Y339859D01*
Y339705D01*
X138903D01*
Y339551D01*
Y339398D01*
Y339244D01*
X138750D01*
Y339090D01*
Y338937D01*
X138596D01*
Y338783D01*
Y338629D01*
X138443D01*
Y338476D01*
Y338322D01*
X138289D01*
Y338168D01*
Y338015D01*
X138135D01*
Y337861D01*
X137981D01*
Y337707D01*
Y337554D01*
X137828D01*
Y337400D01*
X137674D01*
Y337246D01*
Y337093D01*
X137520D01*
Y336939D01*
X137367D01*
Y336785D01*
X137213D01*
Y336632D01*
X137059D01*
Y336478D01*
Y336324D01*
X136906D01*
Y336171D01*
X136752D01*
Y336017D01*
X136598D01*
Y335863D01*
X136445D01*
Y335710D01*
X136291D01*
Y335556D01*
X136137D01*
Y335402D01*
X135984D01*
Y335248D01*
X135830D01*
Y335095D01*
X135523D01*
Y334941D01*
X135369D01*
Y334788D01*
X135215D01*
Y334634D01*
X134908D01*
Y334480D01*
X134754D01*
Y334327D01*
X134447D01*
Y334173D01*
X134293D01*
Y334019D01*
X133986D01*
Y333865D01*
X133678D01*
Y333712D01*
X133371D01*
Y333558D01*
X133064D01*
Y333404D01*
X132756D01*
Y333251D01*
X132295D01*
Y333097D01*
X131834D01*
Y332943D01*
X131373D01*
Y332790D01*
X130759D01*
Y332636D01*
X129683D01*
Y332482D01*
X126917D01*
Y332636D01*
X125995D01*
Y332790D01*
X125380D01*
Y332943D01*
X124765D01*
Y333097D01*
X124304D01*
Y333251D01*
X123997D01*
Y333404D01*
X123536D01*
Y333558D01*
X123228D01*
Y333712D01*
X122921D01*
Y333865D01*
X122614D01*
Y334019D01*
X122460D01*
Y334173D01*
X122153D01*
Y334327D01*
X121845D01*
Y334480D01*
X121692D01*
Y334634D01*
X121538D01*
Y334788D01*
X121230D01*
Y334941D01*
X121077D01*
Y335095D01*
X120923D01*
Y335248D01*
X120770D01*
Y335402D01*
X120616D01*
Y335556D01*
X120462D01*
Y335710D01*
X120308D01*
Y335863D01*
X120155D01*
Y336017D01*
X120001D01*
Y336171D01*
X119847D01*
Y336324D01*
X119694D01*
Y336478D01*
X119540D01*
Y336632D01*
X119386D01*
Y336785D01*
X119233D01*
Y336939D01*
Y337093D01*
X119079D01*
Y337246D01*
X118925D01*
Y337400D01*
X118772D01*
Y337554D01*
Y337707D01*
X118618D01*
Y337861D01*
X118464D01*
Y338015D01*
Y338168D01*
X118311D01*
Y338322D01*
Y338476D01*
X118157D01*
Y338629D01*
Y338783D01*
X118003D01*
Y338937D01*
Y339090D01*
X117850D01*
Y339244D01*
Y339398D01*
X117696D01*
Y339551D01*
Y339705D01*
Y339859D01*
X117542D01*
Y340013D01*
Y340166D01*
Y340320D01*
X117389D01*
Y340474D01*
Y340627D01*
Y340781D01*
X117235D01*
Y340935D01*
Y341088D01*
Y341242D01*
Y341396D01*
X117081D01*
Y341549D01*
Y341703D01*
Y341857D01*
Y342010D01*
Y342164D01*
X116928D01*
Y342318D01*
Y342471D01*
Y342625D01*
Y342779D01*
Y342932D01*
Y343086D01*
Y343240D01*
Y343393D01*
Y343547D01*
Y343701D01*
Y343854D01*
Y344008D01*
Y344162D01*
Y344316D01*
Y344469D01*
Y344623D01*
Y344777D01*
Y344930D01*
Y345084D01*
Y345238D01*
Y345391D01*
Y345545D01*
X117081D01*
Y345699D01*
Y345852D01*
Y346006D01*
Y346160D01*
Y346313D01*
Y346467D01*
X117235D01*
Y346621D01*
Y346774D01*
Y346928D01*
Y347082D01*
X117389D01*
Y347235D01*
Y347389D01*
Y347543D01*
X117542D01*
Y347696D01*
Y347850D01*
Y348004D01*
X117696D01*
Y348158D01*
Y348311D01*
X117850D01*
Y348465D01*
Y348619D01*
X118003D01*
Y348772D01*
Y348926D01*
Y349079D01*
X118157D01*
Y349233D01*
X118311D01*
Y349387D01*
Y349540D01*
X118464D01*
Y349694D01*
Y349848D01*
X118618D01*
Y350002D01*
Y350155D01*
X118772D01*
Y350309D01*
X118925D01*
Y350463D01*
X119079D01*
Y350616D01*
Y350770D01*
X119233D01*
Y350924D01*
X119386D01*
Y351077D01*
X119540D01*
Y351231D01*
Y351385D01*
X119694D01*
Y351538D01*
X119847D01*
Y351692D01*
X120001D01*
Y351846D01*
X120155D01*
Y351999D01*
X120308D01*
Y352153D01*
X120462D01*
Y352307D01*
X120616D01*
Y352460D01*
X120770D01*
Y352614D01*
X121077D01*
Y352768D01*
X121230D01*
Y352922D01*
X121384D01*
Y353075D01*
X121538D01*
Y353229D01*
X121845D01*
Y353382D01*
X121999D01*
Y353536D01*
X122306D01*
Y353690D01*
X122614D01*
Y353843D01*
X122767D01*
Y353997D01*
X123075D01*
Y354151D01*
X123382D01*
Y354305D01*
X123843D01*
Y354458D01*
X124150D01*
Y354612D01*
X124611D01*
Y354766D01*
X125073D01*
Y354919D01*
X125687D01*
Y355073D01*
X126456D01*
Y355227D01*
X130144D01*
Y355073D01*
D02*
G37*
%LPC*%
G36*
X129376Y354919D02*
X127378D01*
Y354766D01*
X126302D01*
Y354612D01*
X125533D01*
Y354458D01*
X125073D01*
Y354305D01*
X124611D01*
Y354151D01*
X124304D01*
Y353997D01*
X123843D01*
Y353843D01*
X123536D01*
Y353690D01*
X123228D01*
Y353536D01*
X122921D01*
Y353382D01*
X122767D01*
Y353229D01*
X122460D01*
Y353075D01*
X122153D01*
Y352922D01*
X121999D01*
Y352768D01*
X121845D01*
Y352614D01*
X121538D01*
Y352460D01*
X121384D01*
Y352307D01*
X121230D01*
Y352153D01*
X121077D01*
Y351999D01*
X120923D01*
Y351846D01*
X120770D01*
Y351692D01*
X120616D01*
Y351538D01*
X120462D01*
Y351385D01*
X120308D01*
Y351231D01*
X120155D01*
Y351077D01*
X120001D01*
Y350924D01*
X119847D01*
Y350770D01*
X119694D01*
Y350616D01*
Y350463D01*
X119540D01*
Y350309D01*
X119386D01*
Y350155D01*
X119233D01*
Y350002D01*
Y349848D01*
X119079D01*
Y349694D01*
X118925D01*
Y349540D01*
Y349387D01*
X118772D01*
Y349233D01*
Y349079D01*
X118618D01*
Y348926D01*
Y348772D01*
X118464D01*
Y348619D01*
Y348465D01*
X118311D01*
Y348311D01*
Y348158D01*
X118157D01*
Y348004D01*
Y347850D01*
X118003D01*
Y347696D01*
Y347543D01*
Y347389D01*
X117850D01*
Y347235D01*
Y347082D01*
Y346928D01*
Y346774D01*
X117696D01*
Y346621D01*
Y346467D01*
Y346313D01*
Y346160D01*
X117542D01*
Y346006D01*
Y345852D01*
Y345699D01*
Y345545D01*
Y345391D01*
X117389D01*
Y345238D01*
Y345084D01*
Y344930D01*
Y344777D01*
Y344623D01*
Y344469D01*
Y344316D01*
Y344162D01*
Y344008D01*
Y343854D01*
Y343701D01*
Y343547D01*
Y343393D01*
Y343240D01*
Y343086D01*
Y342932D01*
Y342779D01*
Y342625D01*
Y342471D01*
Y342318D01*
X117542D01*
Y342164D01*
Y342010D01*
Y341857D01*
Y341703D01*
Y341549D01*
X117696D01*
Y341396D01*
Y341242D01*
Y341088D01*
Y340935D01*
X117850D01*
Y340781D01*
Y340627D01*
Y340474D01*
X118003D01*
Y340320D01*
Y340166D01*
Y340013D01*
X118157D01*
Y339859D01*
Y339705D01*
Y339551D01*
X118311D01*
Y339398D01*
Y339244D01*
X118464D01*
Y339090D01*
Y338937D01*
X118618D01*
Y338783D01*
Y338629D01*
X118772D01*
Y338476D01*
Y338322D01*
X118925D01*
Y338168D01*
X119079D01*
Y338015D01*
Y337861D01*
X119233D01*
Y337707D01*
X119386D01*
Y337554D01*
Y337400D01*
X119540D01*
Y337246D01*
X119694D01*
Y337093D01*
X119847D01*
Y336939D01*
Y336785D01*
X120001D01*
Y336632D01*
X120155D01*
Y336478D01*
X120308D01*
Y336324D01*
X120462D01*
Y336171D01*
X120616D01*
Y336017D01*
X120770D01*
Y335863D01*
X120923D01*
Y335710D01*
X121077D01*
Y335556D01*
X121230D01*
Y335402D01*
X121538D01*
Y335248D01*
X121692D01*
Y335095D01*
X121845D01*
Y334941D01*
X122153D01*
Y334788D01*
X122306D01*
Y334634D01*
X122614D01*
Y334480D01*
X122767D01*
Y334327D01*
X123075D01*
Y334173D01*
X123382D01*
Y334019D01*
X123689D01*
Y333865D01*
X123997D01*
Y333712D01*
X124458D01*
Y333558D01*
X124765D01*
Y333404D01*
X125226D01*
Y333251D01*
X125841D01*
Y333097D01*
X126609D01*
Y332943D01*
X129990D01*
Y333097D01*
X130759D01*
Y333251D01*
X131373D01*
Y333404D01*
X131834D01*
Y333558D01*
X132295D01*
Y333712D01*
X132603D01*
Y333865D01*
X132910D01*
Y334019D01*
X133371D01*
Y334173D01*
X133525D01*
Y334327D01*
X133832D01*
Y334480D01*
X134140D01*
Y334634D01*
X134293D01*
Y334788D01*
X134600D01*
Y334941D01*
X134754D01*
Y335095D01*
X135062D01*
Y335248D01*
X135215D01*
Y335402D01*
X135369D01*
Y335556D01*
X135523D01*
Y335710D01*
X135676D01*
Y335863D01*
X135830D01*
Y336017D01*
X135984D01*
Y336171D01*
X136137D01*
Y336324D01*
X136291D01*
Y336478D01*
X136445D01*
Y336632D01*
X136598D01*
Y336785D01*
X136752D01*
Y336939D01*
X136906D01*
Y337093D01*
X137059D01*
Y337246D01*
Y337400D01*
X137213D01*
Y337554D01*
X137367D01*
Y337707D01*
Y337861D01*
X137520D01*
Y338015D01*
X137674D01*
Y338168D01*
Y338322D01*
X137828D01*
Y338476D01*
X137981D01*
Y338629D01*
Y338783D01*
X138135D01*
Y338937D01*
Y339090D01*
X138289D01*
Y339244D01*
Y339398D01*
X138443D01*
Y339551D01*
Y339705D01*
Y339859D01*
X138596D01*
Y340013D01*
Y340166D01*
Y340320D01*
X138750D01*
Y340474D01*
Y340627D01*
Y340781D01*
X138903D01*
Y340935D01*
Y341088D01*
Y341242D01*
X139057D01*
Y341396D01*
Y341549D01*
Y341703D01*
Y341857D01*
Y342010D01*
X139211D01*
Y342164D01*
Y342318D01*
Y342471D01*
Y342625D01*
Y342779D01*
Y342932D01*
Y343086D01*
Y343240D01*
X139365D01*
Y343393D01*
Y343547D01*
Y343701D01*
Y343854D01*
Y344008D01*
Y344162D01*
Y344316D01*
Y344469D01*
X139211D01*
Y344623D01*
Y344777D01*
Y344930D01*
Y345084D01*
Y345238D01*
Y345391D01*
Y345545D01*
Y345699D01*
Y345852D01*
X139057D01*
Y346006D01*
Y346160D01*
Y346313D01*
Y346467D01*
X138903D01*
Y346621D01*
Y346774D01*
Y346928D01*
Y347082D01*
X138750D01*
Y347235D01*
Y347389D01*
Y347543D01*
X138596D01*
Y347696D01*
Y347850D01*
Y348004D01*
X138443D01*
Y348158D01*
Y348311D01*
X138289D01*
Y348465D01*
Y348619D01*
X138135D01*
Y348772D01*
Y348926D01*
X137981D01*
Y349079D01*
Y349233D01*
X137828D01*
Y349387D01*
Y349540D01*
X137674D01*
Y349694D01*
X137520D01*
Y349848D01*
Y350002D01*
X137367D01*
Y350155D01*
X137213D01*
Y350309D01*
Y350463D01*
X137059D01*
Y350616D01*
X136906D01*
Y350770D01*
X136752D01*
Y350924D01*
X136598D01*
Y351077D01*
Y351231D01*
X136445D01*
Y351385D01*
X136291D01*
Y351538D01*
X136137D01*
Y351692D01*
X135984D01*
Y351846D01*
X135830D01*
Y351999D01*
X135676D01*
Y352153D01*
X135369D01*
Y352307D01*
X135215D01*
Y352460D01*
X135062D01*
Y352614D01*
X134908D01*
Y352768D01*
X134600D01*
Y352922D01*
X134447D01*
Y353075D01*
X134140D01*
Y353229D01*
X133986D01*
Y353382D01*
X133678D01*
Y353536D01*
X133371D01*
Y353690D01*
X133064D01*
Y353843D01*
X132756D01*
Y353997D01*
X132449D01*
Y354151D01*
X131988D01*
Y354305D01*
X131527D01*
Y354458D01*
X131066D01*
Y354612D01*
X130451D01*
Y354766D01*
X129376D01*
Y354919D01*
D02*
G37*
%LPD*%
G36*
X129683Y354151D02*
X130605D01*
Y353997D01*
X131220D01*
Y353843D01*
X131681D01*
Y353690D01*
X132142D01*
Y353536D01*
X132449D01*
Y353382D01*
X132910D01*
Y353229D01*
X133217D01*
Y353075D01*
X133525D01*
Y352922D01*
X133678D01*
Y352768D01*
X133986D01*
Y352614D01*
X134140D01*
Y352460D01*
X134447D01*
Y352307D01*
X134600D01*
Y352153D01*
X134908D01*
Y351999D01*
X135062D01*
Y351846D01*
X135215D01*
Y351692D01*
X135369D01*
Y351538D01*
X135523D01*
Y351385D01*
X135676D01*
Y351231D01*
X135830D01*
Y351077D01*
X135984D01*
Y350924D01*
X136137D01*
Y350770D01*
X136291D01*
Y350616D01*
X136445D01*
Y350463D01*
X136598D01*
Y350309D01*
Y350155D01*
X136752D01*
Y350002D01*
X136906D01*
Y349848D01*
X137059D01*
Y349694D01*
Y349540D01*
X137213D01*
Y349387D01*
Y349233D01*
X137367D01*
Y349079D01*
X137520D01*
Y348926D01*
Y348772D01*
X137674D01*
Y348619D01*
Y348465D01*
X137828D01*
Y348311D01*
Y348158D01*
X137981D01*
Y348004D01*
Y347850D01*
Y347696D01*
X138135D01*
Y347543D01*
Y347389D01*
X138289D01*
Y347235D01*
Y347082D01*
Y346928D01*
X138443D01*
Y346774D01*
Y346621D01*
Y346467D01*
Y346313D01*
X138596D01*
Y346160D01*
Y346006D01*
Y345852D01*
Y345699D01*
Y345545D01*
X138750D01*
Y345391D01*
Y345238D01*
Y345084D01*
Y344930D01*
Y344777D01*
Y344623D01*
Y344469D01*
Y344316D01*
Y344162D01*
Y344008D01*
Y343854D01*
Y343701D01*
Y343547D01*
Y343393D01*
Y343240D01*
Y343086D01*
Y342932D01*
Y342779D01*
Y342625D01*
Y342471D01*
Y342318D01*
X138596D01*
Y342164D01*
Y342010D01*
Y341857D01*
Y341703D01*
Y341549D01*
Y341396D01*
X138443D01*
Y341242D01*
Y341088D01*
Y340935D01*
X138289D01*
Y340781D01*
Y340627D01*
Y340474D01*
Y340320D01*
X138135D01*
Y340166D01*
Y340013D01*
X137981D01*
Y339859D01*
Y339705D01*
Y339551D01*
X137828D01*
Y339398D01*
Y339244D01*
X137674D01*
Y339090D01*
Y338937D01*
X137520D01*
Y338783D01*
Y338629D01*
X137367D01*
Y338476D01*
X137213D01*
Y338322D01*
Y338168D01*
X137059D01*
Y338015D01*
X136906D01*
Y337861D01*
Y337707D01*
X136752D01*
Y337554D01*
X136598D01*
Y337400D01*
X136445D01*
Y337246D01*
Y337093D01*
X136291D01*
Y336939D01*
X136137D01*
Y336785D01*
X135984D01*
Y336632D01*
X135830D01*
Y336478D01*
X135676D01*
Y336324D01*
X135523D01*
Y336171D01*
X135369D01*
Y336017D01*
X135215D01*
Y335863D01*
X135062D01*
Y335710D01*
X134754D01*
Y335556D01*
X134600D01*
Y335402D01*
X134447D01*
Y335248D01*
X134140D01*
Y335095D01*
X133986D01*
Y334941D01*
X133678D01*
Y334788D01*
X133371D01*
Y334634D01*
X133064D01*
Y334480D01*
X132756D01*
Y334327D01*
X132449D01*
Y334173D01*
X132142D01*
Y334019D01*
X131681D01*
Y333865D01*
X131066D01*
Y333712D01*
X130451D01*
Y333558D01*
X129529D01*
Y333404D01*
X127070D01*
Y333558D01*
X126148D01*
Y333712D01*
X125533D01*
Y333865D01*
X124919D01*
Y334019D01*
X124458D01*
Y334173D01*
X124150D01*
Y334327D01*
X123843D01*
Y334480D01*
X123536D01*
Y334634D01*
X123228D01*
Y334788D01*
X122921D01*
Y334941D01*
X122614D01*
Y335095D01*
X122460D01*
Y335248D01*
X122153D01*
Y335402D01*
X121999D01*
Y335556D01*
X121845D01*
Y335710D01*
X121692D01*
Y335863D01*
X121384D01*
Y336017D01*
X121230D01*
Y336171D01*
X121077D01*
Y336324D01*
X120923D01*
Y336478D01*
X120770D01*
Y336632D01*
X120616D01*
Y336785D01*
X120462D01*
Y336939D01*
X120308D01*
Y337093D01*
X120155D01*
Y337246D01*
Y337400D01*
X120001D01*
Y337554D01*
X119847D01*
Y337707D01*
X119694D01*
Y337861D01*
Y338015D01*
X119540D01*
Y338168D01*
X119386D01*
Y338322D01*
Y338476D01*
X119233D01*
Y338629D01*
Y338783D01*
X119079D01*
Y338937D01*
X118925D01*
Y339090D01*
Y339244D01*
X118772D01*
Y339398D01*
Y339551D01*
Y339705D01*
X118618D01*
Y339859D01*
Y340013D01*
X118464D01*
Y340166D01*
Y340320D01*
Y340474D01*
X118311D01*
Y340627D01*
Y340781D01*
Y340935D01*
X118157D01*
Y341088D01*
Y341242D01*
Y341396D01*
Y341549D01*
X118003D01*
Y341703D01*
Y341857D01*
Y342010D01*
Y342164D01*
Y342318D01*
Y342471D01*
X117850D01*
Y342625D01*
Y342779D01*
Y342932D01*
Y343086D01*
Y343240D01*
Y343393D01*
Y343547D01*
Y343701D01*
Y343854D01*
Y344008D01*
Y344162D01*
Y344316D01*
Y344469D01*
Y344623D01*
Y344777D01*
Y344930D01*
Y345084D01*
Y345238D01*
Y345391D01*
X118003D01*
Y345545D01*
Y345699D01*
Y345852D01*
Y346006D01*
Y346160D01*
X118157D01*
Y346313D01*
Y346467D01*
Y346621D01*
Y346774D01*
X118311D01*
Y346928D01*
Y347082D01*
Y347235D01*
X118464D01*
Y347389D01*
Y347543D01*
Y347696D01*
X118618D01*
Y347850D01*
Y348004D01*
X118772D01*
Y348158D01*
Y348311D01*
Y348465D01*
X118925D01*
Y348619D01*
Y348772D01*
X119079D01*
Y348926D01*
X119233D01*
Y349079D01*
Y349233D01*
X119386D01*
Y349387D01*
Y349540D01*
X119540D01*
Y349694D01*
X119694D01*
Y349848D01*
Y350002D01*
X119847D01*
Y350155D01*
X120001D01*
Y350309D01*
X120155D01*
Y350463D01*
Y350616D01*
X120308D01*
Y350770D01*
X120462D01*
Y350924D01*
X120616D01*
Y351077D01*
X120770D01*
Y351231D01*
X120923D01*
Y351385D01*
X121077D01*
Y351538D01*
X121230D01*
Y351692D01*
X121384D01*
Y351846D01*
X121538D01*
Y351999D01*
X121845D01*
Y352153D01*
X121999D01*
Y352307D01*
X122153D01*
Y352460D01*
X122460D01*
Y352614D01*
X122614D01*
Y352768D01*
X122921D01*
Y352922D01*
X123228D01*
Y353075D01*
X123382D01*
Y353229D01*
X123689D01*
Y353382D01*
X124150D01*
Y353536D01*
X124458D01*
Y353690D01*
X124919D01*
Y353843D01*
X125380D01*
Y353997D01*
X125995D01*
Y354151D01*
X126917D01*
Y354305D01*
X129683D01*
Y354151D01*
D02*
G37*
%LPC*%
G36*
X129990Y353843D02*
X126609D01*
Y353690D01*
X125995D01*
Y353536D01*
X125380D01*
Y353382D01*
X124919D01*
Y353229D01*
X124611D01*
Y353075D01*
X124150D01*
Y352922D01*
X123843D01*
Y352768D01*
X123536D01*
Y352614D01*
X123382D01*
Y352460D01*
X123075D01*
Y352307D01*
X122767D01*
Y352153D01*
X122614D01*
Y351999D01*
X122306D01*
Y351846D01*
X122153D01*
Y351692D01*
X121999D01*
Y351538D01*
X121845D01*
Y351385D01*
X121692D01*
Y351231D01*
X121538D01*
Y351077D01*
X121230D01*
Y350924D01*
X121077D01*
Y350770D01*
Y350616D01*
X120923D01*
Y350463D01*
X120770D01*
Y350309D01*
X120616D01*
Y350155D01*
X120462D01*
Y350002D01*
X120308D01*
Y349848D01*
Y349694D01*
X120155D01*
Y349540D01*
X120001D01*
Y349387D01*
X119847D01*
Y349233D01*
Y349079D01*
X119694D01*
Y348926D01*
Y348772D01*
X119540D01*
Y348619D01*
Y348465D01*
X119386D01*
Y348311D01*
Y348158D01*
X119233D01*
Y348004D01*
Y347850D01*
X119079D01*
Y347696D01*
Y347543D01*
X118925D01*
Y347389D01*
Y347235D01*
Y347082D01*
X118772D01*
Y346928D01*
Y346774D01*
Y346621D01*
X118618D01*
Y346467D01*
Y346313D01*
Y346160D01*
Y346006D01*
X118464D01*
Y345852D01*
Y345699D01*
Y345545D01*
Y345391D01*
Y345238D01*
X118311D01*
Y345084D01*
Y344930D01*
Y344777D01*
Y344623D01*
Y344469D01*
Y344316D01*
Y344162D01*
Y344008D01*
Y343854D01*
Y343701D01*
Y343547D01*
Y343393D01*
Y343240D01*
Y343086D01*
Y342932D01*
Y342779D01*
Y342625D01*
X118464D01*
Y342471D01*
Y342318D01*
Y342164D01*
Y342010D01*
Y341857D01*
Y341703D01*
X118618D01*
Y341549D01*
Y341396D01*
Y341242D01*
Y341088D01*
X118772D01*
Y340935D01*
Y340781D01*
Y340627D01*
X118925D01*
Y340474D01*
Y340320D01*
Y340166D01*
X119079D01*
Y340013D01*
Y339859D01*
X119233D01*
Y339705D01*
Y339551D01*
X119386D01*
Y339398D01*
Y339244D01*
X119540D01*
Y339090D01*
Y338937D01*
X119694D01*
Y338783D01*
Y338629D01*
X119847D01*
Y338476D01*
X120001D01*
Y338322D01*
Y338168D01*
X120155D01*
Y338015D01*
X120308D01*
Y337861D01*
Y337707D01*
X120462D01*
Y337554D01*
X120616D01*
Y337400D01*
X120770D01*
Y337246D01*
X120923D01*
Y337093D01*
X121077D01*
Y336939D01*
X121230D01*
Y336785D01*
X121384D01*
Y336632D01*
X121538D01*
Y336478D01*
X121692D01*
Y336324D01*
X121845D01*
Y336171D01*
X121999D01*
Y336017D01*
X122153D01*
Y335863D01*
X122460D01*
Y335710D01*
X122614D01*
Y335556D01*
X122767D01*
Y335402D01*
X123075D01*
Y335248D01*
X123382D01*
Y335095D01*
X123536D01*
Y334941D01*
X123843D01*
Y334788D01*
X124304D01*
Y334634D01*
X124611D01*
Y334480D01*
X124919D01*
Y334327D01*
X125380D01*
Y334173D01*
X125995D01*
Y334019D01*
X126763D01*
Y333865D01*
X129836D01*
Y334019D01*
X130605D01*
Y334173D01*
X131220D01*
Y334327D01*
X131681D01*
Y334480D01*
X131988D01*
Y334634D01*
X132449D01*
Y334788D01*
X132756D01*
Y334941D01*
X133064D01*
Y335095D01*
X133217D01*
Y335248D01*
X133525D01*
Y335402D01*
X133832D01*
Y335556D01*
X133986D01*
Y335710D01*
X134140D01*
Y335863D01*
X134447D01*
Y336017D01*
X134600D01*
Y336171D01*
X134754D01*
Y336324D01*
X134908D01*
Y336478D01*
X135062D01*
Y336632D01*
X135369D01*
Y336785D01*
X135523D01*
Y336939D01*
Y337093D01*
X135676D01*
Y337246D01*
X135830D01*
Y337400D01*
X135984D01*
Y337554D01*
X136137D01*
Y337707D01*
X136291D01*
Y337861D01*
Y338015D01*
X136445D01*
Y338168D01*
X136598D01*
Y338322D01*
X136752D01*
Y338476D01*
Y338629D01*
X136906D01*
Y338783D01*
Y338937D01*
X137059D01*
Y339090D01*
X137213D01*
Y339244D01*
Y339398D01*
X137367D01*
Y339551D01*
Y339705D01*
Y339859D01*
X137520D01*
Y340013D01*
Y340166D01*
X137674D01*
Y340320D01*
Y340474D01*
Y340627D01*
X137828D01*
Y340781D01*
Y340935D01*
Y341088D01*
X137981D01*
Y341242D01*
Y341396D01*
Y341549D01*
X138135D01*
Y341703D01*
Y341857D01*
Y342010D01*
Y342164D01*
Y342318D01*
Y342471D01*
X138289D01*
Y342625D01*
Y342779D01*
Y342932D01*
Y343086D01*
Y343240D01*
Y343393D01*
Y343547D01*
Y343701D01*
Y343854D01*
Y344008D01*
Y344162D01*
Y344316D01*
Y344469D01*
Y344623D01*
Y344777D01*
Y344930D01*
Y345084D01*
Y345238D01*
X138135D01*
Y345391D01*
Y345545D01*
Y345699D01*
Y345852D01*
Y346006D01*
Y346160D01*
X137981D01*
Y346313D01*
Y346467D01*
Y346621D01*
X137828D01*
Y346774D01*
Y346928D01*
Y347082D01*
Y347235D01*
X137674D01*
Y347389D01*
Y347543D01*
X137520D01*
Y347696D01*
Y347850D01*
Y348004D01*
X137367D01*
Y348158D01*
Y348311D01*
X137213D01*
Y348465D01*
Y348619D01*
X137059D01*
Y348772D01*
X136906D01*
Y348926D01*
Y349079D01*
X136752D01*
Y349233D01*
Y349387D01*
X136598D01*
Y349540D01*
X136445D01*
Y349694D01*
Y349848D01*
X136291D01*
Y350002D01*
X136137D01*
Y350155D01*
X135984D01*
Y350309D01*
X135830D01*
Y350463D01*
X135676D01*
Y350616D01*
Y350770D01*
X135523D01*
Y350924D01*
X135369D01*
Y351077D01*
X135215D01*
Y351231D01*
X135062D01*
Y351385D01*
X134754D01*
Y351538D01*
X134600D01*
Y351692D01*
X134447D01*
Y351846D01*
X134293D01*
Y351999D01*
X133986D01*
Y352153D01*
X133832D01*
Y352307D01*
X133525D01*
Y352460D01*
X133371D01*
Y352614D01*
X133064D01*
Y352768D01*
X132756D01*
Y352922D01*
X132449D01*
Y353075D01*
X132142D01*
Y353229D01*
X131681D01*
Y353382D01*
X131220D01*
Y353536D01*
X130605D01*
Y353690D01*
X129990D01*
Y353843D01*
D02*
G37*
%LPD*%
G36*
X131220Y352922D02*
Y352768D01*
Y352614D01*
Y352460D01*
Y352307D01*
Y352153D01*
Y351999D01*
Y351846D01*
Y351692D01*
Y351538D01*
Y351385D01*
Y351231D01*
Y351077D01*
Y350924D01*
Y350770D01*
Y350616D01*
Y350463D01*
Y350309D01*
Y350155D01*
Y350002D01*
Y349848D01*
Y349694D01*
Y349540D01*
Y349387D01*
Y349233D01*
Y349079D01*
Y348926D01*
Y348772D01*
Y348619D01*
Y348465D01*
Y348311D01*
Y348158D01*
Y348004D01*
Y347850D01*
Y347696D01*
Y347543D01*
Y347389D01*
Y347235D01*
Y347082D01*
Y346928D01*
Y346774D01*
Y346621D01*
Y346467D01*
Y346313D01*
X130298D01*
Y346160D01*
Y346006D01*
Y345852D01*
Y345699D01*
Y345545D01*
Y345391D01*
Y345238D01*
Y345084D01*
Y344930D01*
Y344777D01*
X129990D01*
Y344930D01*
X129836D01*
Y345084D01*
X129683D01*
Y345238D01*
X129529D01*
Y345391D01*
X129376D01*
Y345545D01*
X129222D01*
Y345699D01*
X129068D01*
Y345852D01*
X128914D01*
Y346006D01*
X128761D01*
Y346160D01*
X128607D01*
Y346313D01*
X128453D01*
Y346160D01*
Y346006D01*
Y345852D01*
Y345699D01*
Y345545D01*
Y345391D01*
Y345238D01*
Y345084D01*
Y344930D01*
Y344777D01*
Y344623D01*
Y344469D01*
Y344316D01*
Y344162D01*
Y344008D01*
Y343854D01*
Y343701D01*
Y343547D01*
Y343393D01*
Y343240D01*
Y343086D01*
Y342932D01*
Y342779D01*
Y342625D01*
Y342471D01*
Y342318D01*
Y342164D01*
Y342010D01*
Y341857D01*
Y341703D01*
Y341549D01*
Y341396D01*
X131220D01*
Y341242D01*
Y341088D01*
Y340935D01*
Y340781D01*
Y340627D01*
Y340474D01*
Y340320D01*
Y340166D01*
Y340013D01*
Y339859D01*
Y339705D01*
Y339551D01*
Y339398D01*
Y339244D01*
Y339090D01*
Y338937D01*
Y338783D01*
Y338629D01*
Y338476D01*
Y338322D01*
Y338168D01*
Y338015D01*
Y337861D01*
Y337707D01*
Y337554D01*
Y337400D01*
Y337246D01*
Y337093D01*
Y336939D01*
Y336785D01*
Y336632D01*
Y336478D01*
Y336324D01*
Y336171D01*
Y336017D01*
Y335863D01*
Y335710D01*
Y335556D01*
Y335402D01*
Y335248D01*
Y335095D01*
Y334941D01*
Y334788D01*
Y334634D01*
X130759D01*
Y334788D01*
Y334941D01*
Y335095D01*
Y335248D01*
Y335402D01*
Y335556D01*
Y335710D01*
Y335863D01*
Y336017D01*
Y336171D01*
Y336324D01*
Y336478D01*
Y336632D01*
Y336785D01*
Y336939D01*
Y337093D01*
Y337246D01*
Y337400D01*
Y337554D01*
Y337707D01*
Y337861D01*
Y338015D01*
Y338168D01*
Y338322D01*
Y338476D01*
Y338629D01*
Y338783D01*
Y338937D01*
Y339090D01*
Y339244D01*
Y339398D01*
Y339551D01*
Y339705D01*
Y339859D01*
Y340013D01*
Y340166D01*
Y340320D01*
Y340474D01*
Y340627D01*
Y340781D01*
Y340935D01*
X128453D01*
Y340781D01*
Y340627D01*
Y340474D01*
Y340320D01*
Y340166D01*
Y340013D01*
X127992D01*
Y340166D01*
Y340320D01*
Y340474D01*
Y340627D01*
Y340781D01*
Y340935D01*
Y341088D01*
Y341242D01*
Y341396D01*
Y341549D01*
Y341703D01*
Y341857D01*
Y342010D01*
Y342164D01*
Y342318D01*
Y342471D01*
Y342625D01*
Y342779D01*
Y342932D01*
Y343086D01*
Y343240D01*
Y343393D01*
Y343547D01*
Y343701D01*
Y343854D01*
Y344008D01*
Y344162D01*
Y344316D01*
Y344469D01*
Y344623D01*
Y344777D01*
Y344930D01*
Y345084D01*
Y345238D01*
Y345391D01*
Y345545D01*
Y345699D01*
Y345852D01*
Y346006D01*
Y346160D01*
Y346313D01*
Y346467D01*
Y346621D01*
Y346774D01*
Y346928D01*
Y347082D01*
Y347235D01*
Y347389D01*
Y347543D01*
Y347696D01*
X128453D01*
Y347543D01*
Y347389D01*
Y347235D01*
Y347082D01*
Y346928D01*
Y346774D01*
X128607D01*
Y346928D01*
X128761D01*
Y347082D01*
X128914D01*
Y347235D01*
X129068D01*
Y347389D01*
X129222D01*
Y347543D01*
X129376D01*
Y347696D01*
X129529D01*
Y347850D01*
X129683D01*
Y348004D01*
X129836D01*
Y348158D01*
X129990D01*
Y348311D01*
X130298D01*
Y348158D01*
Y348004D01*
Y347850D01*
Y347696D01*
Y347543D01*
Y347389D01*
Y347235D01*
Y347082D01*
Y346928D01*
Y346774D01*
X130759D01*
Y346928D01*
Y347082D01*
Y347235D01*
Y347389D01*
Y347543D01*
Y347696D01*
Y347850D01*
Y348004D01*
Y348158D01*
Y348311D01*
Y348465D01*
Y348619D01*
Y348772D01*
Y348926D01*
Y349079D01*
Y349233D01*
Y349387D01*
Y349540D01*
Y349694D01*
Y349848D01*
Y350002D01*
Y350155D01*
Y350309D01*
Y350463D01*
Y350616D01*
Y350770D01*
Y350924D01*
Y351077D01*
Y351231D01*
Y351385D01*
Y351538D01*
Y351692D01*
Y351846D01*
Y351999D01*
Y352153D01*
Y352307D01*
Y352460D01*
Y352614D01*
Y352768D01*
Y352922D01*
Y353075D01*
X131220D01*
Y352922D01*
D02*
G37*
G36*
X127531Y346774D02*
Y346621D01*
Y346467D01*
Y346313D01*
Y346160D01*
Y346006D01*
Y345852D01*
Y345699D01*
Y345545D01*
Y345391D01*
Y345238D01*
Y345084D01*
Y344930D01*
Y344777D01*
Y344623D01*
Y344469D01*
Y344316D01*
Y344162D01*
Y344008D01*
Y343854D01*
Y343701D01*
Y343547D01*
Y343393D01*
Y343240D01*
Y343086D01*
Y342932D01*
Y342779D01*
Y342625D01*
Y342471D01*
Y342318D01*
Y342164D01*
Y342010D01*
Y341857D01*
Y341703D01*
Y341549D01*
Y341396D01*
Y341242D01*
Y341088D01*
Y340935D01*
Y340781D01*
X127070D01*
Y340935D01*
Y341088D01*
Y341242D01*
Y341396D01*
Y341549D01*
Y341703D01*
Y341857D01*
Y342010D01*
Y342164D01*
Y342318D01*
Y342471D01*
Y342625D01*
Y342779D01*
Y342932D01*
Y343086D01*
Y343240D01*
Y343393D01*
Y343547D01*
Y343701D01*
X119386D01*
Y343854D01*
Y344008D01*
X127070D01*
Y344162D01*
Y344316D01*
Y344469D01*
Y344623D01*
Y344777D01*
Y344930D01*
Y345084D01*
Y345238D01*
Y345391D01*
Y345545D01*
Y345699D01*
Y345852D01*
Y346006D01*
Y346160D01*
Y346313D01*
Y346467D01*
Y346621D01*
Y346774D01*
Y346928D01*
X127531D01*
Y346774D01*
D02*
G37*
D31*
X268631Y365078D02*
X271731D01*
X304931D02*
X308031D01*
Y325678D02*
Y328778D01*
X268631Y325678D02*
X271731D01*
X268631Y361978D02*
Y365078D01*
Y325678D02*
Y328778D01*
X304931Y325678D02*
X308031D01*
Y361978D02*
Y365078D01*
X194095Y279971D02*
Y277305D01*
X194628Y276772D01*
X195694D01*
X196227Y277305D01*
Y279971D01*
X199426D02*
X198360Y279437D01*
X197293Y278371D01*
Y277305D01*
X197827Y276772D01*
X198893D01*
X199426Y277305D01*
Y277838D01*
X198893Y278371D01*
X197293D01*
X193701Y254724D02*
Y257923D01*
X195300D01*
X195833Y257390D01*
Y256324D01*
X195300Y255791D01*
X193701D01*
X194767D02*
X195833Y254724D01*
X196900Y257390D02*
X197433Y257923D01*
X198499D01*
X199032Y257390D01*
Y256857D01*
X198499Y256324D01*
X197966D01*
X198499D01*
X199032Y255791D01*
Y255258D01*
X198499Y254724D01*
X197433D01*
X196900Y255258D01*
X200099Y257390D02*
X200632Y257923D01*
X201698D01*
X202231Y257390D01*
Y255258D01*
X201698Y254724D01*
X200632D01*
X200099Y255258D01*
Y257390D01*
X184646Y254724D02*
X181447D01*
Y256324D01*
X181980Y256857D01*
X183046D01*
X183579Y256324D01*
Y254724D01*
Y255791D02*
X184646Y256857D01*
X181980Y257923D02*
X181447Y258456D01*
Y259523D01*
X181980Y260056D01*
X182513D01*
X183046Y259523D01*
Y258990D01*
Y259523D01*
X183579Y260056D01*
X184113D01*
X184646Y259523D01*
Y258456D01*
X184113Y257923D01*
X184646Y263255D02*
Y261122D01*
X182513Y263255D01*
X181980D01*
X181447Y262722D01*
Y261655D01*
X181980Y261122D01*
X334810Y337312D02*
X334277Y337845D01*
X333210D01*
X332677Y337312D01*
Y335179D01*
X333210Y334646D01*
X334277D01*
X334810Y335179D01*
X338009Y334646D02*
X335876D01*
X338009Y336778D01*
Y337312D01*
X337476Y337845D01*
X336409D01*
X335876Y337312D01*
X339075D02*
X339608Y337845D01*
X340675D01*
X341208Y337312D01*
Y336778D01*
X340675Y336245D01*
X341208Y335712D01*
Y335179D01*
X340675Y334646D01*
X339608D01*
X339075Y335179D01*
Y335712D01*
X339608Y336245D01*
X339075Y336778D01*
Y337312D01*
X339608Y336245D02*
X340675D01*
X349606Y359892D02*
Y357226D01*
X350139Y356693D01*
X351206D01*
X351739Y357226D01*
Y359892D01*
X352805Y356693D02*
X353872D01*
X353338D01*
Y359892D01*
X352805Y359359D01*
X355471D02*
X356004Y359892D01*
X357071D01*
X357604Y359359D01*
Y357226D01*
X357071Y356693D01*
X356004D01*
X355471Y357226D01*
Y359359D01*
X265748Y369734D02*
Y367069D01*
X266281Y366535D01*
X267348D01*
X267881Y367069D01*
Y369734D01*
X271080D02*
X268947D01*
Y368135D01*
X270013Y368668D01*
X270547D01*
X271080Y368135D01*
Y367069D01*
X270547Y366535D01*
X269480D01*
X268947Y367069D01*
X375541Y371654D02*
X378207D01*
X378740Y372187D01*
Y373253D01*
X378207Y373786D01*
X375541D01*
X378207Y374852D02*
X378740Y375386D01*
Y376452D01*
X378207Y376985D01*
X376074D01*
X375541Y376452D01*
Y375386D01*
X376074Y374852D01*
X376607D01*
X377141Y375386D01*
Y376985D01*
X193701Y214616D02*
Y211950D01*
X194234Y211417D01*
X195300D01*
X195833Y211950D01*
Y214616D01*
X196900Y214083D02*
X197433Y214616D01*
X198499D01*
X199032Y214083D01*
Y213550D01*
X198499Y213017D01*
X199032Y212484D01*
Y211950D01*
X198499Y211417D01*
X197433D01*
X196900Y211950D01*
Y212484D01*
X197433Y213017D01*
X196900Y213550D01*
Y214083D01*
X197433Y213017D02*
X198499D01*
X143701Y281152D02*
Y278486D01*
X144234Y277953D01*
X145300D01*
X145833Y278486D01*
Y281152D01*
X146900D02*
X149032D01*
Y280619D01*
X146900Y278486D01*
Y277953D01*
X396457Y396900D02*
Y394234D01*
X396990Y393701D01*
X398056D01*
X398589Y394234D01*
Y396900D01*
X399656Y396367D02*
X400189Y396900D01*
X401255D01*
X401788Y396367D01*
Y395833D01*
X401255Y395300D01*
X400722D01*
X401255D01*
X401788Y394767D01*
Y394234D01*
X401255Y393701D01*
X400189D01*
X399656Y394234D01*
X180659Y195276D02*
X183325D01*
X183858Y195809D01*
Y196875D01*
X183325Y197408D01*
X180659D01*
X183858Y198475D02*
Y199541D01*
Y199008D01*
X180659D01*
X181193Y198475D01*
X185039Y180315D02*
X181840D01*
Y181914D01*
X182374Y182448D01*
X183440D01*
X183973Y181914D01*
Y180315D01*
Y181381D02*
X185039Y182448D01*
X182374Y183514D02*
X181840Y184047D01*
Y185113D01*
X182374Y185647D01*
X182907D01*
X183440Y185113D01*
Y184580D01*
Y185113D01*
X183973Y185647D01*
X184506D01*
X185039Y185113D01*
Y184047D01*
X184506Y183514D01*
X181840Y188846D02*
Y186713D01*
X183440D01*
X182907Y187779D01*
Y188312D01*
X183440Y188846D01*
X184506D01*
X185039Y188312D01*
Y187246D01*
X184506Y186713D01*
X191732Y180315D02*
Y183514D01*
X193332D01*
X193865Y182981D01*
Y181914D01*
X193332Y181381D01*
X191732D01*
X192799D02*
X193865Y180315D01*
X194931Y182981D02*
X195464Y183514D01*
X196531D01*
X197064Y182981D01*
Y182448D01*
X196531Y181914D01*
X195998D01*
X196531D01*
X197064Y181381D01*
Y180848D01*
X196531Y180315D01*
X195464D01*
X194931Y180848D01*
X199730Y180315D02*
Y183514D01*
X198130Y181914D01*
X200263D01*
X140157Y309842D02*
X136959D01*
Y311442D01*
X137492Y311975D01*
X138558D01*
X139091Y311442D01*
Y309842D01*
Y310909D02*
X140157Y311975D01*
X137492Y313041D02*
X136959Y313575D01*
Y314641D01*
X137492Y315174D01*
X138025D01*
X138558Y314641D01*
Y314108D01*
Y314641D01*
X139091Y315174D01*
X139624D01*
X140157Y314641D01*
Y313575D01*
X139624Y313041D01*
X137492Y316241D02*
X136959Y316774D01*
Y317840D01*
X137492Y318373D01*
X138025D01*
X138558Y317840D01*
Y317307D01*
Y317840D01*
X139091Y318373D01*
X139624D01*
X140157Y317840D01*
Y316774D01*
X139624Y316241D01*
X160630Y323228D02*
X157431D01*
Y324828D01*
X157964Y325361D01*
X159030D01*
X159564Y324828D01*
Y323228D01*
Y324295D02*
X160630Y325361D01*
X157964Y326427D02*
X157431Y326960D01*
Y328027D01*
X157964Y328560D01*
X158497D01*
X159030Y328027D01*
Y327494D01*
Y328027D01*
X159564Y328560D01*
X160097D01*
X160630Y328027D01*
Y326960D01*
X160097Y326427D01*
X160630Y329626D02*
Y330693D01*
Y330159D01*
X157431D01*
X157964Y329626D01*
X154724Y323228D02*
X151525D01*
Y324828D01*
X152059Y325361D01*
X153125D01*
X153658Y324828D01*
Y323228D01*
Y324295D02*
X154724Y325361D01*
Y328560D02*
Y326427D01*
X152592Y328560D01*
X152059D01*
X151525Y328027D01*
Y326960D01*
X152059Y326427D01*
X154191Y329626D02*
X154724Y330159D01*
Y331226D01*
X154191Y331759D01*
X152059D01*
X151525Y331226D01*
Y330159D01*
X152059Y329626D01*
X152592D01*
X153125Y330159D01*
Y331759D01*
X160236Y284646D02*
X157037D01*
Y286245D01*
X157570Y286778D01*
X158637D01*
X159170Y286245D01*
Y284646D01*
Y285712D02*
X160236Y286778D01*
Y289977D02*
Y287845D01*
X158104Y289977D01*
X157570D01*
X157037Y289444D01*
Y288378D01*
X157570Y287845D01*
Y291044D02*
X157037Y291577D01*
Y292643D01*
X157570Y293176D01*
X158104D01*
X158637Y292643D01*
X159170Y293176D01*
X159703D01*
X160236Y292643D01*
Y291577D01*
X159703Y291044D01*
X159170D01*
X158637Y291577D01*
X158104Y291044D01*
X157570D01*
X158637Y291577D02*
Y292643D01*
X320472Y346457D02*
Y349656D01*
X322072D01*
X322605Y349123D01*
Y348056D01*
X322072Y347523D01*
X320472D01*
X321539D02*
X322605Y346457D01*
X325804D02*
X323671D01*
X325804Y348589D01*
Y349123D01*
X325271Y349656D01*
X324205D01*
X323671Y349123D01*
X326870Y349656D02*
X329003D01*
Y349123D01*
X326870Y346990D01*
Y346457D01*
X315748Y390551D02*
X312549D01*
Y392151D01*
X313082Y392684D01*
X314148D01*
X314682Y392151D01*
Y390551D01*
Y391617D02*
X315748Y392684D01*
Y395883D02*
Y393750D01*
X313615Y395883D01*
X313082D01*
X312549Y395350D01*
Y394283D01*
X313082Y393750D01*
X312549Y399082D02*
X313082Y398015D01*
X314148Y396949D01*
X315215D01*
X315748Y397482D01*
Y398549D01*
X315215Y399082D01*
X314682D01*
X314148Y398549D01*
Y396949D01*
X299213Y391339D02*
X296014D01*
Y392938D01*
X296547Y393471D01*
X297613D01*
X298146Y392938D01*
Y391339D01*
Y392405D02*
X299213Y393471D01*
Y396670D02*
Y394538D01*
X297080Y396670D01*
X296547D01*
X296014Y396137D01*
Y395071D01*
X296547Y394538D01*
X296014Y399869D02*
Y397737D01*
X297613D01*
X297080Y398803D01*
Y399336D01*
X297613Y399869D01*
X298679D01*
X299213Y399336D01*
Y398270D01*
X298679Y397737D01*
X340158Y390551D02*
X336959D01*
Y392151D01*
X337492Y392684D01*
X338558D01*
X339091Y392151D01*
Y390551D01*
Y391617D02*
X340158Y392684D01*
Y395883D02*
Y393750D01*
X338025Y395883D01*
X337492D01*
X336959Y395350D01*
Y394283D01*
X337492Y393750D01*
X340158Y398549D02*
X336959D01*
X338558Y396949D01*
Y399082D01*
X323228Y390551D02*
X320029D01*
Y392151D01*
X320563Y392684D01*
X321629D01*
X322162Y392151D01*
Y390551D01*
Y391617D02*
X323228Y392684D01*
Y395883D02*
Y393750D01*
X321096Y395883D01*
X320563D01*
X320029Y395350D01*
Y394283D01*
X320563Y393750D01*
Y396949D02*
X320029Y397482D01*
Y398549D01*
X320563Y399082D01*
X321096D01*
X321629Y398549D01*
Y398015D01*
Y398549D01*
X322162Y399082D01*
X322695D01*
X323228Y398549D01*
Y397482D01*
X322695Y396949D01*
X375984Y414961D02*
X372785D01*
Y416560D01*
X373318Y417093D01*
X374385D01*
X374918Y416560D01*
Y414961D01*
Y416027D02*
X375984Y417093D01*
Y420292D02*
Y418160D01*
X373852Y420292D01*
X373318D01*
X372785Y419759D01*
Y418693D01*
X373318Y418160D01*
X375984Y423491D02*
Y421359D01*
X373852Y423491D01*
X373318D01*
X372785Y422958D01*
Y421892D01*
X373318Y421359D01*
X351969Y416142D02*
X348769D01*
Y417741D01*
X349303Y418274D01*
X350369D01*
X350902Y417741D01*
Y416142D01*
Y417208D02*
X351969Y418274D01*
Y421473D02*
Y419341D01*
X349836Y421473D01*
X349303D01*
X348769Y420940D01*
Y419874D01*
X349303Y419341D01*
X351969Y422540D02*
Y423606D01*
Y423073D01*
X348769D01*
X349303Y422540D01*
X361024Y414961D02*
X357825D01*
Y416560D01*
X358358Y417093D01*
X359424D01*
X359957Y416560D01*
Y414961D01*
Y416027D02*
X361024Y417093D01*
Y420292D02*
Y418160D01*
X358891Y420292D01*
X358358D01*
X357825Y419759D01*
Y418693D01*
X358358Y418160D01*
Y421359D02*
X357825Y421892D01*
Y422958D01*
X358358Y423491D01*
X360490D01*
X361024Y422958D01*
Y421892D01*
X360490Y421359D01*
X358358D01*
X283071Y415354D02*
X279872D01*
Y416954D01*
X280405Y417487D01*
X281471D01*
X282005Y416954D01*
Y415354D01*
Y416421D02*
X283071Y417487D01*
Y418553D02*
Y419620D01*
Y419087D01*
X279872D01*
X280405Y418553D01*
X282538Y421219D02*
X283071Y421752D01*
Y422819D01*
X282538Y423352D01*
X280405D01*
X279872Y422819D01*
Y421752D01*
X280405Y421219D01*
X280938D01*
X281471Y421752D01*
Y423352D01*
X313779Y416535D02*
X310581D01*
Y418135D01*
X311114Y418668D01*
X312180D01*
X312713Y418135D01*
Y416535D01*
Y417602D02*
X313779Y418668D01*
Y419734D02*
Y420801D01*
Y420268D01*
X310581D01*
X311114Y419734D01*
Y422400D02*
X310581Y422933D01*
Y424000D01*
X311114Y424533D01*
X311647D01*
X312180Y424000D01*
X312713Y424533D01*
X313246D01*
X313779Y424000D01*
Y422933D01*
X313246Y422400D01*
X312713D01*
X312180Y422933D01*
X311647Y422400D01*
X311114D01*
X312180Y422933D02*
Y424000D01*
X186614Y426772D02*
X183415D01*
Y428371D01*
X183948Y428904D01*
X185015D01*
X185548Y428371D01*
Y426772D01*
Y427838D02*
X186614Y428904D01*
Y429971D02*
Y431037D01*
Y430504D01*
X183415D01*
X183948Y429971D01*
X183415Y432636D02*
Y434769D01*
X183948D01*
X186081Y432636D01*
X186614D01*
X288976Y415354D02*
X285777D01*
Y416954D01*
X286311Y417487D01*
X287377D01*
X287910Y416954D01*
Y415354D01*
Y416421D02*
X288976Y417487D01*
Y418553D02*
Y419620D01*
Y419087D01*
X285777D01*
X286311Y418553D01*
X285777Y423352D02*
X286311Y422285D01*
X287377Y421219D01*
X288443D01*
X288976Y421752D01*
Y422819D01*
X288443Y423352D01*
X287910D01*
X287377Y422819D01*
Y421219D01*
X320079Y416535D02*
X316880D01*
Y418135D01*
X317413Y418668D01*
X318479D01*
X319012Y418135D01*
Y416535D01*
Y417602D02*
X320079Y418668D01*
Y419734D02*
Y420801D01*
Y420268D01*
X316880D01*
X317413Y419734D01*
X316880Y424533D02*
Y422400D01*
X318479D01*
X317946Y423466D01*
Y424000D01*
X318479Y424533D01*
X319546D01*
X320079Y424000D01*
Y422933D01*
X319546Y422400D01*
X170472Y426772D02*
X167273D01*
Y428371D01*
X167807Y428904D01*
X168873D01*
X169406Y428371D01*
Y426772D01*
Y427838D02*
X170472Y428904D01*
Y429971D02*
Y431037D01*
Y430504D01*
X167273D01*
X167807Y429971D01*
X170472Y434236D02*
X167273D01*
X168873Y432636D01*
Y434769D01*
X268110Y415354D02*
X264911D01*
Y416954D01*
X265444Y417487D01*
X266511D01*
X267044Y416954D01*
Y415354D01*
Y416421D02*
X268110Y417487D01*
Y418553D02*
Y419620D01*
Y419087D01*
X264911D01*
X265444Y418553D01*
Y421219D02*
X264911Y421752D01*
Y422819D01*
X265444Y423352D01*
X265978D01*
X266511Y422819D01*
Y422285D01*
Y422819D01*
X267044Y423352D01*
X267577D01*
X268110Y422819D01*
Y421752D01*
X267577Y421219D01*
X305118Y416535D02*
X301919D01*
Y418135D01*
X302452Y418668D01*
X303519D01*
X304052Y418135D01*
Y416535D01*
Y417602D02*
X305118Y418668D01*
Y419734D02*
Y420801D01*
Y420268D01*
X301919D01*
X302452Y419734D01*
X305118Y424533D02*
Y422400D01*
X302986Y424533D01*
X302452D01*
X301919Y424000D01*
Y422933D01*
X302452Y422400D01*
X472441Y429528D02*
X469242D01*
Y431127D01*
X469775Y431660D01*
X470842D01*
X471375Y431127D01*
Y429528D01*
Y430594D02*
X472441Y431660D01*
Y432726D02*
Y433793D01*
Y433260D01*
X469242D01*
X469775Y432726D01*
X472441Y435392D02*
Y436459D01*
Y435925D01*
X469242D01*
X469775Y435392D01*
X274016Y415354D02*
X270817D01*
Y416954D01*
X271350Y417487D01*
X272416D01*
X272949Y416954D01*
Y415354D01*
Y416421D02*
X274016Y417487D01*
Y418553D02*
Y419620D01*
Y419087D01*
X270817D01*
X271350Y418553D01*
Y421219D02*
X270817Y421752D01*
Y422819D01*
X271350Y423352D01*
X273483D01*
X274016Y422819D01*
Y421752D01*
X273483Y421219D01*
X271350D01*
X299213Y419291D02*
X296014D01*
Y420891D01*
X296547Y421424D01*
X297613D01*
X298146Y420891D01*
Y419291D01*
Y420358D02*
X299213Y421424D01*
X298679Y422490D02*
X299213Y423024D01*
Y424090D01*
X298679Y424623D01*
X296547D01*
X296014Y424090D01*
Y423024D01*
X296547Y422490D01*
X297080D01*
X297613Y423024D01*
Y424623D01*
X456299Y428346D02*
X453100D01*
Y429946D01*
X453633Y430479D01*
X454700D01*
X455233Y429946D01*
Y428346D01*
Y429413D02*
X456299Y430479D01*
X453633Y431545D02*
X453100Y432079D01*
Y433145D01*
X453633Y433678D01*
X454167D01*
X454700Y433145D01*
X455233Y433678D01*
X455766D01*
X456299Y433145D01*
Y432079D01*
X455766Y431545D01*
X455233D01*
X454700Y432079D01*
X454167Y431545D01*
X453633D01*
X454700Y432079D02*
Y433145D01*
X396850Y461417D02*
X393651D01*
Y463017D01*
X394185Y463550D01*
X395251D01*
X395784Y463017D01*
Y461417D01*
Y462484D02*
X396850Y463550D01*
X393651Y464616D02*
Y466749D01*
X394185D01*
X396317Y464616D01*
X396850D01*
X371654Y398425D02*
Y401624D01*
X373253D01*
X373786Y401091D01*
Y400025D01*
X373253Y399492D01*
X371654D01*
X372720D02*
X373786Y398425D01*
X376985Y401624D02*
X375919Y401091D01*
X374852Y400025D01*
Y398958D01*
X375386Y398425D01*
X376452D01*
X376985Y398958D01*
Y399492D01*
X376452Y400025D01*
X374852D01*
X240945Y418110D02*
X237746D01*
Y419710D01*
X238279Y420243D01*
X239345D01*
X239879Y419710D01*
Y418110D01*
Y419177D02*
X240945Y420243D01*
X237746Y423442D02*
Y421309D01*
X239345D01*
X238812Y422375D01*
Y422909D01*
X239345Y423442D01*
X240412D01*
X240945Y422909D01*
Y421842D01*
X240412Y421309D01*
X212992Y418110D02*
X209793D01*
Y419710D01*
X210326Y420243D01*
X211393D01*
X211926Y419710D01*
Y418110D01*
Y419177D02*
X212992Y420243D01*
Y422909D02*
X209793D01*
X211393Y421309D01*
Y423442D01*
X226772Y418110D02*
X223573D01*
Y419710D01*
X224106Y420243D01*
X225172D01*
X225705Y419710D01*
Y418110D01*
Y419177D02*
X226772Y420243D01*
X224106Y421309D02*
X223573Y421842D01*
Y422909D01*
X224106Y423442D01*
X224639D01*
X225172Y422909D01*
Y422375D01*
Y422909D01*
X225705Y423442D01*
X226238D01*
X226772Y422909D01*
Y421842D01*
X226238Y421309D01*
X199213Y418110D02*
X196014D01*
Y419710D01*
X196547Y420243D01*
X197613D01*
X198146Y419710D01*
Y418110D01*
Y419177D02*
X199213Y420243D01*
Y423442D02*
Y421309D01*
X197080Y423442D01*
X196547D01*
X196014Y422909D01*
Y421842D01*
X196547Y421309D01*
X127559Y267717D02*
Y270916D01*
X129158D01*
X129692Y270382D01*
Y269316D01*
X129158Y268783D01*
X127559D01*
X128625D02*
X129692Y267717D01*
X130758D02*
X131824D01*
X131291D01*
Y270916D01*
X130758Y270382D01*
X308432Y374155D02*
Y376288D01*
X307899Y376821D01*
X306832D01*
X306299Y376288D01*
Y374155D01*
X306832Y373622D01*
X307899D01*
X307365Y374688D02*
X308432Y373622D01*
X307899D02*
X308432Y374155D01*
X311631Y376821D02*
X309498D01*
Y375221D01*
X310564Y375755D01*
X311098D01*
X311631Y375221D01*
Y374155D01*
X311098Y373622D01*
X310031D01*
X309498Y374155D01*
X333235Y374943D02*
Y377075D01*
X332702Y377608D01*
X331635D01*
X331102Y377075D01*
Y374943D01*
X331635Y374410D01*
X332702D01*
X332169Y375476D02*
X333235Y374410D01*
X332702D02*
X333235Y374943D01*
X335901Y374410D02*
Y377608D01*
X334301Y376009D01*
X336434D01*
X313730Y404331D02*
X316929D01*
Y405930D01*
X316396Y406463D01*
X314263D01*
X313730Y405930D01*
Y404331D01*
X314263Y409662D02*
X313730Y409129D01*
Y408063D01*
X314263Y407530D01*
X314796D01*
X315330Y408063D01*
Y409129D01*
X315863Y409662D01*
X316396D01*
X316929Y409129D01*
Y408063D01*
X316396Y407530D01*
X316929Y412328D02*
X313730D01*
X315330Y410729D01*
Y412861D01*
X294832Y404331D02*
X298031D01*
Y405930D01*
X297498Y406463D01*
X295366D01*
X294832Y405930D01*
Y404331D01*
X295366Y409662D02*
X294832Y409129D01*
Y408063D01*
X295366Y407530D01*
X295899D01*
X296432Y408063D01*
Y409129D01*
X296965Y409662D01*
X297498D01*
X298031Y409129D01*
Y408063D01*
X297498Y407530D01*
X295366Y410729D02*
X294832Y411262D01*
Y412328D01*
X295366Y412861D01*
X295899D01*
X296432Y412328D01*
Y411795D01*
Y412328D01*
X296965Y412861D01*
X297498D01*
X298031Y412328D01*
Y411262D01*
X297498Y410729D01*
X338533Y404331D02*
X341732D01*
Y405930D01*
X341199Y406463D01*
X339067D01*
X338533Y405930D01*
Y404331D01*
X339067Y409662D02*
X338533Y409129D01*
Y408063D01*
X339067Y407530D01*
X339600D01*
X340133Y408063D01*
Y409129D01*
X340666Y409662D01*
X341199D01*
X341732Y409129D01*
Y408063D01*
X341199Y407530D01*
X341732Y412861D02*
Y410729D01*
X339600Y412861D01*
X339067D01*
X338533Y412328D01*
Y411262D01*
X339067Y410729D01*
X318848Y404331D02*
X322047D01*
Y405930D01*
X321514Y406463D01*
X319381D01*
X318848Y405930D01*
Y404331D01*
X319381Y409662D02*
X318848Y409129D01*
Y408063D01*
X319381Y407530D01*
X319915D01*
X320448Y408063D01*
Y409129D01*
X320981Y409662D01*
X321514D01*
X322047Y409129D01*
Y408063D01*
X321514Y407530D01*
X322047Y410729D02*
Y411795D01*
Y411262D01*
X318848D01*
X319381Y410729D01*
X391503Y359752D02*
X390970Y360286D01*
X389903D01*
X389370Y359752D01*
Y357620D01*
X389903Y357087D01*
X390970D01*
X391503Y357620D01*
X394702Y357087D02*
X392569D01*
X394702Y359219D01*
Y359752D01*
X394168Y360286D01*
X393102D01*
X392569Y359752D01*
X395768Y360286D02*
X397901D01*
Y359752D01*
X395768Y357620D01*
Y357087D01*
X404421Y372605D02*
X403888Y372072D01*
Y371006D01*
X404421Y370472D01*
X406554D01*
X407087Y371006D01*
Y372072D01*
X406554Y372605D01*
X407087Y375804D02*
Y373671D01*
X404954Y375804D01*
X404421D01*
X403888Y375271D01*
Y374205D01*
X404421Y373671D01*
X403888Y379003D02*
X404421Y377937D01*
X405487Y376870D01*
X406554D01*
X407087Y377403D01*
Y378470D01*
X406554Y379003D01*
X406020D01*
X405487Y378470D01*
Y376870D01*
X172605Y247548D02*
X172072Y248081D01*
X171006D01*
X170472Y247548D01*
Y245415D01*
X171006Y244882D01*
X172072D01*
X172605Y245415D01*
X175804Y244882D02*
X173671D01*
X175804Y247014D01*
Y247548D01*
X175271Y248081D01*
X174205D01*
X173671Y247548D01*
X178470Y244882D02*
Y248081D01*
X176870Y246481D01*
X179003D01*
X143397Y311975D02*
X142864Y311442D01*
Y310376D01*
X143397Y309842D01*
X145530D01*
X146063Y310376D01*
Y311442D01*
X145530Y311975D01*
X146063Y315174D02*
Y313041D01*
X143930Y315174D01*
X143397D01*
X142864Y314641D01*
Y313575D01*
X143397Y313041D01*
Y316241D02*
X142864Y316774D01*
Y317840D01*
X143397Y318373D01*
X143930D01*
X144464Y317840D01*
Y317307D01*
Y317840D01*
X144997Y318373D01*
X145530D01*
X146063Y317840D01*
Y316774D01*
X145530Y316241D01*
X126862Y307645D02*
X126329Y307111D01*
Y306045D01*
X126862Y305512D01*
X128994D01*
X129528Y306045D01*
Y307111D01*
X128994Y307645D01*
X129528Y310843D02*
Y308711D01*
X127395Y310843D01*
X126862D01*
X126329Y310310D01*
Y309244D01*
X126862Y308711D01*
X129528Y314042D02*
Y311910D01*
X127395Y314042D01*
X126862D01*
X126329Y313509D01*
Y312443D01*
X126862Y311910D01*
X172211Y312115D02*
X171678Y312648D01*
X170612D01*
X170079Y312115D01*
Y309982D01*
X170612Y309449D01*
X171678D01*
X172211Y309982D01*
X175410Y309449D02*
X173278D01*
X175410Y311581D01*
Y312115D01*
X174877Y312648D01*
X173811D01*
X173278Y312115D01*
X176477D02*
X177010Y312648D01*
X178076D01*
X178609Y312115D01*
Y309982D01*
X178076Y309449D01*
X177010D01*
X176477Y309982D01*
Y312115D01*
X250558Y362115D02*
X250025Y362648D01*
X248958D01*
X248425Y362115D01*
Y359982D01*
X248958Y359449D01*
X250025D01*
X250558Y359982D01*
X251624Y359449D02*
X252691D01*
X252157D01*
Y362648D01*
X251624Y362115D01*
X254290Y359982D02*
X254823Y359449D01*
X255889D01*
X256423Y359982D01*
Y362115D01*
X255889Y362648D01*
X254823D01*
X254290Y362115D01*
Y361581D01*
X254823Y361048D01*
X256423D01*
X250558Y336130D02*
X250025Y336664D01*
X248958D01*
X248425Y336130D01*
Y333998D01*
X248958Y333465D01*
X250025D01*
X250558Y333998D01*
X251624Y333465D02*
X252691D01*
X252157D01*
Y336664D01*
X251624Y336130D01*
X254290D02*
X254823Y336664D01*
X255889D01*
X256423Y336130D01*
Y335597D01*
X255889Y335064D01*
X256423Y334531D01*
Y333998D01*
X255889Y333465D01*
X254823D01*
X254290Y333998D01*
Y334531D01*
X254823Y335064D01*
X254290Y335597D01*
Y336130D01*
X254823Y335064D02*
X255889D01*
X308965Y310859D02*
X309498Y311393D01*
Y312459D01*
X308965Y312992D01*
X306832D01*
X306299Y312459D01*
Y311393D01*
X306832Y310859D01*
X306299Y309793D02*
Y308727D01*
Y309260D01*
X309498D01*
X308965Y309793D01*
X309498Y307127D02*
Y304995D01*
X308965D01*
X306832Y307127D01*
X306299D01*
X322605Y365658D02*
X322072Y366191D01*
X321006D01*
X320472Y365658D01*
Y363525D01*
X321006Y362992D01*
X322072D01*
X322605Y363525D01*
X323671Y362992D02*
X324738D01*
X324205D01*
Y366191D01*
X323671Y365658D01*
X328470Y366191D02*
X327403Y365658D01*
X326337Y364592D01*
Y363525D01*
X326870Y362992D01*
X327937D01*
X328470Y363525D01*
Y364058D01*
X327937Y364592D01*
X326337D01*
X285343Y382513D02*
X285876Y383046D01*
Y384113D01*
X285343Y384646D01*
X283210D01*
X282677Y384113D01*
Y383046D01*
X283210Y382513D01*
X282677Y381447D02*
Y380380D01*
Y380913D01*
X285876D01*
X285343Y381447D01*
X285876Y376648D02*
Y378781D01*
X284277D01*
X284810Y377715D01*
Y377181D01*
X284277Y376648D01*
X283210D01*
X282677Y377181D01*
Y378248D01*
X283210Y378781D01*
X296760Y382907D02*
X297293Y383440D01*
Y384506D01*
X296760Y385039D01*
X294628D01*
X294094Y384506D01*
Y383440D01*
X294628Y382907D01*
X294094Y381840D02*
Y380774D01*
Y381307D01*
X297293D01*
X296760Y381840D01*
X294094Y377575D02*
X297293D01*
X295694Y379175D01*
Y377042D01*
X379224Y417487D02*
X378691Y416954D01*
Y415887D01*
X379224Y415354D01*
X381357D01*
X381890Y415887D01*
Y416954D01*
X381357Y417487D01*
X381890Y418553D02*
Y419620D01*
Y419087D01*
X378691D01*
X379224Y418553D01*
Y421219D02*
X378691Y421752D01*
Y422819D01*
X379224Y423352D01*
X379757D01*
X380290Y422819D01*
Y422285D01*
Y422819D01*
X380823Y423352D01*
X381357D01*
X381890Y422819D01*
Y421752D01*
X381357Y421219D01*
X343397Y417487D02*
X342864Y416954D01*
Y415887D01*
X343397Y415354D01*
X345530D01*
X346063Y415887D01*
Y416954D01*
X345530Y417487D01*
X346063Y418553D02*
Y419620D01*
Y419087D01*
X342864D01*
X343397Y418553D01*
X346063Y423352D02*
Y421219D01*
X343930Y423352D01*
X343397D01*
X342864Y422819D01*
Y421752D01*
X343397Y421219D01*
X364263Y418668D02*
X363730Y418135D01*
Y417069D01*
X364263Y416535D01*
X366396D01*
X366929Y417069D01*
Y418135D01*
X366396Y418668D01*
X366929Y419734D02*
Y420801D01*
Y420268D01*
X363730D01*
X364263Y419734D01*
X366929Y422400D02*
Y423466D01*
Y422933D01*
X363730D01*
X364263Y422400D01*
X411114Y415519D02*
X410581Y414985D01*
Y413919D01*
X411114Y413386D01*
X413246D01*
X413779Y413919D01*
Y414985D01*
X413246Y415519D01*
X413779Y416585D02*
Y417651D01*
Y417118D01*
X410581D01*
X411114Y416585D01*
Y419251D02*
X410581Y419784D01*
Y420850D01*
X411114Y421383D01*
X413246D01*
X413779Y420850D01*
Y419784D01*
X413246Y419251D01*
X411114D01*
X371818Y385737D02*
X371285Y386270D01*
X370218D01*
X369685Y385737D01*
Y383604D01*
X370218Y383071D01*
X371285D01*
X371818Y383604D01*
X372884D02*
X373417Y383071D01*
X374483D01*
X375017Y383604D01*
Y385737D01*
X374483Y386270D01*
X373417D01*
X372884Y385737D01*
Y385204D01*
X373417Y384670D01*
X375017D01*
X399770Y391642D02*
X399237Y392175D01*
X398171D01*
X397638Y391642D01*
Y389510D01*
X398171Y388976D01*
X399237D01*
X399770Y389510D01*
X400837Y391642D02*
X401370Y392175D01*
X402436D01*
X402969Y391642D01*
Y391109D01*
X402436Y390576D01*
X402969Y390043D01*
Y389510D01*
X402436Y388976D01*
X401370D01*
X400837Y389510D01*
Y390043D01*
X401370Y390576D01*
X400837Y391109D01*
Y391642D01*
X401370Y390576D02*
X402436D01*
X116232Y424574D02*
X115699Y424040D01*
Y422974D01*
X116232Y422441D01*
X118365D01*
X118898Y422974D01*
Y424040D01*
X118365Y424574D01*
X115699Y425640D02*
Y427773D01*
X116232D01*
X118365Y425640D01*
X118898D01*
X389928Y407390D02*
X389395Y407923D01*
X388328D01*
X387795Y407390D01*
Y405258D01*
X388328Y404724D01*
X389395D01*
X389928Y405258D01*
X393127Y407923D02*
X392061Y407390D01*
X390994Y406324D01*
Y405258D01*
X391527Y404724D01*
X392594D01*
X393127Y405258D01*
Y405791D01*
X392594Y406324D01*
X390994D01*
X232374Y420243D02*
X231840Y419710D01*
Y418643D01*
X232374Y418110D01*
X234506D01*
X235039Y418643D01*
Y419710D01*
X234506Y420243D01*
X231840Y423442D02*
Y421309D01*
X233440D01*
X232907Y422375D01*
Y422909D01*
X233440Y423442D01*
X234506D01*
X235039Y422909D01*
Y421842D01*
X234506Y421309D01*
X204421Y420243D02*
X203888Y419710D01*
Y418643D01*
X204421Y418110D01*
X206554D01*
X207087Y418643D01*
Y419710D01*
X206554Y420243D01*
X207087Y422909D02*
X203888D01*
X205487Y421309D01*
Y423442D01*
X218200Y420243D02*
X217667Y419710D01*
Y418643D01*
X218200Y418110D01*
X220333D01*
X220866Y418643D01*
Y419710D01*
X220333Y420243D01*
X218200Y421309D02*
X217667Y421842D01*
Y422909D01*
X218200Y423442D01*
X218734D01*
X219267Y422909D01*
Y422375D01*
Y422909D01*
X219800Y423442D01*
X220333D01*
X220866Y422909D01*
Y421842D01*
X220333Y421309D01*
X190641Y420243D02*
X190108Y419710D01*
Y418643D01*
X190641Y418110D01*
X192774D01*
X193307Y418643D01*
Y419710D01*
X192774Y420243D01*
X193307Y423442D02*
Y421309D01*
X191174Y423442D01*
X190641D01*
X190108Y422909D01*
Y421842D01*
X190641Y421309D01*
X156070Y212902D02*
X155536Y213435D01*
X154470D01*
X153937Y212902D01*
Y210769D01*
X154470Y210236D01*
X155536D01*
X156070Y210769D01*
X157136Y210236D02*
X158202D01*
X157669D01*
Y213435D01*
X157136Y212902D01*
X180315Y409842D02*
X177116D01*
Y411442D01*
X177649Y411975D01*
X178716D01*
X179249Y411442D01*
Y409842D01*
Y410909D02*
X180315Y411975D01*
X177649Y413041D02*
X177116Y413575D01*
Y414641D01*
X177649Y415174D01*
X178182D01*
X178716Y414641D01*
Y414108D01*
Y414641D01*
X179249Y415174D01*
X179782D01*
X180315Y414641D01*
Y413575D01*
X179782Y413041D01*
X177116Y418373D02*
X177649Y417307D01*
X178716Y416241D01*
X179782D01*
X180315Y416774D01*
Y417840D01*
X179782Y418373D01*
X179249D01*
X178716Y417840D01*
Y416241D01*
X175984Y398425D02*
Y401624D01*
X177584D01*
X178117Y401091D01*
Y400025D01*
X177584Y399492D01*
X175984D01*
X177051D02*
X178117Y398425D01*
X179183Y401091D02*
X179716Y401624D01*
X180783D01*
X181316Y401091D01*
Y400558D01*
X180783Y400025D01*
X180250D01*
X180783D01*
X181316Y399492D01*
Y398958D01*
X180783Y398425D01*
X179716D01*
X179183Y398958D01*
X182382Y401624D02*
X184515D01*
Y401091D01*
X182382Y398958D01*
Y398425D01*
X451575Y351878D02*
X452108Y352412D01*
X453174D01*
X453707Y351878D01*
Y351345D01*
X453174Y350812D01*
X452641D01*
X453174D01*
X453707Y350279D01*
Y349746D01*
X453174Y349213D01*
X452108D01*
X451575Y349746D01*
X454774Y352412D02*
Y350279D01*
X455840Y349213D01*
X456906Y350279D01*
Y352412D01*
X457973Y351878D02*
X458506Y352412D01*
X459572D01*
X460105Y351878D01*
Y351345D01*
X459572Y350812D01*
X459039D01*
X459572D01*
X460105Y350279D01*
Y349746D01*
X459572Y349213D01*
X458506D01*
X457973Y349746D01*
X454724Y359055D02*
Y362254D01*
X456324D01*
X456857Y361721D01*
Y360655D01*
X456324Y360121D01*
X454724D01*
X455791D02*
X456857Y359055D01*
X457923Y362254D02*
X460056Y359055D01*
Y362254D02*
X457923Y359055D01*
X454724Y372490D02*
X456857D01*
X455791D01*
Y369291D01*
X457923Y372490D02*
X460056Y369291D01*
Y372490D02*
X457923Y369291D01*
X478346Y279921D02*
X476085Y282183D01*
X477215Y283314D01*
X477970Y283314D01*
X478723Y282560D01*
Y281806D01*
X477593Y280675D01*
X478346Y281429D02*
X479854D01*
X480232Y285576D02*
X479478Y285576D01*
X478723Y284822D01*
X478723Y284068D01*
X479101Y283691D01*
X479854D01*
X480609Y284445D01*
X481362D01*
X481740Y284068D01*
Y283314D01*
X480985Y282560D01*
X480232D01*
X480609Y286707D02*
X482117Y288215D01*
X481362Y287461D01*
X483625Y285199D01*
X477576Y273472D02*
X476822Y273472D01*
X476068Y272718D01*
Y271964D01*
X477576Y270456D01*
X478330D01*
X479084Y271210D01*
Y271964D01*
X477953Y274603D02*
X480215Y272341D01*
X481723Y273849D01*
X480215Y276865D02*
X482477Y274603D01*
X481723Y275357D01*
Y278373D01*
Y276111D01*
X483985D01*
X476085Y261711D02*
X476838Y262465D01*
X476461Y262088D01*
X478723Y259826D01*
X478346Y259449D01*
X479101Y260203D01*
Y264727D02*
X478346Y263973D01*
X478346Y263219D01*
X479854Y261711D01*
X480609D01*
X481362Y262465D01*
Y263219D01*
X479854Y264727D01*
X479101Y264727D01*
D32*
X442677Y278937D02*
X441890D01*
X442677D01*
X308331Y367378D02*
X307831Y368244D01*
X306831D01*
X306331Y367378D01*
X306831Y366512D01*
X307831D01*
X308331Y367378D01*
X194032Y263110D02*
X197968D01*
X194032Y274921D02*
X197968D01*
X476378Y250000D02*
X478346Y251969D01*
Y251969D01*
Y248031D02*
Y251969D01*
X476378Y250000D02*
X478346Y248031D01*
X462598Y244094D02*
X474409D01*
Y305118D01*
X462598D02*
X474409D01*
X462598Y244094D02*
Y305118D01*
X254095Y215905D02*
X326929D01*
Y194252D02*
Y215905D01*
X254095Y194252D02*
X326929D01*
X254095D02*
Y215905D01*
X260000Y217874D02*
X261968Y219843D01*
X258032D02*
X261968D01*
X258032D02*
X260000Y217874D01*
X209221Y247236D02*
Y274795D01*
X230874D01*
X236779Y268890D01*
Y253142D02*
Y268890D01*
X230874Y247236D02*
X236779Y253142D01*
X209221Y247236D02*
X230874D01*
X127874Y280000D02*
X129842Y281968D01*
Y281968D01*
Y278031D02*
Y281968D01*
X127874Y280000D02*
X129842Y278031D01*
X114094Y274095D02*
X125906D01*
Y295748D01*
X114094D02*
X125906D01*
X114094Y274095D02*
Y295748D01*
X114102Y179016D02*
Y261693D01*
X151898D01*
Y179016D02*
Y261693D01*
X114102Y179016D02*
X151898D01*
X191779Y280236D02*
Y307795D01*
X170126Y280236D02*
X191779D01*
X164220Y286142D02*
X170126Y280236D01*
X164220Y286142D02*
Y301890D01*
X170126Y307795D01*
X191779D01*
X209221Y182236D02*
Y209795D01*
X230874D01*
X236779Y203890D01*
Y188142D02*
Y203890D01*
X230874Y182236D02*
X236779Y188142D01*
X209221Y182236D02*
X230874D01*
X191779Y215236D02*
Y242795D01*
X170126Y215236D02*
X191779D01*
X164220Y221142D02*
X170126Y215236D01*
X164220Y221142D02*
Y236890D01*
X170126Y242795D01*
X191779D01*
X194032Y209921D02*
X197968D01*
X194032Y198110D02*
X197968D01*
X352953Y288268D02*
X360433D01*
X352953Y282598D02*
X360433D01*
Y288268D01*
X352953Y282598D02*
Y288268D01*
X369488D02*
X376969D01*
X369488Y282598D02*
X376969D01*
Y288268D01*
X369488Y282598D02*
Y288268D01*
X346102Y180000D02*
Y262677D01*
X383898D01*
Y180000D02*
Y262677D01*
X346102Y180000D02*
X383898D01*
X424370D02*
X435000D01*
X424370D02*
Y262677D01*
X445630D01*
Y180000D02*
Y262677D01*
X435000Y180000D02*
X445630D01*
X440709Y273031D02*
Y276772D01*
X429291D02*
X440709D01*
X429291Y273031D02*
Y276772D01*
Y273031D02*
X440709D01*
X308740Y378543D02*
Y386024D01*
X303071Y378543D02*
Y386024D01*
Y378543D02*
X308740D01*
X303071Y386024D02*
X308740D01*
X333150Y379331D02*
Y386811D01*
X327480Y379331D02*
Y386811D01*
Y379331D02*
X333150D01*
X327480Y386811D02*
X333150D01*
X403205Y415378D02*
X405173Y417346D01*
Y417346D01*
Y413410D02*
Y417346D01*
X403205Y415378D02*
X405173Y413410D01*
X389425Y409472D02*
X401236D01*
Y441362D01*
X389425D02*
X401236D01*
X389425Y409472D02*
Y441362D01*
X388110Y446378D02*
Y493622D01*
X336929D02*
X388110D01*
X336929Y446378D02*
Y493622D01*
Y446378D02*
X388110D01*
X477110Y445394D02*
Y493622D01*
X402307D02*
X477110D01*
X402307Y445394D02*
Y493622D01*
Y445394D02*
X477110D01*
X318110Y446378D02*
Y493622D01*
X266929D02*
X318110D01*
X266929Y446378D02*
Y493622D01*
Y446378D02*
X318110D01*
X247110Y445394D02*
Y493622D01*
X184118D02*
X247110D01*
X184118Y445394D02*
Y493622D01*
Y445394D02*
X247110D01*
X167110Y446378D02*
Y493622D01*
X115929D02*
X167110D01*
X115929Y446378D02*
Y493622D01*
Y446378D02*
X167110D01*
X476378Y330709D02*
X478346Y332677D01*
Y332677D01*
Y328740D02*
Y332677D01*
X476378Y330709D02*
X478346Y328740D01*
X462598Y324803D02*
X474409D01*
Y385827D01*
X462598D02*
X474409D01*
X462598Y324803D02*
Y385827D01*
X166443Y394488D02*
X171441D01*
X172441Y395488D01*
Y397487D01*
X171441Y398487D01*
X166443D01*
X172441Y403485D02*
X166443D01*
X169442Y400486D01*
Y404485D01*
X456207Y397244D02*
X461205D01*
X462205Y398244D01*
Y400243D01*
X461205Y401243D01*
X456207D01*
X462205Y407241D02*
Y403242D01*
X458206Y407241D01*
X457206D01*
X456207Y406241D01*
Y404242D01*
X457206Y403242D01*
X323228Y439856D02*
X327227D01*
X325228D01*
Y433858D01*
X329226D02*
Y439856D01*
X332225D01*
X333225Y438857D01*
Y436857D01*
X332225Y435858D01*
X329226D01*
X338224Y433858D02*
Y439856D01*
X335225Y436857D01*
X339223D01*
X475591Y428833D02*
X479589D01*
X477590D01*
Y422835D01*
X481589D02*
Y428833D01*
X484588D01*
X485587Y427833D01*
Y425834D01*
X484588Y424834D01*
X481589D01*
X491585Y422835D02*
X487587D01*
X491585Y426833D01*
Y427833D01*
X490586Y428833D01*
X488586D01*
X487587Y427833D01*
X465748Y411510D02*
X469747D01*
X467747D01*
Y405512D01*
X471746D02*
Y411510D01*
X474745D01*
X475745Y410510D01*
Y408511D01*
X474745Y407511D01*
X471746D01*
X477744Y405512D02*
X479743D01*
X478744D01*
Y411510D01*
X477744Y410510D01*
X425378Y274471D02*
X421380D01*
X420380Y273471D01*
Y271472D01*
X421380Y270472D01*
X425378D01*
X426378Y271472D01*
Y273471D01*
X424379Y272472D02*
X426378Y274471D01*
Y273471D02*
X425378Y274471D01*
X421380Y276470D02*
X420380Y277470D01*
Y279469D01*
X421380Y280469D01*
X422379D01*
X423379Y279469D01*
Y278470D01*
Y279469D01*
X424379Y280469D01*
X425378D01*
X426378Y279469D01*
Y277470D01*
X425378Y276470D01*
X343762Y284858D02*
Y288857D01*
X342763Y289856D01*
X340763D01*
X339764Y288857D01*
Y284858D01*
X340763Y283858D01*
X342763D01*
X341763Y285858D02*
X343762Y283858D01*
X342763D02*
X343762Y284858D01*
X349761Y283858D02*
X345762D01*
X349761Y287857D01*
Y288857D01*
X348761Y289856D01*
X346761D01*
X345762Y288857D01*
X383920Y284464D02*
Y288463D01*
X382920Y289463D01*
X380921D01*
X379921Y288463D01*
Y284464D01*
X380921Y283465D01*
X382920D01*
X381921Y285464D02*
X383920Y283465D01*
X382920D02*
X383920Y284464D01*
X385919Y283465D02*
X387919D01*
X386919D01*
Y289463D01*
X385919Y288463D01*
X448425Y347244D02*
X442427D01*
Y350243D01*
X443427Y351243D01*
X445426D01*
X446426Y350243D01*
Y347244D01*
X448425Y353242D02*
Y355241D01*
Y354242D01*
X442427D01*
X443427Y353242D01*
Y358241D02*
X442427Y359240D01*
Y361240D01*
X443427Y362239D01*
X444426D01*
X445426Y361240D01*
Y360240D01*
Y361240D01*
X446426Y362239D01*
X447426D01*
X448425Y361240D01*
Y359240D01*
X447426Y358241D01*
X463054Y308650D02*
Y314648D01*
X466053D01*
X467053Y313648D01*
Y311649D01*
X466053Y310649D01*
X463054D01*
X469052Y308650D02*
X471051D01*
X470052D01*
Y314648D01*
X469052Y313648D01*
X478049Y308650D02*
X474050D01*
X478049Y312649D01*
Y313648D01*
X477049Y314648D01*
X475050D01*
X474050Y313648D01*
X421654Y249213D02*
X415656D01*
Y252212D01*
X416655Y253211D01*
X418654D01*
X419654Y252212D01*
Y249213D01*
X421654Y255211D02*
Y257210D01*
Y256210D01*
X415656D01*
X416655Y255211D01*
X421654Y260209D02*
Y262208D01*
Y261209D01*
X415656D01*
X416655Y260209D01*
X181890Y476772D02*
X175892D01*
Y479771D01*
X176891Y480770D01*
X178891D01*
X179890Y479771D01*
Y476772D01*
X181890Y482770D02*
Y484769D01*
Y483769D01*
X175892D01*
X176891Y482770D01*
Y487768D02*
X175892Y488768D01*
Y490767D01*
X176891Y491767D01*
X180890D01*
X181890Y490767D01*
Y488768D01*
X180890Y487768D01*
X176891D01*
X346063Y265354D02*
Y271352D01*
X349062D01*
X350062Y270353D01*
Y268353D01*
X349062Y267354D01*
X346063D01*
X352061Y266354D02*
X353061Y265354D01*
X355060D01*
X356060Y266354D01*
Y270353D01*
X355060Y271352D01*
X353061D01*
X352061Y270353D01*
Y269353D01*
X353061Y268353D01*
X356060D01*
X264961Y482283D02*
X258963D01*
Y485283D01*
X259962Y486282D01*
X261962D01*
X262961Y485283D01*
Y482283D01*
X259962Y488281D02*
X258963Y489281D01*
Y491281D01*
X259962Y492280D01*
X260962D01*
X261962Y491281D01*
X262961Y492280D01*
X263961D01*
X264961Y491281D01*
Y489281D01*
X263961Y488281D01*
X262961D01*
X261962Y489281D01*
X260962Y488281D01*
X259962D01*
X261962Y489281D02*
Y491281D01*
X403937Y435433D02*
Y441431D01*
X406936D01*
X407936Y440431D01*
Y438432D01*
X406936Y437432D01*
X403937D01*
X409935Y441431D02*
X413934D01*
Y440431D01*
X409935Y436433D01*
Y435433D01*
X335039Y481890D02*
X329041D01*
Y484889D01*
X330041Y485888D01*
X332040D01*
X333040Y484889D01*
Y481890D01*
X329041Y491887D02*
X330041Y489887D01*
X332040Y487888D01*
X334040D01*
X335039Y488888D01*
Y490887D01*
X334040Y491887D01*
X333040D01*
X332040Y490887D01*
Y487888D01*
X114173Y481496D02*
X108175D01*
Y484495D01*
X109175Y485495D01*
X111174D01*
X112174Y484495D01*
Y481496D01*
X108175Y491493D02*
Y487494D01*
X111174D01*
X110175Y489494D01*
Y490493D01*
X111174Y491493D01*
X113174D01*
X114173Y490493D01*
Y488494D01*
X113174Y487494D01*
X400394Y481496D02*
X394396D01*
Y484495D01*
X395395Y485495D01*
X397395D01*
X398394Y484495D01*
Y481496D01*
X400394Y490493D02*
X394396D01*
X397395Y487494D01*
Y491493D01*
X142126Y264173D02*
Y270171D01*
X145125D01*
X146125Y269172D01*
Y267172D01*
X145125Y266173D01*
X142126D01*
X148124Y269172D02*
X149124Y270171D01*
X151123D01*
X152123Y269172D01*
Y268172D01*
X151123Y267172D01*
X150123D01*
X151123D01*
X152123Y266173D01*
Y265173D01*
X151123Y264173D01*
X149124D01*
X148124Y265173D01*
X254600Y223300D02*
Y229298D01*
X257599D01*
X258599Y228298D01*
Y226299D01*
X257599Y225299D01*
X254600D01*
X264597Y223300D02*
X260598D01*
X264597Y227299D01*
Y228298D01*
X263597Y229298D01*
X261598D01*
X260598Y228298D01*
X116142Y297638D02*
Y303636D01*
X119141D01*
X120140Y302636D01*
Y300637D01*
X119141Y299637D01*
X116142D01*
X122140Y297638D02*
X124139D01*
X123140D01*
Y303636D01*
X122140Y302636D01*
X236128Y233858D02*
X242126D01*
Y237857D01*
Y243855D02*
Y239856D01*
X238127Y243855D01*
X237128D01*
X236128Y242855D01*
Y240856D01*
X237128Y239856D01*
X203150Y317415D02*
Y311417D01*
X207148D01*
X209148D02*
X211147D01*
X210147D01*
Y317415D01*
X209148Y316416D01*
X241852Y191794D02*
X240852Y190794D01*
Y188795D01*
X241852Y187795D01*
X245851D01*
X246850Y188795D01*
Y190794D01*
X245851Y191794D01*
X246850Y197792D02*
Y193793D01*
X242852Y197792D01*
X241852D01*
X240852Y196792D01*
Y194793D01*
X241852Y193793D01*
X240852Y203790D02*
Y199791D01*
X243851D01*
X242852Y201791D01*
Y202790D01*
X243851Y203790D01*
X245851D01*
X246850Y202790D01*
Y200791D01*
X245851Y199791D01*
X241458Y258329D02*
X240459Y257330D01*
Y255330D01*
X241458Y254331D01*
X245457D01*
X246457Y255330D01*
Y257330D01*
X245457Y258329D01*
X246457Y264328D02*
Y260329D01*
X242458Y264328D01*
X241458D01*
X240459Y263328D01*
Y261329D01*
X241458Y260329D01*
X246457Y266327D02*
Y268326D01*
Y267326D01*
X240459D01*
X241458Y266327D01*
X479435Y445276D02*
Y447275D01*
Y446275D01*
X485433D01*
Y445276D01*
Y447275D01*
Y450274D02*
X479435D01*
X485433Y454273D01*
X479435D01*
Y456272D02*
X483434D01*
X485433Y458271D01*
X483434Y460271D01*
X479435D01*
X327860Y446457D02*
X333858D01*
X330859D01*
Y450455D01*
X327860D01*
X333858D01*
Y452455D02*
X329860D01*
X327860Y454454D01*
X329860Y456454D01*
X333858D01*
X330859D01*
Y452455D01*
X327860Y458453D02*
X333858D01*
Y462452D01*
X327860Y464451D02*
X333858D01*
Y468450D01*
X328860Y474448D02*
X327860Y473448D01*
Y471449D01*
X328860Y470449D01*
X329860D01*
X330859Y471449D01*
Y473448D01*
X331859Y474448D01*
X332859D01*
X333858Y473448D01*
Y471449D01*
X332859Y470449D01*
X258175Y446457D02*
Y450455D01*
Y448456D01*
X264173D01*
X258175Y452455D02*
X264173D01*
X261174D01*
Y456454D01*
X258175D01*
X264173D01*
Y458453D02*
X258175D01*
Y461452D01*
X259175Y462452D01*
X261174D01*
X262174Y461452D01*
Y458453D01*
Y460452D02*
X264173Y462452D01*
X175104Y445669D02*
Y449668D01*
Y447669D01*
X181102D01*
X175104Y455666D02*
Y451667D01*
X181102D01*
Y455666D01*
X178103Y451667D02*
Y453667D01*
X181102Y457665D02*
X175104D01*
X177104Y459665D01*
X175104Y461664D01*
X181102D01*
Y463663D02*
X175104D01*
Y466663D01*
X176104Y467662D01*
X178103D01*
X179103Y466663D01*
Y463663D01*
X106994Y446850D02*
X112992D01*
Y449849D01*
X111993Y450849D01*
X110993D01*
X109993Y449849D01*
Y446850D01*
Y449849D01*
X108993Y450849D01*
X107994D01*
X106994Y449849D01*
Y446850D01*
Y455848D02*
Y453848D01*
X107994Y452848D01*
X111993D01*
X112992Y453848D01*
Y455848D01*
X111993Y456847D01*
X107994D01*
X106994Y455848D01*
Y461845D02*
Y459846D01*
X107994Y458847D01*
X111993D01*
X112992Y459846D01*
Y461845D01*
X111993Y462845D01*
X107994D01*
X106994Y461845D01*
X107994Y468843D02*
X106994Y467844D01*
Y465844D01*
X107994Y464845D01*
X108993D01*
X109993Y465844D01*
Y467844D01*
X110993Y468843D01*
X111993D01*
X112992Y467844D01*
Y465844D01*
X111993Y464845D01*
X106994Y470843D02*
Y474841D01*
Y472842D01*
X112992D01*
X448726Y214629D02*
Y210630D01*
X451725D01*
Y212629D01*
Y210630D01*
X454724D01*
Y216628D02*
X450726D01*
X448726Y218627D01*
X450726Y220627D01*
X454724D01*
X451725D01*
Y216628D01*
X448726Y222626D02*
X453725D01*
X454724Y223626D01*
Y225625D01*
X453725Y226625D01*
X448726D01*
Y228624D02*
X454724D01*
Y232623D01*
X448726Y234622D02*
Y238621D01*
Y236621D01*
X454724D01*
X448726Y249617D02*
Y247618D01*
X449726Y246618D01*
X453725D01*
X454724Y247618D01*
Y249617D01*
X453725Y250617D01*
X449726D01*
X448726Y249617D01*
Y252616D02*
X453725D01*
X454724Y253616D01*
Y255615D01*
X453725Y256615D01*
X448726D01*
Y258614D02*
Y262613D01*
Y260614D01*
X454724D01*
X386915Y220534D02*
Y216535D01*
X389914D01*
Y218535D01*
Y216535D01*
X392913D01*
Y222533D02*
X388915D01*
X386915Y224533D01*
X388915Y226532D01*
X392913D01*
X389914D01*
Y222533D01*
X392913Y228532D02*
X386915D01*
X392913Y232530D01*
X386915D01*
X392913Y234530D02*
X388915Y238528D01*
X392913Y240528D02*
X386915D01*
Y243527D01*
X387915Y244526D01*
X389914D01*
X390914Y243527D01*
Y240528D01*
X386915Y246526D02*
X391914D01*
X392913Y247525D01*
Y249525D01*
X391914Y250524D01*
X386915D01*
X392913Y252524D02*
X386915D01*
X388915Y254523D01*
X386915Y256522D01*
X392913D01*
Y258522D02*
X386915D01*
Y261521D01*
X387915Y262521D01*
X389914D01*
X390914Y261521D01*
Y258522D01*
D33*
X335958Y402749D02*
X336808Y403599D01*
X330908D02*
X331758Y402749D01*
X336808Y414511D02*
X335958Y415361D01*
X331758D02*
X330908Y414511D01*
X328478Y402749D02*
X329328Y403599D01*
X323428D02*
X324278Y402749D01*
X329328Y414511D02*
X328478Y415361D01*
X324278D02*
X323428Y414511D01*
X311549Y402749D02*
X312399Y403599D01*
X306499D02*
X307349Y402749D01*
X312399Y414511D02*
X311549Y415361D01*
X307349D02*
X306499Y414511D01*
X304462Y402749D02*
X305312Y403599D01*
X299412D02*
X300262Y402749D01*
X305312Y414511D02*
X304462Y415361D01*
X300262D02*
X299412Y414511D01*
X331758Y402749D02*
X335958D01*
X331758Y415361D02*
X335958D01*
X336808Y403599D02*
Y414511D01*
X330908Y403599D02*
Y414511D01*
X324278Y402749D02*
X328478D01*
X324278Y415361D02*
X328478D01*
X329328Y403599D02*
Y414511D01*
X323428Y403599D02*
Y414511D01*
X307349Y402749D02*
X311549D01*
X307349Y415361D02*
X311549D01*
X312399Y403599D02*
Y414511D01*
X306499Y403599D02*
Y414511D01*
X300262Y402749D02*
X304462D01*
X300262Y415361D02*
X304462D01*
X305312Y403599D02*
Y414511D01*
X299412Y403599D02*
Y414511D01*
X157087Y340158D02*
Y346156D01*
X160086D01*
X161085Y345156D01*
Y343157D01*
X160086Y342157D01*
X157087D01*
X163085Y344156D02*
Y340158D01*
Y342157D01*
X164084Y343157D01*
X165084Y344156D01*
X166084D01*
X169083Y340158D02*
X171082D01*
X170082D01*
Y344156D01*
X169083D01*
X174081D02*
Y341157D01*
X175081Y340158D01*
X178080D01*
Y344156D01*
X180079Y340158D02*
X183078D01*
X184078Y341157D01*
X183078Y342157D01*
X181079D01*
X180079Y343157D01*
X181079Y344156D01*
X184078D01*
X190076Y346156D02*
Y340158D01*
X187077D01*
X186077Y341157D01*
Y343157D01*
X187077Y344156D01*
X190076D01*
X192075D02*
Y340158D01*
Y342157D01*
X193075Y343157D01*
X194075Y344156D01*
X195074D01*
X198073Y340158D02*
X200073D01*
X199073D01*
Y344156D01*
X198073D01*
X203072D02*
X205071Y340158D01*
X207070Y344156D01*
X212069Y340158D02*
X210069D01*
X209070Y341157D01*
Y343157D01*
X210069Y344156D01*
X212069D01*
X213069Y343157D01*
Y342157D01*
X209070D01*
X221066Y344156D02*
X223065Y340158D01*
X225065Y344156D01*
X231063Y340158D02*
X227064D01*
X231063Y344156D01*
Y345156D01*
X230063Y346156D01*
X228064D01*
X227064Y345156D01*
D48*
X201394Y261142D02*
X200685Y261551D01*
Y260733D01*
X201394Y261142D01*
Y196142D02*
X200685Y196551D01*
Y195733D01*
X201394Y196142D01*
D49*
X373228Y332283D02*
X372784Y333207D01*
X371784Y333435D01*
X370983Y332796D01*
Y331771D01*
X371784Y331132D01*
X372784Y331360D01*
X373228Y332283D01*
X127779Y392898D02*
X127335Y393821D01*
X126336Y394049D01*
X125534Y393410D01*
Y392385D01*
X126336Y391746D01*
X127335Y391974D01*
X127779Y392898D01*
X176087Y198378D02*
X175642Y199301D01*
X174643Y199529D01*
X173841Y198890D01*
Y197865D01*
X174643Y197227D01*
X175642Y197455D01*
X176087Y198378D01*
X417779Y392898D02*
X417335Y393821D01*
X416336Y394049D01*
X415534Y393410D01*
Y392385D01*
X416336Y391746D01*
X417335Y391974D01*
X417779Y392898D01*
D50*
X358730Y334508D02*
X358364Y335392D01*
X357480Y335758D01*
X356596Y335392D01*
X356230Y334508D01*
X197803Y252590D02*
X198197D01*
X197803Y249441D02*
X198197D01*
X186425Y253819D02*
Y254213D01*
X189575Y253819D02*
Y254213D01*
X360492Y334508D02*
Y354508D01*
X354468D02*
X360492D01*
X354468Y334508D02*
Y354508D01*
Y334508D02*
X356230D01*
X358730D02*
X360492D01*
X333268Y342520D02*
X333661D01*
X333268Y339370D02*
X333661D01*
X461417Y430118D02*
Y430512D01*
X458268Y430118D02*
Y430512D01*
X464173Y430118D02*
Y430512D01*
X467323Y430118D02*
Y430512D01*
X316756Y430181D02*
Y430575D01*
X319905Y430181D02*
Y430575D01*
X310756Y430181D02*
Y430575D01*
X313906Y430181D02*
Y430575D01*
X301756Y430181D02*
Y430575D01*
X304906Y430181D02*
Y430575D01*
X295756Y430181D02*
Y430575D01*
X298905Y430181D02*
Y430575D01*
X285756Y430181D02*
Y430575D01*
X288906Y430181D02*
Y430575D01*
X279756Y430181D02*
Y430575D01*
X282906Y430181D02*
Y430575D01*
X270756Y430181D02*
Y430575D01*
X273905Y430181D02*
Y430575D01*
X264756Y430181D02*
Y430575D01*
X267905Y430181D02*
Y430575D01*
X375905Y430181D02*
Y430575D01*
X372756Y430181D02*
Y430575D01*
X378756Y430181D02*
Y430575D01*
X381906Y430181D02*
Y430575D01*
X363756Y430181D02*
Y430575D01*
X366905Y430181D02*
Y430575D01*
X360906Y430181D02*
Y430575D01*
X357756Y430181D02*
Y430575D01*
X351905Y430181D02*
Y430575D01*
X348756Y430181D02*
Y430575D01*
X342756Y430181D02*
Y430575D01*
X345905Y430181D02*
Y430575D01*
X240945Y430118D02*
Y430512D01*
X237795Y430118D02*
Y430512D01*
X235039Y430118D02*
Y430512D01*
X231890Y430118D02*
Y430512D01*
X226772Y430118D02*
Y430512D01*
X223622Y430118D02*
Y430512D01*
X220866Y430118D02*
Y430512D01*
X217717Y430118D02*
Y430512D01*
X212992Y430118D02*
Y430512D01*
X209842Y430118D02*
Y430512D01*
X203937Y430118D02*
Y430512D01*
X207087Y430118D02*
Y430512D01*
X199213Y430118D02*
Y430512D01*
X196063Y430118D02*
Y430512D01*
X193307Y430118D02*
Y430512D01*
X190157Y430118D02*
Y430512D01*
X178543Y430244D02*
Y430638D01*
X181693Y430244D02*
Y430638D01*
X175693Y430244D02*
Y430638D01*
X172543Y430244D02*
Y430638D01*
X164000Y388961D02*
Y411795D01*
X122661Y388961D02*
Y411795D01*
X164000D01*
X122661Y388961D02*
X164000D01*
X203039Y308976D02*
X232961D01*
X203039Y279055D02*
X232961D01*
X203039Y298937D02*
Y308976D01*
X232961Y298937D02*
Y308976D01*
X203039Y279055D02*
Y289094D01*
X232961Y279055D02*
Y289094D01*
X119488Y271654D02*
X119882D01*
X119488Y266929D02*
X119882D01*
X133898Y287047D02*
Y290984D01*
X146102Y287047D02*
Y290984D01*
X133898Y287047D02*
X146102D01*
X133898Y290984D02*
X146102D01*
X150835Y288819D02*
Y289213D01*
X155165Y288819D02*
Y289213D01*
X130850Y303819D02*
Y304213D01*
X134000Y303819D02*
Y304213D01*
X140000Y303819D02*
Y304213D01*
X136850Y303819D02*
Y304213D01*
X146000Y303819D02*
Y304213D01*
X142850Y303819D02*
Y304213D01*
X151480Y317016D02*
Y317409D01*
X154630Y317016D02*
Y317409D01*
X160630Y317016D02*
Y317409D01*
X157480Y317016D02*
Y317409D01*
X203039Y243976D02*
X232961D01*
X203039Y214055D02*
X232961D01*
X203039Y233937D02*
Y243976D01*
X232961Y233937D02*
Y243976D01*
X203039Y214055D02*
Y224095D01*
X232961Y214055D02*
Y224095D01*
X158858Y218110D02*
X159252D01*
X158858Y214961D02*
X159252D01*
X159158Y189716D02*
Y202315D01*
X178842Y189716D02*
Y202315D01*
X159158Y189716D02*
X178842D01*
X159158Y202315D02*
X178842D01*
X195803Y184638D02*
X196197D01*
X195803Y187394D02*
X196197D01*
X186622Y188819D02*
Y189213D01*
X189378Y188819D02*
Y189213D01*
X324134Y350803D02*
X324528D01*
X324134Y353953D02*
X324528D01*
X324134Y358803D02*
X324528D01*
X324134Y361953D02*
X324528D01*
X301756Y309181D02*
Y309575D01*
X304906Y309181D02*
Y309575D01*
X252134Y331953D02*
X252528D01*
X252134Y328803D02*
X252528D01*
X252134Y357953D02*
X252528D01*
X252134Y354803D02*
X252528D01*
X281102Y380906D02*
Y381299D01*
X277953Y380906D02*
Y381299D01*
X292913Y380906D02*
Y381299D01*
X289764Y380906D02*
Y381299D01*
X311024Y394685D02*
Y395079D01*
X307874Y394685D02*
Y395079D01*
X303937Y394685D02*
Y395079D01*
X300787Y394685D02*
Y395079D01*
X327953Y394685D02*
Y395079D01*
X324803Y394685D02*
Y395079D01*
X335433Y394685D02*
Y395079D01*
X332283Y394685D02*
Y395079D01*
X118898Y415158D02*
Y415551D01*
X115748Y415158D02*
Y415551D01*
X454000Y388961D02*
Y411795D01*
X412661Y388961D02*
Y411795D01*
X454000D01*
X412661Y388961D02*
X454000D01*
X409449Y415158D02*
Y415551D01*
X406299Y415158D02*
Y415551D01*
X396905Y455181D02*
Y455575D01*
X393756Y455181D02*
Y455575D01*
X387598Y364370D02*
X387992D01*
X387598Y361614D02*
X387992D01*
X402291Y370283D02*
Y370677D01*
X399535Y370283D02*
Y370677D01*
X400197Y383858D02*
X400591D01*
X400197Y387008D02*
X400591D01*
X385945Y366378D02*
Y378583D01*
X389882Y366378D02*
Y378583D01*
X385945D02*
X389882D01*
X385945Y366378D02*
X389882D01*
X393433Y388409D02*
Y392347D01*
X381228Y388409D02*
Y392347D01*
X393433D01*
X381228Y388409D02*
X393433D01*
X390134Y399803D02*
X390528D01*
X390134Y402953D02*
X390528D01*
X372134Y396953D02*
X372528D01*
X372134Y393803D02*
X372528D01*
X372134Y387803D02*
X372528D01*
X372134Y390953D02*
X372528D01*
X179921Y403150D02*
X180315D01*
X179921Y406299D02*
X180315D01*
X175591Y413976D02*
Y414370D01*
X172441Y413976D02*
Y414370D01*
D51*
X122780Y382268D02*
X122041Y382694D01*
Y381841D01*
X122780Y382268D01*
X133504Y283996D02*
X132766Y284422D01*
Y283570D01*
X133504Y283996D01*
X180339Y206744D02*
X179600Y207170D01*
Y206318D01*
X180339Y206744D01*
X412780Y382268D02*
X412041Y382694D01*
Y381841D01*
X412780Y382268D01*
X393819Y365394D02*
X393081Y365820D01*
Y364967D01*
X393819Y365394D01*
X394811Y395398D02*
X394073Y395824D01*
Y394971D01*
X394811Y395398D01*
D52*
X336884Y403189D02*
D03*
X329403Y403189D02*
D03*
X312474Y403189D02*
D03*
X305387D02*
D03*
D53*
X333859Y402189D02*
D03*
X326378Y402189D02*
D03*
X309449Y402189D02*
D03*
X302362D02*
D03*
D54*
X330874Y403319D02*
D03*
X323393Y403319D02*
D03*
X306464Y403319D02*
D03*
X299377D02*
D03*
M02*
