G04*
G04 #@! TF.GenerationSoftware,Altium Limited,CircuitStudio,1.5.2 (30)*
G04*
G04 Layer_Color=20142*
%FSLAX25Y25*%
%MOIN*%
G70*
G01*
G75*
%ADD29R,0.03937X0.03937*%
%ADD55R,0.05131X0.03162*%
%ADD56R,0.04343X0.04737*%
%ADD57R,0.04737X0.04343*%
%ADD58R,0.09461X0.02769*%
%ADD59C,0.04737*%
%ADD60O,0.03556X0.11036*%
%ADD61R,0.08674X0.07493*%
%ADD62R,0.13398X0.07099*%
%ADD63R,0.04934X0.06312*%
G04:AMPARAMS|DCode=64|XSize=29.65mil|YSize=39.5mil|CornerRadius=5.95mil|HoleSize=0mil|Usage=FLASHONLY|Rotation=180.000|XOffset=0mil|YOffset=0mil|HoleType=Round|Shape=RoundedRectangle|*
%AMROUNDEDRECTD64*
21,1,0.02965,0.02760,0,0,180.0*
21,1,0.01776,0.03950,0,0,180.0*
1,1,0.01190,-0.00888,0.01380*
1,1,0.01190,0.00888,0.01380*
1,1,0.01190,0.00888,-0.01380*
1,1,0.01190,-0.00888,-0.01380*
%
%ADD64ROUNDEDRECTD64*%
%ADD65R,0.05918X0.04147*%
G04:AMPARAMS|DCode=66|XSize=31.62mil|YSize=65.09mil|CornerRadius=6.01mil|HoleSize=0mil|Usage=FLASHONLY|Rotation=0.000|XOffset=0mil|YOffset=0mil|HoleType=Round|Shape=RoundedRectangle|*
%AMROUNDEDRECTD66*
21,1,0.03162,0.05307,0,0,0.0*
21,1,0.01961,0.06509,0,0,0.0*
1,1,0.01202,0.00980,-0.02654*
1,1,0.01202,-0.00980,-0.02654*
1,1,0.01202,-0.00980,0.02654*
1,1,0.01202,0.00980,0.02654*
%
%ADD66ROUNDEDRECTD66*%
%ADD67R,0.03556X0.04343*%
%ADD68R,0.04343X0.03556*%
%ADD69R,0.03162X0.05131*%
%ADD70R,0.03950X0.04343*%
%ADD71R,0.01900X0.06600*%
%ADD72R,0.06600X0.01900*%
%ADD73R,0.05131X0.03162*%
G04:AMPARAMS|DCode=74|XSize=31.62mil|YSize=47.37mil|CornerRadius=6.01mil|HoleSize=0mil|Usage=FLASHONLY|Rotation=270.000|XOffset=0mil|YOffset=0mil|HoleType=Round|Shape=RoundedRectangle|*
%AMROUNDEDRECTD74*
21,1,0.03162,0.03535,0,0,270.0*
21,1,0.01961,0.04737,0,0,270.0*
1,1,0.01202,-0.01768,-0.00980*
1,1,0.01202,-0.01768,0.00980*
1,1,0.01202,0.01768,0.00980*
1,1,0.01202,0.01768,-0.00980*
%
%ADD74ROUNDEDRECTD74*%
%ADD75C,0.08280*%
%ADD76C,0.11036*%
%ADD77C,0.06800*%
%ADD78C,0.00800*%
%ADD79C,0.09068*%
%ADD80C,0.03800*%
%ADD81C,0.05800*%
D29*
X333858Y412402D02*
D03*
Y405709D02*
D03*
X326378Y412402D02*
D03*
Y405709D02*
D03*
X309449Y412402D02*
D03*
Y405709D02*
D03*
X302362Y412402D02*
D03*
Y405709D02*
D03*
D55*
X201118Y265276D02*
D03*
Y269016D02*
D03*
Y272756D02*
D03*
X190882Y265276D02*
D03*
Y272756D02*
D03*
Y207756D02*
D03*
Y200276D02*
D03*
X201118Y207756D02*
D03*
Y204016D02*
D03*
Y200276D02*
D03*
D56*
X201150Y251016D02*
D03*
X194850D02*
D03*
X330315Y340945D02*
D03*
X336614D02*
D03*
X155905Y216535D02*
D03*
X162205D02*
D03*
X321181Y352378D02*
D03*
X327480D02*
D03*
Y360378D02*
D03*
X321181D02*
D03*
X249181Y330378D02*
D03*
X255480D02*
D03*
X249181Y356378D02*
D03*
X255480D02*
D03*
X403543Y385433D02*
D03*
X397244D02*
D03*
X393480Y401378D02*
D03*
X387181D02*
D03*
X375480Y395378D02*
D03*
X369181D02*
D03*
X375480Y389378D02*
D03*
X369181D02*
D03*
X176969Y404724D02*
D03*
X183268D02*
D03*
D57*
X188000Y257165D02*
D03*
Y250866D02*
D03*
X459842Y427165D02*
D03*
Y433465D02*
D03*
X465748Y433465D02*
D03*
Y427165D02*
D03*
X318331Y433528D02*
D03*
Y427228D02*
D03*
X312331Y433528D02*
D03*
Y427228D02*
D03*
X303331Y433528D02*
D03*
Y427228D02*
D03*
X297331Y433528D02*
D03*
Y427228D02*
D03*
X287331Y433528D02*
D03*
Y427228D02*
D03*
X281331Y433528D02*
D03*
Y427228D02*
D03*
X272331Y433528D02*
D03*
Y427228D02*
D03*
X266331Y433528D02*
D03*
Y427228D02*
D03*
X374331Y427228D02*
D03*
Y433528D02*
D03*
X380331Y427228D02*
D03*
Y433528D02*
D03*
X365331Y427228D02*
D03*
Y433528D02*
D03*
X359331Y427228D02*
D03*
Y433528D02*
D03*
X350331Y427228D02*
D03*
Y433528D02*
D03*
X344331Y427228D02*
D03*
Y433528D02*
D03*
X239370Y427165D02*
D03*
Y433465D02*
D03*
X233465D02*
D03*
Y427165D02*
D03*
X225197D02*
D03*
Y433465D02*
D03*
X219291D02*
D03*
Y427165D02*
D03*
X211417D02*
D03*
Y433465D02*
D03*
X205512Y427165D02*
D03*
Y433465D02*
D03*
X197638Y427165D02*
D03*
Y433465D02*
D03*
X191732D02*
D03*
Y427165D02*
D03*
X180118Y433591D02*
D03*
Y427291D02*
D03*
X174118Y427291D02*
D03*
Y433591D02*
D03*
X132425Y300866D02*
D03*
Y307165D02*
D03*
X138425Y300866D02*
D03*
Y307165D02*
D03*
X144425D02*
D03*
Y300866D02*
D03*
X153055Y320362D02*
D03*
Y314063D02*
D03*
X159055Y314063D02*
D03*
Y320362D02*
D03*
X303331Y306228D02*
D03*
Y312528D02*
D03*
X279528Y384252D02*
D03*
Y377953D02*
D03*
X291339Y384252D02*
D03*
Y377953D02*
D03*
X309449Y391732D02*
D03*
Y398031D02*
D03*
X302362Y391732D02*
D03*
Y398031D02*
D03*
X326378Y391732D02*
D03*
Y398031D02*
D03*
X333858Y391732D02*
D03*
Y398031D02*
D03*
X117323Y418504D02*
D03*
Y412205D02*
D03*
X407874Y418504D02*
D03*
Y412205D02*
D03*
X395331Y452228D02*
D03*
Y458528D02*
D03*
X174016Y411024D02*
D03*
Y417323D02*
D03*
D58*
X346850Y352008D02*
D03*
Y347008D02*
D03*
Y342008D02*
D03*
Y337008D02*
D03*
X368110Y352008D02*
D03*
Y347008D02*
D03*
Y342008D02*
D03*
Y337008D02*
D03*
D59*
X331496Y429134D02*
D03*
X473331Y415378D02*
D03*
Y425378D02*
D03*
D60*
X160831Y418488D02*
D03*
X155831D02*
D03*
X150831D02*
D03*
X145831D02*
D03*
X140831D02*
D03*
X135831D02*
D03*
X130831D02*
D03*
X125831D02*
D03*
X160831Y382268D02*
D03*
X155831D02*
D03*
X150831D02*
D03*
X145831D02*
D03*
X140831D02*
D03*
X135831D02*
D03*
X130831D02*
D03*
X125831D02*
D03*
X450831Y418488D02*
D03*
X445831D02*
D03*
X440831D02*
D03*
X435831D02*
D03*
X430831D02*
D03*
X425831D02*
D03*
X420831D02*
D03*
X415831D02*
D03*
X450831Y382268D02*
D03*
X445831D02*
D03*
X440831D02*
D03*
X435831D02*
D03*
X430831D02*
D03*
X425831D02*
D03*
X420831D02*
D03*
X415831D02*
D03*
D61*
X208157Y294016D02*
D03*
X227842D02*
D03*
X208157Y229016D02*
D03*
X227842D02*
D03*
D62*
X232842Y261016D02*
D03*
X213158D02*
D03*
X168157Y294016D02*
D03*
X187843D02*
D03*
X232842Y196016D02*
D03*
X213158D02*
D03*
X168157Y229016D02*
D03*
X187843D02*
D03*
D63*
X115945Y269291D02*
D03*
X123425D02*
D03*
D64*
X136260Y283996D02*
D03*
X140000D02*
D03*
X143740D02*
D03*
Y294035D02*
D03*
X140000D02*
D03*
X136260D02*
D03*
X391071Y395398D02*
D03*
X387331D02*
D03*
X383591D02*
D03*
Y385358D02*
D03*
X391071D02*
D03*
D65*
X153000Y285669D02*
D03*
Y292362D02*
D03*
D66*
X161500Y185287D02*
D03*
X166500D02*
D03*
X171500D02*
D03*
X176500D02*
D03*
X161500Y206744D02*
D03*
X166500D02*
D03*
X171500D02*
D03*
X176500D02*
D03*
D67*
X193244Y186016D02*
D03*
X198756D02*
D03*
X385039Y362992D02*
D03*
X390551D02*
D03*
D68*
X188000Y191772D02*
D03*
Y186260D02*
D03*
X400913Y373236D02*
D03*
Y367724D02*
D03*
D69*
X360433Y279724D02*
D03*
X356693D02*
D03*
X352953D02*
D03*
Y291142D02*
D03*
X356693D02*
D03*
X360433D02*
D03*
X376969Y279724D02*
D03*
X373228D02*
D03*
X369488D02*
D03*
Y291142D02*
D03*
X373228D02*
D03*
X376969D02*
D03*
D70*
X435000Y271063D02*
D03*
X431260Y278937D02*
D03*
X438740D02*
D03*
D71*
X303131Y367478D02*
D03*
X301131D02*
D03*
X299131D02*
D03*
X297231D02*
D03*
X295231D02*
D03*
X293231D02*
D03*
X291331D02*
D03*
X289331D02*
D03*
X287331D02*
D03*
X285331D02*
D03*
X283431D02*
D03*
X281431D02*
D03*
X279431D02*
D03*
X277531D02*
D03*
X275531D02*
D03*
X273531D02*
D03*
Y323278D02*
D03*
X275531D02*
D03*
X277531D02*
D03*
X279431D02*
D03*
X281431D02*
D03*
X283431D02*
D03*
X285331D02*
D03*
X287331D02*
D03*
X289331D02*
D03*
X291331D02*
D03*
X293231D02*
D03*
X295231D02*
D03*
X297231D02*
D03*
X299131D02*
D03*
X301131D02*
D03*
X303131D02*
D03*
D72*
X266231Y360178D02*
D03*
Y358178D02*
D03*
Y356178D02*
D03*
Y354278D02*
D03*
Y352278D02*
D03*
Y350278D02*
D03*
Y348378D02*
D03*
Y346378D02*
D03*
Y344378D02*
D03*
Y342378D02*
D03*
Y340478D02*
D03*
Y338478D02*
D03*
Y336478D02*
D03*
Y334578D02*
D03*
Y332578D02*
D03*
Y330578D02*
D03*
X310431D02*
D03*
Y332578D02*
D03*
Y334578D02*
D03*
Y336478D02*
D03*
Y338478D02*
D03*
Y340478D02*
D03*
Y342378D02*
D03*
Y344378D02*
D03*
Y346378D02*
D03*
Y348378D02*
D03*
Y350278D02*
D03*
Y352278D02*
D03*
Y354278D02*
D03*
Y356178D02*
D03*
Y358178D02*
D03*
Y360178D02*
D03*
D73*
X300197Y378543D02*
D03*
Y382283D02*
D03*
Y386024D02*
D03*
X311614D02*
D03*
Y382283D02*
D03*
Y378543D02*
D03*
X324606Y379331D02*
D03*
Y383071D02*
D03*
Y386811D02*
D03*
X336024D02*
D03*
Y383071D02*
D03*
Y379331D02*
D03*
D74*
X382500Y368740D02*
D03*
Y372480D02*
D03*
Y376220D02*
D03*
X393327D02*
D03*
Y372480D02*
D03*
Y368740D02*
D03*
D75*
X468504Y250000D02*
D03*
Y260000D02*
D03*
Y270000D02*
D03*
Y280000D02*
D03*
Y290000D02*
D03*
Y300000D02*
D03*
X260000Y210000D02*
D03*
X270000D02*
D03*
X280000D02*
D03*
X290000D02*
D03*
X300000D02*
D03*
X310000D02*
D03*
X320000D02*
D03*
Y200000D02*
D03*
X310000D02*
D03*
X300000D02*
D03*
X290000D02*
D03*
X280000D02*
D03*
X270000D02*
D03*
X260000D02*
D03*
X120000Y280000D02*
D03*
Y290000D02*
D03*
X395331Y415378D02*
D03*
Y425378D02*
D03*
Y435378D02*
D03*
X468504Y330709D02*
D03*
Y340709D02*
D03*
Y350709D02*
D03*
Y360709D02*
D03*
Y370709D02*
D03*
Y380709D02*
D03*
D76*
X124732Y233740D02*
D03*
Y255394D02*
D03*
X141268D02*
D03*
Y233740D02*
D03*
X356732Y234724D02*
D03*
Y256378D02*
D03*
X373268D02*
D03*
Y234724D02*
D03*
X435000Y256378D02*
D03*
Y234724D02*
D03*
D77*
X133000Y205000D02*
D03*
X365000Y205984D02*
D03*
X435000D02*
D03*
D78*
X362520Y475197D02*
D03*
X424512D02*
D03*
X454827D02*
D03*
X292520D02*
D03*
X206323D02*
D03*
X224827D02*
D03*
X141520D02*
D03*
D79*
X374331Y458189D02*
D03*
X362520D02*
D03*
X350709D02*
D03*
Y446378D02*
D03*
X362520D02*
D03*
X374331D02*
D03*
X463331Y458189D02*
D03*
X451520D02*
D03*
X439709D02*
D03*
X427898D02*
D03*
X416087D02*
D03*
Y446378D02*
D03*
X427898D02*
D03*
X439709D02*
D03*
X451520D02*
D03*
X463331D02*
D03*
X304331Y458189D02*
D03*
X292520D02*
D03*
X280709D02*
D03*
Y446378D02*
D03*
X292520D02*
D03*
X304331D02*
D03*
X233331Y458189D02*
D03*
X221520D02*
D03*
X209709D02*
D03*
X197898D02*
D03*
Y446378D02*
D03*
X209709D02*
D03*
X221520D02*
D03*
X233331D02*
D03*
X153331Y458189D02*
D03*
X141520D02*
D03*
X129709D02*
D03*
Y446378D02*
D03*
X141520D02*
D03*
X153331D02*
D03*
D80*
X144488Y339764D02*
D03*
X337008Y344882D02*
D03*
X375984Y349213D02*
D03*
X330315Y336614D02*
D03*
X334646Y330709D02*
D03*
X322047Y342913D02*
D03*
X290551Y290551D02*
D03*
X294094Y287402D02*
D03*
X463386Y420079D02*
D03*
X470472Y397638D02*
D03*
X369291Y400394D02*
D03*
X260236Y370866D02*
D03*
X320079Y247244D02*
D03*
X261811D02*
D03*
X343307Y385433D02*
D03*
X256693Y230315D02*
D03*
X255906Y265748D02*
D03*
X262992Y316929D02*
D03*
X269291Y225197D02*
D03*
X265748Y228346D02*
D03*
X159055Y309449D02*
D03*
X314961Y283465D02*
D03*
X273622D02*
D03*
X271654Y400000D02*
D03*
X279134Y330709D02*
D03*
X182087Y202165D02*
D03*
X164961Y200000D02*
D03*
X183071Y192520D02*
D03*
X306299Y370472D02*
D03*
X318898Y308661D02*
D03*
X322835Y313779D02*
D03*
X256692Y351969D02*
D03*
X318898Y336614D02*
D03*
X322835D02*
D03*
X286221Y233071D02*
D03*
X285039Y228346D02*
D03*
X327953Y330578D02*
D03*
X260236D02*
D03*
Y356178D02*
D03*
X303150Y316929D02*
D03*
X316535Y360178D02*
D03*
X279431Y373228D02*
D03*
X266535Y437795D02*
D03*
X281496Y437402D02*
D03*
Y400000D02*
D03*
X292126D02*
D03*
X279528Y388976D02*
D03*
X291339D02*
D03*
X171260Y374016D02*
D03*
X177165D02*
D03*
X127559D02*
D03*
X135831Y374020D02*
D03*
X212598Y354331D02*
D03*
X216142Y346850D02*
D03*
X211417Y437795D02*
D03*
X197638D02*
D03*
X358012Y438839D02*
D03*
X278346Y411417D02*
D03*
Y415354D02*
D03*
X140000Y280079D02*
D03*
X431260Y283307D02*
D03*
X297638Y389370D02*
D03*
X316929Y384252D02*
D03*
X332283Y352362D02*
D03*
Y360236D02*
D03*
X275590Y337795D02*
D03*
X362992Y438976D02*
D03*
X180315D02*
D03*
X191732Y422441D02*
D03*
X205512D02*
D03*
X219291D02*
D03*
X233465D02*
D03*
X244094Y330315D02*
D03*
Y358268D02*
D03*
X350394Y438583D02*
D03*
X407874Y407480D02*
D03*
X382677Y401181D02*
D03*
X408268Y385433D02*
D03*
X397835Y401378D02*
D03*
X405118Y367717D02*
D03*
X364567Y389370D02*
D03*
X277953Y348425D02*
D03*
X285039Y346063D02*
D03*
X315748Y366929D02*
D03*
X386221Y357480D02*
D03*
X383857Y354724D02*
D03*
X422835Y357480D02*
D03*
X420472Y354724D02*
D03*
X303331Y301756D02*
D03*
X341339Y318898D02*
D03*
X283465Y361811D02*
D03*
X346063Y319685D02*
D03*
X340354Y379331D02*
D03*
X230315Y336614D02*
D03*
Y348425D02*
D03*
X234252Y336614D02*
D03*
Y348425D02*
D03*
X255906Y261024D02*
D03*
X364961Y290945D02*
D03*
X340551Y261024D02*
D03*
X448425Y374410D02*
D03*
X385039Y427165D02*
D03*
X148031Y313386D02*
D03*
X132425Y312992D02*
D03*
X136221Y288976D02*
D03*
X166142Y372047D02*
D03*
Y361024D02*
D03*
D81*
X238189Y293701D02*
D03*
X212913Y204016D02*
D03*
X212874Y269016D02*
D03*
X187795Y236614D02*
D03*
X182283Y250787D02*
D03*
X187795Y300787D02*
D03*
X153150Y299213D02*
D03*
X157087Y224016D02*
D03*
X160927Y373325D02*
D03*
X109055Y418504D02*
D03*
X117323Y406299D02*
D03*
X408661Y426378D02*
D03*
X347638Y279528D02*
D03*
X364961D02*
D03*
X451575Y405512D02*
D03*
X188583Y404724D02*
D03*
X120472Y438189D02*
D03*
X148425Y430315D02*
D03*
M02*
