G04*
G04 #@! TF.GenerationSoftware,Altium Limited,CircuitStudio,1.5.2 (30)*
G04*
G04 Layer_Physical_Order=2*
G04 Layer_Color=12500520*
%FSLAX25Y25*%
%MOIN*%
G70*
G01*
G75*
%ADD31C,0.00600*%
%ADD32C,0.01000*%
%ADD33C,0.00800*%
%ADD34C,0.03000*%
%ADD35C,0.01800*%
%ADD38C,0.02000*%
%ADD41C,0.07480*%
%ADD42C,0.10236*%
%ADD43C,0.06000*%
%ADD44C,0.08268*%
%ADD45C,0.03000*%
%ADD46C,0.05000*%
%ADD47C,0.09843*%
G36*
X492913Y179528D02*
X371353D01*
X371320Y180028D01*
X371520Y180054D01*
X372863Y180610D01*
X374017Y181495D01*
X382678Y190157D01*
X383563Y191310D01*
X383726Y191703D01*
X384119Y192653D01*
X384309Y194095D01*
X384309Y194095D01*
Y229252D01*
X384309Y229252D01*
X384119Y230693D01*
X383726Y231643D01*
X383563Y232036D01*
X382678Y233190D01*
X378264Y237603D01*
X378262Y237608D01*
X377346Y238803D01*
X376151Y239719D01*
X374760Y240295D01*
X373268Y240492D01*
X371775Y240295D01*
X371770Y240293D01*
X358230D01*
X358225Y240295D01*
X356732Y240492D01*
X355240Y240295D01*
X353849Y239719D01*
X352654Y238803D01*
X351737Y237608D01*
X351161Y236217D01*
X350965Y234724D01*
X351161Y233232D01*
X351737Y231841D01*
X352654Y230646D01*
X353849Y229730D01*
X355240Y229153D01*
X356732Y228957D01*
X358225Y229153D01*
X358230Y229155D01*
X370961D01*
X373171Y226945D01*
Y196401D01*
X367772Y191002D01*
X185594D01*
X185358Y191443D01*
X185426Y191544D01*
X185620Y192520D01*
X185571Y192766D01*
Y192520D01*
X180571D01*
Y192766D01*
X180522Y192520D01*
X180716Y191544D01*
X180784Y191443D01*
X180548Y191002D01*
X125141D01*
X114624Y201519D01*
Y296906D01*
X116874Y299155D01*
X145331D01*
X149212Y295275D01*
X150365Y294390D01*
X151708Y293833D01*
X153150Y293644D01*
X154591Y293833D01*
X155934Y294390D01*
X157087Y295275D01*
X157972Y296428D01*
X158529Y297771D01*
X158719Y299213D01*
X158529Y300654D01*
X157972Y301997D01*
X157087Y303150D01*
X151576Y308662D01*
X150422Y309547D01*
X149079Y310104D01*
X147638Y310293D01*
X133786D01*
X133726Y310492D01*
X131125D01*
X131064Y310293D01*
X114567D01*
X114567Y310293D01*
X113126Y310104D01*
X112176Y309710D01*
X111783Y309547D01*
X111645Y309441D01*
X111196Y309663D01*
Y416239D01*
X111266Y416293D01*
X111763Y416941D01*
X112075Y417695D01*
X112182Y418504D01*
X112075Y419313D01*
X111763Y420067D01*
X111266Y420715D01*
X111196Y420768D01*
Y473523D01*
X120966Y483292D01*
X151190D01*
Y462426D01*
X150943Y462324D01*
X149954Y461565D01*
X149196Y460576D01*
X148719Y459425D01*
X148556Y458189D01*
X148719Y456953D01*
X149196Y455802D01*
X149954Y454813D01*
X150943Y454054D01*
X152095Y453577D01*
X153331Y453414D01*
X154567Y453577D01*
X155718Y454054D01*
X156707Y454813D01*
X157466Y455802D01*
X157943Y456953D01*
X158105Y458189D01*
X157943Y459425D01*
X157466Y460576D01*
X156707Y461565D01*
X155718Y462324D01*
X155472Y462426D01*
Y483292D01*
X407132D01*
Y429100D01*
X407098Y429086D01*
X406451Y428589D01*
X405954Y427941D01*
X405641Y427187D01*
X405535Y426378D01*
X405641Y425569D01*
X405954Y424815D01*
X406451Y424167D01*
X407098Y423670D01*
X407852Y423358D01*
X408661Y423251D01*
X409471Y423358D01*
X410225Y423670D01*
X410872Y424167D01*
X411369Y424815D01*
X411682Y425569D01*
X411788Y426378D01*
X411682Y427187D01*
X411369Y427941D01*
X410872Y428589D01*
X410225Y429086D01*
X410191Y429100D01*
Y483292D01*
X467617D01*
X472268Y478641D01*
Y463485D01*
X469113Y460330D01*
X467568D01*
X467466Y460576D01*
X466707Y461565D01*
X465718Y462324D01*
X464567Y462801D01*
X463331Y462964D01*
X462095Y462801D01*
X460943Y462324D01*
X459955Y461565D01*
X459196Y460576D01*
X458719Y459425D01*
X458556Y458189D01*
X458719Y456953D01*
X459196Y455802D01*
X459955Y454813D01*
X460943Y454054D01*
X462095Y453577D01*
X463331Y453414D01*
X464567Y453577D01*
X465718Y454054D01*
X466707Y454813D01*
X467466Y455802D01*
X467568Y456048D01*
X470000D01*
X470819Y456211D01*
X471514Y456675D01*
X475923Y461084D01*
X476388Y461779D01*
X476551Y462598D01*
Y479528D01*
X476388Y480347D01*
X475923Y481042D01*
X470018Y486947D01*
X469323Y487411D01*
X468504Y487574D01*
X120079D01*
X119259Y487411D01*
X118565Y486947D01*
X107541Y475923D01*
X107077Y475229D01*
X106914Y474409D01*
Y420768D01*
X106844Y420715D01*
X106347Y420067D01*
X106035Y419313D01*
X105928Y418504D01*
X106035Y417695D01*
X106347Y416941D01*
X106844Y416293D01*
X106914Y416239D01*
Y304947D01*
X105117Y303150D01*
X104232Y301997D01*
X103676Y300654D01*
X103486Y299213D01*
Y199213D01*
X103676Y197771D01*
X104232Y196428D01*
X105117Y195275D01*
X118897Y181495D01*
X120050Y180610D01*
X120444Y180447D01*
X121393Y180054D01*
X121593Y180028D01*
X121561Y179528D01*
X100787D01*
Y492913D01*
X492913D01*
Y179528D01*
D02*
G37*
%LPC*%
G36*
X471004Y304057D02*
Y302500D01*
X472560D01*
X471885Y303381D01*
X471004Y304057D01*
D02*
G37*
G36*
X466004Y304057D02*
X465123Y303381D01*
X464447Y302500D01*
X466004D01*
Y304057D01*
D02*
G37*
G36*
Y297500D02*
X464447D01*
X465123Y296619D01*
X466004Y295943D01*
Y297500D01*
D02*
G37*
G36*
X327953Y332719D02*
X327133Y332556D01*
X326439Y332092D01*
X325975Y331397D01*
X325812Y330578D01*
X325975Y329759D01*
X326439Y329064D01*
X327133Y328600D01*
X327953Y328437D01*
X328772Y328600D01*
X329467Y329064D01*
X329838Y329100D01*
X339337Y319601D01*
X339197Y318898D01*
X339360Y318078D01*
X339825Y317384D01*
X340519Y316919D01*
X341339Y316757D01*
X342158Y316919D01*
X342853Y317384D01*
X343317Y318078D01*
X343480Y318898D01*
X343317Y319717D01*
X342853Y320412D01*
X342158Y320876D01*
X341339Y321039D01*
X340635Y320899D01*
X330307Y331227D01*
X330009Y331426D01*
X329897Y331448D01*
X329467Y332092D01*
X328772Y332556D01*
X327953Y332719D01*
D02*
G37*
G36*
X466004Y328209D02*
X464447D01*
X465123Y327328D01*
X466004Y326652D01*
Y328209D01*
D02*
G37*
G36*
X472561D02*
X471004D01*
Y326652D01*
X471885Y327328D01*
X472561Y328209D01*
D02*
G37*
G36*
X334646Y332850D02*
X333826Y332687D01*
X333132Y332223D01*
X332667Y331528D01*
X332505Y330709D01*
X332667Y329889D01*
X333132Y329195D01*
X333826Y328731D01*
X334646Y328568D01*
X335349Y328708D01*
X343997Y320060D01*
X343922Y319685D01*
X344085Y318866D01*
X344549Y318171D01*
X345244Y317707D01*
X346063Y317544D01*
X346882Y317707D01*
X347577Y318171D01*
X348041Y318866D01*
X348204Y319685D01*
X348041Y320504D01*
X347577Y321199D01*
X346882Y321663D01*
X346063Y321826D01*
X345244Y321663D01*
X345091Y321561D01*
X336647Y330005D01*
X336787Y330709D01*
X336624Y331528D01*
X336160Y332223D01*
X335465Y332687D01*
X334646Y332850D01*
D02*
G37*
G36*
X472561Y297500D02*
X471004D01*
Y295943D01*
X471885Y296619D01*
X472561Y297500D01*
D02*
G37*
G36*
X468504Y284378D02*
X467371Y284228D01*
X466315Y283791D01*
X465409Y283095D01*
X464713Y282189D01*
X464276Y281133D01*
X464126Y280000D01*
X464276Y278867D01*
X464713Y277811D01*
X465409Y276905D01*
X466315Y276209D01*
X467371Y275772D01*
X468504Y275622D01*
X469637Y275772D01*
X470693Y276209D01*
X471599Y276905D01*
X472295Y277811D01*
X472732Y278867D01*
X472882Y280000D01*
X472732Y281133D01*
X472295Y282189D01*
X471599Y283095D01*
X470693Y283791D01*
X469637Y284228D01*
X468504Y284378D01*
D02*
G37*
G36*
X120000D02*
X118867Y284228D01*
X117811Y283791D01*
X116905Y283095D01*
X116209Y282189D01*
X115772Y281133D01*
X115622Y280000D01*
X115772Y278867D01*
X116209Y277811D01*
X116905Y276905D01*
X117811Y276209D01*
X118867Y275772D01*
X120000Y275622D01*
X121133Y275772D01*
X122189Y276209D01*
X123095Y276905D01*
X123791Y277811D01*
X124228Y278867D01*
X124378Y280000D01*
X124228Y281133D01*
X123791Y282189D01*
X123095Y283095D01*
X122189Y283791D01*
X121133Y284228D01*
X120000Y284378D01*
D02*
G37*
G36*
X468504Y274378D02*
X467371Y274228D01*
X466315Y273791D01*
X465409Y273095D01*
X464713Y272189D01*
X464276Y271133D01*
X464126Y270000D01*
X464276Y268867D01*
X464713Y267811D01*
X465409Y266905D01*
X466315Y266209D01*
X467371Y265772D01*
X468504Y265622D01*
X469637Y265772D01*
X470693Y266209D01*
X471599Y266905D01*
X472295Y267811D01*
X472732Y268867D01*
X472882Y270000D01*
X472732Y271133D01*
X472295Y272189D01*
X471599Y273095D01*
X470693Y273791D01*
X469637Y274228D01*
X468504Y274378D01*
D02*
G37*
G36*
X364961Y293086D02*
X364141Y292923D01*
X363447Y292459D01*
X363048Y291863D01*
X346850D01*
X346499Y291793D01*
X346201Y291594D01*
X321273Y266666D01*
X257818D01*
X257419Y267262D01*
X256725Y267726D01*
X255906Y267889D01*
X255675Y267843D01*
X255429Y268304D01*
X271066Y283942D01*
X271527Y283695D01*
X271481Y283465D01*
X271644Y282645D01*
X272108Y281951D01*
X272803Y281486D01*
X273622Y281323D01*
X274441Y281486D01*
X275136Y281951D01*
X275535Y282547D01*
X313048D01*
X313447Y281951D01*
X314141Y281486D01*
X314961Y281323D01*
X315780Y281486D01*
X316475Y281951D01*
X316939Y282645D01*
X317102Y283465D01*
X316939Y284284D01*
X316475Y284979D01*
X315780Y285443D01*
X314961Y285606D01*
X314141Y285443D01*
X313447Y284979D01*
X313048Y284382D01*
X275535D01*
X275136Y284979D01*
X274441Y285443D01*
X273622Y285606D01*
X273391Y285560D01*
X273145Y286021D01*
X273608Y286484D01*
X292182D01*
X292581Y285888D01*
X293275Y285423D01*
X294094Y285260D01*
X294914Y285423D01*
X295608Y285888D01*
X296073Y286582D01*
X296236Y287402D01*
X296073Y288221D01*
X295608Y288916D01*
X294914Y289380D01*
X294094Y289543D01*
X293275Y289380D01*
X292816Y289073D01*
X292799Y289062D01*
X292581Y288916D01*
X292224Y289164D01*
X292174Y289199D01*
X292341Y289450D01*
X292529Y289732D01*
X292692Y290551D01*
X292529Y291371D01*
X292065Y292065D01*
X291371Y292529D01*
X290551Y292692D01*
X289732Y292529D01*
X289037Y292065D01*
X288639Y291469D01*
X270472D01*
X270121Y291399D01*
X269824Y291200D01*
X244551Y265927D01*
X244352Y265630D01*
X244282Y265279D01*
Y217703D01*
X240508Y213929D01*
X177972D01*
X177620Y213859D01*
X177323Y213660D01*
X165664Y202001D01*
X164961Y202141D01*
X164141Y201978D01*
X163447Y201514D01*
X162982Y200819D01*
X162820Y200000D01*
X162982Y199181D01*
X163447Y198486D01*
X164141Y198022D01*
X164961Y197859D01*
X165780Y198022D01*
X166475Y198486D01*
X166939Y199181D01*
X167102Y200000D01*
X166962Y200704D01*
X178352Y212093D01*
X190064D01*
X190255Y211631D01*
X182790Y204167D01*
X182087Y204307D01*
X181267Y204144D01*
X180573Y203679D01*
X180108Y202985D01*
X179946Y202165D01*
X180108Y201346D01*
X180573Y200651D01*
X181267Y200187D01*
X182087Y200024D01*
X182906Y200187D01*
X183601Y200651D01*
X184065Y201346D01*
X184228Y202165D01*
X184088Y202869D01*
X192112Y210893D01*
X242126D01*
X242477Y210963D01*
X242775Y211162D01*
X249468Y217855D01*
X249667Y218153D01*
X249678Y218211D01*
X249736Y218504D01*
Y262612D01*
X253349Y266225D01*
X253810Y265979D01*
X253764Y265748D01*
X253927Y264929D01*
X254392Y264234D01*
X255086Y263770D01*
X255588Y263670D01*
Y263670D01*
X255684Y263386D01*
X255588Y263102D01*
X255588D01*
X255588D01*
X255086Y263002D01*
X254392Y262538D01*
X253927Y261843D01*
X253764Y261024D01*
X253927Y260204D01*
X254392Y259510D01*
X255086Y259046D01*
X255906Y258882D01*
X256725Y259046D01*
X257419Y259510D01*
X257818Y260106D01*
X338639D01*
X339037Y259510D01*
X339732Y259046D01*
X340551Y258882D01*
X341371Y259046D01*
X342065Y259510D01*
X342529Y260204D01*
X342692Y261024D01*
X342529Y261843D01*
X342065Y262538D01*
X341371Y263002D01*
X340551Y263165D01*
X339732Y263002D01*
X339037Y262538D01*
X338639Y261941D01*
X257818D01*
X257419Y262538D01*
X256725Y263002D01*
X256223Y263102D01*
X256223D01*
X256076Y263131D01*
Y263134D01*
Y263151D01*
Y263181D01*
Y263232D01*
X256223Y263670D01*
X256223D01*
X256223D01*
X256725Y263770D01*
X257419Y264234D01*
X257818Y264830D01*
X321654D01*
X322005Y264900D01*
X322302Y265099D01*
X347231Y290027D01*
X363048D01*
X363447Y289431D01*
X364141Y288967D01*
X364961Y288804D01*
X365780Y288967D01*
X366475Y289431D01*
X366939Y290125D01*
X367102Y290945D01*
X366939Y291764D01*
X366475Y292459D01*
X365780Y292923D01*
X364961Y293086D01*
D02*
G37*
G36*
X238189Y296828D02*
X237380Y296721D01*
X236626Y296409D01*
X235978Y295912D01*
X235481Y295264D01*
X235169Y294510D01*
X235062Y293701D01*
X235169Y292892D01*
X235394Y292348D01*
X233042Y289996D01*
X138065D01*
X137734Y290490D01*
X137040Y290954D01*
X136221Y291118D01*
X135401Y290954D01*
X134706Y290490D01*
X134242Y289796D01*
X134079Y288976D01*
X134242Y288157D01*
X134706Y287462D01*
X135401Y286998D01*
X136221Y286835D01*
X137040Y286998D01*
X137734Y287462D01*
X138065Y287957D01*
X233465D01*
X233855Y288034D01*
X234186Y288255D01*
X236836Y290906D01*
X237380Y290681D01*
X238189Y290574D01*
X238998Y290681D01*
X239752Y290993D01*
X240400Y291490D01*
X240897Y292137D01*
X241209Y292892D01*
X241316Y293701D01*
X241209Y294510D01*
X240897Y295264D01*
X240400Y295912D01*
X239752Y296409D01*
X238998Y296721D01*
X238189Y296828D01*
D02*
G37*
G36*
X468504Y294378D02*
X467371Y294228D01*
X466315Y293791D01*
X465409Y293095D01*
X464713Y292189D01*
X464276Y291133D01*
X464126Y290000D01*
X464276Y288867D01*
X464713Y287811D01*
X465409Y286905D01*
X466315Y286209D01*
X467371Y285772D01*
X468504Y285622D01*
X469637Y285772D01*
X470693Y286209D01*
X471599Y286905D01*
X472295Y287811D01*
X472732Y288867D01*
X472882Y290000D01*
X472732Y291133D01*
X472295Y292189D01*
X471599Y293095D01*
X470693Y293791D01*
X469637Y294228D01*
X468504Y294378D01*
D02*
G37*
G36*
X120000D02*
X118867Y294228D01*
X117811Y293791D01*
X116905Y293095D01*
X116209Y292189D01*
X115772Y291133D01*
X115622Y290000D01*
X115772Y288867D01*
X116209Y287811D01*
X116905Y286905D01*
X117811Y286209D01*
X118867Y285772D01*
X120000Y285622D01*
X121133Y285772D01*
X122189Y286209D01*
X123095Y286905D01*
X123791Y287811D01*
X124228Y288867D01*
X124378Y290000D01*
X124228Y291133D01*
X123791Y292189D01*
X123095Y293095D01*
X122189Y293791D01*
X121133Y294228D01*
X120000Y294378D01*
D02*
G37*
G36*
X271654Y402141D02*
X270834Y401978D01*
X270140Y401514D01*
X269675Y400819D01*
X269512Y400000D01*
X269675Y399181D01*
X270140Y398486D01*
X270736Y398088D01*
Y333858D01*
X270806Y333507D01*
X271005Y333209D01*
X274154Y330060D01*
X274452Y329861D01*
X274803Y329791D01*
X277221D01*
X277620Y329195D01*
X278314Y328731D01*
X279134Y328568D01*
X279953Y328731D01*
X280648Y329195D01*
X281112Y329889D01*
X281275Y330709D01*
X281112Y331528D01*
X280648Y332223D01*
X279953Y332687D01*
X279134Y332850D01*
X278314Y332687D01*
X277620Y332223D01*
X277221Y331626D01*
X275183D01*
X272571Y334238D01*
Y398088D01*
X273167Y398486D01*
X273632Y399181D01*
X273795Y400000D01*
X273632Y400819D01*
X273167Y401514D01*
X272473Y401978D01*
X271654Y402141D01*
D02*
G37*
G36*
X292126D02*
X291307Y401978D01*
X290612Y401514D01*
X290213Y400918D01*
X283409D01*
X283010Y401514D01*
X282315Y401978D01*
X281496Y402141D01*
X280677Y401978D01*
X279982Y401514D01*
X279518Y400819D01*
X279355Y400000D01*
X279518Y399181D01*
X279982Y398486D01*
X280677Y398022D01*
X281496Y397859D01*
X282315Y398022D01*
X283010Y398486D01*
X283409Y399082D01*
X290213D01*
X290612Y398486D01*
X291307Y398022D01*
X292126Y397859D01*
X292945Y398022D01*
X293640Y398486D01*
X294104Y399181D01*
X294267Y400000D01*
X294104Y400819D01*
X293640Y401514D01*
X292945Y401978D01*
X292126Y402141D01*
D02*
G37*
G36*
X468504Y385086D02*
X467371Y384937D01*
X466315Y384500D01*
X465409Y383804D01*
X464713Y382897D01*
X464276Y381842D01*
X464126Y380709D01*
X464276Y379576D01*
X464713Y378520D01*
X465409Y377613D01*
X466315Y376918D01*
X467371Y376480D01*
X468504Y376331D01*
X469637Y376480D01*
X470693Y376918D01*
X471599Y377613D01*
X472295Y378520D01*
X472732Y379576D01*
X472882Y380709D01*
X472732Y381842D01*
X472295Y382897D01*
X471599Y383804D01*
X470693Y384500D01*
X469637Y384937D01*
X468504Y385086D01*
D02*
G37*
G36*
X171653Y380445D02*
X133071D01*
X132720Y380375D01*
X132422Y380176D01*
X128263Y376017D01*
X127559Y376157D01*
X126740Y375994D01*
X126045Y375530D01*
X125581Y374835D01*
X125418Y374016D01*
X125581Y373196D01*
X126045Y372502D01*
X126740Y372038D01*
X127559Y371875D01*
X128378Y372038D01*
X129073Y372502D01*
X129537Y373196D01*
X129700Y374016D01*
X129560Y374719D01*
X133451Y378610D01*
X138416D01*
X138623Y378110D01*
X136534Y376021D01*
X135831Y376161D01*
X135011Y375998D01*
X134317Y375534D01*
X133853Y374839D01*
X133690Y374020D01*
X133853Y373200D01*
X134317Y372506D01*
X135011Y372042D01*
X135831Y371879D01*
X136650Y372042D01*
X137345Y372506D01*
X137809Y373200D01*
X137972Y374020D01*
X137832Y374723D01*
X140144Y377035D01*
X159432D01*
X159532Y376535D01*
X159162Y376382D01*
X158436Y375825D01*
X160927D01*
Y373325D01*
X163427D01*
Y370833D01*
X163669Y371149D01*
X163805Y371171D01*
X164255Y371091D01*
X164628Y370533D01*
X165224Y370135D01*
Y362936D01*
X164628Y362538D01*
X164164Y361843D01*
X164001Y361024D01*
X164164Y360204D01*
X164628Y359510D01*
X165322Y359046D01*
X166142Y358882D01*
X166961Y359046D01*
X167656Y359510D01*
X168120Y360204D01*
X168283Y361024D01*
X168120Y361843D01*
X167656Y362538D01*
X167059Y362936D01*
Y370135D01*
X167656Y370533D01*
X168120Y371228D01*
X168283Y372047D01*
X168120Y372867D01*
X167656Y373561D01*
X166961Y374025D01*
X166142Y374188D01*
X165322Y374025D01*
X164906Y373747D01*
X164370Y373990D01*
X164337Y374238D01*
X163984Y375090D01*
X163423Y375821D01*
X162692Y376382D01*
X162323Y376535D01*
X162422Y377035D01*
X166943D01*
X169259Y374719D01*
X169119Y374016D01*
X169282Y373196D01*
X169746Y372502D01*
X170440Y372038D01*
X171260Y371875D01*
X172079Y372038D01*
X172774Y372502D01*
X173238Y373196D01*
X173401Y374016D01*
X173238Y374835D01*
X172774Y375530D01*
X172079Y375994D01*
X171260Y376157D01*
X170556Y376017D01*
X168463Y378110D01*
X168670Y378610D01*
X171274D01*
X175164Y374719D01*
X175024Y374016D01*
X175187Y373196D01*
X175651Y372502D01*
X176346Y372038D01*
X177165Y371875D01*
X177985Y372038D01*
X178679Y372502D01*
X179144Y373196D01*
X179306Y374016D01*
X179144Y374835D01*
X178679Y375530D01*
X177985Y375994D01*
X177165Y376157D01*
X176462Y376017D01*
X172302Y380176D01*
X172005Y380375D01*
X171653Y380445D01*
D02*
G37*
G36*
X382677Y403322D02*
X381858Y403159D01*
X381163Y402695D01*
X380833Y402201D01*
X378346D01*
X377956Y402123D01*
X377625Y401902D01*
X377137Y401413D01*
X371136D01*
X370805Y401908D01*
X370111Y402372D01*
X369291Y402535D01*
X368472Y402372D01*
X367777Y401908D01*
X367313Y401213D01*
X367150Y400394D01*
X367313Y399574D01*
X367777Y398880D01*
X368472Y398415D01*
X369291Y398253D01*
X370111Y398415D01*
X370805Y398880D01*
X371136Y399374D01*
X377559D01*
X377949Y399452D01*
X378280Y399673D01*
X378769Y400162D01*
X380833D01*
X381163Y399667D01*
X381858Y399203D01*
X382677Y399040D01*
X383496Y399203D01*
X384191Y399667D01*
X384655Y400362D01*
X384818Y401181D01*
X384655Y402001D01*
X384191Y402695D01*
X383496Y403159D01*
X382677Y403322D01*
D02*
G37*
G36*
X120472Y441316D02*
X119663Y441209D01*
X118909Y440897D01*
X118262Y440400D01*
X117765Y439752D01*
X117452Y438998D01*
X117346Y438189D01*
X117452Y437380D01*
X117765Y436626D01*
X118262Y435978D01*
X118909Y435481D01*
X119663Y435169D01*
X120472Y435062D01*
X121282Y435169D01*
X122036Y435481D01*
X122683Y435978D01*
X123180Y436626D01*
X123406Y437169D01*
X140129D01*
X145630Y431668D01*
X145405Y431124D01*
X145299Y430315D01*
X145405Y429506D01*
X145717Y428752D01*
X146214Y428104D01*
X146862Y427607D01*
X147616Y427295D01*
X148425Y427188D01*
X149234Y427295D01*
X149989Y427607D01*
X150636Y428104D01*
X151133Y428752D01*
X151445Y429506D01*
X151552Y430315D01*
X151445Y431124D01*
X151133Y431878D01*
X150636Y432526D01*
X149989Y433023D01*
X149234Y433335D01*
X148425Y433442D01*
X147616Y433335D01*
X147072Y433110D01*
X141272Y438910D01*
X140941Y439131D01*
X140551Y439209D01*
X123406D01*
X123180Y439752D01*
X122683Y440400D01*
X122036Y440897D01*
X121282Y441209D01*
X120472Y441316D01*
D02*
G37*
G36*
X395331Y429756D02*
X394198Y429606D01*
X393142Y429169D01*
X392235Y428473D01*
X391540Y427567D01*
X391102Y426511D01*
X390953Y425378D01*
X391102Y424245D01*
X391540Y423189D01*
X392235Y422283D01*
X393142Y421587D01*
X394198Y421149D01*
X395331Y421000D01*
X396464Y421149D01*
X397519Y421587D01*
X398426Y422283D01*
X399122Y423189D01*
X399559Y424245D01*
X399708Y425378D01*
X399559Y426511D01*
X399122Y427567D01*
X398426Y428473D01*
X397519Y429169D01*
X396464Y429606D01*
X395331Y429756D01*
D02*
G37*
G36*
Y419756D02*
X394198Y419606D01*
X393142Y419169D01*
X392235Y418473D01*
X391540Y417567D01*
X391102Y416511D01*
X390953Y415378D01*
X391102Y414245D01*
X391540Y413189D01*
X392235Y412283D01*
X393142Y411587D01*
X393190Y411567D01*
Y410968D01*
X393353Y410149D01*
X393817Y409454D01*
X399192Y404079D01*
X398874Y403691D01*
X399637Y403181D01*
X400147Y402417D01*
X400535Y402736D01*
X401242Y402029D01*
X401936Y401565D01*
X402756Y401402D01*
X410630D01*
X411449Y401565D01*
X412144Y402029D01*
X413485Y403371D01*
X449310D01*
X449364Y403301D01*
X450011Y402804D01*
X450766Y402492D01*
X451575Y402385D01*
X452384Y402492D01*
X453138Y402804D01*
X453786Y403301D01*
X454283Y403948D01*
X454595Y404703D01*
X454702Y405512D01*
X454595Y406321D01*
X454283Y407075D01*
X453786Y407723D01*
X453138Y408220D01*
X452384Y408532D01*
X451575Y408639D01*
X450766Y408532D01*
X450011Y408220D01*
X449364Y407723D01*
X449310Y407653D01*
X412598D01*
X411779Y407490D01*
X411084Y407026D01*
X410782Y406724D01*
X410322Y406970D01*
X410423Y407480D01*
X410374Y407726D01*
Y407480D01*
X405374D01*
Y407726D01*
X405325Y407480D01*
X405519Y406505D01*
X405773Y406125D01*
X405537Y405685D01*
X403643D01*
X397913Y411415D01*
X397945Y411914D01*
X398426Y412283D01*
X399122Y413189D01*
X399559Y414245D01*
X399708Y415378D01*
X399559Y416511D01*
X399122Y417567D01*
X398426Y418473D01*
X397519Y419169D01*
X396464Y419606D01*
X395331Y419756D01*
D02*
G37*
G36*
X468504Y375086D02*
X467371Y374937D01*
X466315Y374500D01*
X465409Y373804D01*
X464713Y372898D01*
X464276Y371842D01*
X464126Y370709D01*
X464276Y369576D01*
X464713Y368520D01*
X465409Y367613D01*
X466315Y366917D01*
X467371Y366480D01*
X468504Y366331D01*
X469637Y366480D01*
X470693Y366917D01*
X471599Y367613D01*
X472295Y368520D01*
X472732Y369576D01*
X472882Y370709D01*
X472732Y371842D01*
X472295Y372898D01*
X471599Y373804D01*
X470693Y374500D01*
X469637Y374937D01*
X468504Y375086D01*
D02*
G37*
G36*
X471004Y334765D02*
Y333209D01*
X472560D01*
X471885Y334089D01*
X471004Y334765D01*
D02*
G37*
G36*
X466004Y334765D02*
X465123Y334089D01*
X464447Y333209D01*
X466004D01*
Y334765D01*
D02*
G37*
G36*
X362992Y441117D02*
X362173Y440954D01*
X361478Y440490D01*
X361014Y439796D01*
X360851Y438976D01*
X360991Y438273D01*
X360297Y437579D01*
X359909Y437898D01*
X359990Y438019D01*
X360153Y438839D01*
X359990Y439658D01*
X359526Y440353D01*
X358831Y440817D01*
X358012Y440980D01*
X357192Y440817D01*
X356498Y440353D01*
X356034Y439658D01*
X355871Y438839D01*
X356011Y438135D01*
X353833Y435957D01*
X350521D01*
X350471Y436457D01*
X351213Y436604D01*
X351908Y437069D01*
X352372Y437763D01*
X352535Y438583D01*
X352372Y439402D01*
X351908Y440097D01*
X351213Y440561D01*
X350394Y440724D01*
X349574Y440561D01*
X348880Y440097D01*
X348415Y439402D01*
X348253Y438583D01*
X348415Y437763D01*
X348518Y437611D01*
X334266Y423359D01*
X285433D01*
X285082Y423289D01*
X284784Y423090D01*
X279050Y417355D01*
X278346Y417495D01*
X277527Y417333D01*
X276833Y416868D01*
X276368Y416174D01*
X276205Y415354D01*
X276368Y414535D01*
X276833Y413840D01*
X277138Y413636D01*
Y413136D01*
X276833Y412931D01*
X276368Y412237D01*
X276205Y411417D01*
X276368Y410598D01*
X276833Y409903D01*
X277527Y409439D01*
X277844Y409376D01*
X278008Y408834D01*
X274904Y405729D01*
X274705Y405432D01*
X274635Y405080D01*
Y339683D01*
X274077Y339309D01*
X273612Y338615D01*
X273449Y337795D01*
X273612Y336976D01*
X274077Y336281D01*
X274771Y335817D01*
X275590Y335654D01*
X276410Y335817D01*
X277105Y336281D01*
X277569Y336976D01*
X277732Y337795D01*
X277569Y338615D01*
X277105Y339309D01*
X276470Y339733D01*
Y346360D01*
X276911Y346595D01*
X277133Y346447D01*
X277953Y346284D01*
X278772Y346447D01*
X279467Y346911D01*
X279931Y347606D01*
X280094Y348425D01*
X279931Y349245D01*
X279467Y349939D01*
X278870Y350338D01*
Y370805D01*
X279257Y371122D01*
X279431Y371087D01*
X280250Y371250D01*
X280769Y371597D01*
X303969D01*
X304282Y371097D01*
X304158Y370472D01*
X304321Y369653D01*
X304785Y368958D01*
X305480Y368494D01*
X306299Y368331D01*
X307119Y368494D01*
X307813Y368958D01*
X308277Y369653D01*
X308440Y370472D01*
X308316Y371097D01*
X308629Y371597D01*
X315860D01*
X318054Y369403D01*
Y368158D01*
X317554Y368007D01*
X317262Y368443D01*
X316567Y368907D01*
X315748Y369070D01*
X314929Y368907D01*
X314234Y368443D01*
X313836Y367847D01*
X312205D01*
X311854Y367777D01*
X311556Y367578D01*
X303557Y359579D01*
X288583D01*
X288231Y359509D01*
X287934Y359310D01*
X284882Y356259D01*
X284382Y356466D01*
Y359898D01*
X284979Y360297D01*
X285443Y360992D01*
X285606Y361811D01*
X285443Y362630D01*
X284979Y363325D01*
X284284Y363789D01*
X283465Y363952D01*
X282645Y363789D01*
X281951Y363325D01*
X281486Y362630D01*
X281323Y361811D01*
X281486Y360992D01*
X281951Y360297D01*
X282547Y359898D01*
Y348412D01*
X281991Y347855D01*
X281792Y347557D01*
X281722Y347206D01*
Y344526D01*
X281792Y344175D01*
X281991Y343877D01*
X283604Y342264D01*
X283902Y342065D01*
X284253Y341995D01*
X315899D01*
X316051Y341495D01*
X315776Y341311D01*
X314595Y340130D01*
X314241Y339601D01*
X314117Y338976D01*
Y321148D01*
X311529Y318561D01*
X304488D01*
X303969Y318907D01*
X303150Y319070D01*
X302330Y318907D01*
X301811Y318561D01*
X264331D01*
X263811Y318907D01*
X263199Y319029D01*
X261868Y320361D01*
Y329240D01*
X262214Y329759D01*
X262377Y330578D01*
X262214Y331397D01*
X261868Y331916D01*
Y354840D01*
X262214Y355359D01*
X262377Y356178D01*
X262214Y356997D01*
X261868Y357516D01*
Y369528D01*
X262214Y370047D01*
X262377Y370866D01*
X262214Y371686D01*
X261750Y372380D01*
X261056Y372844D01*
X260236Y373007D01*
X259417Y372844D01*
X258722Y372380D01*
X258258Y371686D01*
X258095Y370866D01*
X258258Y370047D01*
X258605Y369528D01*
Y357516D01*
X258258Y356997D01*
X258095Y356178D01*
X258258Y355359D01*
X258605Y354840D01*
Y353717D01*
X258105Y353550D01*
X257511Y353947D01*
X256692Y354110D01*
X255872Y353947D01*
X255178Y353483D01*
X254753Y352848D01*
X221615D01*
X221264Y352778D01*
X220966Y352579D01*
X219036Y350649D01*
X218837Y350351D01*
X218767Y350000D01*
Y347270D01*
X218714Y347243D01*
X218150Y347518D01*
X218120Y347670D01*
X217656Y348364D01*
X217059Y348763D01*
Y357480D01*
X217001Y357773D01*
X216989Y357832D01*
X216791Y358129D01*
X212335Y362585D01*
Y435883D01*
X212931Y436281D01*
X213396Y436976D01*
X213559Y437795D01*
X213396Y438615D01*
X212931Y439309D01*
X212237Y439773D01*
X211417Y439936D01*
X210598Y439773D01*
X209903Y439309D01*
X209439Y438615D01*
X209276Y437795D01*
X209439Y436976D01*
X209903Y436281D01*
X210500Y435883D01*
Y362205D01*
X210570Y361854D01*
X210769Y361556D01*
X215224Y357100D01*
Y354458D01*
X214805Y354416D01*
X214757Y354412D01*
X214732Y354409D01*
X214725Y354409D01*
X214665Y354704D01*
X214663Y354717D01*
X214663Y354717D01*
X214577Y355150D01*
X214112Y355845D01*
X213418Y356309D01*
X212598Y356472D01*
X211895Y356332D01*
X198555Y369672D01*
Y435883D01*
X199152Y436281D01*
X199616Y436976D01*
X199779Y437795D01*
X199616Y438615D01*
X199152Y439309D01*
X198457Y439773D01*
X197638Y439936D01*
X196818Y439773D01*
X196124Y439309D01*
X195660Y438615D01*
X195497Y437795D01*
X195660Y436976D01*
X196124Y436281D01*
X196720Y435883D01*
Y369291D01*
X196790Y368940D01*
X196989Y368642D01*
X210597Y355034D01*
X210457Y354331D01*
X210620Y353511D01*
X211084Y352817D01*
X211779Y352353D01*
X212598Y352190D01*
X213418Y352353D01*
X214112Y352817D01*
X214577Y353511D01*
X214663Y353944D01*
X214663Y353944D01*
X214665Y353957D01*
X214725Y354253D01*
X214732Y354252D01*
X214757Y354250D01*
X214805Y354245D01*
X215224Y354204D01*
Y348763D01*
X214628Y348364D01*
X214164Y347670D01*
X214001Y346850D01*
X214164Y346031D01*
X214510Y345512D01*
X214282Y345012D01*
X148425D01*
X148132Y344954D01*
X148074Y344942D01*
X147776Y344743D01*
X144863Y341830D01*
X144488Y341905D01*
X143669Y341742D01*
X142974Y341278D01*
X142510Y340583D01*
X142347Y339764D01*
X142510Y338944D01*
X142974Y338250D01*
X143669Y337786D01*
X144488Y337623D01*
X145308Y337786D01*
X146002Y338250D01*
X146466Y338944D01*
X146629Y339764D01*
X146466Y340583D01*
X146364Y340736D01*
X148805Y343177D01*
X217323D01*
X217674Y343247D01*
X217972Y343446D01*
X220334Y345808D01*
X220533Y346106D01*
X220603Y346457D01*
Y349620D01*
X221995Y351012D01*
X229994D01*
X230044Y350512D01*
X229496Y350403D01*
X228801Y349939D01*
X228337Y349245D01*
X228174Y348425D01*
X228337Y347606D01*
X228801Y346911D01*
X229397Y346513D01*
Y338527D01*
X228801Y338128D01*
X228337Y337434D01*
X228174Y336614D01*
X228337Y335795D01*
X228801Y335100D01*
X229496Y334636D01*
X230315Y334473D01*
X231134Y334636D01*
X231829Y335100D01*
X232033Y335406D01*
X232534D01*
X232738Y335100D01*
X233433Y334636D01*
X234252Y334473D01*
X235071Y334636D01*
X235766Y335100D01*
X236230Y335795D01*
X236393Y336614D01*
X236230Y337434D01*
X235766Y338128D01*
X235170Y338527D01*
Y346513D01*
X235766Y346911D01*
X236230Y347606D01*
X236393Y348425D01*
X236230Y349245D01*
X235766Y349939D01*
X235071Y350403D01*
X234523Y350512D01*
X234573Y351012D01*
X254805D01*
X255178Y350454D01*
X255872Y349990D01*
X256692Y349827D01*
X257511Y349990D01*
X258105Y350387D01*
X258605Y350220D01*
Y331916D01*
X258258Y331397D01*
X258095Y330578D01*
X258258Y329759D01*
X258605Y329240D01*
Y319685D01*
X258729Y319061D01*
X259083Y318531D01*
X260892Y316722D01*
X261014Y316110D01*
X261478Y315415D01*
X262173Y314951D01*
X262992Y314788D01*
X263811Y314951D01*
X264331Y315298D01*
X301811D01*
X302330Y314951D01*
X303150Y314788D01*
X303969Y314951D01*
X304488Y315298D01*
X312205D01*
X312829Y315422D01*
X313358Y315776D01*
X316902Y319319D01*
X317255Y319848D01*
X317379Y320472D01*
Y334033D01*
X317879Y334316D01*
X317980Y334256D01*
Y310574D01*
X317384Y310175D01*
X316919Y309481D01*
X316757Y308661D01*
X316919Y307842D01*
X317384Y307147D01*
X318078Y306683D01*
X318898Y306520D01*
X319717Y306683D01*
X320412Y307147D01*
X320876Y307842D01*
X321039Y308661D01*
X320876Y309481D01*
X320412Y310175D01*
X319815Y310574D01*
Y334702D01*
X320412Y335100D01*
X320616Y335406D01*
X321116D01*
X321321Y335100D01*
X321917Y334702D01*
Y315692D01*
X321321Y315294D01*
X320856Y314599D01*
X320693Y313779D01*
X320856Y312960D01*
X321321Y312265D01*
X322015Y311801D01*
X322835Y311638D01*
X323654Y311801D01*
X324349Y312265D01*
X324813Y312960D01*
X324976Y313779D01*
X324813Y314599D01*
X324349Y315294D01*
X323752Y315692D01*
Y334702D01*
X324349Y335100D01*
X324813Y335795D01*
X324976Y336614D01*
X324813Y337434D01*
X324423Y338017D01*
X324414Y338612D01*
X324484Y338659D01*
X326301Y340476D01*
X326654Y341005D01*
X326779Y341629D01*
Y343760D01*
X335232D01*
X335494Y343368D01*
X336189Y342904D01*
X337008Y342741D01*
X337827Y342904D01*
X338522Y343368D01*
X338986Y344062D01*
X339149Y344882D01*
X338986Y345701D01*
X338522Y346396D01*
X337827Y346860D01*
X337008Y347023D01*
X336189Y346860D01*
X335494Y346396D01*
X335232Y346003D01*
X326042D01*
X323254Y348791D01*
X322725Y349145D01*
X322101Y349269D01*
X319180D01*
X318167Y350282D01*
Y358840D01*
X318514Y359359D01*
X318677Y360178D01*
X318514Y360997D01*
X318167Y361516D01*
Y362657D01*
X320839Y365329D01*
X321192Y365858D01*
X321316Y366482D01*
Y370079D01*
X321192Y370703D01*
X320839Y371232D01*
X317689Y374382D01*
X317160Y374735D01*
X316535Y374860D01*
X280769D01*
X280250Y375206D01*
X279431Y375370D01*
X278611Y375206D01*
X278208Y374937D01*
X277708Y375204D01*
Y383497D01*
X278727Y384515D01*
X313923D01*
X313923Y384515D01*
X314173D01*
X314525Y384585D01*
X314822Y384784D01*
X315772Y385734D01*
X317692D01*
X318643Y384783D01*
X318941Y384584D01*
X319292Y384514D01*
X319296Y384515D01*
X319694D01*
X319694Y384515D01*
X341395D01*
X341793Y383919D01*
X342488Y383455D01*
X343307Y383292D01*
X344127Y383455D01*
X344821Y383919D01*
X345285Y384614D01*
X345448Y385433D01*
X345285Y386252D01*
X344821Y386947D01*
X344127Y387411D01*
X343307Y387574D01*
X342488Y387411D01*
X341793Y386947D01*
X341395Y386351D01*
X319671D01*
X318721Y387301D01*
X318424Y387500D01*
X318072Y387570D01*
X315392D01*
X315099Y387511D01*
X315041Y387500D01*
X314743Y387301D01*
X313793Y386351D01*
X297836D01*
X297792Y386800D01*
X297789Y386830D01*
X297787Y386847D01*
X297787Y386851D01*
X297884Y386870D01*
X297392D01*
X297489Y386851D01*
X297489Y386847D01*
X297487Y386830D01*
X297484Y386800D01*
X297440Y386351D01*
X292809D01*
X292657Y386851D01*
X292314Y386621D01*
X291586Y386476D01*
X289906D01*
X289868Y386351D01*
X280998D01*
X280960Y386476D01*
X278157D01*
X278124Y386306D01*
X277995Y386281D01*
X277698Y386082D01*
X276932Y385317D01*
X276470Y385508D01*
Y404700D01*
X290894Y419123D01*
X335640D01*
X335991Y419193D01*
X336289Y419392D01*
X349818Y432922D01*
X357855D01*
X358206Y432992D01*
X358504Y433190D01*
X362289Y436975D01*
X362992Y436835D01*
X363811Y436998D01*
X364506Y437462D01*
X364970Y438157D01*
X365133Y438976D01*
X364970Y439796D01*
X364506Y440490D01*
X363811Y440954D01*
X362992Y441117D01*
D02*
G37*
G36*
X468504Y345086D02*
X467371Y344937D01*
X466315Y344500D01*
X465409Y343804D01*
X464713Y342898D01*
X464276Y341842D01*
X464126Y340709D01*
X464276Y339576D01*
X464713Y338520D01*
X465409Y337613D01*
X466315Y336917D01*
X467371Y336480D01*
X468504Y336331D01*
X469637Y336480D01*
X470693Y336917D01*
X471599Y337613D01*
X472295Y338520D01*
X472732Y339576D01*
X472882Y340709D01*
X472732Y341842D01*
X472295Y342898D01*
X471599Y343804D01*
X470693Y344500D01*
X469637Y344937D01*
X468504Y345086D01*
D02*
G37*
G36*
X422835Y359622D02*
X422015Y359458D01*
X421321Y358994D01*
X420922Y358398D01*
X388133D01*
X387735Y358994D01*
X387040Y359458D01*
X386221Y359622D01*
X385401Y359458D01*
X384706Y358994D01*
X384242Y358300D01*
X384079Y357480D01*
X384118Y357284D01*
X383698Y356833D01*
X383038Y356702D01*
X382344Y356238D01*
X381879Y355543D01*
X381716Y354724D01*
X381879Y353904D01*
X382344Y353210D01*
X383038Y352746D01*
X383857Y352583D01*
X384677Y352746D01*
X385371Y353210D01*
X385770Y353806D01*
X418559D01*
X418958Y353210D01*
X419652Y352746D01*
X420472Y352583D01*
X421291Y352746D01*
X421986Y353210D01*
X422450Y353904D01*
X422613Y354724D01*
X422574Y354920D01*
X422994Y355371D01*
X423654Y355502D01*
X424349Y355966D01*
X424813Y356661D01*
X424976Y357480D01*
X424813Y358300D01*
X424349Y358994D01*
X423654Y359458D01*
X422835Y359622D01*
D02*
G37*
G36*
X468504Y365086D02*
X467371Y364937D01*
X466315Y364500D01*
X465409Y363804D01*
X464713Y362897D01*
X464276Y361842D01*
X464126Y360709D01*
X464276Y359576D01*
X464713Y358520D01*
X465409Y357613D01*
X466315Y356918D01*
X467371Y356480D01*
X468504Y356331D01*
X469637Y356480D01*
X470693Y356918D01*
X471599Y357613D01*
X472295Y358520D01*
X472732Y359576D01*
X472882Y360709D01*
X472732Y361842D01*
X472295Y362897D01*
X471599Y363804D01*
X470693Y364500D01*
X469637Y364937D01*
X468504Y365086D01*
D02*
G37*
G36*
Y355086D02*
X467371Y354937D01*
X466315Y354500D01*
X465409Y353804D01*
X464713Y352898D01*
X464276Y351842D01*
X464126Y350709D01*
X464276Y349576D01*
X464713Y348520D01*
X465409Y347613D01*
X466315Y346918D01*
X467371Y346480D01*
X468504Y346331D01*
X469637Y346480D01*
X470693Y346918D01*
X471599Y347613D01*
X472295Y348520D01*
X472732Y349576D01*
X472882Y350709D01*
X472732Y351842D01*
X472295Y352898D01*
X471599Y353804D01*
X470693Y354500D01*
X469637Y354937D01*
X468504Y355086D01*
D02*
G37*
G36*
X300000Y214378D02*
X298867Y214228D01*
X297811Y213791D01*
X296905Y213095D01*
X296209Y212189D01*
X295772Y211133D01*
X295622Y210000D01*
X295772Y208867D01*
X296209Y207811D01*
X296905Y206905D01*
X297811Y206209D01*
X298867Y205772D01*
X300000Y205622D01*
X301133Y205772D01*
X302189Y206209D01*
X303095Y206905D01*
X303791Y207811D01*
X304228Y208867D01*
X304378Y210000D01*
X304228Y211133D01*
X303791Y212189D01*
X303095Y213095D01*
X302189Y213791D01*
X301133Y214228D01*
X300000Y214378D01*
D02*
G37*
G36*
X322500Y204057D02*
Y202500D01*
X324057D01*
X323381Y203381D01*
X322500Y204057D01*
D02*
G37*
G36*
X317500D02*
X316619Y203381D01*
X315944Y202500D01*
X317500D01*
Y204057D01*
D02*
G37*
G36*
X310000Y214378D02*
X308867Y214228D01*
X307811Y213791D01*
X306905Y213095D01*
X306209Y212189D01*
X305772Y211133D01*
X305622Y210000D01*
X305772Y208867D01*
X306209Y207811D01*
X306905Y206905D01*
X307811Y206209D01*
X308867Y205772D01*
X310000Y205622D01*
X311133Y205772D01*
X312189Y206209D01*
X313095Y206905D01*
X313791Y207811D01*
X314228Y208867D01*
X314378Y210000D01*
X314228Y211133D01*
X313791Y212189D01*
X313095Y213095D01*
X312189Y213791D01*
X311133Y214228D01*
X310000Y214378D01*
D02*
G37*
G36*
X124732Y239508D02*
X123240Y239311D01*
X121849Y238735D01*
X120654Y237818D01*
X119738Y236624D01*
X119161Y235233D01*
X118965Y233740D01*
X119161Y232247D01*
X119738Y230856D01*
X120654Y229662D01*
X121849Y228745D01*
X123240Y228169D01*
X124732Y227973D01*
X126225Y228169D01*
X127616Y228745D01*
X128811Y229662D01*
X129727Y230856D01*
X130303Y232247D01*
X130500Y233740D01*
X130303Y235233D01*
X129727Y236624D01*
X128811Y237818D01*
X127616Y238735D01*
X126225Y239311D01*
X124732Y239508D01*
D02*
G37*
G36*
X286221Y235212D02*
X285401Y235049D01*
X284706Y234585D01*
X284308Y233988D01*
X281890D01*
X281597Y233930D01*
X281539Y233919D01*
X281241Y233720D01*
X274154Y226633D01*
X273955Y226335D01*
X273885Y225984D01*
Y212887D01*
X273386Y212717D01*
X273095Y213095D01*
X272189Y213791D01*
X271133Y214228D01*
X270918Y214257D01*
Y220171D01*
X272696Y221950D01*
X272895Y222247D01*
X272907Y222305D01*
X272965Y222598D01*
Y226378D01*
X272907Y226671D01*
X272895Y226729D01*
X272696Y227027D01*
X270728Y228995D01*
X270430Y229194D01*
X270079Y229264D01*
X267660D01*
X267262Y229860D01*
X266567Y230325D01*
X265748Y230488D01*
X264929Y230325D01*
X264234Y229860D01*
X263770Y229166D01*
X263607Y228346D01*
X263770Y227527D01*
X264234Y226833D01*
X264929Y226368D01*
X265592Y226236D01*
X265627Y226189D01*
X265768Y225781D01*
X265771Y225730D01*
X264312Y224271D01*
X264113Y223973D01*
X264043Y223622D01*
Y212682D01*
X263543Y212512D01*
X263095Y213095D01*
X262189Y213791D01*
X261133Y214228D01*
X260000Y214378D01*
X258867Y214228D01*
X258111Y213915D01*
X257611Y214244D01*
Y228402D01*
X258207Y228801D01*
X258671Y229496D01*
X258834Y230315D01*
X258671Y231134D01*
X258207Y231829D01*
X257512Y232293D01*
X256693Y232456D01*
X255873Y232293D01*
X255179Y231829D01*
X254715Y231134D01*
X254552Y230315D01*
X254715Y229496D01*
X255179Y228801D01*
X255775Y228402D01*
Y213307D01*
X255845Y212956D01*
X256044Y212658D01*
X256341Y212361D01*
X256209Y212189D01*
X255772Y211133D01*
X255622Y210000D01*
X255772Y208867D01*
X256209Y207811D01*
X256905Y206905D01*
X257811Y206209D01*
X258867Y205772D01*
X260000Y205622D01*
X261133Y205772D01*
X262189Y206209D01*
X263095Y206905D01*
X263543Y207488D01*
X264043Y207318D01*
Y205341D01*
X262361Y203659D01*
X262189Y203791D01*
X261133Y204228D01*
X260000Y204378D01*
X258867Y204228D01*
X257811Y203791D01*
X256905Y203095D01*
X256209Y202189D01*
X255772Y201133D01*
X255622Y200000D01*
X255772Y198867D01*
X256209Y197811D01*
X256905Y196905D01*
X257811Y196209D01*
X258867Y195772D01*
X260000Y195622D01*
X261133Y195772D01*
X262189Y196209D01*
X263095Y196905D01*
X263791Y197811D01*
X264228Y198867D01*
X264378Y200000D01*
X264228Y201133D01*
X263791Y202189D01*
X263659Y202361D01*
X265610Y204312D01*
X265808Y204609D01*
X265878Y204961D01*
Y207421D01*
X266378Y207591D01*
X266905Y206905D01*
X267811Y206209D01*
X268867Y205772D01*
X270000Y205622D01*
X271133Y205772D01*
X272189Y206209D01*
X273095Y206905D01*
X273386Y207283D01*
X273885Y207113D01*
Y205197D01*
X273955Y204846D01*
X274154Y204548D01*
X276341Y202361D01*
X276209Y202189D01*
X275772Y201133D01*
X275622Y200000D01*
X275772Y198867D01*
X276209Y197811D01*
X276905Y196905D01*
X277811Y196209D01*
X278867Y195772D01*
X280000Y195622D01*
X281133Y195772D01*
X282189Y196209D01*
X283095Y196905D01*
X283791Y197811D01*
X284228Y198867D01*
X284378Y200000D01*
X284228Y201133D01*
X283791Y202189D01*
X283095Y203095D01*
X282189Y203791D01*
X281133Y204228D01*
X280000Y204378D01*
X278867Y204228D01*
X277811Y203791D01*
X277639Y203659D01*
X275721Y205577D01*
Y207683D01*
X276170Y207801D01*
X276221Y207796D01*
X276905Y206905D01*
X277811Y206209D01*
X278867Y205772D01*
X280000Y205622D01*
X281133Y205772D01*
X282189Y206209D01*
X283095Y206905D01*
X283622Y207591D01*
X284122Y207421D01*
Y204961D01*
X284192Y204609D01*
X284390Y204312D01*
X286341Y202361D01*
X286209Y202189D01*
X285772Y201133D01*
X285622Y200000D01*
X285772Y198867D01*
X286209Y197811D01*
X286905Y196905D01*
X287811Y196209D01*
X288867Y195772D01*
X290000Y195622D01*
X291133Y195772D01*
X292189Y196209D01*
X293095Y196905D01*
X293791Y197811D01*
X294228Y198867D01*
X294378Y200000D01*
X294228Y201133D01*
X293791Y202189D01*
X293095Y203095D01*
X292189Y203791D01*
X291133Y204228D01*
X290000Y204378D01*
X288867Y204228D01*
X287811Y203791D01*
X287639Y203659D01*
X285957Y205341D01*
Y207318D01*
X286457Y207488D01*
X286905Y206905D01*
X287811Y206209D01*
X288867Y205772D01*
X290000Y205622D01*
X291133Y205772D01*
X292189Y206209D01*
X293095Y206905D01*
X293791Y207811D01*
X294228Y208867D01*
X294378Y210000D01*
X294228Y211133D01*
X293791Y212189D01*
X293095Y213095D01*
X292189Y213791D01*
X291133Y214228D01*
X290000Y214378D01*
X288867Y214228D01*
X287811Y213791D01*
X286905Y213095D01*
X286457Y212512D01*
X285957Y212682D01*
Y226434D01*
X286553Y226833D01*
X287017Y227527D01*
X287180Y228346D01*
X287017Y229166D01*
X286553Y229860D01*
X285859Y230325D01*
X285039Y230488D01*
X284220Y230325D01*
X283525Y229860D01*
X283061Y229166D01*
X282898Y228346D01*
X283061Y227527D01*
X283525Y226833D01*
X284122Y226434D01*
Y212579D01*
X283622Y212409D01*
X283095Y213095D01*
X282189Y213791D01*
X281133Y214228D01*
X280000Y214378D01*
X278867Y214228D01*
X277811Y213791D01*
X276905Y213095D01*
X276221Y212204D01*
X276170Y212199D01*
X275721Y212317D01*
Y225604D01*
X282270Y232153D01*
X284308D01*
X284706Y231557D01*
X285401Y231093D01*
X286221Y230930D01*
X287040Y231093D01*
X287735Y231557D01*
X288199Y232252D01*
X288362Y233071D01*
X288199Y233890D01*
X287735Y234585D01*
X287040Y235049D01*
X286221Y235212D01*
D02*
G37*
G36*
X320000Y214378D02*
X318867Y214228D01*
X317811Y213791D01*
X316905Y213095D01*
X316209Y212189D01*
X315772Y211133D01*
X315622Y210000D01*
X315772Y208867D01*
X316209Y207811D01*
X316905Y206905D01*
X317811Y206209D01*
X318867Y205772D01*
X320000Y205622D01*
X321133Y205772D01*
X322189Y206209D01*
X323095Y206905D01*
X323791Y207811D01*
X324228Y208867D01*
X324378Y210000D01*
X324228Y211133D01*
X323791Y212189D01*
X323095Y213095D01*
X322189Y213791D01*
X321133Y214228D01*
X320000Y214378D01*
D02*
G37*
G36*
X435000Y212521D02*
X433725Y212396D01*
X432498Y212024D01*
X431368Y211420D01*
X430378Y210607D01*
X429565Y209616D01*
X428961Y208486D01*
X428589Y207259D01*
X428463Y205984D01*
X428589Y204709D01*
X428961Y203483D01*
X429565Y202352D01*
X430378Y201362D01*
X431368Y200549D01*
X432498Y199945D01*
X433725Y199573D01*
X435000Y199447D01*
X436275Y199573D01*
X437502Y199945D01*
X438632Y200549D01*
X439622Y201362D01*
X440435Y202352D01*
X441039Y203483D01*
X441411Y204709D01*
X441537Y205984D01*
X441411Y207259D01*
X441039Y208486D01*
X440435Y209616D01*
X439622Y210607D01*
X438632Y211420D01*
X437502Y212024D01*
X436275Y212396D01*
X435000Y212521D01*
D02*
G37*
G36*
X310000Y204378D02*
X308867Y204228D01*
X307811Y203791D01*
X306905Y203095D01*
X306209Y202189D01*
X305772Y201133D01*
X305622Y200000D01*
X305772Y198867D01*
X306209Y197811D01*
X306905Y196905D01*
X307811Y196209D01*
X308867Y195772D01*
X310000Y195622D01*
X311133Y195772D01*
X312189Y196209D01*
X313095Y196905D01*
X313791Y197811D01*
X314228Y198867D01*
X314378Y200000D01*
X314228Y201133D01*
X313791Y202189D01*
X313095Y203095D01*
X312189Y203791D01*
X311133Y204228D01*
X310000Y204378D01*
D02*
G37*
G36*
X300000D02*
X298867Y204228D01*
X297811Y203791D01*
X296905Y203095D01*
X296209Y202189D01*
X295772Y201133D01*
X295622Y200000D01*
X295772Y198867D01*
X296209Y197811D01*
X296905Y196905D01*
X297811Y196209D01*
X298867Y195772D01*
X300000Y195622D01*
X301133Y195772D01*
X302189Y196209D01*
X303095Y196905D01*
X303791Y197811D01*
X304228Y198867D01*
X304378Y200000D01*
X304228Y201133D01*
X303791Y202189D01*
X303095Y203095D01*
X302189Y203791D01*
X301133Y204228D01*
X300000Y204378D01*
D02*
G37*
G36*
X270000D02*
X268867Y204228D01*
X267811Y203791D01*
X266905Y203095D01*
X266209Y202189D01*
X265772Y201133D01*
X265622Y200000D01*
X265772Y198867D01*
X266209Y197811D01*
X266905Y196905D01*
X267811Y196209D01*
X268867Y195772D01*
X270000Y195622D01*
X271133Y195772D01*
X272189Y196209D01*
X273095Y196905D01*
X273791Y197811D01*
X274228Y198867D01*
X274378Y200000D01*
X274228Y201133D01*
X273791Y202189D01*
X273095Y203095D01*
X272189Y203791D01*
X271133Y204228D01*
X270000Y204378D01*
D02*
G37*
G36*
X317500Y197500D02*
X315944D01*
X316619Y196619D01*
X317500Y195943D01*
Y197500D01*
D02*
G37*
G36*
X365000Y212521D02*
X363725Y212396D01*
X362498Y212024D01*
X361368Y211420D01*
X360378Y210607D01*
X359565Y209616D01*
X358961Y208486D01*
X358589Y207259D01*
X358463Y205984D01*
X358589Y204709D01*
X358961Y203483D01*
X359565Y202352D01*
X360378Y201362D01*
X361368Y200549D01*
X362498Y199945D01*
X363725Y199573D01*
X365000Y199447D01*
X366275Y199573D01*
X367502Y199945D01*
X368632Y200549D01*
X369622Y201362D01*
X370435Y202352D01*
X371039Y203483D01*
X371411Y204709D01*
X371537Y205984D01*
X371411Y207259D01*
X371039Y208486D01*
X370435Y209616D01*
X369622Y210607D01*
X368632Y211420D01*
X367502Y212024D01*
X366275Y212396D01*
X365000Y212521D01*
D02*
G37*
G36*
X133000Y211537D02*
X131725Y211411D01*
X130498Y211039D01*
X129368Y210435D01*
X128378Y209622D01*
X127565Y208632D01*
X126961Y207502D01*
X126589Y206275D01*
X126463Y205000D01*
X126589Y203725D01*
X126961Y202498D01*
X127565Y201368D01*
X128378Y200378D01*
X129368Y199565D01*
X130498Y198961D01*
X131725Y198589D01*
X133000Y198463D01*
X134275Y198589D01*
X135502Y198961D01*
X136632Y199565D01*
X137622Y200378D01*
X138435Y201368D01*
X139039Y202498D01*
X139411Y203725D01*
X139537Y205000D01*
X139411Y206275D01*
X139039Y207502D01*
X138435Y208632D01*
X137622Y209622D01*
X136632Y210435D01*
X135502Y211039D01*
X134275Y211411D01*
X133000Y211537D01*
D02*
G37*
G36*
X324057Y197500D02*
X322500D01*
Y195943D01*
X323381Y196619D01*
X324057Y197500D01*
D02*
G37*
G36*
X138768Y231240D02*
X135667D01*
X136156Y230325D01*
X136921Y229393D01*
X137852Y228628D01*
X138768Y228139D01*
Y231240D01*
D02*
G37*
G36*
X141268Y261161D02*
X139775Y260965D01*
X138384Y260388D01*
X137189Y259472D01*
X136273Y258277D01*
X135697Y256886D01*
X135500Y255394D01*
X135697Y253901D01*
X136273Y252510D01*
X137189Y251315D01*
X138384Y250399D01*
X139775Y249823D01*
X141268Y249626D01*
X142760Y249823D01*
X144151Y250399D01*
X145346Y251315D01*
X146263Y252510D01*
X146839Y253901D01*
X147035Y255394D01*
X146839Y256886D01*
X146263Y258277D01*
X145346Y259472D01*
X144151Y260388D01*
X142760Y260965D01*
X141268Y261161D01*
D02*
G37*
G36*
X124732D02*
X123240Y260965D01*
X121849Y260388D01*
X120654Y259472D01*
X119738Y258277D01*
X119161Y256886D01*
X118965Y255394D01*
X119161Y253901D01*
X119738Y252510D01*
X120654Y251315D01*
X121849Y250399D01*
X123240Y249823D01*
X124732Y249626D01*
X126225Y249823D01*
X127616Y250399D01*
X128811Y251315D01*
X129727Y252510D01*
X130303Y253901D01*
X130500Y255394D01*
X130303Y256886D01*
X129727Y258277D01*
X128811Y259472D01*
X127616Y260388D01*
X126225Y260965D01*
X124732Y261161D01*
D02*
G37*
G36*
X468504Y254378D02*
X467371Y254228D01*
X466315Y253791D01*
X465409Y253095D01*
X464713Y252189D01*
X464276Y251133D01*
X464126Y250000D01*
X464276Y248867D01*
X464713Y247811D01*
X465409Y246905D01*
X466315Y246209D01*
X467371Y245772D01*
X468504Y245622D01*
X469637Y245772D01*
X470693Y246209D01*
X471599Y246905D01*
X472295Y247811D01*
X472732Y248867D01*
X472882Y250000D01*
X472732Y251133D01*
X472295Y252189D01*
X471599Y253095D01*
X470693Y253791D01*
X469637Y254228D01*
X468504Y254378D01*
D02*
G37*
G36*
X356732Y262145D02*
X355240Y261949D01*
X353849Y261373D01*
X352654Y260456D01*
X351737Y259262D01*
X351161Y257871D01*
X350965Y256378D01*
X351161Y254885D01*
X351737Y253494D01*
X352654Y252300D01*
X353849Y251383D01*
X355240Y250807D01*
X356732Y250610D01*
X358225Y250807D01*
X359616Y251383D01*
X360810Y252300D01*
X361727Y253494D01*
X362303Y254885D01*
X362500Y256378D01*
X362303Y257871D01*
X361727Y259262D01*
X360810Y260456D01*
X359616Y261373D01*
X358225Y261949D01*
X356732Y262145D01*
D02*
G37*
G36*
X468504Y264378D02*
X467371Y264228D01*
X466315Y263791D01*
X465409Y263095D01*
X464713Y262189D01*
X464276Y261133D01*
X464126Y260000D01*
X464276Y258867D01*
X464713Y257811D01*
X465409Y256905D01*
X466315Y256209D01*
X467371Y255772D01*
X468504Y255622D01*
X469637Y255772D01*
X470693Y256209D01*
X471599Y256905D01*
X472295Y257811D01*
X472732Y258867D01*
X472882Y260000D01*
X472732Y261133D01*
X472295Y262189D01*
X471599Y263095D01*
X470693Y263791D01*
X469637Y264228D01*
X468504Y264378D01*
D02*
G37*
G36*
X435000Y262145D02*
X433507Y261949D01*
X432116Y261373D01*
X430922Y260456D01*
X430005Y259262D01*
X429429Y257871D01*
X429233Y256378D01*
X429429Y254885D01*
X430005Y253494D01*
X430922Y252300D01*
X432116Y251383D01*
X433507Y250807D01*
X435000Y250610D01*
X436493Y250807D01*
X437884Y251383D01*
X439078Y252300D01*
X439995Y253494D01*
X440571Y254885D01*
X440767Y256378D01*
X440571Y257871D01*
X439995Y259262D01*
X439078Y260456D01*
X437884Y261373D01*
X436493Y261949D01*
X435000Y262145D01*
D02*
G37*
G36*
X373268D02*
X371775Y261949D01*
X370384Y261373D01*
X369190Y260456D01*
X368273Y259262D01*
X367697Y257871D01*
X367500Y256378D01*
X367697Y254885D01*
X368273Y253494D01*
X369190Y252300D01*
X370384Y251383D01*
X371775Y250807D01*
X373268Y250610D01*
X374760Y250807D01*
X376151Y251383D01*
X377346Y252300D01*
X378262Y253494D01*
X378839Y254885D01*
X379035Y256378D01*
X378839Y257871D01*
X378262Y259262D01*
X377346Y260456D01*
X376151Y261373D01*
X374760Y261949D01*
X373268Y262145D01*
D02*
G37*
G36*
X320079Y249385D02*
X261811D01*
X260992Y249222D01*
X260297Y248758D01*
X259833Y248063D01*
X259670Y247244D01*
X259833Y246425D01*
X260297Y245730D01*
X260992Y245266D01*
X261811Y245103D01*
X320079D01*
X320898Y245266D01*
X321593Y245730D01*
X322057Y246425D01*
X322220Y247244D01*
X322057Y248063D01*
X321593Y248758D01*
X320898Y249222D01*
X320079Y249385D01*
D02*
G37*
G36*
X440601Y232224D02*
X437500D01*
Y229123D01*
X438415Y229613D01*
X439347Y230377D01*
X440112Y231309D01*
X440601Y232224D01*
D02*
G37*
G36*
X432500D02*
X429399D01*
X429888Y231309D01*
X430653Y230377D01*
X431585Y229613D01*
X432500Y229123D01*
Y232224D01*
D02*
G37*
G36*
X146869Y231240D02*
X143768D01*
Y228139D01*
X144683Y228628D01*
X145615Y229393D01*
X146379Y230325D01*
X146869Y231240D01*
D02*
G37*
G36*
X138768Y239341D02*
X137852Y238852D01*
X136921Y238087D01*
X136156Y237156D01*
X135667Y236240D01*
X138768D01*
Y239341D01*
D02*
G37*
G36*
X437500Y240325D02*
Y237224D01*
X440601D01*
X440112Y238140D01*
X439347Y239071D01*
X438415Y239836D01*
X437500Y240325D01*
D02*
G37*
G36*
X432500D02*
X431585Y239836D01*
X430653Y239071D01*
X429888Y238140D01*
X429399Y237224D01*
X432500D01*
Y240325D01*
D02*
G37*
G36*
X143768Y239341D02*
Y236240D01*
X146869D01*
X146379Y237156D01*
X145615Y238087D01*
X144683Y238852D01*
X143768Y239341D01*
D02*
G37*
G36*
X129709Y451153D02*
X128473Y450990D01*
X127321Y450513D01*
X126332Y449754D01*
X125574Y448765D01*
X125097Y447614D01*
X124934Y446378D01*
X125097Y445142D01*
X125574Y443991D01*
X126332Y443002D01*
X127321Y442243D01*
X128473Y441766D01*
X129709Y441603D01*
X130945Y441766D01*
X132096Y442243D01*
X133085Y443002D01*
X133844Y443991D01*
X134321Y445142D01*
X134483Y446378D01*
X134321Y447614D01*
X133844Y448765D01*
X133085Y449754D01*
X132096Y450513D01*
X130945Y450990D01*
X129709Y451153D01*
D02*
G37*
G36*
X226041Y455689D02*
X224020D01*
Y453668D01*
X224109Y453705D01*
X225181Y454528D01*
X226004Y455600D01*
X226041Y455689D01*
D02*
G37*
G36*
X195398D02*
X193376D01*
X193413Y455600D01*
X194236Y454528D01*
X195309Y453705D01*
X195398Y453668D01*
Y455689D01*
D02*
G37*
G36*
X451520Y462964D02*
X450284Y462801D01*
X449132Y462324D01*
X448143Y461565D01*
X447385Y460576D01*
X446908Y459425D01*
X446745Y458189D01*
X446908Y456953D01*
X447385Y455802D01*
X448143Y454813D01*
X449132Y454054D01*
X450284Y453577D01*
X451520Y453414D01*
X452755Y453577D01*
X453907Y454054D01*
X454896Y454813D01*
X455655Y455802D01*
X456132Y456953D01*
X456294Y458189D01*
X456132Y459425D01*
X455655Y460576D01*
X454896Y461565D01*
X453907Y462324D01*
X452755Y462801D01*
X451520Y462964D01*
D02*
G37*
G36*
X230831Y455689D02*
X228809D01*
X228846Y455600D01*
X229669Y454528D01*
X230742Y453705D01*
X230831Y453668D01*
Y455689D01*
D02*
G37*
G36*
X214230D02*
X212209D01*
Y453668D01*
X212298Y453705D01*
X213370Y454528D01*
X214193Y455600D01*
X214230Y455689D01*
D02*
G37*
G36*
X219020D02*
X216998D01*
X217035Y455600D01*
X217858Y454528D01*
X218931Y453705D01*
X219020Y453668D01*
Y455689D01*
D02*
G37*
G36*
X207209D02*
X205187D01*
X205224Y455600D01*
X206047Y454528D01*
X207120Y453705D01*
X207209Y453668D01*
Y455689D01*
D02*
G37*
G36*
X202419D02*
X200398D01*
Y453668D01*
X200487Y453705D01*
X201559Y454528D01*
X202382Y455600D01*
X202419Y455689D01*
D02*
G37*
G36*
X304331Y462964D02*
X303095Y462801D01*
X301943Y462324D01*
X300955Y461565D01*
X300196Y460576D01*
X299719Y459425D01*
X299556Y458189D01*
X299719Y456953D01*
X300196Y455802D01*
X300955Y454813D01*
X301943Y454054D01*
X303095Y453577D01*
X304331Y453414D01*
X305567Y453577D01*
X306718Y454054D01*
X307707Y454813D01*
X308466Y455802D01*
X308943Y456953D01*
X309105Y458189D01*
X308943Y459425D01*
X308466Y460576D01*
X307707Y461565D01*
X306718Y462324D01*
X305567Y462801D01*
X304331Y462964D01*
D02*
G37*
G36*
X350709D02*
X349473Y462801D01*
X348321Y462324D01*
X347332Y461565D01*
X346574Y460576D01*
X346097Y459425D01*
X345934Y458189D01*
X346097Y456953D01*
X346574Y455802D01*
X347332Y454813D01*
X348321Y454054D01*
X349473Y453577D01*
X350709Y453414D01*
X351944Y453577D01*
X353096Y454054D01*
X354085Y454813D01*
X354844Y455802D01*
X355321Y456953D01*
X355483Y458189D01*
X355321Y459425D01*
X354844Y460576D01*
X354085Y461565D01*
X353096Y462324D01*
X351944Y462801D01*
X350709Y462964D01*
D02*
G37*
G36*
X280709D02*
X279473Y462801D01*
X278321Y462324D01*
X277332Y461565D01*
X276574Y460576D01*
X276097Y459425D01*
X275934Y458189D01*
X276097Y456953D01*
X276574Y455802D01*
X277332Y454813D01*
X278321Y454054D01*
X279473Y453577D01*
X280709Y453414D01*
X281944Y453577D01*
X283096Y454054D01*
X284085Y454813D01*
X284844Y455802D01*
X285321Y456953D01*
X285483Y458189D01*
X285321Y459425D01*
X284844Y460576D01*
X284085Y461565D01*
X283096Y462324D01*
X281944Y462801D01*
X280709Y462964D01*
D02*
G37*
G36*
X292520D02*
X291284Y462801D01*
X290132Y462324D01*
X289143Y461565D01*
X288385Y460576D01*
X287908Y459425D01*
X287745Y458189D01*
X287908Y456953D01*
X288385Y455802D01*
X289143Y454813D01*
X290132Y454054D01*
X291284Y453577D01*
X292520Y453414D01*
X293756Y453577D01*
X294907Y454054D01*
X295896Y454813D01*
X296655Y455802D01*
X297132Y456953D01*
X297294Y458189D01*
X297132Y459425D01*
X296655Y460576D01*
X295896Y461565D01*
X294907Y462324D01*
X293756Y462801D01*
X292520Y462964D01*
D02*
G37*
G36*
X427898D02*
X426662Y462801D01*
X425510Y462324D01*
X424521Y461565D01*
X423763Y460576D01*
X423286Y459425D01*
X423123Y458189D01*
X423286Y456953D01*
X423763Y455802D01*
X424521Y454813D01*
X425510Y454054D01*
X426662Y453577D01*
X427898Y453414D01*
X429133Y453577D01*
X430285Y454054D01*
X431274Y454813D01*
X432033Y455802D01*
X432510Y456953D01*
X432672Y458189D01*
X432510Y459425D01*
X432033Y460576D01*
X431274Y461565D01*
X430285Y462324D01*
X429133Y462801D01*
X427898Y462964D01*
D02*
G37*
G36*
X439709D02*
X438473Y462801D01*
X437321Y462324D01*
X436332Y461565D01*
X435574Y460576D01*
X435097Y459425D01*
X434934Y458189D01*
X435097Y456953D01*
X435574Y455802D01*
X436332Y454813D01*
X437321Y454054D01*
X438473Y453577D01*
X439709Y453414D01*
X440944Y453577D01*
X442096Y454054D01*
X443085Y454813D01*
X443844Y455802D01*
X444321Y456953D01*
X444483Y458189D01*
X444321Y459425D01*
X443844Y460576D01*
X443085Y461565D01*
X442096Y462324D01*
X440944Y462801D01*
X439709Y462964D01*
D02*
G37*
G36*
X362520D02*
X361284Y462801D01*
X360132Y462324D01*
X359143Y461565D01*
X358385Y460576D01*
X357908Y459425D01*
X357745Y458189D01*
X357908Y456953D01*
X358385Y455802D01*
X359143Y454813D01*
X360132Y454054D01*
X361284Y453577D01*
X362520Y453414D01*
X363755Y453577D01*
X364907Y454054D01*
X365896Y454813D01*
X366655Y455802D01*
X367132Y456953D01*
X367294Y458189D01*
X367132Y459425D01*
X366655Y460576D01*
X365896Y461565D01*
X364907Y462324D01*
X363755Y462801D01*
X362520Y462964D01*
D02*
G37*
G36*
X374331D02*
X373095Y462801D01*
X371943Y462324D01*
X370954Y461565D01*
X370196Y460576D01*
X369719Y459425D01*
X369556Y458189D01*
X369719Y456953D01*
X370196Y455802D01*
X370954Y454813D01*
X371943Y454054D01*
X373095Y453577D01*
X374331Y453414D01*
X375567Y453577D01*
X376718Y454054D01*
X377707Y454813D01*
X378466Y455802D01*
X378943Y456953D01*
X379105Y458189D01*
X378943Y459425D01*
X378466Y460576D01*
X377707Y461565D01*
X376718Y462324D01*
X375567Y462801D01*
X374331Y462964D01*
D02*
G37*
G36*
X206323Y481932D02*
X205009Y481802D01*
X203746Y481419D01*
X202581Y480797D01*
X201561Y479959D01*
X200723Y478938D01*
X200101Y477774D01*
X199717Y476511D01*
X199588Y475197D01*
X199717Y473883D01*
X200101Y472620D01*
X200723Y471455D01*
X201561Y470435D01*
X202581Y469597D01*
X203746Y468975D01*
X205009Y468591D01*
X206323Y468462D01*
X207637Y468591D01*
X208900Y468975D01*
X210065Y469597D01*
X211085Y470435D01*
X211923Y471455D01*
X212545Y472620D01*
X212928Y473883D01*
X213058Y475197D01*
X212928Y476511D01*
X212545Y477774D01*
X211923Y478938D01*
X211085Y479959D01*
X210065Y480797D01*
X208900Y481419D01*
X207637Y481802D01*
X206323Y481932D01*
D02*
G37*
G36*
X224827D02*
X223513Y481802D01*
X222250Y481419D01*
X221085Y480797D01*
X220065Y479959D01*
X219227Y478938D01*
X218605Y477774D01*
X218221Y476511D01*
X218092Y475197D01*
X218221Y473883D01*
X218605Y472620D01*
X219227Y471455D01*
X220065Y470435D01*
X221085Y469597D01*
X222250Y468975D01*
X223513Y468591D01*
X224827Y468462D01*
X226141Y468591D01*
X227404Y468975D01*
X228568Y469597D01*
X229589Y470435D01*
X230427Y471455D01*
X231049Y472620D01*
X231432Y473883D01*
X231562Y475197D01*
X231432Y476511D01*
X231049Y477774D01*
X230427Y478938D01*
X229589Y479959D01*
X228568Y480797D01*
X227404Y481419D01*
X226141Y481802D01*
X224827Y481932D01*
D02*
G37*
G36*
X235831Y462710D02*
Y460689D01*
X237852D01*
X237815Y460778D01*
X236992Y461851D01*
X235920Y462673D01*
X235831Y462710D01*
D02*
G37*
G36*
X141520Y481932D02*
X140206Y481802D01*
X138942Y481419D01*
X137778Y480797D01*
X136758Y479959D01*
X135920Y478938D01*
X135298Y477774D01*
X134914Y476511D01*
X134785Y475197D01*
X134914Y473883D01*
X135298Y472620D01*
X135920Y471455D01*
X136758Y470435D01*
X137778Y469597D01*
X138942Y468975D01*
X140206Y468591D01*
X141520Y468462D01*
X142834Y468591D01*
X144097Y468975D01*
X145261Y469597D01*
X146282Y470435D01*
X147119Y471455D01*
X147742Y472620D01*
X148125Y473883D01*
X148255Y475197D01*
X148125Y476511D01*
X147742Y477774D01*
X147119Y478938D01*
X146282Y479959D01*
X145261Y480797D01*
X144097Y481419D01*
X142834Y481802D01*
X141520Y481932D01*
D02*
G37*
G36*
X424512D02*
X423198Y481802D01*
X421935Y481419D01*
X420770Y480797D01*
X419750Y479959D01*
X418912Y478938D01*
X418290Y477774D01*
X417906Y476511D01*
X417777Y475197D01*
X417906Y473883D01*
X418290Y472620D01*
X418912Y471455D01*
X419750Y470435D01*
X420770Y469597D01*
X421935Y468975D01*
X423198Y468591D01*
X424512Y468462D01*
X425826Y468591D01*
X427089Y468975D01*
X428254Y469597D01*
X429274Y470435D01*
X430112Y471455D01*
X430734Y472620D01*
X431117Y473883D01*
X431247Y475197D01*
X431117Y476511D01*
X430734Y477774D01*
X430112Y478938D01*
X429274Y479959D01*
X428254Y480797D01*
X427089Y481419D01*
X425826Y481802D01*
X424512Y481932D01*
D02*
G37*
G36*
X454827D02*
X453513Y481802D01*
X452249Y481419D01*
X451085Y480797D01*
X450065Y479959D01*
X449227Y478938D01*
X448605Y477774D01*
X448221Y476511D01*
X448092Y475197D01*
X448221Y473883D01*
X448605Y472620D01*
X449227Y471455D01*
X450065Y470435D01*
X451085Y469597D01*
X452249Y468975D01*
X453513Y468591D01*
X454827Y468462D01*
X456141Y468591D01*
X457404Y468975D01*
X458568Y469597D01*
X459589Y470435D01*
X460427Y471455D01*
X461049Y472620D01*
X461432Y473883D01*
X461562Y475197D01*
X461432Y476511D01*
X461049Y477774D01*
X460427Y478938D01*
X459589Y479959D01*
X458568Y480797D01*
X457404Y481419D01*
X456141Y481802D01*
X454827Y481932D01*
D02*
G37*
G36*
X292520D02*
X291206Y481802D01*
X289942Y481419D01*
X288778Y480797D01*
X287757Y479959D01*
X286920Y478938D01*
X286298Y477774D01*
X285914Y476511D01*
X285785Y475197D01*
X285914Y473883D01*
X286298Y472620D01*
X286920Y471455D01*
X287757Y470435D01*
X288778Y469597D01*
X289942Y468975D01*
X291206Y468591D01*
X292520Y468462D01*
X293834Y468591D01*
X295097Y468975D01*
X296261Y469597D01*
X297282Y470435D01*
X298119Y471455D01*
X298742Y472620D01*
X299125Y473883D01*
X299254Y475197D01*
X299125Y476511D01*
X298742Y477774D01*
X298119Y478938D01*
X297282Y479959D01*
X296261Y480797D01*
X295097Y481419D01*
X293834Y481802D01*
X292520Y481932D01*
D02*
G37*
G36*
X362520D02*
X361206Y481802D01*
X359942Y481419D01*
X358778Y480797D01*
X357757Y479959D01*
X356920Y478938D01*
X356298Y477774D01*
X355914Y476511D01*
X355785Y475197D01*
X355914Y473883D01*
X356298Y472620D01*
X356920Y471455D01*
X357757Y470435D01*
X358778Y469597D01*
X359942Y468975D01*
X361206Y468591D01*
X362520Y468462D01*
X363834Y468591D01*
X365097Y468975D01*
X366261Y469597D01*
X367282Y470435D01*
X368120Y471455D01*
X368742Y472620D01*
X369125Y473883D01*
X369254Y475197D01*
X369125Y476511D01*
X368742Y477774D01*
X368120Y478938D01*
X367282Y479959D01*
X366261Y480797D01*
X365097Y481419D01*
X363834Y481802D01*
X362520Y481932D01*
D02*
G37*
G36*
X195398Y462710D02*
X195309Y462673D01*
X194236Y461851D01*
X193413Y460778D01*
X193376Y460689D01*
X195398D01*
Y462710D01*
D02*
G37*
G36*
X207209D02*
X207120Y462673D01*
X206047Y461851D01*
X205224Y460778D01*
X205187Y460689D01*
X207209D01*
Y462710D01*
D02*
G37*
G36*
X237852Y455689D02*
X235831D01*
Y453668D01*
X235920Y453705D01*
X236992Y454528D01*
X237815Y455600D01*
X237852Y455689D01*
D02*
G37*
G36*
X230831Y462710D02*
X230742Y462673D01*
X229669Y461851D01*
X228846Y460778D01*
X228809Y460689D01*
X230831D01*
Y462710D01*
D02*
G37*
G36*
X200398Y462710D02*
Y460689D01*
X202419D01*
X202382Y460778D01*
X201559Y461851D01*
X200487Y462673D01*
X200398Y462710D01*
D02*
G37*
G36*
X212209D02*
Y460689D01*
X214230D01*
X214193Y460778D01*
X213370Y461851D01*
X212298Y462673D01*
X212209Y462710D01*
D02*
G37*
G36*
X219020Y462710D02*
X218931Y462673D01*
X217858Y461851D01*
X217035Y460778D01*
X216998Y460689D01*
X219020D01*
Y462710D01*
D02*
G37*
G36*
X224020Y462710D02*
Y460689D01*
X226041D01*
X226004Y460778D01*
X225181Y461851D01*
X224109Y462673D01*
X224020Y462710D01*
D02*
G37*
G36*
X451520Y451153D02*
X450284Y450990D01*
X449132Y450513D01*
X448143Y449754D01*
X447385Y448765D01*
X446908Y447614D01*
X446745Y446378D01*
X446908Y445142D01*
X447385Y443991D01*
X448143Y443002D01*
X449132Y442243D01*
X450284Y441766D01*
X451520Y441603D01*
X452755Y441766D01*
X453907Y442243D01*
X454896Y443002D01*
X455655Y443991D01*
X456132Y445142D01*
X456294Y446378D01*
X456132Y447614D01*
X455655Y448765D01*
X454896Y449754D01*
X453907Y450513D01*
X452755Y450990D01*
X451520Y451153D01*
D02*
G37*
G36*
X439709D02*
X438473Y450990D01*
X437321Y450513D01*
X436332Y449754D01*
X435574Y448765D01*
X435097Y447614D01*
X434934Y446378D01*
X435097Y445142D01*
X435574Y443991D01*
X436332Y443002D01*
X437321Y442243D01*
X438473Y441766D01*
X439709Y441603D01*
X440944Y441766D01*
X442096Y442243D01*
X443085Y443002D01*
X443844Y443991D01*
X444321Y445142D01*
X444483Y446378D01*
X444321Y447614D01*
X443844Y448765D01*
X443085Y449754D01*
X442096Y450513D01*
X440944Y450990D01*
X439709Y451153D01*
D02*
G37*
G36*
X362520D02*
X361284Y450990D01*
X360132Y450513D01*
X359143Y449754D01*
X358385Y448765D01*
X357908Y447614D01*
X357745Y446378D01*
X357908Y445142D01*
X358385Y443991D01*
X359143Y443002D01*
X360132Y442243D01*
X361284Y441766D01*
X362520Y441603D01*
X363755Y441766D01*
X364907Y442243D01*
X365896Y443002D01*
X366655Y443991D01*
X367132Y445142D01*
X367294Y446378D01*
X367132Y447614D01*
X366655Y448765D01*
X365896Y449754D01*
X364907Y450513D01*
X363755Y450990D01*
X362520Y451153D01*
D02*
G37*
G36*
X371831Y443878D02*
X369809D01*
X369846Y443789D01*
X370669Y442716D01*
X371742Y441893D01*
X371831Y441857D01*
Y443878D01*
D02*
G37*
G36*
X150831D02*
X148809D01*
X148846Y443789D01*
X149669Y442716D01*
X150742Y441893D01*
X150831Y441857D01*
Y443878D01*
D02*
G37*
G36*
X301831D02*
X299809D01*
X299846Y443789D01*
X300669Y442716D01*
X301742Y441893D01*
X301831Y441857D01*
Y443878D01*
D02*
G37*
G36*
X460831D02*
X458809D01*
X458846Y443789D01*
X459669Y442716D01*
X460742Y441893D01*
X460831Y441857D01*
Y443878D01*
D02*
G37*
G36*
X350709Y451153D02*
X349473Y450990D01*
X348321Y450513D01*
X347332Y449754D01*
X346574Y448765D01*
X346097Y447614D01*
X345934Y446378D01*
X346097Y445142D01*
X346574Y443991D01*
X347332Y443002D01*
X348321Y442243D01*
X349473Y441766D01*
X350709Y441603D01*
X351944Y441766D01*
X353096Y442243D01*
X354085Y443002D01*
X354844Y443991D01*
X355321Y445142D01*
X355483Y446378D01*
X355321Y447614D01*
X354844Y448765D01*
X354085Y449754D01*
X353096Y450513D01*
X351944Y450990D01*
X350709Y451153D01*
D02*
G37*
G36*
X209709D02*
X208473Y450990D01*
X207321Y450513D01*
X206332Y449754D01*
X205574Y448765D01*
X205097Y447614D01*
X204934Y446378D01*
X205097Y445142D01*
X205574Y443991D01*
X206332Y443002D01*
X207321Y442243D01*
X208473Y441766D01*
X209709Y441603D01*
X210945Y441766D01*
X212096Y442243D01*
X213085Y443002D01*
X213844Y443991D01*
X214321Y445142D01*
X214483Y446378D01*
X214321Y447614D01*
X213844Y448765D01*
X213085Y449754D01*
X212096Y450513D01*
X210945Y450990D01*
X209709Y451153D01*
D02*
G37*
G36*
X197898D02*
X196662Y450990D01*
X195510Y450513D01*
X194521Y449754D01*
X193763Y448765D01*
X193286Y447614D01*
X193123Y446378D01*
X193286Y445142D01*
X193763Y443991D01*
X194521Y443002D01*
X195510Y442243D01*
X196662Y441766D01*
X197898Y441603D01*
X199133Y441766D01*
X200285Y442243D01*
X201274Y443002D01*
X202033Y443991D01*
X202510Y445142D01*
X202672Y446378D01*
X202510Y447614D01*
X202033Y448765D01*
X201274Y449754D01*
X200285Y450513D01*
X199133Y450990D01*
X197898Y451153D01*
D02*
G37*
G36*
X141520D02*
X140284Y450990D01*
X139132Y450513D01*
X138144Y449754D01*
X137385Y448765D01*
X136908Y447614D01*
X136745Y446378D01*
X136908Y445142D01*
X137385Y443991D01*
X138144Y443002D01*
X139132Y442243D01*
X140284Y441766D01*
X141520Y441603D01*
X142755Y441766D01*
X143907Y442243D01*
X144896Y443002D01*
X145655Y443991D01*
X146132Y445142D01*
X146294Y446378D01*
X146132Y447614D01*
X145655Y448765D01*
X144896Y449754D01*
X143907Y450513D01*
X142755Y450990D01*
X141520Y451153D01*
D02*
G37*
G36*
X221520D02*
X220284Y450990D01*
X219132Y450513D01*
X218144Y449754D01*
X217385Y448765D01*
X216908Y447614D01*
X216745Y446378D01*
X216908Y445142D01*
X217385Y443991D01*
X218144Y443002D01*
X219132Y442243D01*
X220284Y441766D01*
X221520Y441603D01*
X222756Y441766D01*
X223907Y442243D01*
X224896Y443002D01*
X225655Y443991D01*
X226132Y445142D01*
X226294Y446378D01*
X226132Y447614D01*
X225655Y448765D01*
X224896Y449754D01*
X223907Y450513D01*
X222756Y450990D01*
X221520Y451153D01*
D02*
G37*
G36*
X292520D02*
X291284Y450990D01*
X290132Y450513D01*
X289143Y449754D01*
X288385Y448765D01*
X287908Y447614D01*
X287745Y446378D01*
X287908Y445142D01*
X288385Y443991D01*
X289143Y443002D01*
X290132Y442243D01*
X291284Y441766D01*
X292520Y441603D01*
X293756Y441766D01*
X294907Y442243D01*
X295896Y443002D01*
X296655Y443991D01*
X297132Y445142D01*
X297294Y446378D01*
X297132Y447614D01*
X296655Y448765D01*
X295896Y449754D01*
X294907Y450513D01*
X293756Y450990D01*
X292520Y451153D01*
D02*
G37*
G36*
X280709D02*
X279473Y450990D01*
X278321Y450513D01*
X277332Y449754D01*
X276574Y448765D01*
X276097Y447614D01*
X275934Y446378D01*
X276097Y445142D01*
X276574Y443991D01*
X277332Y443002D01*
X278321Y442243D01*
X279473Y441766D01*
X280709Y441603D01*
X281944Y441766D01*
X283096Y442243D01*
X284085Y443002D01*
X284844Y443991D01*
X285321Y445142D01*
X285483Y446378D01*
X285321Y447614D01*
X284844Y448765D01*
X284085Y449754D01*
X283096Y450513D01*
X281944Y450990D01*
X280709Y451153D01*
D02*
G37*
G36*
X233331D02*
X232095Y450990D01*
X230943Y450513D01*
X229955Y449754D01*
X229196Y448765D01*
X228719Y447614D01*
X228556Y446378D01*
X228719Y445142D01*
X229196Y443991D01*
X229955Y443002D01*
X230943Y442243D01*
X232095Y441766D01*
X233331Y441603D01*
X234566Y441766D01*
X235718Y442243D01*
X236707Y443002D01*
X237466Y443991D01*
X237943Y445142D01*
X238105Y446378D01*
X237943Y447614D01*
X237466Y448765D01*
X236707Y449754D01*
X235718Y450513D01*
X234566Y450990D01*
X233331Y451153D01*
D02*
G37*
G36*
X150831Y450899D02*
X150742Y450862D01*
X149669Y450039D01*
X148846Y448967D01*
X148809Y448878D01*
X150831D01*
Y450899D01*
D02*
G37*
G36*
X155831D02*
Y448878D01*
X157852D01*
X157815Y448967D01*
X156992Y450039D01*
X155920Y450862D01*
X155831Y450899D01*
D02*
G37*
G36*
X371831Y450899D02*
X371742Y450862D01*
X370669Y450039D01*
X369846Y448967D01*
X369809Y448878D01*
X371831D01*
Y450899D01*
D02*
G37*
G36*
X460831D02*
X460742Y450862D01*
X459669Y450039D01*
X458846Y448967D01*
X458809Y448878D01*
X460831D01*
Y450899D01*
D02*
G37*
G36*
X306831Y450899D02*
Y448878D01*
X308852D01*
X308815Y448967D01*
X307992Y450039D01*
X306920Y450862D01*
X306831Y450899D01*
D02*
G37*
G36*
X129709Y462964D02*
X128473Y462801D01*
X127321Y462324D01*
X126332Y461565D01*
X125574Y460576D01*
X125097Y459425D01*
X124934Y458189D01*
X125097Y456953D01*
X125574Y455802D01*
X126332Y454813D01*
X127321Y454054D01*
X128473Y453577D01*
X129709Y453414D01*
X130945Y453577D01*
X132096Y454054D01*
X133085Y454813D01*
X133844Y455802D01*
X134321Y456953D01*
X134483Y458189D01*
X134321Y459425D01*
X133844Y460576D01*
X133085Y461565D01*
X132096Y462324D01*
X130945Y462801D01*
X129709Y462964D01*
D02*
G37*
G36*
X141520D02*
X140284Y462801D01*
X139132Y462324D01*
X138144Y461565D01*
X137385Y460576D01*
X136908Y459425D01*
X136745Y458189D01*
X136908Y456953D01*
X137385Y455802D01*
X138144Y454813D01*
X139132Y454054D01*
X140284Y453577D01*
X141520Y453414D01*
X142755Y453577D01*
X143907Y454054D01*
X144896Y454813D01*
X145655Y455802D01*
X146132Y456953D01*
X146294Y458189D01*
X146132Y459425D01*
X145655Y460576D01*
X144896Y461565D01*
X143907Y462324D01*
X142755Y462801D01*
X141520Y462964D01*
D02*
G37*
G36*
X376831Y450899D02*
Y448878D01*
X378852D01*
X378815Y448967D01*
X377992Y450039D01*
X376920Y450862D01*
X376831Y450899D01*
D02*
G37*
G36*
X465831D02*
Y448878D01*
X467852D01*
X467815Y448967D01*
X466992Y450039D01*
X465920Y450862D01*
X465831Y450899D01*
D02*
G37*
G36*
X301831Y450899D02*
X301742Y450862D01*
X300669Y450039D01*
X299846Y448967D01*
X299809Y448878D01*
X301831D01*
Y450899D01*
D02*
G37*
G36*
X308852Y443878D02*
X306831D01*
Y441857D01*
X306920Y441893D01*
X307992Y442716D01*
X308815Y443789D01*
X308852Y443878D01*
D02*
G37*
G36*
X378852D02*
X376831D01*
Y441857D01*
X376920Y441893D01*
X377992Y442716D01*
X378815Y443789D01*
X378852Y443878D01*
D02*
G37*
G36*
X467852D02*
X465831D01*
Y441857D01*
X465920Y441893D01*
X466992Y442716D01*
X467815Y443789D01*
X467852Y443878D01*
D02*
G37*
G36*
X416087Y462964D02*
X414851Y462801D01*
X413699Y462324D01*
X412710Y461565D01*
X411952Y460576D01*
X411475Y459425D01*
X411312Y458189D01*
X411475Y456953D01*
X411952Y455802D01*
X412710Y454813D01*
X413699Y454054D01*
X414851Y453577D01*
X416087Y453414D01*
X417322Y453577D01*
X418474Y454054D01*
X418647Y454187D01*
X421028Y451806D01*
Y448126D01*
X420528Y448027D01*
X420222Y448765D01*
X419463Y449754D01*
X418474Y450513D01*
X417322Y450990D01*
X416087Y451153D01*
X414851Y450990D01*
X413699Y450513D01*
X412710Y449754D01*
X411952Y448765D01*
X411475Y447614D01*
X411312Y446378D01*
X411475Y445142D01*
X411952Y443991D01*
X412710Y443002D01*
X413699Y442243D01*
X414851Y441766D01*
X416087Y441603D01*
X417322Y441766D01*
X418474Y442243D01*
X419463Y443002D01*
X420222Y443991D01*
X420528Y444729D01*
X421028Y444630D01*
Y423622D01*
X421105Y423232D01*
X421326Y422901D01*
X424870Y419358D01*
X425200Y419137D01*
X425591Y419059D01*
X461541D01*
X461872Y418565D01*
X462566Y418101D01*
X463095Y417996D01*
X463046Y417495D01*
X410336D01*
X404897Y422934D01*
Y427953D01*
X404734Y428772D01*
X404270Y429467D01*
X399539Y434197D01*
X399559Y434245D01*
X399708Y435378D01*
X399559Y436511D01*
X399122Y437567D01*
X398426Y438473D01*
X397519Y439169D01*
X396464Y439606D01*
X395331Y439756D01*
X394198Y439606D01*
X393142Y439169D01*
X392235Y438473D01*
X391540Y437567D01*
X391102Y436511D01*
X390953Y435378D01*
X391102Y434245D01*
X391540Y433189D01*
X392235Y432282D01*
X393142Y431587D01*
X394198Y431149D01*
X395331Y431000D01*
X396464Y431149D01*
X396511Y431169D01*
X400615Y427066D01*
Y422047D01*
X400778Y421228D01*
X401242Y420533D01*
X407935Y413840D01*
X408629Y413376D01*
X409449Y413213D01*
X463680D01*
X468331Y408562D01*
Y397638D01*
X468494Y396818D01*
X468958Y396124D01*
X469653Y395660D01*
X470472Y395497D01*
X471292Y395660D01*
X471986Y396124D01*
X472451Y396818D01*
X472614Y397638D01*
Y409449D01*
X472451Y410268D01*
X471986Y410963D01*
X466081Y416868D01*
X465386Y417333D01*
X464567Y417495D01*
X463726D01*
X463677Y417996D01*
X464205Y418101D01*
X464900Y418565D01*
X465364Y419259D01*
X465527Y420079D01*
X465364Y420898D01*
X464900Y421593D01*
X464205Y422057D01*
X463386Y422220D01*
X462566Y422057D01*
X461872Y421593D01*
X461541Y421098D01*
X426013D01*
X423067Y424044D01*
Y444364D01*
X423567Y444463D01*
X423763Y443991D01*
X424521Y443002D01*
X425510Y442243D01*
X426662Y441766D01*
X427898Y441603D01*
X429133Y441766D01*
X430285Y442243D01*
X431274Y443002D01*
X432033Y443991D01*
X432510Y445142D01*
X432672Y446378D01*
X432510Y447614D01*
X432033Y448765D01*
X431274Y449754D01*
X430285Y450513D01*
X429133Y450990D01*
X427898Y451153D01*
X426662Y450990D01*
X425510Y450513D01*
X424521Y449754D01*
X423763Y448765D01*
X423567Y448293D01*
X423067Y448392D01*
Y452228D01*
X422989Y452619D01*
X422768Y452949D01*
X420089Y455629D01*
X420222Y455802D01*
X420699Y456953D01*
X420861Y458189D01*
X420699Y459425D01*
X420222Y460576D01*
X419463Y461565D01*
X418474Y462324D01*
X417322Y462801D01*
X416087Y462964D01*
D02*
G37*
G36*
X157852Y443878D02*
X155831D01*
Y441857D01*
X155920Y441893D01*
X156992Y442716D01*
X157815Y443789D01*
X157852Y443878D01*
D02*
G37*
%LPD*%
G36*
X289037Y289037D02*
X289363Y288819D01*
X289212Y288319D01*
X273228D01*
X272877Y288249D01*
X272580Y288050D01*
X248170Y263641D01*
X247971Y263343D01*
X247901Y262992D01*
Y218884D01*
X246618Y217600D01*
X246117Y217807D01*
Y264898D01*
X270852Y289634D01*
X288639D01*
X289037Y289037D01*
D02*
G37*
G36*
X418841Y356063D02*
X418559Y355641D01*
X388080D01*
X387851Y356141D01*
X388133Y356563D01*
X418612D01*
X418841Y356063D01*
D02*
G37*
G36*
X267402Y224245D02*
X267777Y223683D01*
X268472Y223219D01*
X269291Y223056D01*
X270111Y223219D01*
X270507Y223484D01*
X270984Y223264D01*
X271029Y222878D01*
X269351Y221200D01*
X269152Y220902D01*
X269082Y220551D01*
Y214257D01*
X268867Y214228D01*
X267811Y213791D01*
X266905Y213095D01*
X266378Y212409D01*
X265878Y212579D01*
Y223242D01*
X266909Y224273D01*
X267402Y224245D01*
D02*
G37*
G36*
X314234Y365415D02*
X314929Y364951D01*
X315173Y364902D01*
X315302Y364367D01*
X315028Y363957D01*
X314904Y363333D01*
Y361516D01*
X314557Y360997D01*
X314394Y360178D01*
X314557Y359359D01*
X314904Y358840D01*
Y349606D01*
X315028Y348982D01*
X315382Y348453D01*
X317350Y346484D01*
X317880Y346131D01*
X318504Y346006D01*
X321425D01*
X321897Y345534D01*
X321733Y344991D01*
X321227Y344891D01*
X320533Y344427D01*
X320134Y343830D01*
X286378D01*
X286226Y344330D01*
X286553Y344549D01*
X287017Y345244D01*
X287180Y346063D01*
X287017Y346882D01*
X286553Y347577D01*
X285957Y347975D01*
Y354738D01*
X288963Y357744D01*
X303937D01*
X304288Y357814D01*
X304586Y358013D01*
X312585Y366012D01*
X313836D01*
X314234Y365415D01*
D02*
G37*
D31*
X144488Y339764D02*
Y340158D01*
X148425Y344094D01*
X334646Y330709D02*
X345669Y319685D01*
X282639Y344526D02*
X284253Y342913D01*
X322047D01*
X270472Y290551D02*
X290551D01*
X245200Y265279D02*
X270472Y290551D01*
X248819Y262992D02*
X273228Y287402D01*
X294094D01*
X171653Y379528D02*
X177165Y374016D01*
X133071Y379528D02*
X171653D01*
X127559Y374016D02*
X133071Y379528D01*
X319293Y385433D02*
X343307D01*
X319292Y385432D02*
X319293Y385433D01*
X256693Y213307D02*
Y230315D01*
Y213307D02*
X260000Y210000D01*
X255906Y265748D02*
X321654D01*
X270000Y220551D02*
X272047Y222598D01*
Y226378D01*
X270079Y228346D02*
X272047Y226378D01*
X265748Y228346D02*
X270079D01*
X270000Y210000D02*
Y220551D01*
X266535Y225197D02*
X269291D01*
X264961Y223622D02*
X266535Y225197D01*
X219685Y350000D02*
X221615Y351930D01*
X256653D01*
X256692Y351969D01*
X273622Y283465D02*
X314961D01*
X271654Y333858D02*
Y400000D01*
Y333858D02*
X274803Y330709D01*
X279134D01*
X306299Y370472D02*
Y373228D01*
X318898Y308661D02*
Y336614D01*
X322835Y313779D02*
Y336614D01*
X274803Y205197D02*
X280000Y200000D01*
X274803Y205197D02*
Y225984D01*
X281890Y233071D01*
X286221D01*
X264961Y204961D02*
Y223622D01*
X285039Y204961D02*
Y228346D01*
X327953Y330578D02*
X329658D01*
X341339Y318898D01*
X260000Y200000D02*
X264961Y204961D01*
X285039D02*
X290000Y200000D01*
X281496Y400000D02*
X292126D01*
X167323Y377953D02*
X171260Y374016D01*
X139764Y377953D02*
X167323D01*
X135831Y374020D02*
X139764Y377953D01*
X216142Y346850D02*
Y357480D01*
X211417Y362205D02*
X216142Y357480D01*
X211417Y362205D02*
Y437795D01*
X197638Y369291D02*
X212598Y354331D01*
X197638Y369291D02*
Y437795D01*
X278346Y411417D02*
X278559D01*
X288383Y421241D01*
X278346Y415354D02*
X285433Y422441D01*
X354213Y435039D02*
X358012Y438839D01*
X350394Y438189D02*
Y438583D01*
X285433Y422441D02*
X334646D01*
X350394Y438189D01*
X288383Y421241D02*
X335143D01*
X348941Y435039D01*
X335640Y420041D02*
X349438Y433839D01*
X290513Y420041D02*
X335640D01*
X357855Y433839D02*
X362992Y438976D01*
X348941Y435039D02*
X354213D01*
X349438Y433839D02*
X357855D01*
X276790Y372441D02*
Y383877D01*
X278346Y385433D01*
X314173D01*
X315392Y386652D01*
X318072D01*
X319292Y385432D01*
X219685Y346457D02*
Y350000D01*
X217323Y344094D02*
X219685Y346457D01*
X148425Y344094D02*
X217323D01*
X277953Y348425D02*
Y371279D01*
X275553Y337833D02*
X275590Y337795D01*
X275553Y337833D02*
Y405080D01*
X276790Y372441D02*
X277953Y371279D01*
X275553Y405080D02*
X290513Y420041D01*
X285039Y346063D02*
Y355118D01*
X288583Y358661D01*
X303937D01*
X312205Y366929D01*
X315748D01*
X386221Y357480D02*
X422835D01*
X383857Y354724D02*
X420472D01*
X282639Y344526D02*
Y347206D01*
X283465Y348031D02*
Y361811D01*
X282639Y347206D02*
X283465Y348031D01*
X345669Y319685D02*
X346063D01*
X230315Y336614D02*
Y348425D01*
X234252Y336614D02*
Y348425D01*
X255906Y261024D02*
X340551D01*
X321654Y265748D02*
X346850Y290945D01*
X364961D01*
X245200Y217323D02*
Y265279D01*
X182087Y202165D02*
X191732Y211811D01*
X242126D01*
X248819Y218504D01*
X240888Y213011D02*
X245200Y217323D01*
X177972Y213011D02*
X240888D01*
X164961Y200000D02*
X177972Y213011D01*
X248819Y218504D02*
Y262992D01*
X166142Y361024D02*
Y372047D01*
D32*
X325438Y344882D02*
X337008D01*
D33*
X425591Y420079D02*
X463386D01*
X422047Y423622D02*
X425591Y420079D01*
X422047Y423622D02*
Y452228D01*
X416087Y458189D02*
X422047Y452228D01*
X378346Y401181D02*
X382677D01*
X377559Y400394D02*
X378346Y401181D01*
X369291Y400394D02*
X377559D01*
X233465Y288976D02*
X238189Y293701D01*
X136221Y288976D02*
X233465D01*
X120472Y438189D02*
X140551D01*
X148425Y430315D01*
D34*
X409449Y415354D02*
X464567D01*
X470472Y409449D01*
Y397638D02*
Y409449D01*
X261811Y247244D02*
X320079D01*
X153331Y458189D02*
Y485433D01*
X109055Y474409D02*
X120079Y485433D01*
X470000Y458189D02*
X474409Y462598D01*
X463331Y458189D02*
X470000D01*
X468504Y485433D02*
X474409Y479528D01*
Y462598D02*
Y479528D01*
X109055Y299213D02*
Y418504D01*
Y474409D01*
X120079Y485433D02*
X408661D01*
X468504D01*
X412598Y405512D02*
X451575D01*
X410630Y403543D02*
X412598Y405512D01*
X402756Y403543D02*
X410630D01*
X395331Y410968D02*
X402756Y403543D01*
X395331Y410968D02*
Y415378D01*
X402756Y422047D02*
X409449Y415354D01*
X402756Y422047D02*
Y427953D01*
X395331Y435378D02*
X402756Y427953D01*
D35*
X408661Y426378D02*
Y485433D01*
D38*
X325147Y341629D02*
Y344591D01*
X323331Y339813D02*
X325147Y341629D01*
X320762Y339813D02*
X323331D01*
X320418Y340158D02*
X320762Y339813D01*
X316929Y340158D02*
X320418D01*
X322101Y347638D02*
X325147Y344591D01*
X318504Y347638D02*
X322101D01*
X260236Y356178D02*
Y370866D01*
X306299Y373228D02*
X316535D01*
X279431D02*
X306299D01*
X316535D02*
X319685Y370079D01*
Y366482D02*
Y370079D01*
X316535Y363333D02*
X319685Y366482D01*
X316535Y360178D02*
Y363333D01*
X315748Y338976D02*
X316929Y340158D01*
X315748Y320472D02*
Y338976D01*
X316535Y349606D02*
Y360178D01*
Y349606D02*
X318504Y347638D01*
X312205Y316929D02*
X315748Y320472D01*
X303150Y316929D02*
X312205D01*
X262992D02*
X303150D01*
X260236Y319685D02*
X262992Y316929D01*
X260236Y319685D02*
Y330578D01*
Y356178D01*
D41*
X468504Y250000D02*
D03*
Y260000D02*
D03*
Y270000D02*
D03*
Y280000D02*
D03*
Y290000D02*
D03*
Y300000D02*
D03*
X260000Y210000D02*
D03*
X270000D02*
D03*
X280000D02*
D03*
X290000D02*
D03*
X300000D02*
D03*
X310000D02*
D03*
X320000D02*
D03*
Y200000D02*
D03*
X310000D02*
D03*
X300000D02*
D03*
X290000D02*
D03*
X280000D02*
D03*
X270000D02*
D03*
X260000D02*
D03*
X120000Y280000D02*
D03*
Y290000D02*
D03*
X395331Y415378D02*
D03*
Y425378D02*
D03*
Y435378D02*
D03*
X468504Y330709D02*
D03*
Y340709D02*
D03*
Y350709D02*
D03*
Y360709D02*
D03*
Y370709D02*
D03*
Y380709D02*
D03*
D42*
X124732Y233740D02*
D03*
Y255394D02*
D03*
X141268D02*
D03*
Y233740D02*
D03*
X356732Y234724D02*
D03*
Y256378D02*
D03*
X373268D02*
D03*
Y234724D02*
D03*
X435000Y256378D02*
D03*
Y234724D02*
D03*
D43*
X133000Y205000D02*
D03*
X365000Y205984D02*
D03*
X435000D02*
D03*
D44*
X374331Y458189D02*
D03*
X362520D02*
D03*
X350709D02*
D03*
Y446378D02*
D03*
X362520D02*
D03*
X374331D02*
D03*
X463331Y458189D02*
D03*
X451520D02*
D03*
X439709D02*
D03*
X427898D02*
D03*
X416087D02*
D03*
Y446378D02*
D03*
X427898D02*
D03*
X439709D02*
D03*
X451520D02*
D03*
X463331D02*
D03*
X304331Y458189D02*
D03*
X292520D02*
D03*
X280709D02*
D03*
Y446378D02*
D03*
X292520D02*
D03*
X304331D02*
D03*
X233331Y458189D02*
D03*
X221520D02*
D03*
X209709D02*
D03*
X197898D02*
D03*
Y446378D02*
D03*
X209709D02*
D03*
X221520D02*
D03*
X233331D02*
D03*
X153331Y458189D02*
D03*
X141520D02*
D03*
X129709D02*
D03*
Y446378D02*
D03*
X141520D02*
D03*
X153331D02*
D03*
D45*
X144488Y339764D02*
D03*
X337008Y344882D02*
D03*
X375984Y349213D02*
D03*
X330315Y336614D02*
D03*
X334646Y330709D02*
D03*
X322047Y342913D02*
D03*
X290551Y290551D02*
D03*
X294094Y287402D02*
D03*
X463386Y420079D02*
D03*
X470472Y397638D02*
D03*
X369291Y400394D02*
D03*
X260236Y370866D02*
D03*
X320079Y247244D02*
D03*
X261811D02*
D03*
X343307Y385433D02*
D03*
X256693Y230315D02*
D03*
X255906Y265748D02*
D03*
X262992Y316929D02*
D03*
X269291Y225197D02*
D03*
X265748Y228346D02*
D03*
X159055Y309449D02*
D03*
X314961Y283465D02*
D03*
X273622D02*
D03*
X271654Y400000D02*
D03*
X279134Y330709D02*
D03*
X182087Y202165D02*
D03*
X164961Y200000D02*
D03*
X183071Y192520D02*
D03*
X306299Y370472D02*
D03*
X318898Y308661D02*
D03*
X322835Y313779D02*
D03*
X256692Y351969D02*
D03*
X318898Y336614D02*
D03*
X322835D02*
D03*
X286221Y233071D02*
D03*
X285039Y228346D02*
D03*
X327953Y330578D02*
D03*
X260236D02*
D03*
Y356178D02*
D03*
X303150Y316929D02*
D03*
X316535Y360178D02*
D03*
X279431Y373228D02*
D03*
X266535Y437795D02*
D03*
X281496Y437402D02*
D03*
Y400000D02*
D03*
X292126D02*
D03*
X279528Y388976D02*
D03*
X291339D02*
D03*
X171260Y374016D02*
D03*
X177165D02*
D03*
X127559D02*
D03*
X135831Y374020D02*
D03*
X212598Y354331D02*
D03*
X216142Y346850D02*
D03*
X211417Y437795D02*
D03*
X197638D02*
D03*
X358012Y438839D02*
D03*
X278346Y411417D02*
D03*
Y415354D02*
D03*
X140000Y280079D02*
D03*
X431260Y283307D02*
D03*
X297638Y389370D02*
D03*
X316929Y384252D02*
D03*
X332283Y352362D02*
D03*
Y360236D02*
D03*
X275590Y337795D02*
D03*
X362992Y438976D02*
D03*
X180315D02*
D03*
X191732Y422441D02*
D03*
X205512D02*
D03*
X219291D02*
D03*
X233465D02*
D03*
X244094Y330315D02*
D03*
Y358268D02*
D03*
X350394Y438583D02*
D03*
X407874Y407480D02*
D03*
X382677Y401181D02*
D03*
X408268Y385433D02*
D03*
X397835Y401378D02*
D03*
X405118Y367717D02*
D03*
X364567Y389370D02*
D03*
X277953Y348425D02*
D03*
X285039Y346063D02*
D03*
X315748Y366929D02*
D03*
X386221Y357480D02*
D03*
X383857Y354724D02*
D03*
X422835Y357480D02*
D03*
X420472Y354724D02*
D03*
X303331Y301756D02*
D03*
X341339Y318898D02*
D03*
X283465Y361811D02*
D03*
X346063Y319685D02*
D03*
X340354Y379331D02*
D03*
X230315Y336614D02*
D03*
Y348425D02*
D03*
X234252Y336614D02*
D03*
Y348425D02*
D03*
X255906Y261024D02*
D03*
X364961Y290945D02*
D03*
X340551Y261024D02*
D03*
X448425Y374410D02*
D03*
X385039Y427165D02*
D03*
X148031Y313386D02*
D03*
X132425Y312992D02*
D03*
X136221Y288976D02*
D03*
X166142Y372047D02*
D03*
Y361024D02*
D03*
D46*
X238189Y293701D02*
D03*
X212913Y204016D02*
D03*
X212874Y269016D02*
D03*
X187795Y236614D02*
D03*
X182283Y250787D02*
D03*
X187795Y300787D02*
D03*
X153150Y299213D02*
D03*
X157087Y224016D02*
D03*
X160927Y373325D02*
D03*
X109055Y418504D02*
D03*
X117323Y406299D02*
D03*
X408661Y426378D02*
D03*
X347638Y279528D02*
D03*
X364961D02*
D03*
X451575Y405512D02*
D03*
X188583Y404724D02*
D03*
X120472Y438189D02*
D03*
X148425Y430315D02*
D03*
D47*
X370079Y185433D02*
X378740Y194095D01*
X147638Y304724D02*
X153150Y299213D01*
X109055D02*
X114567Y304724D01*
X147638D01*
X356732Y234724D02*
X373268D01*
X109055Y199213D02*
Y299213D01*
Y199213D02*
X122835Y185433D01*
X370079D01*
X373268Y234724D02*
X378740Y229252D01*
Y194095D02*
Y229252D01*
M02*
