G04*
G04 #@! TF.GenerationSoftware,Altium Limited,CircuitStudio,1.5.2 (30)*
G04*
G04 Layer_Physical_Order=1*
G04 Layer_Color=11767835*
%FSLAX25Y25*%
%MOIN*%
G70*
G01*
G75*
%ADD10R,0.03937X0.03543*%
%ADD11R,0.05512X0.07087*%
%ADD12R,0.04331X0.07480*%
%ADD13R,0.03543X0.02756*%
%ADD14R,0.01181X0.04724*%
%ADD15R,0.04724X0.01181*%
%ADD16R,0.05906X0.09843*%
%ADD17R,0.27559X0.27559*%
%ADD18R,0.03543X0.03937*%
%ADD19R,0.02362X0.01654*%
%ADD20R,0.03937X0.03937*%
G04:AMPARAMS|DCode=21|XSize=23.62mil|YSize=57.09mil|CornerRadius=2.01mil|HoleSize=0mil|Usage=FLASHONLY|Rotation=0.000|XOffset=0mil|YOffset=0mil|HoleType=Round|Shape=RoundedRectangle|*
%AMROUNDEDRECTD21*
21,1,0.02362,0.05307,0,0,0.0*
21,1,0.01961,0.05709,0,0,0.0*
1,1,0.00402,0.00980,-0.02654*
1,1,0.00402,-0.00980,-0.02654*
1,1,0.00402,-0.00980,0.02654*
1,1,0.00402,0.00980,0.02654*
%
%ADD21ROUNDEDRECTD21*%
%ADD22R,0.04134X0.05512*%
%ADD23R,0.03150X0.05906*%
%ADD24R,0.05512X0.07874*%
%ADD25R,0.07874X0.06693*%
%ADD26R,0.04331X0.02362*%
%ADD27R,0.15748X0.15748*%
%ADD28R,0.21654X0.21654*%
%ADD29R,0.06299X0.12598*%
G04:AMPARAMS|DCode=30|XSize=23.62mil|YSize=57.09mil|CornerRadius=2.01mil|HoleSize=0mil|Usage=FLASHONLY|Rotation=270.000|XOffset=0mil|YOffset=0mil|HoleType=Round|Shape=RoundedRectangle|*
%AMROUNDEDRECTD30*
21,1,0.02362,0.05307,0,0,270.0*
21,1,0.01961,0.05709,0,0,270.0*
1,1,0.00402,-0.02654,-0.00980*
1,1,0.00402,-0.02654,0.00980*
1,1,0.00402,0.02654,0.00980*
1,1,0.00402,0.02654,-0.00980*
%
%ADD30ROUNDEDRECTD30*%
%ADD31C,0.00800*%
%ADD32C,0.02400*%
%ADD33C,0.01600*%
%ADD34C,0.02000*%
%ADD35C,0.00600*%
%ADD36C,0.07480*%
%ADD37C,0.10236*%
%ADD38C,0.06000*%
%ADD39C,0.08268*%
%ADD40C,0.03000*%
%ADD41C,0.05000*%
%ADD42C,0.03500*%
%ADD43C,0.04000*%
%ADD44C,0.03400*%
G36*
X489500Y100500D02*
X100500D01*
Y414500D01*
X489500D01*
Y100500D01*
D02*
G37*
%LPC*%
G36*
X158000Y145964D02*
X157586Y145910D01*
X156735Y145557D01*
X156004Y144996D01*
X155443Y144265D01*
X155090Y143414D01*
X155036Y143000D01*
X158000D01*
Y145964D01*
D02*
G37*
G36*
X450000Y211777D02*
X448893Y211631D01*
X447862Y211204D01*
X446976Y210524D01*
X446296Y209638D01*
X445869Y208607D01*
X445844Y208418D01*
X438807D01*
Y210756D01*
X433673D01*
Y204244D01*
X438807D01*
Y206582D01*
X445844D01*
X445869Y206393D01*
X446296Y205362D01*
X446976Y204476D01*
X447862Y203796D01*
X448893Y203369D01*
X450000Y203223D01*
X451107Y203369D01*
X452138Y203796D01*
X453024Y204476D01*
X453704Y205362D01*
X454131Y206393D01*
X454277Y207500D01*
X454131Y208607D01*
X453704Y209638D01*
X453024Y210524D01*
X452138Y211204D01*
X451107Y211631D01*
X450000Y211777D01*
D02*
G37*
G36*
X338500Y205500D02*
X334285D01*
X334382Y204763D01*
X334859Y203609D01*
X335619Y202619D01*
X336610Y201859D01*
X337763Y201382D01*
X338500Y201285D01*
Y205500D01*
D02*
G37*
G36*
X343715D02*
X339500D01*
Y201285D01*
X340237Y201382D01*
X341390Y201859D01*
X342381Y202619D01*
X343141Y203609D01*
X343618Y204763D01*
X343715Y205500D01*
D02*
G37*
G36*
X440980Y226640D02*
X439020D01*
X438746Y226585D01*
X438515Y226430D01*
X438360Y226199D01*
X438305Y225925D01*
Y220618D01*
X438360Y220345D01*
X438515Y220113D01*
X438746Y219958D01*
X439020Y219904D01*
X440980D01*
X441254Y219958D01*
X441486Y220113D01*
X441640Y220345D01*
X441695Y220618D01*
Y225925D01*
X441640Y226199D01*
X441486Y226430D01*
X441254Y226585D01*
X440980Y226640D01*
D02*
G37*
G36*
X151000Y236460D02*
Y233500D01*
Y230540D01*
X151283Y230577D01*
X151532Y230680D01*
X152032Y230346D01*
Y230079D01*
X154500D01*
Y232850D01*
Y235622D01*
X152653D01*
X152640Y235640D01*
X152013Y236121D01*
X151283Y236423D01*
X151000Y236460D01*
D02*
G37*
G36*
X157968Y232350D02*
X155500D01*
Y230079D01*
X157968D01*
Y232350D01*
D02*
G37*
G36*
X139768Y182545D02*
X138301Y182352D01*
X136934Y181785D01*
X135761Y180885D01*
X134860Y179711D01*
X134294Y178345D01*
X134101Y176878D01*
X134294Y175411D01*
X134860Y174045D01*
X135761Y172871D01*
X136934Y171970D01*
X138301Y171404D01*
X139768Y171211D01*
X141234Y171404D01*
X142601Y171970D01*
X143775Y172871D01*
X144675Y174045D01*
X145131Y175145D01*
X150404D01*
X153267Y172282D01*
Y162500D01*
X153399Y161837D01*
X153774Y161274D01*
X156117Y158932D01*
X156679Y158556D01*
X157343Y158424D01*
X166350D01*
Y153358D01*
X168267D01*
Y140000D01*
X168399Y139337D01*
X168774Y138774D01*
X170015Y137534D01*
X170577Y137159D01*
X171240Y137027D01*
X174618D01*
X174881Y137079D01*
X177284D01*
Y140441D01*
X174881D01*
X174618Y140493D01*
X171958D01*
X171733Y140718D01*
Y144150D01*
X171953Y144559D01*
X172233Y144559D01*
X177284D01*
Y145323D01*
X179880D01*
X180851Y144351D01*
X180933Y144297D01*
Y141469D01*
X179579D01*
Y136531D01*
X184122D01*
Y141469D01*
X182768D01*
Y144082D01*
X187079D01*
Y142532D01*
X191622D01*
Y147468D01*
X187079D01*
Y145918D01*
X181880D01*
X180909Y146889D01*
X180611Y147088D01*
X180260Y147158D01*
X177284D01*
Y147921D01*
X172233D01*
X171953Y147921D01*
X171733Y148330D01*
X171733Y148330D01*
Y153358D01*
X173650D01*
Y166957D01*
X166350D01*
Y161891D01*
X158061D01*
X156733Y163218D01*
Y173000D01*
X156601Y173663D01*
X156226Y174226D01*
X152348Y178104D01*
X151785Y178479D01*
X151122Y178611D01*
X145131D01*
X144675Y179711D01*
X143775Y180885D01*
X142601Y181785D01*
X141234Y182352D01*
X139768Y182545D01*
D02*
G37*
G36*
X455980Y226640D02*
X454020D01*
X453746Y226585D01*
X453514Y226430D01*
X453360Y226199D01*
X453305Y225925D01*
Y220618D01*
X453360Y220345D01*
X453514Y220113D01*
X453746Y219958D01*
X454020Y219904D01*
X455980D01*
X456254Y219958D01*
X456486Y220113D01*
X456640Y220345D01*
X456695Y220618D01*
Y225925D01*
X456640Y226199D01*
X456486Y226430D01*
X456254Y226585D01*
X455980Y226640D01*
D02*
G37*
G36*
X125925Y230195D02*
X120618D01*
X120345Y230140D01*
X120113Y229986D01*
X119958Y229754D01*
X119904Y229480D01*
Y227520D01*
X119958Y227246D01*
X120113Y227014D01*
X120345Y226860D01*
X120618Y226805D01*
X125925D01*
X126199Y226860D01*
X126430Y227014D01*
X126585Y227246D01*
X126640Y227520D01*
Y229480D01*
X126585Y229754D01*
X126430Y229986D01*
X126199Y230140D01*
X125925Y230195D01*
D02*
G37*
G36*
X269500Y192122D02*
X267032D01*
Y189918D01*
X264469D01*
Y192122D01*
X262000D01*
Y189154D01*
Y186185D01*
X264469D01*
Y188082D01*
X267032D01*
Y186185D01*
X269500D01*
Y189154D01*
Y192122D01*
D02*
G37*
G36*
X289500Y196215D02*
X288763Y196118D01*
X287610Y195641D01*
X286619Y194881D01*
X285859Y193891D01*
X285382Y192737D01*
X285285Y192000D01*
X289500D01*
Y196215D01*
D02*
G37*
G36*
X261000Y192122D02*
X258531D01*
Y189918D01*
X255968D01*
Y192122D01*
X253500D01*
Y189154D01*
Y186185D01*
X255968D01*
Y188082D01*
X258531D01*
Y186185D01*
X261000D01*
Y189154D01*
Y192122D01*
D02*
G37*
G36*
X244000D02*
X241531D01*
Y189918D01*
X238968D01*
Y192122D01*
X236500D01*
Y189154D01*
Y186185D01*
X238968D01*
Y188082D01*
X241531D01*
Y186185D01*
X244000D01*
Y189154D01*
Y192122D01*
D02*
G37*
G36*
X252500D02*
X250031D01*
Y189918D01*
X247468D01*
Y192122D01*
X245000D01*
Y189154D01*
Y186185D01*
X247468D01*
Y188082D01*
X250031D01*
Y186185D01*
X252500D01*
Y189154D01*
Y192122D01*
D02*
G37*
G36*
X290500Y196215D02*
Y192000D01*
X294715D01*
X294618Y192737D01*
X294141Y193891D01*
X293381Y194881D01*
X292390Y195641D01*
X291237Y196118D01*
X290500Y196215D01*
D02*
G37*
G36*
X263772Y204122D02*
X259228D01*
Y200366D01*
X260582D01*
Y198315D01*
X259032D01*
Y193378D01*
X263968D01*
Y198315D01*
X262418D01*
Y200366D01*
X263772D01*
Y204122D01*
D02*
G37*
G36*
X272272D02*
X267728D01*
Y200366D01*
X269082D01*
Y198315D01*
X267531D01*
Y193378D01*
X272468D01*
Y198315D01*
X270918D01*
Y200366D01*
X272272D01*
Y204122D01*
D02*
G37*
G36*
X255272D02*
X250728D01*
Y200366D01*
X252082D01*
Y198315D01*
X250532D01*
Y193378D01*
X255469D01*
Y198315D01*
X253918D01*
Y200366D01*
X255272D01*
Y204122D01*
D02*
G37*
G36*
X238272D02*
X233728D01*
Y200366D01*
X235082D01*
Y198315D01*
X233531D01*
Y193378D01*
X238469D01*
Y198315D01*
X236918D01*
Y200366D01*
X238272D01*
Y204122D01*
D02*
G37*
G36*
X246772D02*
X242228D01*
Y200366D01*
X243582D01*
Y198315D01*
X242032D01*
Y193378D01*
X246969D01*
Y198315D01*
X245418D01*
Y200366D01*
X246772D01*
Y204122D01*
D02*
G37*
G36*
X187650Y138500D02*
X185378D01*
Y136031D01*
X187650D01*
Y138500D01*
D02*
G37*
G36*
X453964Y258500D02*
X447036D01*
X447090Y258086D01*
X447443Y257235D01*
X447694Y256908D01*
X447878Y256469D01*
Y256469D01*
X447878Y256469D01*
X447878Y256469D01*
Y254000D01*
X450650D01*
X453421D01*
Y256469D01*
X453421Y256469D01*
X453421D01*
X453353Y256968D01*
X453557Y257235D01*
X453910Y258086D01*
X453964Y258500D01*
D02*
G37*
G36*
X190921Y141969D02*
X188650D01*
Y139000D01*
Y136031D01*
X190921D01*
Y136052D01*
X191421Y136353D01*
X191500Y136343D01*
Y139000D01*
Y141657D01*
X191421Y141647D01*
X190921Y141948D01*
Y141969D01*
D02*
G37*
G36*
X453421Y253000D02*
X450650D01*
X447878D01*
Y250532D01*
X449027D01*
X449141Y250397D01*
X449273Y250031D01*
X449152Y249851D01*
X449082Y249500D01*
Y248606D01*
X449020D01*
X448551Y248513D01*
X448154Y248248D01*
X447889Y247850D01*
X447795Y247382D01*
Y245228D01*
X452205D01*
Y247382D01*
X452111Y247850D01*
X451846Y248248D01*
X451449Y248513D01*
X450980Y248606D01*
X450918D01*
Y249120D01*
X451299Y249501D01*
X451497Y249798D01*
X451509Y249857D01*
X451567Y250150D01*
Y250532D01*
X453421D01*
Y253000D01*
D02*
G37*
G36*
X285964Y147000D02*
X279036D01*
X279090Y146586D01*
X279443Y145735D01*
X279720Y145374D01*
X279473Y144874D01*
X273626D01*
Y136500D01*
X291374D01*
Y144874D01*
X285527D01*
X285280Y145374D01*
X285557Y145735D01*
X285910Y146586D01*
X285964Y147000D01*
D02*
G37*
G36*
X255960Y257500D02*
X253500D01*
Y255040D01*
X253783Y255077D01*
X254513Y255380D01*
X255140Y255860D01*
X255621Y256487D01*
X255923Y257217D01*
X255960Y257500D01*
D02*
G37*
G36*
X379500Y267464D02*
Y264500D01*
X382464D01*
X382410Y264914D01*
X382057Y265765D01*
X381496Y266496D01*
X380765Y267057D01*
X379914Y267410D01*
X379500Y267464D01*
D02*
G37*
G36*
X282000Y135500D02*
X273626D01*
Y127126D01*
X282000D01*
Y135500D01*
D02*
G37*
G36*
X291374D02*
X283000D01*
Y127126D01*
X291374D01*
Y135500D01*
D02*
G37*
G36*
X382464Y263500D02*
X379500D01*
Y260536D01*
X379914Y260590D01*
X380765Y260943D01*
X381496Y261504D01*
X382057Y262235D01*
X382410Y263086D01*
X382464Y263500D01*
D02*
G37*
G36*
X372650D02*
X370378D01*
Y261032D01*
X372650D01*
Y263500D01*
D02*
G37*
G36*
X157968Y235622D02*
X155500D01*
Y233350D01*
X157968D01*
Y235622D01*
D02*
G37*
G36*
X144228Y235705D02*
X142075D01*
X141606Y235611D01*
X141209Y235346D01*
X140944Y234949D01*
X140850Y234480D01*
Y234000D01*
X144228D01*
Y235705D01*
D02*
G37*
G36*
Y233000D02*
X140850D01*
Y232520D01*
X140944Y232051D01*
X141209Y231654D01*
X141606Y231389D01*
X142075Y231295D01*
X144228D01*
Y233000D01*
D02*
G37*
G36*
X187650Y141969D02*
X185378D01*
Y139500D01*
X187650D01*
Y141969D01*
D02*
G37*
G36*
X158000Y142000D02*
X155036D01*
X155090Y141586D01*
X155443Y140735D01*
X156004Y140004D01*
X156735Y139443D01*
X157586Y139090D01*
X158000Y139036D01*
Y142000D01*
D02*
G37*
G36*
X150000Y236460D02*
X149717Y236423D01*
X148987Y236121D01*
X148360Y235640D01*
X148173Y235396D01*
X147850Y235611D01*
X147382Y235705D01*
X145228D01*
Y233500D01*
Y231295D01*
X147382D01*
X147850Y231389D01*
X148173Y231604D01*
X148360Y231360D01*
X148987Y230879D01*
X149717Y230577D01*
X150000Y230540D01*
Y233500D01*
Y236460D01*
D02*
G37*
G36*
X452205Y244228D02*
X450500D01*
Y240850D01*
X450980D01*
X451449Y240944D01*
X451846Y241209D01*
X452111Y241606D01*
X452205Y242075D01*
Y244228D01*
D02*
G37*
G36*
X125925Y245195D02*
X120618D01*
X120345Y245140D01*
X120113Y244986D01*
X119958Y244754D01*
X119904Y244480D01*
Y242520D01*
X119958Y242246D01*
X120113Y242014D01*
X120345Y241860D01*
X120618Y241805D01*
X125925D01*
X126199Y241860D01*
X126430Y242014D01*
X126585Y242246D01*
X126640Y242520D01*
Y244480D01*
X126585Y244754D01*
X126430Y244986D01*
X126199Y245140D01*
X125925Y245195D01*
D02*
G37*
G36*
X449500Y244228D02*
X447795D01*
Y242075D01*
X447889Y241606D01*
X448154Y241209D01*
X448551Y240944D01*
X449020Y240850D01*
X449500D01*
Y244228D01*
D02*
G37*
G36*
X455980Y248096D02*
X454020D01*
X453746Y248042D01*
X453514Y247887D01*
X453360Y247655D01*
X453305Y247382D01*
Y242075D01*
X453360Y241801D01*
X453514Y241570D01*
X453746Y241415D01*
X454020Y241360D01*
X454082D01*
Y237380D01*
X452620Y235918D01*
X442000D01*
X441649Y235848D01*
X441418Y235693D01*
X440918Y235831D01*
Y241360D01*
X440980D01*
X441254Y241415D01*
X441486Y241570D01*
X441640Y241801D01*
X441695Y242075D01*
Y247382D01*
X441640Y247655D01*
X441486Y247887D01*
X441254Y248042D01*
X440980Y248096D01*
X439020D01*
X438746Y248042D01*
X438515Y247887D01*
X438360Y247655D01*
X438305Y247382D01*
Y242075D01*
X438360Y241801D01*
X438515Y241570D01*
X438746Y241415D01*
X439020Y241360D01*
X439082D01*
Y235219D01*
X427081Y223218D01*
X396828D01*
X395746Y224299D01*
X395449Y224498D01*
X395098Y224568D01*
X392902D01*
X392551Y224498D01*
X392253Y224299D01*
X390996Y223041D01*
X390878Y223119D01*
X390000Y223294D01*
X389122Y223119D01*
X388378Y222622D01*
X387880Y221878D01*
X387706Y221000D01*
X387880Y220122D01*
X388378Y219378D01*
X389122Y218881D01*
X390000Y218706D01*
X390878Y218881D01*
X391622Y219378D01*
X391750Y219569D01*
X392250D01*
X392378Y219378D01*
X393122Y218881D01*
X394000Y218706D01*
X394878Y218881D01*
X395622Y219378D01*
X396093Y220082D01*
X428000D01*
X428351Y220152D01*
X428649Y220351D01*
X442380Y234082D01*
X453000D01*
X453351Y234152D01*
X453649Y234351D01*
X455649Y236351D01*
X455848Y236649D01*
X455918Y237000D01*
Y241360D01*
X455980D01*
X456254Y241415D01*
X456486Y241570D01*
X456640Y241801D01*
X456695Y242075D01*
Y247382D01*
X456640Y247655D01*
X456486Y247887D01*
X456254Y248042D01*
X455980Y248096D01*
D02*
G37*
G36*
X125925Y240195D02*
X120618D01*
X120345Y240140D01*
X120113Y239986D01*
X119958Y239754D01*
X119904Y239480D01*
Y239418D01*
X118500D01*
X118207Y239359D01*
X118149Y239348D01*
X117851Y239149D01*
X115351Y236649D01*
X115152Y236351D01*
X115082Y236000D01*
Y196500D01*
X115152Y196149D01*
X115351Y195851D01*
X116351Y194851D01*
X116649Y194652D01*
X116693Y194643D01*
Y192244D01*
X118342D01*
Y187640D01*
X114851Y184149D01*
X114652Y183851D01*
X114582Y183500D01*
Y162957D01*
X114652Y162606D01*
X114851Y162308D01*
X118662Y158497D01*
X118325Y158058D01*
X117759Y156691D01*
X117566Y155224D01*
X117759Y153758D01*
X118325Y152391D01*
X119225Y151217D01*
X120399Y150317D01*
X121766Y149751D01*
X123232Y149558D01*
X124699Y149751D01*
X126066Y150317D01*
X127239Y151217D01*
X128140Y152391D01*
X128706Y153758D01*
X128899Y155224D01*
X128706Y156691D01*
X128140Y158058D01*
X127239Y159231D01*
X126066Y160132D01*
X124699Y160698D01*
X123232Y160891D01*
X121766Y160698D01*
X120399Y160132D01*
X119960Y159795D01*
X116418Y163337D01*
Y183120D01*
X119909Y186611D01*
X120108Y186909D01*
X120177Y187260D01*
Y191891D01*
X120531Y192244D01*
X121827D01*
X122082Y191850D01*
Y182393D01*
X121766Y182352D01*
X120399Y181785D01*
X119225Y180885D01*
X118325Y179711D01*
X117759Y178345D01*
X117566Y176878D01*
X117759Y175411D01*
X118325Y174045D01*
X119225Y172871D01*
X120399Y171970D01*
X121766Y171404D01*
X123232Y171211D01*
X124699Y171404D01*
X126066Y171970D01*
X127239Y172871D01*
X128140Y174045D01*
X128706Y175411D01*
X128899Y176878D01*
X128706Y178345D01*
X128140Y179711D01*
X127239Y180885D01*
X126066Y181785D01*
X124699Y182352D01*
X123918Y182454D01*
Y191850D01*
X124173Y192244D01*
X124418Y192244D01*
X129307D01*
Y194582D01*
X131000D01*
X131351Y194652D01*
X131649Y194851D01*
X133649Y196851D01*
X133848Y197149D01*
X133859Y197207D01*
X133918Y197500D01*
Y205844D01*
X134107Y205869D01*
X135138Y206296D01*
X136024Y206976D01*
X136704Y207862D01*
X137131Y208893D01*
X137277Y210000D01*
X137131Y211107D01*
X136704Y212138D01*
X136024Y213024D01*
X135138Y213704D01*
X134107Y214131D01*
X133000Y214277D01*
X131893Y214131D01*
X130862Y213704D01*
X129976Y213024D01*
X129296Y212138D01*
X128869Y211107D01*
X128723Y210000D01*
X128869Y208893D01*
X129296Y207862D01*
X129976Y206976D01*
X130862Y206296D01*
X131893Y205869D01*
X132082Y205844D01*
Y197880D01*
X130620Y196418D01*
X129307D01*
Y198756D01*
X124418D01*
X124173Y198756D01*
X123918Y199150D01*
X123918Y199150D01*
Y205844D01*
X124107Y205869D01*
X125138Y206296D01*
X126024Y206976D01*
X126704Y207862D01*
X127131Y208893D01*
X127277Y210000D01*
X127131Y211107D01*
X126704Y212138D01*
X126024Y213024D01*
X125138Y213704D01*
X124107Y214131D01*
X123000Y214277D01*
X121893Y214131D01*
X120862Y213704D01*
X120710Y213588D01*
X118418Y215880D01*
Y231620D01*
X119380Y232582D01*
X119904D01*
Y232520D01*
X119958Y232246D01*
X120113Y232014D01*
X120345Y231860D01*
X120618Y231805D01*
X125925D01*
X126199Y231860D01*
X126430Y232014D01*
X126585Y232246D01*
X126640Y232520D01*
Y234480D01*
X126585Y234754D01*
X126430Y234986D01*
X126199Y235140D01*
X125925Y235195D01*
X120618D01*
X120345Y235140D01*
X120113Y234986D01*
X119958Y234754D01*
X119904Y234480D01*
Y234418D01*
X119000D01*
X118649Y234348D01*
X118351Y234149D01*
X117380Y233177D01*
X116918Y233369D01*
Y235620D01*
X118880Y237582D01*
X119904D01*
Y237520D01*
X119958Y237246D01*
X120113Y237014D01*
X120345Y236860D01*
X120618Y236805D01*
X125925D01*
X126199Y236860D01*
X126430Y237014D01*
X126585Y237246D01*
X126640Y237520D01*
Y239480D01*
X126585Y239754D01*
X126430Y239986D01*
X126199Y240140D01*
X125925Y240195D01*
D02*
G37*
G36*
X272969Y192122D02*
X270500D01*
Y189654D01*
X272969D01*
Y192122D01*
D02*
G37*
G36*
X346500Y216039D02*
X345720Y215884D01*
X345058Y215442D01*
X344616Y214780D01*
X344461Y214000D01*
X344616Y213220D01*
X345058Y212558D01*
X345582Y212208D01*
Y162380D01*
X339970Y156768D01*
X335469D01*
Y158122D01*
X330532D01*
Y153579D01*
X332082D01*
Y147327D01*
X321567D01*
Y137024D01*
X297606D01*
X297313Y136966D01*
X297255Y136954D01*
X296957Y136755D01*
X294351Y134149D01*
X294152Y133851D01*
X294082Y133500D01*
Y125380D01*
X292120Y123418D01*
X272880D01*
X270918Y125380D01*
Y133000D01*
X270848Y133351D01*
X270649Y133649D01*
X267649Y136649D01*
X267351Y136848D01*
X267000Y136918D01*
X243433D01*
Y147327D01*
X220779D01*
Y124673D01*
X243433D01*
Y135082D01*
X266620D01*
X269082Y132620D01*
Y125000D01*
X269152Y124649D01*
X269351Y124351D01*
X271851Y121851D01*
X272149Y121652D01*
X272207Y121641D01*
X272500Y121582D01*
X292500D01*
X292851Y121652D01*
X293149Y121851D01*
X295649Y124351D01*
X295848Y124649D01*
X295859Y124707D01*
X295918Y125000D01*
Y133120D01*
X297986Y135189D01*
X321567D01*
Y124673D01*
X344220D01*
Y147327D01*
X333918D01*
Y153579D01*
X335469D01*
Y154933D01*
X340350D01*
X340702Y155003D01*
X340999Y155201D01*
X347149Y161351D01*
X347348Y161649D01*
X347418Y162000D01*
Y212208D01*
X347942Y212558D01*
X348384Y213220D01*
X348539Y214000D01*
X348384Y214780D01*
X347942Y215442D01*
X347280Y215884D01*
X346500Y216039D01*
D02*
G37*
G36*
X332500Y161650D02*
X330031D01*
Y159378D01*
X332500D01*
Y161650D01*
D02*
G37*
G36*
X456268Y161323D02*
Y155724D01*
X461866D01*
X461797Y156424D01*
X461447Y157577D01*
X460879Y158640D01*
X460115Y159572D01*
X459183Y160336D01*
X458120Y160904D01*
X456967Y161254D01*
X456268Y161323D01*
D02*
G37*
G36*
X140268D02*
Y155724D01*
X145866D01*
X145797Y156424D01*
X145448Y157577D01*
X144879Y158640D01*
X144115Y159572D01*
X143183Y160336D01*
X142120Y160904D01*
X140967Y161254D01*
X140268Y161323D01*
D02*
G37*
G36*
X455268D02*
X454568Y161254D01*
X453415Y160904D01*
X452352Y160336D01*
X451421Y159572D01*
X450656Y158640D01*
X450088Y157577D01*
X449738Y156424D01*
X449669Y155724D01*
X455268D01*
Y161323D01*
D02*
G37*
G36*
X333500Y170464D02*
Y167500D01*
X336464D01*
X336410Y167914D01*
X336057Y168765D01*
X335496Y169496D01*
X334765Y170057D01*
X333914Y170410D01*
X333500Y170464D01*
D02*
G37*
G36*
X450980Y226640D02*
X449020D01*
X448746Y226585D01*
X448515Y226430D01*
X448360Y226199D01*
X448305Y225925D01*
Y220618D01*
X448360Y220345D01*
X448515Y220113D01*
X448746Y219958D01*
X449020Y219904D01*
X449082D01*
Y215500D01*
X449152Y215149D01*
X449351Y214851D01*
X450851Y213351D01*
X451149Y213152D01*
X451500Y213082D01*
X457620D01*
X458636Y212066D01*
X458519Y211476D01*
X457862Y211204D01*
X456976Y210524D01*
X456296Y209638D01*
X455869Y208607D01*
X455723Y207500D01*
X455869Y206393D01*
X456296Y205362D01*
X456976Y204476D01*
X457862Y203796D01*
X458893Y203369D01*
X459082Y203344D01*
Y201380D01*
X454620Y196918D01*
X446500D01*
X446149Y196848D01*
X445851Y196649D01*
X438583Y189381D01*
X438384Y189083D01*
X438315Y188732D01*
Y182424D01*
X437766Y182352D01*
X436399Y181785D01*
X435225Y180885D01*
X434325Y179711D01*
X433759Y178345D01*
X433566Y176878D01*
X433759Y175411D01*
X434325Y174045D01*
X435225Y172871D01*
X436399Y171970D01*
X437766Y171404D01*
X439232Y171211D01*
X440699Y171404D01*
X442066Y171970D01*
X443239Y172871D01*
X444140Y174045D01*
X444706Y175411D01*
X444899Y176878D01*
X444706Y178345D01*
X444140Y179711D01*
X443239Y180885D01*
X442066Y181785D01*
X440699Y182352D01*
X440150Y182424D01*
Y188352D01*
X446880Y195082D01*
X455000D01*
X455351Y195152D01*
X455649Y195351D01*
X460649Y200351D01*
X460848Y200649D01*
X460918Y201000D01*
Y203344D01*
X461107Y203369D01*
X462138Y203796D01*
X463024Y204476D01*
X463704Y205362D01*
X464131Y206393D01*
X464277Y207500D01*
X464131Y208607D01*
X463704Y209638D01*
X463024Y210524D01*
X462138Y211204D01*
X461107Y211631D01*
X460918Y211656D01*
Y212000D01*
X460848Y212351D01*
X460649Y212649D01*
X458649Y214649D01*
X458351Y214848D01*
X458000Y214918D01*
X451880D01*
X450918Y215880D01*
Y219904D01*
X450980D01*
X451254Y219958D01*
X451485Y220113D01*
X451640Y220345D01*
X451695Y220618D01*
Y225925D01*
X451640Y226199D01*
X451485Y226430D01*
X451254Y226585D01*
X450980Y226640D01*
D02*
G37*
G36*
X332500Y170464D02*
X332086Y170410D01*
X331235Y170057D01*
X330504Y169496D01*
X329943Y168765D01*
X329590Y167914D01*
X329536Y167500D01*
X332500D01*
Y170464D01*
D02*
G37*
G36*
X335968Y161650D02*
X333500D01*
Y159378D01*
X335968D01*
Y161650D01*
D02*
G37*
G36*
X336464Y166500D02*
X329536D01*
X329590Y166086D01*
X329881Y165384D01*
X330031Y164921D01*
Y164921D01*
X330031Y164921D01*
X330031Y164921D01*
Y162650D01*
X335968D01*
Y164921D01*
X335968Y164921D01*
X336110Y165363D01*
X336410Y166086D01*
X336464Y166500D01*
D02*
G37*
G36*
X139268Y161323D02*
X138568Y161254D01*
X137415Y160904D01*
X136352Y160336D01*
X135421Y159572D01*
X134656Y158640D01*
X134088Y157577D01*
X133738Y156424D01*
X133669Y155724D01*
X139268D01*
Y161323D01*
D02*
G37*
G36*
X282000Y150964D02*
X281586Y150910D01*
X280735Y150557D01*
X280004Y149996D01*
X279443Y149265D01*
X279090Y148414D01*
X279036Y148000D01*
X282000D01*
Y150964D01*
D02*
G37*
G36*
X283000D02*
Y148000D01*
X285964D01*
X285910Y148414D01*
X285557Y149265D01*
X284996Y149996D01*
X284265Y150557D01*
X283414Y150910D01*
X283000Y150964D01*
D02*
G37*
G36*
X167047Y147921D02*
X161716D01*
Y144681D01*
X161238D01*
X160996Y144996D01*
X160265Y145557D01*
X159414Y145910D01*
X159000Y145964D01*
Y142500D01*
Y139036D01*
X159414Y139090D01*
X160265Y139443D01*
X160996Y140004D01*
X161238Y140319D01*
X161716D01*
Y137079D01*
X162649D01*
Y132618D01*
X162780Y131955D01*
X163156Y131393D01*
X165924Y128625D01*
Y121346D01*
X163221D01*
Y113654D01*
X172095D01*
Y121346D01*
X169391D01*
Y129342D01*
X169259Y130006D01*
X168883Y130568D01*
X166115Y133336D01*
Y137079D01*
X167047D01*
Y140319D01*
X167547D01*
Y142000D01*
X164382D01*
Y143000D01*
X167547D01*
Y144681D01*
X167047D01*
Y147921D01*
D02*
G37*
G36*
X360992Y151996D02*
X354480D01*
Y143122D01*
X360992D01*
Y151996D01*
D02*
G37*
G36*
X415992D02*
X409480D01*
Y143122D01*
X415992D01*
Y151996D01*
D02*
G37*
G36*
X461866Y154724D02*
X456268D01*
Y149126D01*
X456967Y149195D01*
X458120Y149545D01*
X459183Y150113D01*
X460115Y150877D01*
X460879Y151809D01*
X461447Y152872D01*
X461797Y154025D01*
X461866Y154724D01*
D02*
G37*
G36*
X445980Y226640D02*
X444020D01*
X443746Y226585D01*
X443514Y226430D01*
X443360Y226199D01*
X443305Y225925D01*
Y220618D01*
X443360Y220345D01*
X443514Y220113D01*
X443746Y219958D01*
X444020Y219904D01*
X444082D01*
Y216380D01*
X442620Y214918D01*
X430500D01*
X430207Y214859D01*
X430149Y214848D01*
X429851Y214649D01*
X428111Y212909D01*
X427912Y212611D01*
X427842Y212260D01*
Y210756D01*
X426193D01*
Y204244D01*
X427842D01*
Y165697D01*
X427912Y165346D01*
X428111Y165048D01*
X434662Y158497D01*
X434325Y158058D01*
X433759Y156691D01*
X433566Y155224D01*
X433759Y153758D01*
X434325Y152391D01*
X435225Y151217D01*
X436399Y150317D01*
X437766Y149751D01*
X439232Y149558D01*
X440699Y149751D01*
X442066Y150317D01*
X443239Y151217D01*
X444140Y152391D01*
X444706Y153758D01*
X444899Y155224D01*
X444706Y156691D01*
X444140Y158058D01*
X443239Y159231D01*
X442066Y160132D01*
X440699Y160698D01*
X439232Y160891D01*
X437766Y160698D01*
X436399Y160132D01*
X435960Y159795D01*
X429677Y166077D01*
Y204244D01*
X431327D01*
Y210756D01*
X429677D01*
Y211880D01*
X430880Y213082D01*
X443000D01*
X443351Y213152D01*
X443649Y213351D01*
X445649Y215351D01*
X445848Y215649D01*
X445918Y216000D01*
Y219904D01*
X445980D01*
X446254Y219958D01*
X446486Y220113D01*
X446640Y220345D01*
X446695Y220618D01*
Y225925D01*
X446640Y226199D01*
X446486Y226430D01*
X446254Y226585D01*
X445980Y226640D01*
D02*
G37*
G36*
X455268Y154724D02*
X449669D01*
X449738Y154025D01*
X450088Y152872D01*
X450656Y151809D01*
X451421Y150877D01*
X452352Y150113D01*
X453415Y149545D01*
X454568Y149195D01*
X455268Y149126D01*
Y154724D01*
D02*
G37*
G36*
X139268D02*
X133669D01*
X133738Y154025D01*
X134088Y152872D01*
X134656Y151809D01*
X135421Y150877D01*
X136352Y150113D01*
X137415Y149545D01*
X138568Y149195D01*
X139268Y149126D01*
Y154724D01*
D02*
G37*
G36*
X145866D02*
X140268D01*
Y149126D01*
X140967Y149195D01*
X142120Y149545D01*
X143183Y150113D01*
X144115Y150877D01*
X144879Y151809D01*
X145448Y152872D01*
X145797Y154025D01*
X145866Y154724D01*
D02*
G37*
G36*
X455768Y182545D02*
X454301Y182352D01*
X452934Y181785D01*
X451761Y180885D01*
X450860Y179711D01*
X450294Y178345D01*
X450101Y176878D01*
X450294Y175411D01*
X450860Y174045D01*
X451761Y172871D01*
X452934Y171970D01*
X454301Y171404D01*
X455768Y171211D01*
X457234Y171404D01*
X458601Y171970D01*
X459775Y172871D01*
X460675Y174045D01*
X461241Y175411D01*
X461434Y176878D01*
X461241Y178345D01*
X460675Y179711D01*
X459775Y180885D01*
X458601Y181785D01*
X457234Y182352D01*
X455768Y182545D01*
D02*
G37*
G36*
X294350Y185968D02*
Y183500D01*
X296622D01*
Y185968D01*
X294350D01*
D02*
G37*
G36*
X228500Y188500D02*
X225536D01*
X225590Y188086D01*
X225943Y187235D01*
X226504Y186504D01*
X227235Y185943D01*
X228086Y185590D01*
X228500Y185536D01*
Y188500D01*
D02*
G37*
G36*
X169500Y187142D02*
X165850D01*
Y182204D01*
X165350Y182035D01*
X164996Y182496D01*
X164265Y183057D01*
X163414Y183410D01*
X163000Y183464D01*
Y180000D01*
Y176536D01*
X163414Y176590D01*
X164265Y176943D01*
X164996Y177504D01*
X165350Y177965D01*
X165850Y177796D01*
Y172543D01*
X169500D01*
Y179842D01*
Y187142D01*
D02*
G37*
G36*
X162000Y183464D02*
X161586Y183410D01*
X160735Y183057D01*
X160004Y182496D01*
X159443Y181765D01*
X159090Y180914D01*
X159036Y180500D01*
X162000D01*
Y183464D01*
D02*
G37*
G36*
X211500D02*
Y180500D01*
X214464D01*
X214410Y180914D01*
X214057Y181765D01*
X213496Y182496D01*
X212765Y183057D01*
X211914Y183410D01*
X211500Y183464D01*
D02*
G37*
G36*
X340000Y195777D02*
X338893Y195631D01*
X337862Y195204D01*
X336976Y194524D01*
X336296Y193638D01*
X335869Y192607D01*
X335723Y191500D01*
X335869Y190393D01*
X336296Y189362D01*
X336976Y188476D01*
X337862Y187796D01*
X338893Y187369D01*
X340000Y187223D01*
X341107Y187369D01*
X342138Y187796D01*
X343024Y188476D01*
X343704Y189362D01*
X344131Y190393D01*
X344277Y191500D01*
X344131Y192607D01*
X343704Y193638D01*
X343024Y194524D01*
X342138Y195204D01*
X341107Y195631D01*
X340000Y195777D01*
D02*
G37*
G36*
X228500Y192464D02*
X228086Y192410D01*
X227235Y192057D01*
X226504Y191496D01*
X225943Y190765D01*
X225590Y189914D01*
X225536Y189500D01*
X228500D01*
Y192464D01*
D02*
G37*
G36*
X330000Y195777D02*
X328893Y195631D01*
X327862Y195204D01*
X326976Y194524D01*
X326296Y193638D01*
X325869Y192607D01*
X325723Y191500D01*
X325869Y190393D01*
X326296Y189362D01*
X326976Y188476D01*
X327862Y187796D01*
X328893Y187369D01*
X330000Y187223D01*
X331107Y187369D01*
X332138Y187796D01*
X333024Y188476D01*
X333704Y189362D01*
X334131Y190393D01*
X334277Y191500D01*
X334131Y192607D01*
X333704Y193638D01*
X333024Y194524D01*
X332138Y195204D01*
X331107Y195631D01*
X330000Y195777D01*
D02*
G37*
G36*
X229500Y192464D02*
Y189000D01*
Y185536D01*
X229914Y185590D01*
X230765Y185943D01*
X231496Y186504D01*
X232057Y187235D01*
X232408Y188082D01*
X233032D01*
Y186185D01*
X235500D01*
Y189154D01*
Y192122D01*
X233032D01*
Y189918D01*
X232408D01*
X232057Y190765D01*
X231496Y191496D01*
X230765Y192057D01*
X229914Y192410D01*
X229500Y192464D01*
D02*
G37*
G36*
X272969Y188654D02*
X270500D01*
Y186185D01*
X272969D01*
Y188654D01*
D02*
G37*
G36*
X202000Y187142D02*
X198350D01*
Y180342D01*
X202000D01*
Y187142D01*
D02*
G37*
G36*
X415126Y184673D02*
X408614D01*
Y175799D01*
X415126D01*
Y184673D01*
D02*
G37*
G36*
X162000Y179500D02*
X159036D01*
X159090Y179086D01*
X159443Y178235D01*
X160004Y177504D01*
X160735Y176943D01*
X161586Y176590D01*
X162000Y176536D01*
Y179500D01*
D02*
G37*
G36*
X360992Y184673D02*
X354480D01*
Y175799D01*
X360992D01*
Y184673D01*
D02*
G37*
G36*
X174150Y179342D02*
X170500D01*
Y172543D01*
X174150D01*
Y179342D01*
D02*
G37*
G36*
X202000D02*
X198350D01*
Y172543D01*
X202000D01*
Y179342D01*
D02*
G37*
G36*
X296622Y182500D02*
X294350D01*
Y180032D01*
X296622D01*
Y182500D01*
D02*
G37*
G36*
X174150Y187142D02*
X170500D01*
Y180342D01*
X174150D01*
Y187142D01*
D02*
G37*
G36*
X294715Y191000D02*
X285285D01*
X285382Y190263D01*
X285859Y189110D01*
X286619Y188119D01*
X287610Y187359D01*
X288763Y186882D01*
X289082Y186840D01*
Y184500D01*
X289152Y184149D01*
X289351Y183851D01*
X290851Y182351D01*
X291079Y182199D01*
Y180032D01*
X293350D01*
Y183000D01*
Y185968D01*
X291221D01*
X290949Y186415D01*
X291062Y186859D01*
X291237Y186882D01*
X292390Y187359D01*
X293381Y188119D01*
X294141Y189110D01*
X294618Y190263D01*
X294715Y191000D01*
D02*
G37*
G36*
X206650Y187142D02*
X203000D01*
Y179842D01*
Y172543D01*
X206650D01*
Y178109D01*
X208039D01*
X208504Y177504D01*
X209235Y176943D01*
X210086Y176590D01*
X210500Y176536D01*
Y180000D01*
Y183464D01*
X210086Y183410D01*
X209235Y183057D01*
X208504Y182496D01*
X207943Y181765D01*
X207864Y181576D01*
X206650D01*
Y187142D01*
D02*
G37*
G36*
X214464Y179500D02*
X211500D01*
Y176536D01*
X211914Y176590D01*
X212765Y176943D01*
X213496Y177504D01*
X214057Y178235D01*
X214410Y179086D01*
X214464Y179500D01*
D02*
G37*
G36*
X379500Y383923D02*
X378660Y383813D01*
X377411Y383295D01*
X376339Y382472D01*
X375516Y381400D01*
X374998Y380151D01*
X374888Y379311D01*
X379500D01*
Y383923D01*
D02*
G37*
G36*
X355878Y383923D02*
X355038Y383813D01*
X353789Y383295D01*
X352716Y382472D01*
X351893Y381400D01*
X351376Y380151D01*
X351266Y379311D01*
X355878D01*
Y383923D01*
D02*
G37*
G36*
X344067Y383923D02*
X343227Y383813D01*
X341978Y383295D01*
X340905Y382472D01*
X340083Y381400D01*
X339565Y380151D01*
X339455Y379311D01*
X344067D01*
Y383923D01*
D02*
G37*
G36*
X416067D02*
X415227Y383813D01*
X413978Y383295D01*
X412905Y382472D01*
X412082Y381400D01*
X411565Y380151D01*
X411455Y379311D01*
X416067D01*
Y383923D01*
D02*
G37*
G36*
X185378Y383985D02*
X184168Y383826D01*
X183041Y383359D01*
X182073Y382616D01*
X181330Y381648D01*
X180863Y380521D01*
X180704Y379311D01*
X180863Y378101D01*
X181113Y377498D01*
X178683Y375067D01*
X177247D01*
X177086Y375541D01*
X177228Y375649D01*
X178051Y376722D01*
X178569Y377971D01*
X178679Y378811D01*
X173567D01*
X168455D01*
X168565Y377971D01*
X169082Y376722D01*
X169905Y375649D01*
X170047Y375541D01*
X169887Y375067D01*
X169834D01*
X169834Y375067D01*
X169171Y374935D01*
X168608Y374559D01*
X166274Y372226D01*
X165899Y371663D01*
X165767Y371000D01*
Y359279D01*
X155720D01*
Y330720D01*
X184280D01*
Y359279D01*
X169233D01*
Y364714D01*
X169733Y364884D01*
X170262Y364195D01*
X171230Y363452D01*
X172357Y362985D01*
X173567Y362826D01*
X174777Y362985D01*
X175904Y363452D01*
X176872Y364195D01*
X177615Y365163D01*
X178082Y366290D01*
X178241Y367500D01*
X178082Y368710D01*
X177615Y369837D01*
X176872Y370805D01*
X176487Y371101D01*
X176656Y371601D01*
X179401D01*
X180064Y371732D01*
X180626Y372108D01*
X183565Y375046D01*
X184168Y374796D01*
X185378Y374637D01*
X186588Y374796D01*
X187715Y375263D01*
X188683Y376006D01*
X189426Y376974D01*
X189892Y378101D01*
X190052Y379311D01*
X189892Y380521D01*
X189426Y381648D01*
X188683Y382616D01*
X187715Y383359D01*
X186588Y383826D01*
X185378Y383985D01*
D02*
G37*
G36*
X132000Y351401D02*
X126401D01*
X126470Y350702D01*
X126820Y349549D01*
X127388Y348486D01*
X128153Y347554D01*
X129085Y346790D01*
X130147Y346222D01*
X131301Y345872D01*
X132000Y345803D01*
Y351401D01*
D02*
G37*
G36*
X138599D02*
X133000D01*
Y345803D01*
X133699Y345872D01*
X134853Y346222D01*
X135916Y346790D01*
X136847Y347554D01*
X137612Y348486D01*
X138180Y349549D01*
X138530Y350702D01*
X138599Y351401D01*
D02*
G37*
G36*
X197189Y383985D02*
X195979Y383826D01*
X194852Y383359D01*
X193884Y382616D01*
X193141Y381648D01*
X192674Y380521D01*
X192515Y379311D01*
X192674Y378101D01*
X193141Y376974D01*
X193884Y376006D01*
X194852Y375263D01*
X195979Y374796D01*
X197189Y374637D01*
X198399Y374796D01*
X199526Y375263D01*
X200494Y376006D01*
X201237Y376974D01*
X201704Y378101D01*
X201863Y379311D01*
X201704Y380521D01*
X201237Y381648D01*
X200494Y382616D01*
X199526Y383359D01*
X198399Y383826D01*
X197189Y383985D01*
D02*
G37*
G36*
X313708Y347000D02*
X311500D01*
Y344792D01*
X311718Y344821D01*
X312387Y345098D01*
X312961Y345539D01*
X313402Y346113D01*
X313679Y346782D01*
X313708Y347000D01*
D02*
G37*
G36*
X316724Y318205D02*
X313469D01*
Y314161D01*
X316724D01*
Y318205D01*
D02*
G37*
G36*
X345067Y383923D02*
Y379311D01*
X349679D01*
X349569Y380151D01*
X349051Y381400D01*
X348228Y382472D01*
X347156Y383295D01*
X345907Y383813D01*
X345067Y383923D01*
D02*
G37*
G36*
X324000Y316964D02*
Y314000D01*
X326964D01*
X326910Y314414D01*
X326557Y315265D01*
X325996Y315996D01*
X325265Y316557D01*
X324414Y316910D01*
X324000Y316964D01*
D02*
G37*
G36*
X417067Y383923D02*
Y379311D01*
X421679D01*
X421569Y380151D01*
X421051Y381400D01*
X420228Y382472D01*
X419156Y383295D01*
X417907Y383813D01*
X417067Y383923D01*
D02*
G37*
G36*
X368689D02*
Y379311D01*
X373301D01*
X373191Y380151D01*
X372673Y381400D01*
X371850Y382472D01*
X370778Y383295D01*
X369529Y383813D01*
X368689Y383923D01*
D02*
G37*
G36*
X209000Y383985D02*
X207790Y383826D01*
X206663Y383359D01*
X205695Y382616D01*
X204952Y381648D01*
X204485Y380521D01*
X204326Y379311D01*
X204485Y378101D01*
X204952Y376974D01*
X205695Y376006D01*
X206663Y375263D01*
X207790Y374796D01*
X209000Y374637D01*
X210210Y374796D01*
X211337Y375263D01*
X212305Y376006D01*
X213048Y376974D01*
X213298Y377578D01*
X234971D01*
X240767Y371782D01*
Y359279D01*
X228221D01*
Y330720D01*
X256780D01*
Y359279D01*
X244233D01*
Y372500D01*
X244101Y373163D01*
X243726Y373726D01*
X236915Y380537D01*
X236352Y380912D01*
X235689Y381044D01*
X213298D01*
X213048Y381648D01*
X212305Y382616D01*
X211337Y383359D01*
X210210Y383826D01*
X209000Y383985D01*
D02*
G37*
G36*
X367689Y383923D02*
X366849Y383813D01*
X365600Y383295D01*
X364528Y382472D01*
X363705Y381400D01*
X363187Y380151D01*
X363077Y379311D01*
X367689D01*
Y383923D01*
D02*
G37*
G36*
X288500Y322464D02*
X288086Y322410D01*
X287235Y322057D01*
X286504Y321496D01*
X285943Y320765D01*
X285590Y319914D01*
X285536Y319500D01*
X288500D01*
Y322464D01*
D02*
G37*
G36*
X289500D02*
Y319500D01*
X292464D01*
X292410Y319914D01*
X292057Y320765D01*
X291496Y321496D01*
X290765Y322057D01*
X289914Y322410D01*
X289500Y322464D01*
D02*
G37*
G36*
X373301Y378311D02*
X368689D01*
Y373699D01*
X369529Y373809D01*
X370778Y374327D01*
X371850Y375149D01*
X372673Y376222D01*
X373191Y377471D01*
X373301Y378311D01*
D02*
G37*
G36*
X355878D02*
X351266D01*
X351376Y377471D01*
X351893Y376222D01*
X352716Y375149D01*
X353789Y374327D01*
X355038Y373809D01*
X355878Y373699D01*
Y378311D01*
D02*
G37*
G36*
X452000Y371674D02*
X450790Y371515D01*
X449663Y371048D01*
X448695Y370305D01*
X447952Y369337D01*
X447485Y368210D01*
X447326Y367000D01*
X447485Y365790D01*
X447952Y364663D01*
X448695Y363695D01*
X449663Y362952D01*
X450790Y362485D01*
X452000Y362326D01*
X453210Y362485D01*
X454337Y362952D01*
X455305Y363695D01*
X456048Y364663D01*
X456515Y365790D01*
X456674Y367000D01*
X456515Y368210D01*
X456048Y369337D01*
X455305Y370305D01*
X454337Y371048D01*
X453210Y371515D01*
X452000Y371674D01*
D02*
G37*
G36*
X209000Y372174D02*
X207790Y372015D01*
X206663Y371548D01*
X205695Y370805D01*
X204952Y369837D01*
X204485Y368710D01*
X204326Y367500D01*
X204485Y366290D01*
X204735Y365687D01*
X202282Y363233D01*
X200062D01*
X199892Y363733D01*
X200494Y364195D01*
X201237Y365163D01*
X201704Y366290D01*
X201863Y367500D01*
X201704Y368710D01*
X201237Y369837D01*
X200494Y370805D01*
X199526Y371548D01*
X198399Y372015D01*
X197189Y372174D01*
X195979Y372015D01*
X194852Y371548D01*
X193884Y370805D01*
X193141Y369837D01*
X192674Y368710D01*
X192515Y367500D01*
X192674Y366290D01*
X193141Y365163D01*
X193884Y364195D01*
X194486Y363733D01*
X194316Y363233D01*
X192096D01*
X189643Y365687D01*
X189892Y366290D01*
X190052Y367500D01*
X189892Y368710D01*
X189426Y369837D01*
X188683Y370805D01*
X187715Y371548D01*
X186588Y372015D01*
X185378Y372174D01*
X184168Y372015D01*
X183041Y371548D01*
X182073Y370805D01*
X181330Y369837D01*
X180863Y368710D01*
X180704Y367500D01*
X180863Y366290D01*
X181330Y365163D01*
X182073Y364195D01*
X183041Y363452D01*
X184168Y362985D01*
X185378Y362826D01*
X186588Y362985D01*
X187191Y363235D01*
X190152Y360274D01*
X190715Y359899D01*
X191378Y359767D01*
X191690D01*
X191720Y359279D01*
X191720Y359267D01*
Y330720D01*
X220280D01*
Y359279D01*
X203114D01*
X203064Y359780D01*
X203663Y359899D01*
X204226Y360274D01*
X207187Y363235D01*
X207790Y362985D01*
X209000Y362826D01*
X210210Y362985D01*
X211337Y363452D01*
X212305Y364195D01*
X213048Y365163D01*
X213515Y366290D01*
X213674Y367500D01*
X213515Y368710D01*
X213048Y369837D01*
X212305Y370805D01*
X211337Y371548D01*
X210210Y372015D01*
X209000Y372174D01*
D02*
G37*
G36*
X349679Y378311D02*
X345067D01*
Y373699D01*
X345907Y373809D01*
X347156Y374327D01*
X348228Y375149D01*
X349051Y376222D01*
X349569Y377471D01*
X349679Y378311D01*
D02*
G37*
G36*
X361490D02*
X356878D01*
Y373699D01*
X357718Y373809D01*
X358967Y374327D01*
X360039Y375149D01*
X360862Y376222D01*
X361380Y377471D01*
X361490Y378311D01*
D02*
G37*
G36*
X344067D02*
X339455D01*
X339565Y377471D01*
X340083Y376222D01*
X340905Y375149D01*
X341978Y374327D01*
X343227Y373809D01*
X344067Y373699D01*
Y378311D01*
D02*
G37*
G36*
X379500D02*
X374888D01*
X374998Y377471D01*
X375516Y376222D01*
X376339Y375149D01*
X377411Y374327D01*
X378660Y373809D01*
X379500Y373699D01*
Y378311D01*
D02*
G37*
G36*
X385112D02*
X380500D01*
Y373699D01*
X381340Y373809D01*
X382589Y374327D01*
X383662Y375149D01*
X384484Y376222D01*
X385002Y377471D01*
X385112Y378311D01*
D02*
G37*
G36*
X458968Y351122D02*
X456500D01*
Y348850D01*
X458968D01*
Y351122D01*
D02*
G37*
G36*
X379969D02*
X377500D01*
Y348850D01*
X379969D01*
Y351122D01*
D02*
G37*
G36*
X132500Y387078D02*
X131244Y386955D01*
X130037Y386588D01*
X128924Y385994D01*
X127949Y385193D01*
X127148Y384218D01*
X126553Y383105D01*
X126187Y381897D01*
X126064Y380642D01*
X126187Y379386D01*
X126553Y378179D01*
X127148Y377066D01*
X127949Y376090D01*
X128924Y375290D01*
X130037Y374695D01*
X131244Y374329D01*
X132500Y374205D01*
X133756Y374329D01*
X134963Y374695D01*
X136076Y375290D01*
X137051Y376090D01*
X137852Y377066D01*
X138447Y378179D01*
X138813Y379386D01*
X138936Y380642D01*
X138813Y381897D01*
X138447Y383105D01*
X137852Y384218D01*
X137051Y385193D01*
X136076Y385994D01*
X134963Y386588D01*
X133756Y386955D01*
X132500Y387078D01*
D02*
G37*
G36*
X311500Y350208D02*
Y348000D01*
X313708D01*
X313679Y348218D01*
X313402Y348887D01*
X312961Y349461D01*
X312387Y349902D01*
X311718Y350179D01*
X311500Y350208D01*
D02*
G37*
G36*
X273067Y383485D02*
X271857Y383326D01*
X270730Y382859D01*
X269762Y382116D01*
X269019Y381148D01*
X268552Y380021D01*
X268393Y378811D01*
X268552Y377601D01*
X269019Y376474D01*
X269762Y375506D01*
X270730Y374763D01*
X271857Y374296D01*
X273067Y374137D01*
X274277Y374296D01*
X275404Y374763D01*
X276372Y375506D01*
X277115Y376474D01*
X277582Y377601D01*
X277741Y378811D01*
X277582Y380021D01*
X277115Y381148D01*
X276372Y382116D01*
X275404Y382859D01*
X274277Y383326D01*
X273067Y383485D01*
D02*
G37*
G36*
X269500Y355208D02*
X269282Y355179D01*
X268613Y354902D01*
X268039Y354461D01*
X267598Y353887D01*
X267321Y353218D01*
X267292Y353000D01*
X269500D01*
Y355208D01*
D02*
G37*
G36*
X367689Y378311D02*
X363077D01*
X363187Y377471D01*
X363705Y376222D01*
X364528Y375149D01*
X365600Y374327D01*
X366849Y373809D01*
X367689Y373699D01*
Y378311D01*
D02*
G37*
G36*
X132000Y358000D02*
X131301Y357931D01*
X130147Y357581D01*
X129085Y357013D01*
X128153Y356249D01*
X127388Y355317D01*
X126820Y354254D01*
X126470Y353101D01*
X126401Y352401D01*
X132000D01*
Y358000D01*
D02*
G37*
G36*
X133000D02*
Y352401D01*
X138599D01*
X138530Y353101D01*
X138180Y354254D01*
X137612Y355317D01*
X136847Y356249D01*
X135916Y357013D01*
X134853Y357581D01*
X133699Y357931D01*
X133000Y358000D01*
D02*
G37*
G36*
X352992Y402453D02*
X351698Y402326D01*
X350453Y401948D01*
X349306Y401335D01*
X348301Y400510D01*
X347476Y399505D01*
X346863Y398358D01*
X346485Y397113D01*
X346358Y395819D01*
X346485Y394525D01*
X346863Y393280D01*
X347476Y392133D01*
X348301Y391128D01*
X349306Y390303D01*
X350453Y389690D01*
X351698Y389312D01*
X352992Y389185D01*
X354286Y389312D01*
X355531Y389690D01*
X356678Y390303D01*
X357683Y391128D01*
X358508Y392133D01*
X359121Y393280D01*
X359499Y394525D01*
X359626Y395819D01*
X359499Y397113D01*
X359121Y398358D01*
X358508Y399505D01*
X357683Y400510D01*
X356678Y401335D01*
X355531Y401948D01*
X354286Y402326D01*
X352992Y402453D01*
D02*
G37*
G36*
X174067Y384423D02*
Y379811D01*
X178679D01*
X178569Y380651D01*
X178051Y381900D01*
X177228Y382973D01*
X176156Y383795D01*
X174907Y384313D01*
X174067Y384423D01*
D02*
G37*
G36*
X132500Y290158D02*
D01*
Y289657D01*
X128350D01*
Y282858D01*
X130767D01*
Y282070D01*
X130735Y282057D01*
X130004Y281496D01*
X129443Y280765D01*
X129090Y279914D01*
X129036Y279500D01*
X135964D01*
X135910Y279914D01*
X135557Y280765D01*
X134996Y281496D01*
X134265Y282057D01*
X134233Y282070D01*
Y282858D01*
X136650D01*
Y289657D01*
X132500D01*
Y290158D01*
D02*
G37*
G36*
X131500Y132921D02*
X130244Y132797D01*
X129037Y132431D01*
X127924Y131836D01*
X126949Y131035D01*
X126148Y130060D01*
X125553Y128947D01*
X125187Y127740D01*
X125064Y126484D01*
X125187Y125229D01*
X125553Y124021D01*
X126148Y122908D01*
X126949Y121933D01*
X127924Y121133D01*
X129037Y120538D01*
X130244Y120171D01*
X131500Y120048D01*
X132756Y120171D01*
X133963Y120538D01*
X135076Y121133D01*
X136051Y121933D01*
X136852Y122908D01*
X137447Y124021D01*
X137813Y125229D01*
X137936Y126484D01*
X137813Y127740D01*
X137447Y128947D01*
X136852Y130060D01*
X136051Y131035D01*
X135076Y131836D01*
X133963Y132431D01*
X132756Y132797D01*
X131500Y132921D01*
D02*
G37*
G36*
X132000Y297457D02*
X128350D01*
Y290657D01*
X132000D01*
Y297457D01*
D02*
G37*
G36*
X300500Y302000D02*
X297536D01*
X297590Y301586D01*
X297943Y300735D01*
X298504Y300004D01*
X299235Y299443D01*
X300086Y299090D01*
X300500Y299036D01*
Y302000D01*
D02*
G37*
G36*
X323500Y302150D02*
X321031D01*
Y299878D01*
X323500D01*
Y302150D01*
D02*
G37*
G36*
X136650Y297457D02*
X133000D01*
Y290657D01*
X136650D01*
Y297457D01*
D02*
G37*
G36*
X304464Y302000D02*
X301500D01*
Y299036D01*
X301914Y299090D01*
X302765Y299443D01*
X303496Y300004D01*
X303546Y300069D01*
X304020Y299908D01*
Y296839D01*
X307276D01*
Y300882D01*
X304568D01*
X304290Y301298D01*
X304410Y301586D01*
X304464Y302000D01*
D02*
G37*
G36*
X443496Y402453D02*
X442202Y402326D01*
X440957Y401948D01*
X439810Y401335D01*
X438805Y400510D01*
X437980Y399505D01*
X437367Y398358D01*
X436989Y397113D01*
X436862Y395819D01*
X436989Y394525D01*
X437367Y393280D01*
X437980Y392133D01*
X438805Y391128D01*
X439810Y390303D01*
X440957Y389690D01*
X442202Y389312D01*
X443496Y389185D01*
X444790Y389312D01*
X446035Y389690D01*
X447182Y390303D01*
X448187Y391128D01*
X449012Y392133D01*
X449625Y393280D01*
X450003Y394525D01*
X450130Y395819D01*
X450003Y397113D01*
X449625Y398358D01*
X449012Y399505D01*
X448187Y400510D01*
X447182Y401335D01*
X446035Y401948D01*
X444790Y402326D01*
X443496Y402453D01*
D02*
G37*
G36*
X424992D02*
X423698Y402326D01*
X422453Y401948D01*
X421306Y401335D01*
X420301Y400510D01*
X419476Y399505D01*
X418863Y398358D01*
X418485Y397113D01*
X418358Y395819D01*
X418485Y394525D01*
X418863Y393280D01*
X419476Y392133D01*
X420301Y391128D01*
X421306Y390303D01*
X422453Y389690D01*
X423698Y389312D01*
X424992Y389185D01*
X426286Y389312D01*
X427531Y389690D01*
X428678Y390303D01*
X429683Y391128D01*
X430508Y392133D01*
X431121Y393280D01*
X431499Y394525D01*
X431626Y395819D01*
X431499Y397113D01*
X431121Y398358D01*
X430508Y399505D01*
X429683Y400510D01*
X428678Y401335D01*
X427531Y401948D01*
X426286Y402326D01*
X424992Y402453D01*
D02*
G37*
G36*
X357450Y273500D02*
X355500D01*
Y271550D01*
X355976Y271645D01*
X356802Y272198D01*
X357355Y273025D01*
X357450Y273500D01*
D02*
G37*
G36*
X200496Y402953D02*
X199202Y402826D01*
X197957Y402448D01*
X196810Y401835D01*
X195805Y401010D01*
X194980Y400005D01*
X194367Y398858D01*
X193989Y397613D01*
X193862Y396319D01*
X193989Y395025D01*
X194367Y393780D01*
X194980Y392633D01*
X195805Y391628D01*
X196810Y390803D01*
X197957Y390190D01*
X199202Y389812D01*
X200002Y389733D01*
X199977Y389233D01*
X182511D01*
X182487Y389733D01*
X183286Y389812D01*
X184531Y390190D01*
X185678Y390803D01*
X186683Y391628D01*
X187508Y392633D01*
X188121Y393780D01*
X188499Y395025D01*
X188626Y396319D01*
X188499Y397613D01*
X188121Y398858D01*
X187508Y400005D01*
X186683Y401010D01*
X185678Y401835D01*
X184531Y402448D01*
X183286Y402826D01*
X181992Y402953D01*
X180698Y402826D01*
X179453Y402448D01*
X178306Y401835D01*
X177301Y401010D01*
X176476Y400005D01*
X175863Y398858D01*
X175485Y397613D01*
X175358Y396319D01*
X175485Y395025D01*
X175863Y393780D01*
X176476Y392633D01*
X177301Y391628D01*
X178306Y390803D01*
X179453Y390190D01*
X180698Y389812D01*
X181498Y389733D01*
X181473Y389233D01*
X173218D01*
X166226Y396226D01*
X165663Y396601D01*
X165000Y396733D01*
X127500D01*
X127500Y396733D01*
X126837Y396601D01*
X126650Y396477D01*
X126274Y396226D01*
X126274Y396226D01*
X121026Y390978D01*
X120651Y390415D01*
X120519Y389752D01*
Y333748D01*
X120651Y333085D01*
X121026Y332522D01*
X124526Y329022D01*
X125089Y328647D01*
X125752Y328515D01*
X127137D01*
X127593Y327415D01*
X128493Y326241D01*
X129667Y325341D01*
X130767Y324885D01*
Y316642D01*
X128850D01*
Y303043D01*
X136150D01*
Y316642D01*
X134233D01*
Y324885D01*
X135333Y325341D01*
X136507Y326241D01*
X137407Y327415D01*
X137863Y328515D01*
X151534D01*
X153274Y326774D01*
X153274Y326774D01*
X153837Y326399D01*
X154500Y326267D01*
X157376D01*
X157492Y325815D01*
X157492Y325767D01*
Y321311D01*
X156394D01*
X156101Y321253D01*
X156043Y321241D01*
X155745Y321043D01*
X153351Y318649D01*
X153152Y318351D01*
X153082Y318000D01*
Y269500D01*
X153152Y269149D01*
X153351Y268851D01*
X155274Y266928D01*
X155040Y266455D01*
X154500Y266526D01*
X153717Y266423D01*
X152987Y266121D01*
X152360Y265640D01*
X151880Y265013D01*
X151577Y264283D01*
X151474Y263500D01*
X151577Y262717D01*
X151880Y261987D01*
X152360Y261360D01*
X152987Y260879D01*
X153582Y260633D01*
Y259968D01*
X152079D01*
Y255031D01*
X156622D01*
Y259968D01*
X155418D01*
Y260633D01*
X156013Y260879D01*
X156640Y261360D01*
X157121Y261987D01*
X157423Y262717D01*
X157526Y263500D01*
X157455Y264040D01*
X157928Y264274D01*
X159732Y262470D01*
Y259968D01*
X158378D01*
Y255031D01*
X162921D01*
Y256582D01*
X163500D01*
X163851Y256652D01*
X164149Y256851D01*
X164179Y256881D01*
X164579Y257114D01*
Y257114D01*
X164579Y257114D01*
X167941D01*
X168082Y256673D01*
Y255500D01*
X168152Y255149D01*
X168351Y254851D01*
X168782Y254420D01*
Y243461D01*
X168852Y243110D01*
X169051Y242813D01*
X176413Y235451D01*
X176710Y235252D01*
X177061Y235182D01*
X264020D01*
X266584Y232618D01*
X266461Y232000D01*
X266616Y231220D01*
X267058Y230558D01*
X267720Y230116D01*
X268500Y229961D01*
X269280Y230116D01*
X269942Y230558D01*
X270384Y231220D01*
X270539Y232000D01*
X270384Y232780D01*
X269942Y233442D01*
X269855Y233500D01*
Y234000D01*
X269942Y234058D01*
X270384Y234720D01*
X270539Y235500D01*
X270384Y236280D01*
X269942Y236942D01*
X269432Y237282D01*
X269584Y237782D01*
X285626D01*
Y237630D01*
Y235661D01*
Y233733D01*
X277148D01*
X277119Y233878D01*
X276622Y234622D01*
X275878Y235120D01*
X275000Y235294D01*
X274122Y235120D01*
X273378Y234622D01*
X272881Y233878D01*
X272706Y233000D01*
X272881Y232122D01*
X273378Y231378D01*
X274122Y230880D01*
X275000Y230706D01*
X275878Y230880D01*
X276622Y231378D01*
X276969Y231897D01*
X282188D01*
X282340Y231397D01*
X282198Y231302D01*
X281645Y230475D01*
X281551Y230000D01*
X284000D01*
Y229000D01*
X281551D01*
X281645Y228524D01*
X282017Y227968D01*
X281750Y227468D01*
X152330D01*
X150649Y229149D01*
X150351Y229348D01*
X150000Y229418D01*
X148096D01*
Y229480D01*
X148042Y229754D01*
X147887Y229986D01*
X147655Y230140D01*
X147382Y230195D01*
X142075D01*
X141801Y230140D01*
X141570Y229986D01*
X141415Y229754D01*
X141360Y229480D01*
Y227520D01*
X141415Y227246D01*
X141570Y227014D01*
X141801Y226860D01*
X142075Y226805D01*
X147382D01*
X147655Y226860D01*
X147887Y227014D01*
X148042Y227246D01*
X148096Y227520D01*
Y227582D01*
X149620D01*
X150572Y226630D01*
X150381Y226168D01*
X139630D01*
X138418Y227380D01*
Y241620D01*
X139380Y242582D01*
X141360D01*
Y242520D01*
X141415Y242246D01*
X141570Y242014D01*
X141801Y241860D01*
X142075Y241805D01*
X147382D01*
X147655Y241860D01*
X147887Y242014D01*
X148042Y242246D01*
X148096Y242520D01*
Y244480D01*
X148042Y244754D01*
X147887Y244986D01*
X147742Y245082D01*
X147791Y245492D01*
X147825Y245582D01*
X148620D01*
X150232Y243970D01*
Y239530D01*
X150120Y239418D01*
X148096D01*
Y239480D01*
X148042Y239754D01*
X147887Y239986D01*
X147655Y240140D01*
X147382Y240195D01*
X142075D01*
X141801Y240140D01*
X141570Y239986D01*
X141415Y239754D01*
X141360Y239480D01*
Y237520D01*
X141415Y237246D01*
X141570Y237014D01*
X141801Y236860D01*
X142075Y236805D01*
X147382D01*
X147655Y236860D01*
X147887Y237014D01*
X148042Y237246D01*
X148096Y237520D01*
Y237582D01*
X150500D01*
X150851Y237652D01*
X151149Y237851D01*
X151530Y238232D01*
X152532D01*
Y236878D01*
X157468D01*
Y241421D01*
X152532D01*
X152532Y241421D01*
Y241421D01*
X152532Y241421D01*
X152067Y241508D01*
Y244350D01*
X151997Y244702D01*
X151798Y244999D01*
X149649Y247149D01*
X149351Y247348D01*
X149000Y247418D01*
X136000D01*
X135707Y247359D01*
X135649Y247348D01*
X135351Y247149D01*
X134351Y246149D01*
X134152Y245851D01*
X134082Y245500D01*
Y216500D01*
X134152Y216149D01*
X134351Y215851D01*
X139082Y211120D01*
Y200500D01*
X139152Y200149D01*
X139351Y199851D01*
X148351Y190851D01*
X148649Y190652D01*
X149000Y190582D01*
X183120D01*
X191582Y182120D01*
Y163500D01*
X191652Y163149D01*
X191851Y162851D01*
X195194Y159509D01*
X195491Y159310D01*
X195843Y159240D01*
X198850D01*
Y153358D01*
X200767D01*
Y151733D01*
X197000D01*
X196337Y151601D01*
X195774Y151226D01*
X194424Y149875D01*
X194048Y149313D01*
X193916Y148650D01*
Y147468D01*
X193378D01*
Y142532D01*
X193916D01*
Y141498D01*
X193468Y141277D01*
X193362Y141358D01*
X192705Y141630D01*
X192500Y141657D01*
Y139000D01*
Y136343D01*
X192705Y136370D01*
X193362Y136642D01*
X193468Y136723D01*
X193916Y136502D01*
Y134368D01*
X186117Y126568D01*
X185741Y126006D01*
X185609Y125343D01*
Y121346D01*
X182905D01*
Y113654D01*
X191779D01*
Y121346D01*
X189076D01*
Y124625D01*
X196875Y132424D01*
X197251Y132986D01*
X197383Y133650D01*
Y142532D01*
X197921D01*
Y147468D01*
X197625D01*
X197505Y147968D01*
X197784Y148267D01*
X201500D01*
X202163Y148399D01*
X202726Y148774D01*
X203726Y149774D01*
X204101Y150337D01*
X204233Y151000D01*
Y153358D01*
X206150D01*
Y158424D01*
X208428D01*
X208860Y157860D01*
X209487Y157379D01*
X210217Y157077D01*
X211000Y156974D01*
X211783Y157077D01*
X212513Y157379D01*
X213140Y157860D01*
X213620Y158487D01*
X213923Y159217D01*
X214026Y160000D01*
X213923Y160783D01*
X213620Y161513D01*
X213140Y162140D01*
X212513Y162620D01*
X211783Y162923D01*
X211000Y163026D01*
X210217Y162923D01*
X209487Y162620D01*
X208860Y162140D01*
X208669Y161891D01*
X206150D01*
Y166957D01*
X198850D01*
Y161075D01*
X196223D01*
X193418Y163880D01*
Y182500D01*
X193348Y182851D01*
X193149Y183149D01*
X184149Y192149D01*
X183851Y192348D01*
X183500Y192418D01*
X149380D01*
X140918Y200880D01*
Y211500D01*
X140848Y211851D01*
X140649Y212149D01*
X135918Y216880D01*
Y245120D01*
X136380Y245582D01*
X141631D01*
X141666Y245492D01*
X141715Y245082D01*
X141570Y244986D01*
X141415Y244754D01*
X141360Y244480D01*
Y244418D01*
X139000D01*
X138649Y244348D01*
X138351Y244149D01*
X136851Y242649D01*
X136652Y242351D01*
X136582Y242000D01*
Y227000D01*
X136652Y226649D01*
X136851Y226351D01*
X138601Y224602D01*
X138898Y224403D01*
X139250Y224333D01*
X294287D01*
Y220016D01*
X286104D01*
X285698Y220516D01*
X285794Y221000D01*
X285619Y221878D01*
X285122Y222622D01*
X284378Y223119D01*
X283500Y223294D01*
X282622Y223119D01*
X281878Y222622D01*
X281750Y222431D01*
X281250D01*
X281122Y222622D01*
X280378Y223119D01*
X279500Y223294D01*
X278622Y223119D01*
X277878Y222622D01*
X277380Y221878D01*
X277206Y221000D01*
X277380Y220122D01*
X277878Y219378D01*
X278622Y218881D01*
X279500Y218706D01*
X280378Y218881D01*
X280431Y218916D01*
X281267Y218080D01*
X281076Y217618D01*
X242200D01*
X241849Y217548D01*
X241551Y217349D01*
X235351Y211149D01*
X235152Y210851D01*
X235082Y210500D01*
Y209634D01*
X233728D01*
Y205878D01*
X238272D01*
Y209634D01*
X236951D01*
X236932Y210134D01*
X242580Y215782D01*
X247831D01*
X248023Y215320D01*
X243851Y211149D01*
X243652Y210851D01*
X243582Y210500D01*
Y209634D01*
X242228D01*
Y205878D01*
X246772D01*
Y209634D01*
X245451D01*
X245432Y210134D01*
X249780Y214482D01*
X255031D01*
X255223Y214020D01*
X252351Y211149D01*
X252152Y210851D01*
X252082Y210500D01*
Y209634D01*
X250728D01*
Y205878D01*
X255272D01*
Y209634D01*
X253951D01*
X253932Y210134D01*
X256980Y213182D01*
X262731D01*
X262923Y212720D01*
X260851Y210649D01*
X260652Y210351D01*
X260582Y210000D01*
Y209634D01*
X259228D01*
Y205878D01*
X263772D01*
Y209634D01*
X263085D01*
X262894Y210096D01*
X264680Y211882D01*
X269931D01*
X270123Y211420D01*
X269351Y210649D01*
X269152Y210351D01*
X269082Y210000D01*
Y209634D01*
X267728D01*
Y205878D01*
X272272D01*
Y209634D01*
X271585D01*
X271393Y210096D01*
X271880Y210582D01*
X275200D01*
X275274Y210488D01*
X275168Y209816D01*
X274878Y209622D01*
X274380Y208878D01*
X274206Y208000D01*
X274380Y207122D01*
X274878Y206378D01*
X275582Y205907D01*
Y201500D01*
X275652Y201149D01*
X275851Y200851D01*
X277851Y198851D01*
X278149Y198652D01*
X278500Y198582D01*
X296620D01*
X299063Y196139D01*
X299016Y195647D01*
X298893Y195631D01*
X297862Y195204D01*
X296976Y194524D01*
X296296Y193638D01*
X295869Y192607D01*
X295723Y191500D01*
X295869Y190393D01*
X296296Y189362D01*
X296976Y188476D01*
X297862Y187796D01*
X298893Y187369D01*
X299082Y187344D01*
Y185468D01*
X297878D01*
Y180532D01*
X302421D01*
Y185468D01*
X300918D01*
Y187344D01*
X301107Y187369D01*
X302138Y187796D01*
X303024Y188476D01*
X303704Y189362D01*
X304131Y190393D01*
X304277Y191500D01*
X304131Y192607D01*
X303704Y193638D01*
X303024Y194524D01*
X302138Y195204D01*
X301107Y195631D01*
X300918Y195656D01*
Y196500D01*
X300848Y196851D01*
X300649Y197149D01*
X297649Y200149D01*
X297351Y200348D01*
X297000Y200418D01*
X278880D01*
X277418Y201880D01*
Y205907D01*
X278122Y206378D01*
X278620Y207122D01*
X278794Y208000D01*
X278620Y208878D01*
X278122Y209622D01*
X277832Y209816D01*
X277726Y210488D01*
X277800Y210582D01*
X287676D01*
X287776Y210082D01*
X286862Y209704D01*
X285976Y209024D01*
X285296Y208138D01*
X284869Y207107D01*
X284723Y206000D01*
X284869Y204893D01*
X285296Y203862D01*
X285976Y202976D01*
X286862Y202296D01*
X287893Y201869D01*
X289000Y201723D01*
X290107Y201869D01*
X291138Y202296D01*
X292024Y202976D01*
X292704Y203862D01*
X293131Y204893D01*
X293277Y206000D01*
X293131Y207107D01*
X292704Y208138D01*
X292024Y209024D01*
X291138Y209704D01*
X290224Y210082D01*
X290324Y210582D01*
X297676D01*
X297776Y210082D01*
X296862Y209704D01*
X295976Y209024D01*
X295296Y208138D01*
X294869Y207107D01*
X294723Y206000D01*
X294869Y204893D01*
X295296Y203862D01*
X295976Y202976D01*
X296862Y202296D01*
X297893Y201869D01*
X299000Y201723D01*
X300107Y201869D01*
X301138Y202296D01*
X302024Y202976D01*
X302704Y203862D01*
X303131Y204893D01*
X303277Y206000D01*
X303131Y207107D01*
X302704Y208138D01*
X302588Y208290D01*
X303580Y209282D01*
X305200D01*
X305467Y209335D01*
X305467D01*
X305468Y209336D01*
X305732Y209201D01*
X305819Y209062D01*
X305865Y208879D01*
X305849Y208859D01*
X305296Y208138D01*
X304869Y207107D01*
X304723Y206000D01*
X304869Y204893D01*
X305296Y203862D01*
X305976Y202976D01*
X306862Y202296D01*
X307893Y201869D01*
X309000Y201723D01*
X310107Y201869D01*
X311138Y202296D01*
X312024Y202976D01*
X312582Y203703D01*
X313082Y203534D01*
Y201880D01*
X309351Y198149D01*
X309152Y197851D01*
X309082Y197500D01*
Y195656D01*
X308893Y195631D01*
X307862Y195204D01*
X306976Y194524D01*
X306296Y193638D01*
X305869Y192607D01*
X305723Y191500D01*
X305869Y190393D01*
X306296Y189362D01*
X306976Y188476D01*
X307862Y187796D01*
X308893Y187369D01*
X310000Y187223D01*
X311107Y187369D01*
X312138Y187796D01*
X313024Y188476D01*
X313704Y189362D01*
X314131Y190393D01*
X314277Y191500D01*
X314131Y192607D01*
X313704Y193638D01*
X313024Y194524D01*
X312138Y195204D01*
X311107Y195631D01*
X310918Y195656D01*
Y197120D01*
X314649Y200851D01*
X314848Y201149D01*
X314859Y201207D01*
X314918Y201500D01*
Y203534D01*
X315418Y203703D01*
X315976Y202976D01*
X316862Y202296D01*
X317893Y201869D01*
X319000Y201723D01*
X320107Y201869D01*
X321138Y202296D01*
X322024Y202976D01*
X322582Y203703D01*
X323082Y203534D01*
Y195880D01*
X322290Y195088D01*
X322138Y195204D01*
X321107Y195631D01*
X320000Y195777D01*
X318893Y195631D01*
X317862Y195204D01*
X316976Y194524D01*
X316296Y193638D01*
X315869Y192607D01*
X315723Y191500D01*
X315869Y190393D01*
X316296Y189362D01*
X316976Y188476D01*
X317862Y187796D01*
X318893Y187369D01*
X320000Y187223D01*
X321107Y187369D01*
X322138Y187796D01*
X323024Y188476D01*
X323704Y189362D01*
X324131Y190393D01*
X324277Y191500D01*
X324131Y192607D01*
X323704Y193638D01*
X323588Y193790D01*
X324649Y194851D01*
X324848Y195149D01*
X324859Y195207D01*
X324918Y195500D01*
Y203534D01*
X325418Y203703D01*
X325976Y202976D01*
X326862Y202296D01*
X327893Y201869D01*
X329000Y201723D01*
X330107Y201869D01*
X331138Y202296D01*
X332024Y202976D01*
X332704Y203862D01*
X333131Y204893D01*
X333277Y206000D01*
X333131Y207107D01*
X332704Y208138D01*
X332024Y209024D01*
X331138Y209704D01*
X330949Y209782D01*
X331048Y210282D01*
X335973D01*
X336143Y209782D01*
X335619Y209381D01*
X334859Y208390D01*
X334382Y207237D01*
X334285Y206500D01*
X339000D01*
X343715D01*
X343618Y207237D01*
X343141Y208390D01*
X342381Y209381D01*
X341390Y210140D01*
X340237Y210618D01*
X340072Y210640D01*
X339911Y211113D01*
X352380Y223582D01*
X355000D01*
X355351Y223652D01*
X355649Y223851D01*
X356649Y224851D01*
X356848Y225149D01*
X356859Y225207D01*
X356918Y225500D01*
Y228000D01*
X356848Y228351D01*
X356649Y228649D01*
X355771Y229527D01*
X355473Y229726D01*
X355122Y229796D01*
X352374D01*
Y231724D01*
Y233693D01*
Y235661D01*
Y237630D01*
Y239598D01*
Y241567D01*
Y243535D01*
Y245504D01*
Y247472D01*
Y249441D01*
Y251410D01*
Y253378D01*
Y253551D01*
X353651D01*
X357351Y249851D01*
X357649Y249652D01*
X358000Y249582D01*
X365120D01*
X368082Y246620D01*
Y231500D01*
X368152Y231149D01*
X368351Y230851D01*
X384710Y214492D01*
X384531Y213964D01*
X384217Y213923D01*
X383487Y213620D01*
X382918Y213184D01*
X382418Y213297D01*
Y215500D01*
X382348Y215851D01*
X382149Y216149D01*
X364918Y233380D01*
Y240134D01*
X364976Y240145D01*
X365802Y240698D01*
X366355Y241525D01*
X366549Y242500D01*
X366355Y243476D01*
X365802Y244302D01*
X364976Y244855D01*
X364000Y245049D01*
X363024Y244855D01*
X362986Y244829D01*
X362525Y245122D01*
X362355Y245975D01*
X361802Y246802D01*
X360976Y247355D01*
X360000Y247549D01*
X359025Y247355D01*
X358198Y246802D01*
X357645Y245975D01*
X357451Y245000D01*
X357645Y244024D01*
X358198Y243198D01*
X359025Y242645D01*
X359082Y242634D01*
Y235161D01*
X359152Y234810D01*
X359351Y234513D01*
X379282Y214581D01*
Y212194D01*
X378782Y212084D01*
X378302Y212802D01*
X377476Y213355D01*
X376500Y213549D01*
X375524Y213355D01*
X374698Y212802D01*
X374145Y211976D01*
X373951Y211000D01*
X374145Y210024D01*
X374548Y209421D01*
X374281Y208921D01*
X374031D01*
Y204378D01*
X378782D01*
X378969Y204378D01*
X379282Y204008D01*
X379282Y204008D01*
Y202992D01*
X378969Y202622D01*
X374031D01*
Y198079D01*
X375582D01*
Y173806D01*
X375229Y173453D01*
X374760D01*
X374441Y173453D01*
X374350D01*
X374260D01*
X373941Y173453D01*
X370110D01*
Y166547D01*
X373941D01*
X374260Y166547D01*
X374350D01*
X374441D01*
X374760Y166547D01*
X378590D01*
Y166547D01*
X378590Y166547D01*
X378772D01*
Y166547D01*
X378772Y166547D01*
X382602D01*
X382921Y166547D01*
X383266Y166191D01*
X383267Y166190D01*
Y109951D01*
X382860Y109640D01*
X382380Y109013D01*
X382077Y108283D01*
X381974Y107500D01*
X382077Y106717D01*
X382380Y105987D01*
X382860Y105360D01*
X383487Y104879D01*
X384217Y104577D01*
X385000Y104474D01*
X385783Y104577D01*
X386513Y104879D01*
X387140Y105360D01*
X387451Y105767D01*
X473500D01*
X474163Y105899D01*
X474726Y106274D01*
X478726Y110274D01*
X479101Y110837D01*
X479233Y111500D01*
Y263500D01*
Y341500D01*
X479101Y342163D01*
X478726Y342726D01*
X476726Y344726D01*
X476163Y345101D01*
X475500Y345233D01*
X463849D01*
X463802Y345302D01*
X463389Y345579D01*
X463541Y346079D01*
X464468D01*
Y350622D01*
X459531D01*
Y346079D01*
X460460D01*
X460611Y345579D01*
X460198Y345302D01*
X459645Y344476D01*
X459501Y343753D01*
X459499Y343740D01*
X459464Y343741D01*
X459450Y343741D01*
X459175Y343750D01*
X458940Y344153D01*
X458923Y344283D01*
X458621Y345013D01*
X458530Y345130D01*
X458752Y345579D01*
X458968D01*
Y347850D01*
X456000D01*
Y348350D01*
X455500D01*
Y351122D01*
X453918D01*
Y352378D01*
X458468D01*
Y353732D01*
X459531D01*
Y352378D01*
X464468D01*
Y356921D01*
X459531D01*
Y355567D01*
X458468D01*
Y356921D01*
X457541D01*
X457389Y357421D01*
X457802Y357698D01*
X458355Y358524D01*
X458549Y359500D01*
X458355Y360475D01*
X457802Y361302D01*
X456976Y361855D01*
X456000Y362049D01*
X455024Y361855D01*
X454198Y361302D01*
X453645Y360475D01*
X453451Y359500D01*
X453645Y358524D01*
X454198Y357698D01*
X454611Y357421D01*
X454459Y356921D01*
X453532D01*
Y355544D01*
X453298Y355497D01*
X453001Y355298D01*
X452930Y355228D01*
X452468Y355419D01*
Y356921D01*
X447532D01*
Y355567D01*
X446468D01*
Y356921D01*
X445541D01*
X445389Y357421D01*
X445802Y357698D01*
X446355Y358524D01*
X446549Y359500D01*
X446355Y360475D01*
X445802Y361302D01*
X444976Y361855D01*
X444000Y362049D01*
X443024Y361855D01*
X442198Y361302D01*
X441645Y360475D01*
X441451Y359500D01*
X441645Y358524D01*
X442198Y357698D01*
X442611Y357421D01*
X442459Y356921D01*
X441532D01*
Y355544D01*
X441298Y355497D01*
X441001Y355298D01*
X440930Y355228D01*
X440469Y355419D01*
Y356921D01*
X435918D01*
Y364133D01*
X436418Y364303D01*
X436884Y363695D01*
X437852Y362952D01*
X438979Y362485D01*
X440189Y362326D01*
X441399Y362485D01*
X442526Y362952D01*
X443494Y363695D01*
X444237Y364663D01*
X444704Y365790D01*
X444863Y367000D01*
X444704Y368210D01*
X444237Y369337D01*
X443494Y370305D01*
X442526Y371048D01*
X442442Y371082D01*
X442542Y371582D01*
X445689D01*
X446040Y371652D01*
X446338Y371851D01*
X449429Y374943D01*
X449663Y374763D01*
X450790Y374296D01*
X452000Y374137D01*
X453210Y374296D01*
X454337Y374763D01*
X455305Y375506D01*
X456048Y376474D01*
X456515Y377601D01*
X456674Y378811D01*
X456515Y380021D01*
X456048Y381148D01*
X455305Y382116D01*
X454337Y382859D01*
X453210Y383326D01*
X452000Y383485D01*
X450790Y383326D01*
X449663Y382859D01*
X448695Y382116D01*
X447952Y381148D01*
X447485Y380021D01*
X447326Y378811D01*
X447485Y377601D01*
X447952Y376474D01*
X448132Y376240D01*
X445309Y373418D01*
X437500D01*
X437207Y373359D01*
X437149Y373348D01*
X436851Y373149D01*
X434351Y370649D01*
X434152Y370351D01*
X434082Y370000D01*
Y356921D01*
X429531D01*
Y355544D01*
X429298Y355497D01*
X429001Y355298D01*
X428930Y355228D01*
X428469Y355419D01*
Y356921D01*
X423918D01*
Y364418D01*
X424418Y364549D01*
X425073Y363695D01*
X426041Y362952D01*
X427168Y362485D01*
X428378Y362326D01*
X429588Y362485D01*
X430715Y362952D01*
X431683Y363695D01*
X432426Y364663D01*
X432893Y365790D01*
X433052Y367000D01*
X432893Y368210D01*
X432426Y369337D01*
X431683Y370305D01*
X430715Y371048D01*
X430631Y371082D01*
X430731Y371582D01*
X433878D01*
X434229Y371652D01*
X434527Y371851D01*
X437618Y374943D01*
X437852Y374763D01*
X438979Y374296D01*
X440189Y374137D01*
X441399Y374296D01*
X442526Y374763D01*
X443494Y375506D01*
X444237Y376474D01*
X444704Y377601D01*
X444863Y378811D01*
X444704Y380021D01*
X444237Y381148D01*
X443494Y382116D01*
X442526Y382859D01*
X441399Y383326D01*
X440189Y383485D01*
X438979Y383326D01*
X437852Y382859D01*
X436884Y382116D01*
X436141Y381148D01*
X435674Y380021D01*
X435515Y378811D01*
X435674Y377601D01*
X436141Y376474D01*
X436321Y376240D01*
X433498Y373418D01*
X424989D01*
X424782Y373918D01*
X425807Y374943D01*
X426041Y374763D01*
X427168Y374296D01*
X428378Y374137D01*
X429588Y374296D01*
X430715Y374763D01*
X431683Y375506D01*
X432426Y376474D01*
X432893Y377601D01*
X433052Y378811D01*
X432893Y380021D01*
X432426Y381148D01*
X431683Y382116D01*
X430715Y382859D01*
X429588Y383326D01*
X428378Y383485D01*
X427168Y383326D01*
X426041Y382859D01*
X425073Y382116D01*
X424330Y381148D01*
X423863Y380021D01*
X423704Y378811D01*
X423863Y377601D01*
X424330Y376474D01*
X424510Y376240D01*
X421687Y373418D01*
X418268D01*
X418169Y373918D01*
X419156Y374327D01*
X420228Y375149D01*
X421051Y376222D01*
X421569Y377471D01*
X421679Y378311D01*
X416567D01*
X411455D01*
X411565Y377471D01*
X412082Y376222D01*
X412905Y375149D01*
X413978Y374327D01*
X414965Y373918D01*
X414866Y373418D01*
X409500D01*
X409149Y373348D01*
X408851Y373149D01*
X407351Y371649D01*
X407152Y371351D01*
X407082Y371000D01*
Y356921D01*
X405532D01*
Y355544D01*
X405299Y355497D01*
X405001Y355298D01*
X404351Y354649D01*
X404152Y354351D01*
X404082Y354000D01*
Y340380D01*
X400720Y337018D01*
X386600D01*
X386249Y336948D01*
X385951Y336749D01*
X369251Y320049D01*
X369052Y319751D01*
X368982Y319400D01*
Y285513D01*
X368151Y284681D01*
X367952Y284384D01*
X367882Y284033D01*
Y279306D01*
X367952Y278955D01*
X368151Y278657D01*
X370601Y276207D01*
X370461Y275500D01*
X370616Y274720D01*
X371058Y274058D01*
X371145Y274000D01*
Y273500D01*
X371058Y273442D01*
X370616Y272780D01*
X370461Y272000D01*
X370616Y271220D01*
X371058Y270558D01*
X371145Y270500D01*
Y270000D01*
X371058Y269942D01*
X370616Y269280D01*
X370461Y268500D01*
X370616Y267720D01*
X370784Y267469D01*
X370517Y266968D01*
X370378D01*
Y264500D01*
X373150D01*
Y264000D01*
X373650D01*
Y261032D01*
X375921D01*
Y261442D01*
X376421Y261611D01*
X376504Y261504D01*
X377235Y260943D01*
X378086Y260590D01*
X378500Y260536D01*
Y264000D01*
Y267464D01*
X378086Y267410D01*
X377235Y267057D01*
X376504Y266496D01*
X376421Y266389D01*
X375921Y266558D01*
Y266968D01*
X374483D01*
X374216Y267469D01*
X374384Y267720D01*
X374539Y268500D01*
X374399Y269207D01*
X376849Y271657D01*
X377048Y271955D01*
X377118Y272306D01*
Y284438D01*
X377059Y284731D01*
X377048Y284790D01*
X376849Y285087D01*
X376018Y285919D01*
Y316543D01*
X389457Y329982D01*
X443900D01*
X444251Y330052D01*
X444549Y330251D01*
X453649Y339351D01*
X453848Y339649D01*
X453859Y339707D01*
X453918Y340000D01*
Y340751D01*
X454366Y340972D01*
X454487Y340880D01*
X455217Y340577D01*
X455500Y340540D01*
Y343500D01*
X456500D01*
Y340540D01*
X456783Y340577D01*
X457513Y340880D01*
X458140Y341360D01*
X458621Y341987D01*
X458923Y342717D01*
X458940Y342847D01*
X459175Y343250D01*
X459175D01*
X459433Y343258D01*
X459433Y343258D01*
X459450Y343259D01*
X459464Y343259D01*
X459499Y343260D01*
X459501Y343247D01*
X459645Y342525D01*
X460198Y341698D01*
X461025Y341145D01*
X462000Y340951D01*
X462976Y341145D01*
X463802Y341698D01*
X463849Y341767D01*
X474782D01*
X475767Y340782D01*
Y264418D01*
X448500D01*
X448207Y264359D01*
X448149Y264348D01*
X447851Y264149D01*
X443702Y259999D01*
X443503Y259701D01*
X443433Y259350D01*
Y255968D01*
X442079D01*
Y251031D01*
X443433D01*
Y250150D01*
X443503Y249798D01*
X443702Y249501D01*
X444082Y249120D01*
Y248096D01*
X444020D01*
X443746Y248042D01*
X443514Y247887D01*
X443360Y247655D01*
X443305Y247382D01*
Y242075D01*
X443360Y241801D01*
X443514Y241570D01*
X443746Y241415D01*
X444020Y241360D01*
X445980D01*
X446254Y241415D01*
X446486Y241570D01*
X446640Y241801D01*
X446695Y242075D01*
Y247382D01*
X446640Y247655D01*
X446486Y247887D01*
X446254Y248042D01*
X445980Y248096D01*
X445918D01*
Y249500D01*
X445848Y249851D01*
X445649Y250149D01*
X445268Y250530D01*
Y251031D01*
X446622D01*
Y255968D01*
X445268D01*
Y258970D01*
X446788Y260490D01*
X447211Y260207D01*
X447090Y259914D01*
X447036Y259500D01*
X453964D01*
X453910Y259914D01*
X453557Y260765D01*
X452996Y261496D01*
X452265Y262057D01*
X452204Y262082D01*
X452304Y262582D01*
X475767D01*
Y112218D01*
X472782Y109233D01*
X387451D01*
X387140Y109640D01*
X386733Y109951D01*
Y166130D01*
X387233Y166547D01*
X387252D01*
X387343D01*
X387433D01*
X387752Y166547D01*
X391264D01*
Y166047D01*
X393338D01*
Y170000D01*
X394338D01*
Y166047D01*
X396413D01*
Y166194D01*
X396767Y166547D01*
X399925D01*
X400244Y166547D01*
X400335D01*
X400425D01*
X400744Y166547D01*
X404575D01*
Y173453D01*
X400744D01*
X400425Y173453D01*
X400335D01*
X400244D01*
X399925Y173453D01*
X399087D01*
Y204169D01*
X399017Y204520D01*
X398818Y204818D01*
X371218Y232419D01*
Y247538D01*
X371159Y247831D01*
X371148Y247890D01*
X370949Y248187D01*
X366687Y252449D01*
X366390Y252648D01*
X366038Y252718D01*
X358919D01*
X354648Y256988D01*
X354755Y257372D01*
X354837Y257488D01*
X357613D01*
X358750Y256351D01*
X359048Y256152D01*
X359399Y256082D01*
X361634D01*
X361645Y256025D01*
X362198Y255198D01*
X363024Y254645D01*
X364000Y254451D01*
X364976Y254645D01*
X365802Y255198D01*
X366355Y256025D01*
X366549Y257000D01*
X366355Y257976D01*
X365802Y258802D01*
X364976Y259355D01*
X364000Y259549D01*
X363024Y259355D01*
X362976Y259322D01*
X362526Y259623D01*
X362675Y260374D01*
X362481Y261350D01*
X361928Y262176D01*
X361101Y262729D01*
X360449Y262859D01*
X360449Y262859D01*
X360422Y262864D01*
X360407Y263377D01*
X360420Y263387D01*
X360420D01*
X360430Y263393D01*
X364579D01*
Y261531D01*
X369122D01*
Y266469D01*
X364579D01*
Y265229D01*
X352374D01*
Y267158D01*
Y269126D01*
Y271094D01*
Y272563D01*
X352874D01*
X352874Y272563D01*
Y272563D01*
X353194Y272202D01*
X353198Y272198D01*
X354025Y271645D01*
X354500Y271550D01*
Y274000D01*
Y276449D01*
X354025Y276355D01*
X353336Y275895D01*
X352874Y275744D01*
X352874D01*
X352874Y275744D01*
X352874Y275744D01*
X352374D01*
Y277213D01*
X346650D01*
X346650Y277213D01*
Y277213D01*
X346167Y277256D01*
X345802Y277802D01*
X344975Y278355D01*
X344000Y278549D01*
X343024Y278355D01*
X342198Y277802D01*
X341645Y276975D01*
X341451Y276000D01*
X341645Y275025D01*
X341742Y274879D01*
X341565Y274542D01*
X341449Y274418D01*
X335880D01*
X333697Y276601D01*
Y280150D01*
X343713D01*
Y285874D01*
X329760D01*
Y287462D01*
X331880Y289582D01*
X339000D01*
X339351Y289652D01*
X339649Y289851D01*
X341070Y291272D01*
X341269Y291570D01*
X341339Y291921D01*
Y292760D01*
X343087D01*
Y301240D01*
X341418D01*
Y301866D01*
X342772D01*
Y305622D01*
X338228D01*
Y301866D01*
X339582D01*
Y301240D01*
X337756D01*
Y292760D01*
X339403D01*
X339462Y292260D01*
X338620Y291418D01*
X331974D01*
X331499Y291578D01*
X331496Y291889D01*
Y292760D01*
X333244D01*
Y301240D01*
X331496D01*
Y301866D01*
X332772D01*
Y305622D01*
X328228D01*
Y301866D01*
X329661D01*
Y301240D01*
X327913D01*
Y292760D01*
X329661D01*
Y291959D01*
X327000Y289297D01*
X326457Y289462D01*
X326355Y289976D01*
X325802Y290802D01*
X324975Y291355D01*
X324500Y291449D01*
Y289000D01*
X323500D01*
Y291449D01*
X323025Y291355D01*
X322198Y290802D01*
X321645Y289976D01*
X321460Y289045D01*
X321026Y288773D01*
X321025Y288772D01*
X318142Y291656D01*
Y292295D01*
X320480D01*
Y295433D01*
X321532D01*
Y294079D01*
X326468D01*
Y298622D01*
X321532D01*
Y297268D01*
X320480D01*
Y300382D01*
X313968D01*
Y294029D01*
X313469Y293761D01*
X313418Y293795D01*
Y302500D01*
X313359Y302793D01*
X313348Y302851D01*
X313149Y303149D01*
X308693Y307605D01*
Y309618D01*
X311032D01*
Y317705D01*
X304520D01*
Y314579D01*
X303468D01*
Y315921D01*
X298532D01*
Y311378D01*
X303468D01*
Y312744D01*
X304520D01*
Y309618D01*
X306858D01*
Y307224D01*
X306928Y306873D01*
X307127Y306576D01*
X311582Y302120D01*
Y301361D01*
X311531Y300882D01*
X308276D01*
Y296339D01*
X307776D01*
Y295839D01*
X304020D01*
Y292321D01*
X303918Y292257D01*
X303418Y292535D01*
Y294000D01*
X303359Y294293D01*
X303348Y294351D01*
X303149Y294649D01*
X300799Y296999D01*
X300501Y297198D01*
X300150Y297268D01*
X294468D01*
Y298622D01*
X289531D01*
X289418Y299075D01*
Y299925D01*
X289531Y300378D01*
X294468D01*
Y304921D01*
X292918D01*
Y306079D01*
X294468D01*
Y310622D01*
X289531D01*
Y309268D01*
X288469D01*
Y310622D01*
X283531D01*
Y306079D01*
X288469D01*
Y307433D01*
X289531D01*
Y306079D01*
X291082D01*
Y304921D01*
X289531D01*
Y303567D01*
X289150D01*
X288857Y303509D01*
X288798Y303497D01*
X288501Y303298D01*
X287851Y302649D01*
X287652Y302351D01*
X287582Y302000D01*
Y294500D01*
X287652Y294149D01*
X287851Y293851D01*
X288173Y293530D01*
X287981Y293068D01*
X266555D01*
X266395Y293275D01*
X266601Y293826D01*
X266878Y293881D01*
X267622Y294378D01*
X268120Y295122D01*
X268293Y295995D01*
X270299Y298001D01*
X270498Y298299D01*
X270546Y298543D01*
X270861Y298709D01*
X271068Y298751D01*
X271622Y298380D01*
X272500Y298206D01*
X273378Y298380D01*
X274122Y298878D01*
X274620Y299622D01*
X274794Y300500D01*
X274620Y301378D01*
X274122Y302122D01*
X273931Y302250D01*
Y302750D01*
X274122Y302878D01*
X274620Y303622D01*
X274794Y304500D01*
X274620Y305378D01*
X274122Y306122D01*
X273931Y306250D01*
Y306750D01*
X274122Y306878D01*
X274620Y307622D01*
X274794Y308500D01*
X274620Y309378D01*
X274122Y310122D01*
X273931Y310250D01*
Y310750D01*
X274122Y310878D01*
X274620Y311622D01*
X274794Y312500D01*
X274620Y313378D01*
X274122Y314122D01*
X273378Y314619D01*
X272500Y314794D01*
X271827Y314660D01*
X271418Y315016D01*
Y333589D01*
X272011Y334182D01*
X369100D01*
X369451Y334252D01*
X369749Y334451D01*
X374649Y339351D01*
X374848Y339649D01*
X374918Y340000D01*
Y340751D01*
X375366Y340972D01*
X375487Y340880D01*
X376217Y340577D01*
X376500Y340540D01*
Y343500D01*
X377500D01*
Y340540D01*
X377783Y340577D01*
X378513Y340880D01*
X379140Y341360D01*
X379621Y341987D01*
X379923Y342717D01*
X379940Y342847D01*
X380175Y343250D01*
X380175D01*
X380433Y343258D01*
X380433Y343258D01*
X380450Y343259D01*
X380464Y343259D01*
X380499Y343260D01*
X380501Y343247D01*
X380645Y342525D01*
X381198Y341698D01*
X382025Y341145D01*
X383000Y340951D01*
X383976Y341145D01*
X384802Y341698D01*
X385355Y342525D01*
X385549Y343500D01*
X385355Y344476D01*
X384802Y345302D01*
X384389Y345579D01*
X384541Y346079D01*
X385469D01*
Y350622D01*
X380532D01*
Y346079D01*
X381459D01*
X381611Y345579D01*
X381198Y345302D01*
X380645Y344476D01*
X380501Y343753D01*
X380499Y343740D01*
X380464Y343741D01*
X380450Y343741D01*
X380175Y343750D01*
X379940Y344153D01*
X379923Y344283D01*
X379621Y345013D01*
X379530Y345130D01*
X379752Y345579D01*
X379969D01*
Y347850D01*
X377000D01*
Y348350D01*
X376500D01*
Y351122D01*
X374918D01*
Y352378D01*
X379468D01*
Y353732D01*
X380532D01*
Y352378D01*
X385469D01*
Y356921D01*
X383918D01*
Y359500D01*
X383848Y359851D01*
X383649Y360149D01*
X381600Y362197D01*
X381698Y362688D01*
X382337Y362952D01*
X383305Y363695D01*
X384048Y364663D01*
X384515Y365790D01*
X384674Y367000D01*
X384515Y368210D01*
X384048Y369337D01*
X383305Y370305D01*
X382337Y371048D01*
X381210Y371515D01*
X380000Y371674D01*
X378790Y371515D01*
X377663Y371048D01*
X376695Y370305D01*
X375952Y369337D01*
X375485Y368210D01*
X375326Y367000D01*
X375485Y365790D01*
X375952Y364663D01*
X376695Y363695D01*
X377663Y362952D01*
X378790Y362485D01*
X379093Y362445D01*
X379152Y362149D01*
X379351Y361851D01*
X382082Y359120D01*
Y356921D01*
X380532D01*
Y355567D01*
X379468D01*
Y356921D01*
X374532D01*
Y355544D01*
X374299Y355497D01*
X374001Y355298D01*
X373930Y355228D01*
X373468Y355419D01*
Y356921D01*
X371918D01*
Y359500D01*
X371859Y359793D01*
X371848Y359851D01*
X371649Y360149D01*
X369720Y362077D01*
X369838Y362667D01*
X370526Y362952D01*
X371494Y363695D01*
X372237Y364663D01*
X372704Y365790D01*
X372863Y367000D01*
X372704Y368210D01*
X372237Y369337D01*
X371494Y370305D01*
X370526Y371048D01*
X369399Y371515D01*
X368189Y371674D01*
X366979Y371515D01*
X365852Y371048D01*
X364884Y370305D01*
X364141Y369337D01*
X363674Y368210D01*
X363515Y367000D01*
X363674Y365790D01*
X364141Y364663D01*
X364884Y363695D01*
X365852Y362952D01*
X366979Y362485D01*
X367271Y362447D01*
Y362311D01*
X367341Y361960D01*
X367540Y361662D01*
X370082Y359120D01*
Y356921D01*
X368531D01*
Y355567D01*
X367469D01*
Y356921D01*
X362531D01*
Y355567D01*
X362518D01*
X362167Y355497D01*
X361968Y355365D01*
X361469Y355530D01*
Y356921D01*
X359918D01*
Y359500D01*
X359848Y359851D01*
X359649Y360149D01*
X357774Y362023D01*
X357893Y362612D01*
X358715Y362952D01*
X359683Y363695D01*
X360426Y364663D01*
X360893Y365790D01*
X361052Y367000D01*
X360893Y368210D01*
X360426Y369337D01*
X359683Y370305D01*
X358715Y371048D01*
X357588Y371515D01*
X356378Y371674D01*
X355168Y371515D01*
X354041Y371048D01*
X353073Y370305D01*
X352330Y369337D01*
X351863Y368210D01*
X351704Y367000D01*
X351863Y365790D01*
X352330Y364663D01*
X353073Y363695D01*
X354041Y362952D01*
X355168Y362485D01*
X355460Y362447D01*
Y362122D01*
X355530Y361771D01*
X355729Y361473D01*
X358082Y359120D01*
Y356921D01*
X356532D01*
Y355567D01*
X355469D01*
Y356921D01*
X350532D01*
Y355544D01*
X350299Y355497D01*
X350001Y355298D01*
X349930Y355228D01*
X349468Y355419D01*
Y356921D01*
X347918D01*
Y359500D01*
X347848Y359851D01*
X347649Y360149D01*
X345812Y361986D01*
X345803Y362112D01*
X345948Y362557D01*
X346904Y362952D01*
X347872Y363695D01*
X348615Y364663D01*
X349081Y365790D01*
X349241Y367000D01*
X349081Y368210D01*
X348615Y369337D01*
X347872Y370305D01*
X346904Y371048D01*
X345777Y371515D01*
X344567Y371674D01*
X343357Y371515D01*
X342230Y371048D01*
X341262Y370305D01*
X340519Y369337D01*
X340052Y368210D01*
X339893Y367000D01*
X340052Y365790D01*
X340519Y364663D01*
X341262Y363695D01*
X342230Y362952D01*
X343357Y362485D01*
X343649Y362447D01*
Y361933D01*
X343719Y361582D01*
X343918Y361284D01*
X346082Y359120D01*
Y356921D01*
X344531D01*
Y355567D01*
X343468D01*
Y356921D01*
X338531D01*
Y355567D01*
X338150D01*
X337857Y355509D01*
X337798Y355497D01*
X337501Y355298D01*
X336351Y354149D01*
X336152Y353851D01*
X336082Y353500D01*
Y340380D01*
X335620Y339918D01*
X270015D01*
X269664Y339848D01*
X269367Y339649D01*
X266680Y336962D01*
X266218Y337153D01*
Y337920D01*
X269880Y341582D01*
X285000D01*
X285351Y341652D01*
X285649Y341851D01*
X287880Y344082D01*
X301500D01*
X301851Y344152D01*
X302149Y344351D01*
X303949Y346151D01*
X304059Y346316D01*
X304559Y346164D01*
Y345614D01*
X306240D01*
Y347441D01*
X307240D01*
Y345614D01*
X308921D01*
X308921Y345614D01*
X309305Y345334D01*
X309613Y345098D01*
X310282Y344821D01*
X310500Y344792D01*
Y347500D01*
Y350208D01*
X310282Y350179D01*
X309613Y349902D01*
X309039Y349461D01*
X308513Y349568D01*
X308421Y349658D01*
Y351232D01*
Y353886D01*
X307658D01*
Y355360D01*
X309149Y356851D01*
X309348Y357149D01*
X309418Y357500D01*
Y362447D01*
X309710Y362485D01*
X310837Y362952D01*
X311805Y363695D01*
X312548Y364663D01*
X313015Y365790D01*
X313174Y367000D01*
X313015Y368210D01*
X312548Y369337D01*
X311805Y370305D01*
X310837Y371048D01*
X309710Y371515D01*
X308500Y371674D01*
X307290Y371515D01*
X306163Y371048D01*
X305195Y370305D01*
X304452Y369337D01*
X303985Y368210D01*
X303826Y367000D01*
X303985Y365790D01*
X304452Y364663D01*
X305195Y363695D01*
X306163Y362952D01*
X307290Y362485D01*
X307582Y362447D01*
Y357880D01*
X306091Y356389D01*
X305892Y356091D01*
X305822Y355740D01*
Y353886D01*
X305059D01*
Y351232D01*
Y350918D01*
X304500D01*
X304149Y350848D01*
X303851Y350649D01*
X303380Y350177D01*
X302918Y350369D01*
Y356000D01*
X302848Y356351D01*
X302649Y356649D01*
X301321Y357977D01*
X301023Y358175D01*
X300672Y358245D01*
X298552D01*
X297607Y359191D01*
Y362447D01*
X297899Y362485D01*
X299026Y362952D01*
X299994Y363695D01*
X300737Y364663D01*
X301204Y365790D01*
X301363Y367000D01*
X301204Y368210D01*
X300737Y369337D01*
X299994Y370305D01*
X299026Y371048D01*
X297899Y371515D01*
X296689Y371674D01*
X295479Y371515D01*
X294352Y371048D01*
X293384Y370305D01*
X292641Y369337D01*
X292174Y368210D01*
X292015Y367000D01*
X292174Y365790D01*
X292641Y364663D01*
X293384Y363695D01*
X294352Y362952D01*
X295479Y362485D01*
X295771Y362447D01*
Y358811D01*
X295841Y358460D01*
X296040Y358162D01*
X297523Y356679D01*
X297821Y356480D01*
X298172Y356410D01*
X300292D01*
X301082Y355620D01*
Y354386D01*
X299760D01*
Y352559D01*
X298760D01*
Y354386D01*
X297079D01*
Y354337D01*
X296579Y354196D01*
X296351Y354348D01*
X296000Y354418D01*
X293597D01*
X293402Y354887D01*
X292961Y355461D01*
X292387Y355902D01*
X291718Y356179D01*
X291500Y356208D01*
Y353500D01*
X290500D01*
Y356208D01*
X290282Y356179D01*
X289613Y355902D01*
X289039Y355461D01*
X288598Y354887D01*
X288404Y354418D01*
X287000D01*
X286649Y354348D01*
X286351Y354149D01*
X285421Y353219D01*
X284921Y353426D01*
Y353886D01*
X284158D01*
Y355360D01*
X285527Y356729D01*
X285726Y357027D01*
X285737Y357085D01*
X285796Y357378D01*
Y362447D01*
X286088Y362485D01*
X287215Y362952D01*
X288183Y363695D01*
X288926Y364663D01*
X289392Y365790D01*
X289552Y367000D01*
X289392Y368210D01*
X288926Y369337D01*
X288183Y370305D01*
X287215Y371048D01*
X286088Y371515D01*
X284878Y371674D01*
X283668Y371515D01*
X282541Y371048D01*
X281573Y370305D01*
X280830Y369337D01*
X280363Y368210D01*
X280204Y367000D01*
X280363Y365790D01*
X280830Y364663D01*
X281573Y363695D01*
X282541Y362952D01*
X283668Y362485D01*
X283960Y362447D01*
Y357758D01*
X282591Y356389D01*
X282392Y356091D01*
X282323Y355740D01*
Y353886D01*
X281559D01*
Y351232D01*
Y350918D01*
X281000D01*
X280707Y350859D01*
X280649Y350848D01*
X280351Y350649D01*
X279880Y350177D01*
X279418Y350369D01*
Y356000D01*
X279348Y356351D01*
X279149Y356649D01*
X277649Y358149D01*
X277351Y358348D01*
X277000Y358418D01*
X274880D01*
X273985Y359313D01*
Y362447D01*
X274277Y362485D01*
X275404Y362952D01*
X276372Y363695D01*
X277115Y364663D01*
X277582Y365790D01*
X277741Y367000D01*
X277582Y368210D01*
X277115Y369337D01*
X276372Y370305D01*
X275404Y371048D01*
X274277Y371515D01*
X273067Y371674D01*
X271857Y371515D01*
X270730Y371048D01*
X269762Y370305D01*
X269019Y369337D01*
X268552Y368210D01*
X268393Y367000D01*
X268552Y365790D01*
X269019Y364663D01*
X269762Y363695D01*
X270730Y362952D01*
X271857Y362485D01*
X272149Y362447D01*
Y358933D01*
X272219Y358582D01*
X272418Y358284D01*
X273851Y356851D01*
X274149Y356652D01*
X274500Y356582D01*
X276620D01*
X277582Y355620D01*
Y354386D01*
X276260D01*
Y352559D01*
X275260D01*
Y354386D01*
X273579D01*
Y353477D01*
X272572D01*
X272402Y353887D01*
X271961Y354461D01*
X271387Y354902D01*
X270718Y355179D01*
X270500Y355208D01*
Y352500D01*
X270000D01*
Y352000D01*
X267292D01*
X267321Y351782D01*
X267598Y351113D01*
X268039Y350539D01*
X268613Y350098D01*
X269282Y349821D01*
X269363Y349810D01*
X269524Y349337D01*
X260751Y340564D01*
X260552Y340267D01*
X260482Y339915D01*
Y272882D01*
X260020Y272717D01*
X259982Y272724D01*
X259799Y272999D01*
X258255Y274543D01*
X257958Y274742D01*
X257606Y274811D01*
X255008D01*
Y279315D01*
X248102D01*
Y275733D01*
X246951D01*
X246640Y276140D01*
X246013Y276621D01*
X245283Y276923D01*
X244500Y277026D01*
X243717Y276923D01*
X242987Y276621D01*
X242360Y276140D01*
X241880Y275513D01*
X241577Y274783D01*
X241474Y274000D01*
X241577Y273217D01*
X241880Y272487D01*
X242360Y271860D01*
X242987Y271379D01*
X243717Y271077D01*
X244500Y270974D01*
X245283Y271077D01*
X246013Y271379D01*
X246640Y271860D01*
X246951Y272267D01*
X248102D01*
Y268472D01*
X255008D01*
Y272976D01*
X257226D01*
X258232Y271970D01*
Y265968D01*
X256878D01*
Y261032D01*
X261421D01*
Y265968D01*
X260067D01*
Y269568D01*
X260530Y269733D01*
X260567Y269726D01*
X260751Y269451D01*
X266540Y263662D01*
X266838Y263463D01*
X266896Y263452D01*
X267189Y263393D01*
X285626D01*
Y263221D01*
Y261465D01*
Y261292D01*
X280137D01*
X280119Y261378D01*
X279622Y262122D01*
X278878Y262619D01*
X278000Y262794D01*
X277122Y262619D01*
X276378Y262122D01*
X275881Y261378D01*
X275706Y260500D01*
X275881Y259622D01*
X276378Y258878D01*
X277122Y258381D01*
X278000Y258206D01*
X278878Y258381D01*
X279622Y258878D01*
X280009Y259456D01*
X285626D01*
Y259283D01*
Y257315D01*
Y255346D01*
Y253378D01*
Y251410D01*
Y249654D01*
Y249481D01*
X279317D01*
X278649Y250149D01*
X278351Y250348D01*
X278000Y250418D01*
X276000D01*
X275649Y250348D01*
X275351Y250149D01*
X274683Y249481D01*
X245817D01*
X243418Y251880D01*
Y252600D01*
X243649Y252734D01*
X243918Y252785D01*
X244851Y251851D01*
X245149Y251652D01*
X245207Y251641D01*
X245500Y251582D01*
X245907D01*
X246378Y250878D01*
X247122Y250380D01*
X248000Y250206D01*
X248878Y250380D01*
X249622Y250878D01*
X250119Y251622D01*
X250294Y252500D01*
X250119Y253378D01*
X249622Y254122D01*
X248878Y254620D01*
X248000Y254794D01*
X247122Y254620D01*
X246378Y254122D01*
X246297Y254001D01*
X245730Y253936D01*
X245418Y254223D01*
Y256614D01*
X246740D01*
Y258441D01*
X247740D01*
Y256614D01*
X249421D01*
Y256614D01*
X249865Y256884D01*
X250260Y256776D01*
X250379Y256487D01*
X250860Y255860D01*
X251487Y255380D01*
X252217Y255077D01*
X252500Y255040D01*
Y258000D01*
X253000D01*
Y258500D01*
X255960D01*
X255923Y258783D01*
X255621Y259513D01*
X255140Y260140D01*
X254629Y260531D01*
X254764Y261032D01*
X255122D01*
Y265968D01*
X250579D01*
Y264477D01*
X248921D01*
Y264886D01*
X248158D01*
Y265260D01*
X248099Y265553D01*
X248088Y265611D01*
X247889Y265909D01*
X245649Y268149D01*
X245351Y268348D01*
X245000Y268418D01*
X237375D01*
X236898Y268472D01*
Y279315D01*
X229992D01*
Y268472D01*
X232527D01*
Y268055D01*
X232597Y267704D01*
X232796Y267406D01*
X232990Y267213D01*
X232957Y266714D01*
X232860Y266640D01*
X232380Y266013D01*
X232077Y265283D01*
X231980Y264542D01*
X231968Y264494D01*
X231528Y264055D01*
X228742D01*
X227918Y264880D01*
Y283846D01*
X228221Y284221D01*
X228418Y284221D01*
X256780D01*
Y312779D01*
X228418D01*
X228221Y312779D01*
X227918Y313154D01*
X227918Y313154D01*
Y318120D01*
X229274Y319476D01*
X229992D01*
Y314972D01*
X236898D01*
Y325767D01*
X236898Y325815D01*
X237014Y326267D01*
X247986D01*
X248102Y325815D01*
X248102Y325815D01*
X248102D01*
X248102Y325815D01*
Y314972D01*
X255008D01*
Y325815D01*
X253288D01*
Y326945D01*
X253288Y326945D01*
X253156Y327608D01*
X253032Y327795D01*
X252781Y328170D01*
X252781Y328170D01*
X251726Y329226D01*
X251163Y329601D01*
X250500Y329733D01*
X155218D01*
X153478Y331474D01*
X152915Y331849D01*
X152252Y331981D01*
X137863D01*
X137407Y333081D01*
X136507Y334255D01*
X135333Y335155D01*
X133967Y335721D01*
X132500Y335915D01*
X131033Y335721D01*
X129667Y335155D01*
X128493Y334255D01*
X127593Y333081D01*
X127137Y331981D01*
X126470D01*
X123985Y334466D01*
Y389034D01*
X128218Y393267D01*
X164282D01*
X171274Y386274D01*
X171837Y385899D01*
X172500Y385767D01*
X283960D01*
Y383364D01*
X283668Y383326D01*
X282541Y382859D01*
X281573Y382116D01*
X280830Y381148D01*
X280363Y380021D01*
X280204Y378811D01*
X280363Y377601D01*
X280830Y376474D01*
X281573Y375506D01*
X282541Y374763D01*
X283668Y374296D01*
X284878Y374137D01*
X286088Y374296D01*
X287215Y374763D01*
X288183Y375506D01*
X288926Y376474D01*
X289392Y377601D01*
X289552Y378811D01*
X289392Y380021D01*
X288926Y381148D01*
X288183Y382116D01*
X287215Y382859D01*
X286088Y383326D01*
X285796Y383364D01*
Y385767D01*
X295771D01*
Y383364D01*
X295479Y383326D01*
X294352Y382859D01*
X293384Y382116D01*
X292641Y381148D01*
X292174Y380021D01*
X292015Y378811D01*
X292174Y377601D01*
X292641Y376474D01*
X293384Y375506D01*
X294352Y374763D01*
X295479Y374296D01*
X296689Y374137D01*
X297899Y374296D01*
X299026Y374763D01*
X299994Y375506D01*
X300737Y376474D01*
X301204Y377601D01*
X301363Y378811D01*
X301204Y380021D01*
X300737Y381148D01*
X299994Y382116D01*
X299026Y382859D01*
X297899Y383326D01*
X297607Y383364D01*
Y385767D01*
X307582D01*
Y383364D01*
X307290Y383326D01*
X306163Y382859D01*
X305195Y382116D01*
X304452Y381148D01*
X303985Y380021D01*
X303826Y378811D01*
X303985Y377601D01*
X304452Y376474D01*
X305195Y375506D01*
X306163Y374763D01*
X307290Y374296D01*
X308500Y374137D01*
X309710Y374296D01*
X310837Y374763D01*
X311805Y375506D01*
X312548Y376474D01*
X313015Y377601D01*
X313174Y378811D01*
X313015Y380021D01*
X312548Y381148D01*
X311805Y382116D01*
X310837Y382859D01*
X309710Y383326D01*
X309418Y383364D01*
Y386069D01*
X309726Y386274D01*
X310101Y386837D01*
X310233Y387500D01*
X310101Y388163D01*
X309726Y388726D01*
X309163Y389101D01*
X308500Y389233D01*
X303015D01*
X302929Y389333D01*
X303046Y389963D01*
X303682Y390303D01*
X304687Y391128D01*
X305512Y392133D01*
X306125Y393280D01*
X306503Y394525D01*
X306630Y395819D01*
X306503Y397113D01*
X306125Y398358D01*
X305512Y399505D01*
X304687Y400510D01*
X303682Y401335D01*
X302535Y401948D01*
X301290Y402326D01*
X299996Y402453D01*
X298702Y402326D01*
X297457Y401948D01*
X296310Y401335D01*
X295305Y400510D01*
X294480Y399505D01*
X293867Y398358D01*
X293489Y397113D01*
X293362Y395819D01*
X293489Y394525D01*
X293867Y393280D01*
X294480Y392133D01*
X295305Y391128D01*
X296310Y390303D01*
X296946Y389963D01*
X297063Y389333D01*
X296977Y389233D01*
X284511D01*
X284425Y389333D01*
X284542Y389963D01*
X285178Y390303D01*
X286183Y391128D01*
X287008Y392133D01*
X287621Y393280D01*
X287999Y394525D01*
X288126Y395819D01*
X287999Y397113D01*
X287621Y398358D01*
X287008Y399505D01*
X286183Y400510D01*
X285178Y401335D01*
X284031Y401948D01*
X282786Y402326D01*
X281492Y402453D01*
X280198Y402326D01*
X278953Y401948D01*
X277806Y401335D01*
X276801Y400510D01*
X275976Y399505D01*
X275363Y398358D01*
X274985Y397113D01*
X274858Y395819D01*
X274985Y394525D01*
X275363Y393280D01*
X275976Y392133D01*
X276801Y391128D01*
X277806Y390303D01*
X278442Y389963D01*
X278559Y389333D01*
X278473Y389233D01*
X201015D01*
X200991Y389733D01*
X201790Y389812D01*
X203035Y390190D01*
X204182Y390803D01*
X205187Y391628D01*
X206012Y392633D01*
X206625Y393780D01*
X207003Y395025D01*
X207130Y396319D01*
X207003Y397613D01*
X206625Y398858D01*
X206012Y400005D01*
X205187Y401010D01*
X204182Y401835D01*
X203035Y402448D01*
X201790Y402826D01*
X200496Y402953D01*
D02*
G37*
G36*
X371496Y402453D02*
X370202Y402326D01*
X368957Y401948D01*
X367810Y401335D01*
X366805Y400510D01*
X365980Y399505D01*
X365367Y398358D01*
X364989Y397113D01*
X364862Y395819D01*
X364989Y394525D01*
X365367Y393280D01*
X365980Y392133D01*
X366805Y391128D01*
X367810Y390303D01*
X368957Y389690D01*
X370202Y389312D01*
X371496Y389185D01*
X372790Y389312D01*
X374035Y389690D01*
X375182Y390303D01*
X376187Y391128D01*
X377012Y392133D01*
X377625Y393280D01*
X378003Y394525D01*
X378130Y395819D01*
X378003Y397113D01*
X377625Y398358D01*
X377012Y399505D01*
X376187Y400510D01*
X375182Y401335D01*
X374035Y401948D01*
X372790Y402326D01*
X371496Y402453D01*
D02*
G37*
G36*
X135964Y278500D02*
X133000D01*
Y275536D01*
X133414Y275590D01*
X134265Y275943D01*
X134996Y276504D01*
X135557Y277235D01*
X135910Y278086D01*
X135964Y278500D01*
D02*
G37*
G36*
X447500Y132921D02*
X446244Y132797D01*
X445037Y132431D01*
X443924Y131836D01*
X442949Y131035D01*
X442148Y130060D01*
X441553Y128947D01*
X441187Y127740D01*
X441063Y126484D01*
X441187Y125229D01*
X441553Y124021D01*
X442148Y122908D01*
X442949Y121933D01*
X443924Y121133D01*
X445037Y120538D01*
X446244Y120171D01*
X447500Y120048D01*
X448756Y120171D01*
X449963Y120538D01*
X451076Y121133D01*
X452051Y121933D01*
X452852Y122908D01*
X453447Y124021D01*
X453813Y125229D01*
X453936Y126484D01*
X453813Y127740D01*
X453447Y128947D01*
X452852Y130060D01*
X452051Y131035D01*
X451076Y131836D01*
X449963Y132431D01*
X448756Y132797D01*
X447500Y132921D01*
D02*
G37*
G36*
X355500Y276449D02*
Y274500D01*
X357450D01*
X357355Y274975D01*
X356802Y275802D01*
X355976Y276355D01*
X355500Y276449D01*
D02*
G37*
G36*
X132000Y278500D02*
X129036D01*
X129090Y278086D01*
X129443Y277235D01*
X130004Y276504D01*
X130735Y275943D01*
X131586Y275590D01*
X132000Y275536D01*
Y278500D01*
D02*
G37*
G36*
X356878Y383923D02*
Y379311D01*
X361490D01*
X361380Y380151D01*
X360862Y381400D01*
X360039Y382472D01*
X358967Y383295D01*
X357718Y383813D01*
X356878Y383923D01*
D02*
G37*
G36*
X330000Y311634D02*
X327728D01*
Y309756D01*
X330000D01*
Y311634D01*
D02*
G37*
G36*
X303969Y310122D02*
X301500D01*
Y307850D01*
X303969D01*
Y310122D01*
D02*
G37*
G36*
X316724Y313161D02*
X313469D01*
Y309118D01*
X316724D01*
Y313161D01*
D02*
G37*
G36*
X343272Y311634D02*
X341000D01*
Y309756D01*
X343272D01*
Y311634D01*
D02*
G37*
G36*
X294969Y314150D02*
X292500D01*
Y311878D01*
X294969D01*
Y314150D01*
D02*
G37*
G36*
X285500Y314150D02*
X283032D01*
Y311878D01*
X285500D01*
Y314150D01*
D02*
G37*
G36*
X380500Y383923D02*
Y379311D01*
X385112D01*
X385002Y380151D01*
X384484Y381400D01*
X383662Y382472D01*
X382589Y383295D01*
X381340Y383813D01*
X380500Y383923D01*
D02*
G37*
G36*
X292464Y318500D02*
X285536D01*
X285590Y318086D01*
X285648Y317946D01*
X285351Y317649D01*
X285199Y317421D01*
X283032D01*
Y315150D01*
X286000D01*
Y314650D01*
X286500D01*
Y311878D01*
X288968D01*
Y311878D01*
X289032Y311878D01*
Y311878D01*
X291500D01*
Y314650D01*
X292000D01*
Y315150D01*
X294969D01*
Y317421D01*
X292801D01*
X292649Y317649D01*
X292352Y317946D01*
X292410Y318086D01*
X292464Y318500D01*
D02*
G37*
G36*
X320980Y318205D02*
X317724D01*
Y313661D01*
Y309118D01*
X320980D01*
Y310391D01*
X321480Y310638D01*
X321735Y310443D01*
X322582Y310092D01*
Y307000D01*
X322652Y306649D01*
X322851Y306351D01*
X323082Y306120D01*
Y305421D01*
X321031D01*
Y303150D01*
X324000D01*
X326969D01*
Y305421D01*
X324918D01*
Y306500D01*
X324848Y306851D01*
X324649Y307149D01*
X324418Y307380D01*
Y310092D01*
X325265Y310443D01*
X325996Y311004D01*
X326557Y311735D01*
X326910Y312586D01*
X326964Y313000D01*
X323500D01*
Y313500D01*
X323000D01*
Y316964D01*
X322586Y316910D01*
X321735Y316557D01*
X321480Y316362D01*
X320980Y316609D01*
Y318205D01*
D02*
G37*
G36*
X335000Y312720D02*
X334586Y312666D01*
X333735Y312313D01*
X333004Y311752D01*
X332913Y311634D01*
X331000D01*
Y309256D01*
Y306878D01*
X332913D01*
X333004Y306760D01*
X333735Y306199D01*
X334586Y305846D01*
X335000Y305791D01*
Y309256D01*
Y312720D01*
D02*
G37*
G36*
X326969Y302150D02*
X324500D01*
Y299878D01*
X326969D01*
Y302150D01*
D02*
G37*
G36*
X303969Y306850D02*
X298031D01*
Y304579D01*
X298031Y304579D01*
X297890Y304137D01*
X297590Y303414D01*
X297536Y303000D01*
X304464D01*
X304410Y303414D01*
X304119Y304116D01*
X303969Y304579D01*
Y304579D01*
X303969Y304579D01*
X303969Y304579D01*
Y306850D01*
D02*
G37*
G36*
X336000Y312720D02*
Y309256D01*
Y305791D01*
X336414Y305846D01*
X337265Y306199D01*
X337996Y306760D01*
X338087Y306878D01*
X340000D01*
Y309256D01*
Y311634D01*
X338087D01*
X337996Y311752D01*
X337265Y312313D01*
X336414Y312666D01*
X336000Y312720D01*
D02*
G37*
G36*
X300500Y310122D02*
X298031D01*
Y307850D01*
X300500D01*
Y310122D01*
D02*
G37*
G36*
X173067Y384423D02*
X172227Y384313D01*
X170978Y383795D01*
X169905Y382973D01*
X169082Y381900D01*
X168565Y380651D01*
X168455Y379811D01*
X173067D01*
Y384423D01*
D02*
G37*
G36*
X330000Y308756D02*
X327728D01*
Y306878D01*
X330000D01*
Y308756D01*
D02*
G37*
G36*
X343272D02*
X341000D01*
Y306878D01*
X343272D01*
Y308756D01*
D02*
G37*
%LPD*%
G36*
X380582Y199443D02*
Y175380D01*
X380198Y174995D01*
X379999Y174698D01*
X379929Y174346D01*
Y173453D01*
X378772D01*
Y173453D01*
X378590D01*
Y173453D01*
X377418D01*
Y198079D01*
X378969D01*
Y199433D01*
X379550D01*
X379902Y199503D01*
X380082Y199623D01*
X380582Y199443D01*
D02*
G37*
G36*
X327925Y217723D02*
X326620Y216418D01*
X311369D01*
X311177Y216880D01*
X311775Y217477D01*
X311974Y217775D01*
X312044Y218126D01*
Y219126D01*
X327925D01*
Y217723D01*
D02*
G37*
G36*
X355082Y227620D02*
Y225880D01*
X354620Y225418D01*
X352000D01*
X351649Y225348D01*
X351351Y225149D01*
X347418Y221215D01*
X346918Y221423D01*
Y227787D01*
X352374D01*
Y227960D01*
X354742D01*
X355082Y227620D01*
D02*
G37*
G36*
X340157Y254529D02*
X340556Y254133D01*
X340582Y253973D01*
Y233500D01*
X340652Y233149D01*
X340851Y232851D01*
X345082Y228620D01*
Y227932D01*
X344859Y227857D01*
X344582Y227849D01*
X344186Y228442D01*
X343525Y228884D01*
X342744Y229039D01*
X341964Y228884D01*
X341302Y228442D01*
X340860Y227780D01*
X340705Y227000D01*
X340755Y226750D01*
X340294Y226504D01*
X337822Y228976D01*
X337855Y229025D01*
X337949Y229500D01*
X336000D01*
Y227551D01*
X336475Y227645D01*
X336525Y227678D01*
X338852Y225350D01*
X338645Y224850D01*
X335614D01*
X335596Y224942D01*
X335397Y225239D01*
X333437Y227199D01*
X333139Y227398D01*
X332788Y227468D01*
X292897D01*
X292878Y227960D01*
X293229Y228030D01*
X293527Y228229D01*
X293975Y228678D01*
X294024Y228645D01*
X295000Y228451D01*
X295975Y228645D01*
X296802Y229198D01*
X297355Y230025D01*
X297549Y231000D01*
X297355Y231976D01*
X296802Y232802D01*
X295975Y233355D01*
X295000Y233549D01*
X294024Y233355D01*
X293198Y232802D01*
X292645Y231976D01*
X292451Y231000D01*
X292583Y230339D01*
X292236Y229966D01*
X291854Y230071D01*
X291850Y230074D01*
Y230346D01*
X288488D01*
Y231347D01*
X291850D01*
Y232437D01*
X291350D01*
Y233693D01*
Y235661D01*
Y237630D01*
Y239598D01*
Y241567D01*
Y243535D01*
Y245504D01*
Y247472D01*
Y249441D01*
Y249614D01*
X334531D01*
X334883Y249684D01*
X335180Y249883D01*
X339882Y254584D01*
X340157Y254529D01*
D02*
G37*
G36*
X229992Y325815D02*
X229992Y325767D01*
Y321311D01*
X228894D01*
X228542Y321241D01*
X228245Y321043D01*
X226351Y319149D01*
X226152Y318851D01*
X226082Y318500D01*
Y264500D01*
X226152Y264149D01*
X226351Y263851D01*
X227713Y262489D01*
X228011Y262290D01*
X228362Y262220D01*
X231482D01*
X233232Y260470D01*
Y259968D01*
X231878D01*
Y255031D01*
X236421D01*
Y256582D01*
X237000D01*
X237351Y256652D01*
X237649Y256851D01*
X237679Y256881D01*
X238079Y257114D01*
Y257114D01*
X238079Y257114D01*
X241441D01*
X241582Y256673D01*
Y251500D01*
X241652Y251149D01*
X241851Y250851D01*
X244788Y247914D01*
X245086Y247715D01*
X245437Y247645D01*
X274579D01*
X274990Y247145D01*
X274961Y247000D01*
X275097Y246318D01*
X274829Y245818D01*
X273506D01*
X273213Y245759D01*
X273155Y245748D01*
X272857Y245549D01*
X272852Y245544D01*
X250093D01*
X249622Y246248D01*
X248878Y246745D01*
X248000Y246920D01*
X247122Y246745D01*
X246378Y246248D01*
X245881Y245504D01*
X245706Y244626D01*
X245881Y243748D01*
X246378Y243004D01*
X247122Y242507D01*
X248000Y242332D01*
X248878Y242507D01*
X249622Y243004D01*
X250093Y243708D01*
X272387D01*
X272439Y243612D01*
X272602Y243208D01*
X272461Y242500D01*
X272616Y241720D01*
X272818Y241418D01*
X272551Y240918D01*
X212380D01*
X208418Y244880D01*
Y256261D01*
X208771Y256614D01*
X209740D01*
Y258441D01*
X210740D01*
Y256614D01*
X212421D01*
Y256614D01*
X212732Y256243D01*
X212943Y255735D01*
X213504Y255004D01*
X214235Y254443D01*
X215086Y254090D01*
X215500Y254036D01*
Y257500D01*
X216500D01*
Y254036D01*
X216914Y254090D01*
X217765Y254443D01*
X218496Y255004D01*
X219000Y255660D01*
X219316Y255724D01*
X219589Y255713D01*
X219860Y255360D01*
X220487Y254879D01*
X221217Y254577D01*
X222000Y254474D01*
X222783Y254577D01*
X223513Y254879D01*
X224140Y255360D01*
X224621Y255987D01*
X224867Y256582D01*
X225579D01*
Y255031D01*
X230122D01*
Y259968D01*
X225579D01*
Y258418D01*
X224867D01*
X224621Y259013D01*
X224140Y259640D01*
X223513Y260121D01*
X223067Y260305D01*
Y261032D01*
X224421D01*
Y265968D01*
X219878D01*
Y261032D01*
X221232D01*
Y260425D01*
X221217Y260423D01*
X220487Y260121D01*
X219860Y259640D01*
X219589Y259287D01*
X219316Y259276D01*
X219000Y259340D01*
X218496Y259996D01*
X217799Y260531D01*
X217797Y260585D01*
X218076Y261032D01*
X218122D01*
Y265968D01*
X213579D01*
Y264477D01*
X211921D01*
Y264886D01*
X211158D01*
Y265760D01*
X211088Y266111D01*
X210889Y266409D01*
X209149Y268149D01*
X208851Y268348D01*
X208500Y268418D01*
X200875D01*
X200398Y268472D01*
Y279315D01*
X193492D01*
Y268472D01*
X196027D01*
Y268055D01*
X196097Y267704D01*
X196296Y267406D01*
X196490Y267213D01*
X196457Y266714D01*
X196360Y266640D01*
X195879Y266013D01*
X195577Y265283D01*
X195490Y264619D01*
X195098Y264263D01*
X195056Y264237D01*
X194711Y264294D01*
X194621Y264513D01*
X194140Y265140D01*
X193513Y265620D01*
X192783Y265923D01*
X192000Y266026D01*
X191217Y265923D01*
X190487Y265620D01*
X189860Y265140D01*
X189380Y264513D01*
X189077Y263783D01*
X188974Y263000D01*
X189077Y262217D01*
X189380Y261487D01*
X189860Y260860D01*
X190371Y260469D01*
X190236Y259968D01*
X188579D01*
Y258418D01*
X187867D01*
X187620Y259013D01*
X187140Y259640D01*
X186513Y260121D01*
X185918Y260367D01*
Y261032D01*
X187921D01*
Y265968D01*
X183378D01*
Y261032D01*
X184082D01*
Y260367D01*
X183487Y260121D01*
X182860Y259640D01*
X182379Y259013D01*
X182077Y258283D01*
X181974Y257500D01*
X182077Y256717D01*
X182379Y255987D01*
X182860Y255360D01*
X183487Y254879D01*
X184217Y254577D01*
X185000Y254474D01*
X185783Y254577D01*
X186513Y254879D01*
X187140Y255360D01*
X187620Y255987D01*
X187867Y256582D01*
X188579D01*
Y255031D01*
X193122D01*
Y259676D01*
X193122Y259968D01*
X193425Y260343D01*
X193425Y260343D01*
X193513Y260380D01*
X194140Y260860D01*
X194621Y261487D01*
X194744Y261784D01*
X195324Y261878D01*
X196232Y260970D01*
Y259968D01*
X194878D01*
Y255031D01*
X199421D01*
Y256582D01*
X200000D01*
X200351Y256652D01*
X200649Y256851D01*
X200679Y256881D01*
X201079Y257114D01*
Y257114D01*
X201079Y257114D01*
X204441D01*
X204582Y256673D01*
Y244000D01*
X204652Y243649D01*
X204851Y243351D01*
X209423Y238780D01*
X209231Y238318D01*
X177980D01*
X171918Y244380D01*
Y256614D01*
X172822D01*
Y255260D01*
X172892Y254909D01*
X173091Y254611D01*
X173824Y253878D01*
X173577Y253283D01*
X173540Y253000D01*
X176000D01*
Y255460D01*
X175717Y255423D01*
X175121Y255176D01*
X174658Y255640D01*
Y256614D01*
X175921D01*
Y257941D01*
X173740D01*
Y258941D01*
X175921D01*
Y260268D01*
X175421D01*
Y262232D01*
Y262641D01*
X177079D01*
Y261032D01*
X181622D01*
Y265968D01*
X181451D01*
X181184Y266469D01*
X181260Y266582D01*
X189500D01*
X189851Y266652D01*
X190149Y266851D01*
X191649Y268351D01*
X191848Y268649D01*
X191918Y269000D01*
Y284221D01*
X220280D01*
Y312779D01*
X191918D01*
Y318120D01*
X192992Y319194D01*
X193492Y318987D01*
Y314972D01*
X200398D01*
Y325767D01*
X200398Y325815D01*
X200514Y326267D01*
X211486D01*
X211602Y325815D01*
X211602Y325815D01*
X211602D01*
X211602Y325815D01*
Y314972D01*
X218508D01*
Y325815D01*
X218508Y325815D01*
X218508D01*
X218508Y325815D01*
X218624Y326267D01*
X229876D01*
X229992Y325815D01*
D02*
G37*
G36*
X193492D02*
X193492Y325767D01*
Y321311D01*
X192894D01*
X192543Y321241D01*
X192245Y321043D01*
X190351Y319149D01*
X190152Y318851D01*
X190082Y318500D01*
Y269380D01*
X189120Y268418D01*
X182985D01*
X182508Y268472D01*
Y279315D01*
X175602D01*
Y275627D01*
X174533D01*
X174140Y276140D01*
X173513Y276621D01*
X172783Y276923D01*
X172000Y277026D01*
X171217Y276923D01*
X170487Y276621D01*
X169860Y276140D01*
X169379Y275513D01*
X169077Y274783D01*
X168974Y274000D01*
X169077Y273217D01*
X169379Y272487D01*
X169755Y271998D01*
X169632Y271568D01*
X169554Y271467D01*
X169217Y271423D01*
X168622Y271176D01*
X165255Y274543D01*
X164957Y274742D01*
X164606Y274811D01*
X164398D01*
Y279315D01*
X157492D01*
Y268472D01*
X159513D01*
X159732Y267972D01*
X159379Y267513D01*
X159077Y266783D01*
X159036Y266469D01*
X158508Y266290D01*
X154918Y269880D01*
Y317620D01*
X156774Y319476D01*
X157492D01*
Y314972D01*
X164398D01*
Y325767D01*
X164398Y325815D01*
X164514Y326267D01*
X175486D01*
X175602Y325815D01*
X175602Y325815D01*
X175602D01*
X175602Y325815D01*
Y314972D01*
X182508D01*
Y325815D01*
X182508Y325815D01*
X182508D01*
X182508Y325815D01*
X182624Y326267D01*
X193376D01*
X193492Y325815D01*
D02*
G37*
G36*
X119412Y212290D02*
X119296Y212138D01*
X118869Y211107D01*
X118723Y210000D01*
X118869Y208893D01*
X119296Y207862D01*
X119976Y206976D01*
X120862Y206296D01*
X121893Y205869D01*
X122082Y205844D01*
Y199150D01*
X121827Y198756D01*
X116918D01*
Y214131D01*
X117380Y214323D01*
X119412Y212290D01*
D02*
G37*
G36*
X167324Y269879D02*
X167077Y269283D01*
X166974Y268500D01*
X167077Y267717D01*
X167379Y266987D01*
X167860Y266360D01*
X168487Y265880D01*
X169217Y265577D01*
X170000Y265474D01*
X170783Y265577D01*
X171513Y265880D01*
X172140Y266360D01*
X172620Y266987D01*
X172923Y267717D01*
X173026Y268500D01*
X172923Y269283D01*
X172620Y270013D01*
X172245Y270502D01*
X172368Y270932D01*
X172446Y271033D01*
X172783Y271077D01*
X173513Y271379D01*
X174140Y271860D01*
X174370Y272160D01*
X175602D01*
Y268472D01*
X179468D01*
X179675Y267972D01*
X178701Y266999D01*
X178503Y266702D01*
X178433Y266350D01*
Y265968D01*
X177079D01*
Y264477D01*
X175421D01*
Y264886D01*
X172059D01*
Y262232D01*
Y261918D01*
X171500D01*
X171149Y261848D01*
X170851Y261649D01*
X170351Y261149D01*
X170281Y261043D01*
X169719D01*
X169649Y261149D01*
X169149Y261649D01*
X168851Y261848D01*
X168500Y261918D01*
X168441D01*
Y263059D01*
X166260D01*
Y263559D01*
X165760D01*
Y265386D01*
X165324D01*
X165224Y265500D01*
X162000D01*
Y266500D01*
X164960D01*
X164923Y266783D01*
X164620Y267513D01*
X164268Y267972D01*
X164398Y268472D01*
X164398D01*
X164398Y268473D01*
Y272151D01*
X164860Y272343D01*
X167324Y269879D01*
D02*
G37*
G36*
X346150Y273886D02*
Y272563D01*
X346650D01*
Y271094D01*
Y269126D01*
Y267158D01*
Y265189D01*
Y263221D01*
Y261252D01*
Y259283D01*
Y257315D01*
Y255346D01*
Y253378D01*
Y251410D01*
Y249441D01*
Y247472D01*
Y245504D01*
Y243535D01*
Y241567D01*
Y239598D01*
Y237630D01*
Y235661D01*
Y233693D01*
Y231724D01*
Y230355D01*
X346150Y230148D01*
X342418Y233880D01*
Y253726D01*
X343549Y254857D01*
X343748Y255155D01*
X343818Y255506D01*
Y257494D01*
Y260994D01*
Y271494D01*
X343748Y271845D01*
X343549Y272143D01*
X342649Y273043D01*
X342613Y273222D01*
X342632Y273306D01*
X343025Y273645D01*
X344000Y273451D01*
X344975Y273645D01*
X345650Y274096D01*
X346150Y273886D01*
D02*
G37*
G36*
X266229Y275473D02*
X266527Y275274D01*
X266878Y275204D01*
X281468D01*
X281632Y274704D01*
X281145Y273975D01*
X281050Y273500D01*
X283500D01*
Y273000D01*
X284000D01*
Y270550D01*
X284475Y270645D01*
X285126Y271080D01*
X285626Y270850D01*
Y269126D01*
Y267197D01*
X267601D01*
X263918Y270880D01*
Y277131D01*
X264380Y277323D01*
X266229Y275473D01*
D02*
G37*
G36*
X294460Y289742D02*
Y285874D01*
X294287D01*
Y280218D01*
X272580D01*
X270416Y282382D01*
X270539Y283000D01*
X270384Y283780D01*
X269942Y284442D01*
X269280Y284884D01*
X268500Y285039D01*
X267720Y284884D01*
X267058Y284442D01*
X266616Y283780D01*
X266461Y283000D01*
X266616Y282220D01*
X267058Y281558D01*
X267145Y281500D01*
Y281000D01*
X267058Y280942D01*
X266616Y280280D01*
X266461Y279500D01*
X266616Y278720D01*
X267058Y278058D01*
X267720Y277616D01*
X268104Y277540D01*
X268054Y277040D01*
X267258D01*
X265418Y278880D01*
Y284620D01*
X268169Y287371D01*
X269000Y287206D01*
X269878Y287381D01*
X270622Y287878D01*
X271119Y288622D01*
X271294Y289500D01*
X271119Y290378D01*
X270883Y290732D01*
X271150Y291232D01*
X292970D01*
X294460Y289742D01*
D02*
G37*
G36*
X300282Y291420D02*
Y285874D01*
X296296D01*
Y290122D01*
X296237Y290415D01*
X296226Y290473D01*
X296027Y290771D01*
X294677Y292120D01*
X294869Y292582D01*
X299120D01*
X300282Y291420D01*
D02*
G37*
G36*
X325406Y279650D02*
X326496D01*
Y280150D01*
X331862D01*
Y276220D01*
X331932Y275869D01*
X332131Y275572D01*
X334851Y272851D01*
X335149Y272652D01*
X335500Y272582D01*
X339117D01*
X339268Y272082D01*
X339058Y271942D01*
X338616Y271280D01*
X338461Y270500D01*
X338584Y269882D01*
X328025Y259323D01*
X291350D01*
Y261252D01*
Y263221D01*
Y265189D01*
Y267158D01*
Y269126D01*
Y270566D01*
X291850Y270717D01*
X292198Y270198D01*
X293024Y269645D01*
X294000Y269451D01*
X294975Y269645D01*
X295802Y270198D01*
X296355Y271024D01*
X296549Y272000D01*
X296355Y272975D01*
X295802Y273802D01*
X294975Y274355D01*
X294000Y274549D01*
X293024Y274355D01*
X292350Y273904D01*
X291850Y274114D01*
Y275744D01*
X291350D01*
Y277082D01*
X298500D01*
X298806Y277143D01*
X299003Y277026D01*
X299251Y276818D01*
X299244Y276783D01*
X299399Y276003D01*
X299841Y275342D01*
X300503Y274900D01*
X301284Y274744D01*
X302064Y274900D01*
X302725Y275342D01*
X303167Y276003D01*
X303323Y276783D01*
X303167Y277564D01*
X302725Y278225D01*
X302201Y278576D01*
Y280150D01*
X303630D01*
Y279650D01*
X304720D01*
Y283012D01*
X305720D01*
Y279650D01*
X306689D01*
Y283012D01*
X307689D01*
Y279650D01*
X308780D01*
Y280150D01*
X322019D01*
Y278852D01*
X321198Y278302D01*
X320645Y277476D01*
X320451Y276500D01*
X320645Y275524D01*
X321198Y274698D01*
X322024Y274145D01*
X323000Y273951D01*
X323975Y274145D01*
X324802Y274698D01*
X325355Y275524D01*
X325549Y276500D01*
X325355Y277476D01*
X324802Y278302D01*
X323975Y278855D01*
X323855Y278879D01*
Y279650D01*
X324406D01*
Y283012D01*
X325406D01*
Y279650D01*
D02*
G37*
G36*
X397252Y203789D02*
Y180784D01*
X396752Y180614D01*
X396335Y181158D01*
X395604Y181719D01*
X394752Y182071D01*
X394339Y182126D01*
Y178661D01*
X393339D01*
Y182126D01*
X392925Y182071D01*
X392073Y181719D01*
X391342Y181158D01*
X390926Y180614D01*
X390425Y180784D01*
Y209962D01*
X390887Y210153D01*
X397252Y203789D01*
D02*
G37*
G36*
X297579Y348582D02*
Y346114D01*
X297160Y345918D01*
X288249D01*
X287901Y346418D01*
X287918Y346500D01*
Y348120D01*
X288880Y349082D01*
X297359D01*
X297579Y348582D01*
D02*
G37*
G36*
X444500Y340540D02*
X444783Y340577D01*
X445513Y340880D01*
X446140Y341360D01*
X446621Y341987D01*
X446923Y342717D01*
X446992Y343244D01*
X447499Y343260D01*
X447645Y342525D01*
X448198Y341698D01*
X449024Y341145D01*
X450000Y340951D01*
X450976Y341145D01*
X451582Y341551D01*
X452082Y341285D01*
Y340380D01*
X443520Y331818D01*
X434769D01*
X434577Y332280D01*
X441649Y339351D01*
X441848Y339649D01*
X441918Y340000D01*
Y340751D01*
X442366Y340972D01*
X442487Y340880D01*
X443217Y340577D01*
X443500Y340540D01*
Y343500D01*
X444500D01*
Y340540D01*
D02*
G37*
G36*
X388590Y210215D02*
Y173806D01*
X388237Y173453D01*
X387752D01*
X387433Y173453D01*
X387343D01*
X387252D01*
X387003Y173453D01*
X386503Y173621D01*
Y193379D01*
X386980Y193698D01*
X387532Y194525D01*
X387726Y195500D01*
X387532Y196476D01*
X386980Y197302D01*
X386566Y197579D01*
X386718Y198079D01*
X387469D01*
Y202622D01*
X382918D01*
X382531Y202622D01*
X382418Y203075D01*
Y203878D01*
X384500D01*
Y206650D01*
X385000D01*
Y207150D01*
X387968D01*
Y209421D01*
X387968Y209421D01*
X387968D01*
X387800Y209921D01*
X387879Y210110D01*
X388209Y210275D01*
X388441Y210322D01*
X388590Y210215D01*
D02*
G37*
G36*
X383375Y193698D02*
X383852Y193379D01*
Y173806D01*
X383572Y173527D01*
X383352Y173453D01*
X383102Y173453D01*
X383012D01*
X382921D01*
X382602Y173453D01*
X381764D01*
Y173966D01*
X382149Y174351D01*
X382348Y174649D01*
X382418Y175000D01*
Y194230D01*
X382918Y194382D01*
X383375Y193698D01*
D02*
G37*
G36*
X413454Y371082D02*
X412905Y370661D01*
X412082Y369589D01*
X411565Y368340D01*
X411455Y367500D01*
X416567D01*
Y367000D01*
X417067D01*
Y361888D01*
X417907Y361998D01*
X419156Y362516D01*
X420228Y363338D01*
X421051Y364411D01*
X421569Y365660D01*
X421582Y365764D01*
X422082Y365731D01*
Y356921D01*
X417531D01*
Y355544D01*
X417298Y355497D01*
X417001Y355298D01*
X416930Y355228D01*
X416468Y355419D01*
Y356921D01*
X411531D01*
Y355567D01*
X410468D01*
Y356921D01*
X408918D01*
Y370620D01*
X409880Y371582D01*
X413284D01*
X413454Y371082D01*
D02*
G37*
G36*
X365500Y340540D02*
X365783Y340577D01*
X366513Y340880D01*
X367140Y341360D01*
X367620Y341987D01*
X367923Y342717D01*
X367992Y343244D01*
X368499Y343260D01*
X368645Y342525D01*
X369198Y341698D01*
X370024Y341145D01*
X371000Y340951D01*
X371975Y341145D01*
X372582Y341551D01*
X373082Y341285D01*
Y340380D01*
X368720Y336018D01*
X359769D01*
X359577Y336480D01*
X362549Y339451D01*
X362748Y339749D01*
X362818Y340100D01*
Y340763D01*
X363318Y341009D01*
X363487Y340880D01*
X364217Y340577D01*
X364500Y340540D01*
Y343500D01*
X365500D01*
Y340540D01*
D02*
G37*
G36*
X353500D02*
X353783Y340577D01*
X354513Y340880D01*
X355140Y341360D01*
X355621Y341987D01*
X355923Y342717D01*
X355992Y343244D01*
X356499Y343260D01*
X356645Y342525D01*
X357198Y341698D01*
X358025Y341145D01*
X359000Y340951D01*
X359976Y341145D01*
X360482Y341484D01*
X360982Y341216D01*
Y340480D01*
X357820Y337318D01*
X349269D01*
X349077Y337780D01*
X350649Y339351D01*
X350848Y339649D01*
X350918Y340000D01*
Y340751D01*
X351366Y340972D01*
X351487Y340880D01*
X352217Y340577D01*
X352500Y340540D01*
Y343500D01*
X353500D01*
Y340540D01*
D02*
G37*
G36*
X341500D02*
X341783Y340577D01*
X342513Y340880D01*
X343140Y341360D01*
X343620Y341987D01*
X343923Y342717D01*
X343992Y343244D01*
X344499Y343260D01*
X344645Y342525D01*
X345198Y341698D01*
X346024Y341145D01*
X347000Y340951D01*
X347975Y341145D01*
X348582Y341551D01*
X349082Y341285D01*
Y340380D01*
X347320Y338618D01*
X337569D01*
X337377Y339080D01*
X337649Y339351D01*
X337848Y339649D01*
X337859Y339707D01*
X337918Y340000D01*
Y341796D01*
X338250Y341934D01*
X338418Y341937D01*
X338860Y341360D01*
X339487Y340880D01*
X340217Y340577D01*
X340500Y340540D01*
Y343500D01*
X341500D01*
Y340540D01*
D02*
G37*
G36*
X432500D02*
X432783Y340577D01*
X433513Y340880D01*
X434140Y341360D01*
X434621Y341987D01*
X434923Y342717D01*
X434992Y343244D01*
X435499Y343260D01*
X435645Y342525D01*
X436198Y341698D01*
X437024Y341145D01*
X438000Y340951D01*
X438975Y341145D01*
X439582Y341551D01*
X440082Y341285D01*
Y340380D01*
X432820Y333118D01*
X424069D01*
X423877Y333580D01*
X429649Y339351D01*
X429848Y339649D01*
X429918Y340000D01*
Y340751D01*
X430366Y340972D01*
X430487Y340880D01*
X431217Y340577D01*
X431500Y340540D01*
Y343500D01*
X432500D01*
Y340540D01*
D02*
G37*
G36*
X420500D02*
X420783Y340577D01*
X421513Y340880D01*
X422140Y341360D01*
X422620Y341987D01*
X422923Y342717D01*
X422992Y343244D01*
X423499Y343260D01*
X423645Y342525D01*
X424198Y341698D01*
X425025Y341145D01*
X426000Y340951D01*
X426975Y341145D01*
X427582Y341551D01*
X428082Y341285D01*
Y340380D01*
X422120Y334418D01*
X413369D01*
X413177Y334880D01*
X417649Y339351D01*
X417848Y339649D01*
X417918Y340000D01*
Y340751D01*
X418366Y340972D01*
X418487Y340880D01*
X419217Y340577D01*
X419500Y340540D01*
Y343500D01*
X420500D01*
Y340540D01*
D02*
G37*
G36*
X408500D02*
X408783Y340577D01*
X409513Y340880D01*
X410140Y341360D01*
X410620Y341987D01*
X410923Y342717D01*
X410992Y343244D01*
X411499Y343260D01*
X411645Y342525D01*
X412198Y341698D01*
X413025Y341145D01*
X414000Y340951D01*
X414976Y341145D01*
X415582Y341551D01*
X416082Y341285D01*
Y340380D01*
X411420Y335718D01*
X402669D01*
X402477Y336180D01*
X405649Y339351D01*
X405848Y339649D01*
X405859Y339707D01*
X405918Y340000D01*
Y340751D01*
X406366Y340972D01*
X406487Y340880D01*
X407217Y340577D01*
X407500Y340540D01*
Y343500D01*
X408500D01*
Y340540D01*
D02*
G37*
%LPC*%
G36*
X283000Y272500D02*
X281050D01*
X281145Y272024D01*
X281698Y271198D01*
X282524Y270645D01*
X283000Y270550D01*
Y272500D01*
D02*
G37*
G36*
X168441Y265386D02*
X166760D01*
Y264059D01*
X168441D01*
Y265386D01*
D02*
G37*
G36*
X177000Y255460D02*
Y253000D01*
X179460D01*
X179423Y253283D01*
X179121Y254013D01*
X178640Y254640D01*
X178013Y255120D01*
X177283Y255423D01*
X177000Y255460D01*
D02*
G37*
G36*
X416067Y366500D02*
X411455D01*
X411565Y365660D01*
X412082Y364411D01*
X412905Y363338D01*
X413978Y362516D01*
X415227Y361998D01*
X416067Y361888D01*
Y366500D01*
D02*
G37*
G36*
X184280Y312779D02*
X155720D01*
Y284221D01*
X184280D01*
Y312779D01*
D02*
G37*
G36*
X218508Y279315D02*
X211602D01*
Y275733D01*
X210451D01*
X210140Y276140D01*
X209513Y276621D01*
X208783Y276923D01*
X208000Y277026D01*
X207217Y276923D01*
X206487Y276621D01*
X205860Y276140D01*
X205380Y275513D01*
X205077Y274783D01*
X204974Y274000D01*
X205077Y273217D01*
X205380Y272487D01*
X205860Y271860D01*
X206487Y271379D01*
X207217Y271077D01*
X208000Y270974D01*
X208783Y271077D01*
X209513Y271379D01*
X210140Y271860D01*
X210451Y272267D01*
X211602D01*
Y268472D01*
X218508D01*
Y279315D01*
D02*
G37*
G36*
X335000Y232450D02*
X334524Y232355D01*
X333698Y231802D01*
X333145Y230976D01*
X333050Y230500D01*
X335000D01*
Y232450D01*
D02*
G37*
G36*
Y229500D02*
X333050D01*
X333145Y229025D01*
X333698Y228198D01*
X334524Y227645D01*
X335000Y227551D01*
Y229500D01*
D02*
G37*
G36*
X387968Y206150D02*
X385500D01*
Y203878D01*
X387968D01*
Y206150D01*
D02*
G37*
G36*
X179460Y252000D02*
X177000D01*
Y249540D01*
X177283Y249577D01*
X178013Y249880D01*
X178640Y250360D01*
X179121Y250987D01*
X179423Y251717D01*
X179460Y252000D01*
D02*
G37*
G36*
X176000D02*
X173540D01*
X173577Y251717D01*
X173880Y250987D01*
X174360Y250360D01*
X174987Y249880D01*
X175717Y249577D01*
X176000Y249540D01*
Y252000D01*
D02*
G37*
G36*
X336000Y232450D02*
Y230500D01*
X337949D01*
X337855Y230976D01*
X337302Y231802D01*
X336475Y232355D01*
X336000Y232450D01*
D02*
G37*
%LPD*%
D10*
X292000Y296350D02*
D03*
Y302650D02*
D03*
X286000Y308350D02*
D03*
Y314650D02*
D03*
X292000Y314650D02*
D03*
Y308350D02*
D03*
X301000Y313650D02*
D03*
Y307350D02*
D03*
X324000Y296350D02*
D03*
Y302650D02*
D03*
X341000Y348350D02*
D03*
Y354650D02*
D03*
X347000D02*
D03*
Y348350D02*
D03*
X353000D02*
D03*
Y354650D02*
D03*
X359000D02*
D03*
Y348350D02*
D03*
X365000D02*
D03*
Y354650D02*
D03*
X371000D02*
D03*
Y348350D02*
D03*
X377000D02*
D03*
Y354650D02*
D03*
X383000D02*
D03*
Y348350D02*
D03*
X408000D02*
D03*
Y354650D02*
D03*
X414000D02*
D03*
Y348350D02*
D03*
X420000D02*
D03*
Y354650D02*
D03*
X426000D02*
D03*
Y348350D02*
D03*
X432000D02*
D03*
Y354650D02*
D03*
X438000D02*
D03*
Y348350D02*
D03*
X444000D02*
D03*
Y354650D02*
D03*
X450000D02*
D03*
Y348350D02*
D03*
X456000D02*
D03*
Y354650D02*
D03*
X462000D02*
D03*
Y348350D02*
D03*
X376500Y200350D02*
D03*
Y206650D02*
D03*
X385000D02*
D03*
Y200350D02*
D03*
X333000Y162150D02*
D03*
Y155850D02*
D03*
X155000Y232850D02*
D03*
Y239150D02*
D03*
D11*
X317224Y296339D02*
D03*
Y313661D02*
D03*
X307776D02*
D03*
Y296339D02*
D03*
D12*
X340421Y297000D02*
D03*
X330579D02*
D03*
D13*
X330500Y309256D02*
D03*
Y303744D02*
D03*
X340500Y309256D02*
D03*
Y303744D02*
D03*
X270000Y207756D02*
D03*
Y202244D02*
D03*
X261500Y207756D02*
D03*
Y202244D02*
D03*
X253000Y207756D02*
D03*
Y202244D02*
D03*
X244500Y207756D02*
D03*
Y202244D02*
D03*
X236000Y207756D02*
D03*
Y202244D02*
D03*
D14*
X319000Y221988D02*
D03*
X317032D02*
D03*
X315063D02*
D03*
X320969D02*
D03*
X322937D02*
D03*
X324905D02*
D03*
X313094D02*
D03*
X326874D02*
D03*
X311126D02*
D03*
X309157D02*
D03*
X328842D02*
D03*
X307189D02*
D03*
X330811D02*
D03*
X305221D02*
D03*
X332780D02*
D03*
X303252D02*
D03*
X334748D02*
D03*
X301284D02*
D03*
X336717D02*
D03*
X299315D02*
D03*
X338685D02*
D03*
X297346D02*
D03*
X340653D02*
D03*
X295378D02*
D03*
X342622D02*
D03*
Y283012D02*
D03*
X295378D02*
D03*
X340653D02*
D03*
X297346D02*
D03*
X338685D02*
D03*
X299315D02*
D03*
X336717D02*
D03*
X301284D02*
D03*
X334748D02*
D03*
X303252D02*
D03*
X332780D02*
D03*
X305221D02*
D03*
X330811D02*
D03*
X307189D02*
D03*
X328842D02*
D03*
X309157D02*
D03*
X311126D02*
D03*
X326874D02*
D03*
X313094D02*
D03*
X324905D02*
D03*
X322937D02*
D03*
X320969D02*
D03*
X315063D02*
D03*
X317032D02*
D03*
X319000D02*
D03*
D15*
X288488Y252500D02*
D03*
Y250532D02*
D03*
Y248563D02*
D03*
Y254468D02*
D03*
Y256437D02*
D03*
Y258405D02*
D03*
Y246595D02*
D03*
Y260374D02*
D03*
Y244626D02*
D03*
Y242657D02*
D03*
Y262343D02*
D03*
Y240689D02*
D03*
Y264311D02*
D03*
Y238720D02*
D03*
Y266280D02*
D03*
Y236752D02*
D03*
Y268248D02*
D03*
Y234784D02*
D03*
Y270216D02*
D03*
Y232815D02*
D03*
Y272185D02*
D03*
Y230847D02*
D03*
Y274153D02*
D03*
Y228878D02*
D03*
Y276122D02*
D03*
X349512D02*
D03*
Y228878D02*
D03*
Y274153D02*
D03*
Y230847D02*
D03*
Y272185D02*
D03*
Y232815D02*
D03*
Y270216D02*
D03*
Y234784D02*
D03*
Y268248D02*
D03*
Y236752D02*
D03*
Y266280D02*
D03*
Y238720D02*
D03*
Y264311D02*
D03*
Y240689D02*
D03*
Y262343D02*
D03*
Y242657D02*
D03*
Y244626D02*
D03*
Y260374D02*
D03*
Y246595D02*
D03*
Y258405D02*
D03*
Y256437D02*
D03*
Y254468D02*
D03*
Y248563D02*
D03*
Y250532D02*
D03*
Y252500D02*
D03*
D16*
X251555Y273894D02*
D03*
X233445D02*
D03*
X215055D02*
D03*
X196945D02*
D03*
X179055D02*
D03*
X160945D02*
D03*
X179055Y320394D02*
D03*
X160945D02*
D03*
X215055D02*
D03*
X196945D02*
D03*
X251555D02*
D03*
X233445D02*
D03*
D17*
X242500Y298500D02*
D03*
X206000D02*
D03*
X170000D02*
D03*
Y345000D02*
D03*
X206000D02*
D03*
X242500D02*
D03*
D18*
X154350Y257500D02*
D03*
X160650D02*
D03*
X185650Y263500D02*
D03*
X179350D02*
D03*
X190850Y257500D02*
D03*
X197150D02*
D03*
X222150Y263500D02*
D03*
X215850D02*
D03*
X227850Y257500D02*
D03*
X234150D02*
D03*
X259150Y263500D02*
D03*
X252850D02*
D03*
X366850Y264000D02*
D03*
X373150D02*
D03*
X300150Y183000D02*
D03*
X293850D02*
D03*
X450650Y253500D02*
D03*
X444350D02*
D03*
X195650Y145000D02*
D03*
X189350D02*
D03*
X181850Y139000D02*
D03*
X188150D02*
D03*
D19*
X173740Y258441D02*
D03*
Y261000D02*
D03*
Y263559D02*
D03*
X166260D02*
D03*
Y261000D02*
D03*
Y258441D02*
D03*
X210240D02*
D03*
Y261000D02*
D03*
Y263559D02*
D03*
X202760D02*
D03*
Y261000D02*
D03*
Y258441D02*
D03*
X247240D02*
D03*
Y261000D02*
D03*
Y263559D02*
D03*
X239760D02*
D03*
Y261000D02*
D03*
Y258441D02*
D03*
X306740Y347441D02*
D03*
Y350000D02*
D03*
Y352559D02*
D03*
X299260D02*
D03*
Y350000D02*
D03*
Y347441D02*
D03*
X283240D02*
D03*
Y350000D02*
D03*
Y352559D02*
D03*
X275760D02*
D03*
Y350000D02*
D03*
Y347441D02*
D03*
D20*
X270000Y195846D02*
D03*
Y189154D02*
D03*
X261500Y195846D02*
D03*
Y189154D02*
D03*
X253000Y195846D02*
D03*
Y189154D02*
D03*
X244500Y195846D02*
D03*
Y189154D02*
D03*
X236000Y195846D02*
D03*
Y189154D02*
D03*
D21*
X440000Y223272D02*
D03*
X445000D02*
D03*
X450000D02*
D03*
X455000D02*
D03*
X440000Y244728D02*
D03*
X445000D02*
D03*
X450000D02*
D03*
X455000D02*
D03*
D22*
X436240Y207500D02*
D03*
X428760D02*
D03*
X126740Y195500D02*
D03*
X119260D02*
D03*
D23*
X402500Y170000D02*
D03*
X398169D02*
D03*
X393839D02*
D03*
X389508D02*
D03*
X385177D02*
D03*
X380847D02*
D03*
X376516D02*
D03*
X372185D02*
D03*
D24*
X411870Y180236D02*
D03*
X357736D02*
D03*
Y147559D02*
D03*
X412736D02*
D03*
D25*
X167657Y117500D02*
D03*
X187343D02*
D03*
D26*
X174618Y138760D02*
D03*
Y146240D02*
D03*
X164382Y138760D02*
D03*
Y142500D02*
D03*
Y146240D02*
D03*
D27*
X282500Y136000D02*
D03*
D28*
X232106D02*
D03*
X332894D02*
D03*
D29*
X202500Y160158D02*
D03*
Y179842D02*
D03*
X170000Y160158D02*
D03*
Y179842D02*
D03*
X132500Y309842D02*
D03*
Y290158D02*
D03*
D30*
X123272Y243500D02*
D03*
Y238500D02*
D03*
Y233500D02*
D03*
Y228500D02*
D03*
X144728Y243500D02*
D03*
Y238500D02*
D03*
Y233500D02*
D03*
Y228500D02*
D03*
D31*
X150500Y238500D02*
X151150Y239150D01*
X149000Y246500D02*
X151150Y244350D01*
Y239150D02*
Y244350D01*
X335500Y230000D02*
X340653Y224847D01*
Y221988D02*
Y224847D01*
X324905Y283012D02*
Y286094D01*
X324000Y287000D02*
X324905Y286094D01*
X324000Y287000D02*
Y289000D01*
X349512Y274153D02*
X354847D01*
X284000Y229500D02*
X285347Y230847D01*
X288488D01*
X342900Y257494D02*
Y260994D01*
Y271494D01*
X341500Y272894D02*
Y273500D01*
Y272894D02*
X342900Y271494D01*
Y255506D02*
Y257494D01*
X341500Y254106D02*
X342900Y255506D01*
X341500Y233500D02*
Y254106D01*
Y233500D02*
X346000Y229000D01*
X448500Y263500D02*
X477500D01*
X444350Y259350D02*
X448500Y263500D01*
X444350Y253500D02*
Y259350D01*
X270059Y352559D02*
X275760D01*
X306740Y347441D02*
X310941D01*
X301000Y302500D02*
Y307350D01*
X289000Y319000D02*
X290000D01*
X292000Y317000D01*
Y314650D02*
Y317000D01*
X288000Y319000D02*
X289000D01*
X286000Y317000D02*
X288000Y319000D01*
X286000Y314650D02*
Y317000D01*
X330500Y309256D02*
X340500D01*
X323339Y313661D02*
X323500Y313500D01*
X317224Y313661D02*
X323339D01*
X323500Y307000D02*
X324000Y306500D01*
Y302650D02*
Y306500D01*
X323500Y307000D02*
Y313500D01*
X342622Y221988D02*
Y227122D01*
X385177Y195500D02*
Y200173D01*
X393839Y170000D02*
Y178661D01*
X393500Y170339D02*
X393839Y170000D01*
X450650Y253500D02*
Y258850D01*
X195843Y160158D02*
X202500D01*
X192500Y163500D02*
X195843Y160158D01*
X192500Y163500D02*
Y182500D01*
X183500Y191500D02*
X192500Y182500D01*
X149000Y191500D02*
X183500D01*
X140000Y200500D02*
X149000Y191500D01*
X140000Y200500D02*
Y211500D01*
X135000Y216500D02*
X140000Y211500D01*
X135000Y216500D02*
Y245500D01*
X136000Y246500D01*
X149000D01*
X284653Y274153D02*
X288488D01*
X283500Y273000D02*
X284653Y274153D01*
X301200Y283012D02*
Y291800D01*
X301284Y276783D02*
Y283012D01*
X270000Y125000D02*
Y133000D01*
X267000Y136000D02*
X270000Y133000D01*
X232106Y136000D02*
X267000D01*
X297606Y136106D02*
X333000D01*
X295000Y133500D02*
X297606Y136106D01*
X295000Y125000D02*
Y133500D01*
X292500Y122500D02*
X295000Y125000D01*
X272500Y122500D02*
X292500D01*
X270000Y125000D02*
X272500Y122500D01*
X276500Y201500D02*
Y208000D01*
Y201500D02*
X278500Y199500D01*
X297000D01*
X300000Y196500D01*
Y191500D02*
Y196500D01*
X312000Y289000D02*
X314500D01*
X317032Y286469D01*
Y283012D02*
Y286469D01*
X290000Y184500D02*
Y191500D01*
Y184500D02*
X291500Y183000D01*
X293850D01*
X300000Y183350D02*
Y191500D01*
X373150Y264000D02*
X379000D01*
X349512Y264311D02*
X366539D01*
X333000Y162150D02*
Y167000D01*
X282500Y136000D02*
Y147500D01*
X346500Y162000D02*
Y214000D01*
X340350Y155850D02*
X346500Y162000D01*
X333000Y155850D02*
X340350D01*
X338000Y214000D02*
X339000D01*
X346000Y221000D01*
Y229000D01*
X335500Y273500D02*
X341500D01*
X332780Y276220D02*
X335500Y273500D01*
X332780Y276220D02*
Y283012D01*
X333000Y136106D02*
Y155850D01*
X450000Y249500D02*
X450650Y250150D01*
Y253500D01*
X450000Y244728D02*
Y249500D01*
X444350Y250150D02*
X445000Y249500D01*
Y244728D02*
Y249500D01*
X444350Y250150D02*
Y253500D01*
X453000Y235000D02*
X455000Y237000D01*
X442000Y235000D02*
X453000D01*
X428000Y221000D02*
X442000Y235000D01*
X455000Y237000D02*
Y244728D01*
X390000Y221000D02*
X390252D01*
X392902Y223650D01*
X395098D01*
X396448Y222300D01*
X427461D01*
X440000Y234839D01*
Y244728D01*
X394000Y221000D02*
X428000D01*
X262700Y339377D02*
X268423Y345100D01*
X264000Y338839D02*
X268962Y343800D01*
X278600Y345100D02*
X280000Y346500D01*
X268423Y345100D02*
X278600D01*
X284300Y343800D02*
X287000Y346500D01*
X268962Y343800D02*
X284300D01*
X285000Y342500D02*
X287500Y345000D01*
X269500Y342500D02*
X285000D01*
X265300Y338300D02*
X269500Y342500D01*
X261400Y339915D02*
X271485Y350000D01*
X261400Y270100D02*
Y339915D01*
X262700Y295300D02*
Y339377D01*
X264000Y302500D02*
Y338839D01*
X265300Y305700D02*
Y338300D01*
X151950Y226550D02*
X332788D01*
X150000Y228500D02*
X151950Y226550D01*
X144728Y228500D02*
X150000D01*
X139250Y225250D02*
X332250D01*
X137500Y227000D02*
X139250Y225250D01*
X137500Y227000D02*
Y242000D01*
X139000Y243500D02*
X144728D01*
X137500Y242000D02*
X139000Y243500D01*
X292878Y228878D02*
X295000Y231000D01*
X288488Y228878D02*
X292878D01*
X332788Y226550D02*
X334748Y224590D01*
Y221988D02*
Y224590D01*
X332250Y225250D02*
X332780Y224721D01*
Y221988D02*
Y224721D01*
X207500Y244500D02*
X212000Y240000D01*
X264400Y236100D02*
X268500Y232000D01*
X177061Y236100D02*
X264400D01*
X169700Y243461D02*
X177061Y236100D01*
X169700Y243461D02*
Y254800D01*
X169000Y255500D02*
X169700Y254800D01*
X171000Y244000D02*
X177600Y237400D01*
X266600D01*
X268500Y235500D01*
X270000Y278000D02*
X298500D01*
X268500Y279500D02*
X270000Y278000D01*
X272200Y279300D02*
X297000D01*
X268500Y283000D02*
X272200Y279300D01*
X210800Y238700D02*
X288468D01*
X297000Y279300D02*
X297346Y279646D01*
Y283012D01*
X266878Y276122D02*
X288488D01*
X264500Y278500D02*
X266878Y276122D01*
X264500Y278500D02*
Y285000D01*
X269000Y289500D01*
X298500Y278000D02*
X299315Y278815D01*
Y283012D01*
X299500Y293500D02*
X301200Y291800D01*
X289500Y293500D02*
X299500D01*
X301200Y283012D02*
X301284D01*
X288500Y294500D02*
X289500Y293500D01*
X288500Y294500D02*
Y302000D01*
X293350Y292150D02*
X295378Y290122D01*
X265850Y292150D02*
X293350D01*
X262700Y295300D02*
X265850Y292150D01*
X262700Y295300D02*
X265500Y292500D01*
X288500Y302000D02*
X289150Y302650D01*
X292000D01*
X303252Y283012D02*
Y286748D01*
X302500Y287500D02*
X303252Y286748D01*
X302500Y287500D02*
Y294000D01*
X300150Y296350D02*
X302500Y294000D01*
X292000Y296350D02*
X300150D01*
X286000Y308350D02*
X292000D01*
Y302650D02*
Y308350D01*
X443900Y330900D02*
X453000Y340000D01*
X389077Y330900D02*
X443900D01*
X375100Y316923D02*
X389077Y330900D01*
X375100Y285539D02*
Y316923D01*
Y285539D02*
X376200Y284438D01*
Y272306D02*
Y284438D01*
X372500Y268606D02*
X376200Y272306D01*
X372500Y268500D02*
Y268606D01*
X337000Y340000D02*
Y353500D01*
X336000Y339000D02*
X337000Y340000D01*
X270015Y339000D02*
X336000D01*
X369100Y335100D02*
X374000Y340000D01*
X271631Y335100D02*
X369100D01*
X358200Y336400D02*
X361900Y340100D01*
X271092Y336400D02*
X358200D01*
X347700Y337700D02*
X350000Y340000D01*
X270554Y337700D02*
X347700D01*
X270500Y333969D02*
X271631Y335100D01*
X269200Y334508D02*
X271092Y336400D01*
X267900Y335046D02*
X270554Y337700D01*
X266600Y335585D02*
X270015Y339000D01*
X271485Y350000D02*
X275760D01*
X266600Y306400D02*
Y335585D01*
X267900Y309100D02*
Y335046D01*
X269200Y311800D02*
Y334508D01*
X270500Y314500D02*
Y333969D01*
X350000Y340000D02*
Y354000D01*
X429000Y340000D02*
Y354000D01*
X422500Y333500D02*
X429000Y340000D01*
X388000Y333500D02*
X422500D01*
X405000Y340000D02*
Y354000D01*
X401100Y336100D02*
X405000Y340000D01*
X386600Y336100D02*
X401100D01*
X417000Y340000D02*
Y354000D01*
X411800Y334800D02*
X417000Y340000D01*
X387300Y334800D02*
X411800D01*
X433200Y332200D02*
X441000Y340000D01*
X388539Y332200D02*
X433200D01*
X373800Y317461D02*
X388539Y332200D01*
X373800Y285000D02*
Y317461D01*
Y285000D02*
X374900Y283900D01*
Y274506D02*
Y283900D01*
X372500Y272106D02*
X374900Y274506D01*
X372500Y272000D02*
Y272106D01*
Y318000D02*
X388000Y333500D01*
X372500Y282500D02*
Y318000D01*
X371200Y318700D02*
X387300Y334800D01*
X369900Y319400D02*
X386600Y336100D01*
X371200Y284594D02*
Y318700D01*
X369900Y285133D02*
Y319400D01*
X405650Y354650D02*
X408000D01*
X405000Y354000D02*
X405650Y354650D01*
X368800Y284033D02*
X369900Y285133D01*
X370100Y283494D02*
X371200Y284594D01*
X368800Y279306D02*
Y284033D01*
Y279306D02*
X372500Y275606D01*
Y275500D02*
Y275606D01*
X370100Y281506D02*
Y283494D01*
Y281506D02*
X372500Y279106D01*
Y279000D02*
Y279106D01*
X334531Y250532D02*
X340500Y256500D01*
X333000Y252500D02*
X340500Y260000D01*
X331469Y254468D02*
X340500Y263500D01*
X288488Y254468D02*
X331469D01*
X329937Y256437D02*
X340500Y267000D01*
X328405Y258405D02*
X340500Y270500D01*
X288488Y250532D02*
X334531D01*
X288488Y252500D02*
X333000D01*
X288488Y256437D02*
X329937D01*
X288488Y258405D02*
X328405D01*
X278126Y260374D02*
X288488D01*
X275185Y232815D02*
X288488D01*
X277406Y246595D02*
X288488D01*
X275494Y244900D02*
X275794Y244600D01*
X288462D01*
X288488Y244626D01*
X276000Y249500D02*
X278000D01*
X275063Y248563D02*
X276000Y249500D01*
X245437Y248563D02*
X275063D01*
X273506Y244900D02*
X275494D01*
X212000Y240000D02*
X276000D01*
X276689Y240689D01*
X205500Y244000D02*
X210800Y238700D01*
X288468D02*
X288488Y238720D01*
X278937Y248563D02*
X288488D01*
X278000Y249500D02*
X278937Y248563D01*
X263000Y288000D02*
X264500Y289500D01*
X263000Y270500D02*
Y288000D01*
X264000Y302500D02*
X266000Y300500D01*
X265300Y305700D02*
X269650Y301350D01*
X266600Y306400D02*
X272500Y300500D01*
X267900Y309100D02*
X272500Y304500D01*
X269200Y311800D02*
X272500Y308500D01*
X261400Y270100D02*
X267189Y264311D01*
X270500Y314500D02*
X272500Y312500D01*
X295378Y283012D02*
Y290122D01*
X287500Y345000D02*
X301500D01*
X287000Y346500D02*
Y348500D01*
X280000Y346500D02*
Y349000D01*
X267189Y264311D02*
X288488D01*
X242500Y251500D02*
X245437Y248563D01*
X274658Y242657D02*
X288488D01*
X273232Y244626D02*
X273506Y244900D01*
X248000Y244626D02*
X273232D01*
X276689Y240689D02*
X288488D01*
X374000Y340000D02*
Y354000D01*
X374650Y354650D01*
X377000D01*
X361869Y344733D02*
Y354000D01*
Y344733D02*
X361900Y344701D01*
X361869Y354000D02*
X362518Y354650D01*
X361900Y340100D02*
Y344701D01*
X362518Y354650D02*
X365000D01*
X350000Y354000D02*
X350650Y354650D01*
X353000D01*
X337000Y353500D02*
X338150Y354650D01*
X341000D01*
X453000Y340000D02*
Y354000D01*
X453650Y354650D01*
X456000D01*
X441000Y340000D02*
Y354000D01*
X441650Y354650D01*
X444000D01*
X429000Y354000D02*
X429650Y354650D01*
X432000D01*
X417000Y354000D02*
X417650Y354650D01*
X420000D01*
X287000Y353500D02*
X291000D01*
X285700Y352200D02*
X287000Y353500D01*
X285700Y348000D02*
Y352200D01*
X285141Y347441D02*
X285700Y348000D01*
X283240Y347441D02*
X285141D01*
X291000Y353500D02*
X296000D01*
X296941Y352559D01*
X299260D01*
X301500Y345000D02*
X303300Y346800D01*
Y348800D01*
X304500Y350000D01*
X306740D01*
X287000Y348500D02*
X288500Y350000D01*
X299260D01*
X280000Y349000D02*
X281000Y350000D01*
X283240D01*
X245500Y252500D02*
X248000D01*
X244500Y253500D02*
X245500Y252500D01*
X244500Y253500D02*
Y260500D01*
X180260Y146240D02*
X181500Y145000D01*
X174618Y146240D02*
X180260D01*
X181850Y139000D02*
Y144650D01*
X181500Y145000D02*
X189350D01*
X188150Y139000D02*
X192000D01*
X222150Y257650D02*
Y263500D01*
X222000Y257500D02*
X227850D01*
X185650Y263500D02*
X186000Y263150D01*
X185000Y257500D02*
X190850D01*
X185000D02*
Y262850D01*
X154500Y257650D02*
Y263500D01*
X154350Y257500D02*
X154500Y257650D01*
X259150Y263500D02*
Y272350D01*
X257606Y273894D02*
X259150Y272350D01*
X251555Y273894D02*
X257606D01*
X237941Y258441D02*
X239760D01*
X237000Y257500D02*
X237941Y258441D01*
X234150Y257500D02*
X237000D01*
X247240Y263559D02*
X252791D01*
X252850Y263500D01*
X210240Y263559D02*
X215791D01*
X215850Y263500D01*
X200941Y258441D02*
X202760D01*
X200000Y257500D02*
X200941Y258441D01*
X197150Y257500D02*
X200000D01*
X173740Y263559D02*
X179291D01*
X164441Y258441D02*
X166260D01*
X163500Y257500D02*
X164441Y258441D01*
X160650Y257500D02*
X163500D01*
X160650D02*
Y262850D01*
X154000Y269500D02*
X160650Y262850D01*
X154000Y269500D02*
Y318000D01*
X156394Y320394D01*
X160945D01*
X179350Y263500D02*
Y266350D01*
X180500Y267500D01*
X189500D01*
X191000Y269000D01*
Y318500D01*
X192894Y320394D01*
X196945D01*
Y268055D02*
Y273894D01*
X210240Y263559D02*
Y265760D01*
X233445Y268055D02*
Y273894D01*
X247240Y263559D02*
Y265260D01*
X227000Y318500D02*
X228894Y320394D01*
X233445D01*
X227000Y264500D02*
Y318500D01*
Y264500D02*
X228362Y263138D01*
X197150Y257500D02*
Y261350D01*
X195500Y263000D02*
X197150Y261350D01*
X192000Y263000D02*
X195500D01*
X164606Y273894D02*
X170000Y268500D01*
X160945Y273894D02*
X164606D01*
X210240Y258441D02*
X212059D01*
X213000Y257500D01*
X216000D01*
X173740Y255260D02*
Y258441D01*
Y255260D02*
X176500Y252500D01*
X196945Y268055D02*
X197500Y267500D01*
X208500D01*
X210240Y265760D01*
X198500Y264500D02*
X199441Y263559D01*
X202760D01*
X166201Y263500D02*
X166260Y263559D01*
X164500Y263500D02*
X166201D01*
X162000Y266000D02*
X164500Y263500D01*
X233445Y268055D02*
X234000Y267500D01*
X245000D01*
X247240Y265260D01*
X228362Y263138D02*
X231862D01*
X234150Y260850D01*
Y257500D02*
Y260850D01*
X235941Y263559D02*
X239760D01*
X235000Y264500D02*
X235941Y263559D01*
X247240Y258441D02*
X249559D01*
X250000Y258000D01*
X253000D01*
X308500Y357500D02*
Y367000D01*
X306740Y355740D02*
X308500Y357500D01*
X306740Y352559D02*
Y355740D01*
X299260Y347441D02*
X301441D01*
X302000Y348000D01*
Y356000D01*
X300672Y357328D02*
X302000Y356000D01*
X296689Y358811D02*
Y367000D01*
Y358811D02*
X298172Y357328D01*
X300672D01*
X283240Y352559D02*
Y355740D01*
X284878Y357378D01*
Y367000D01*
X208000Y261000D02*
X210240D01*
X207500Y260500D02*
X208000Y261000D01*
X207500Y244500D02*
Y260500D01*
X202760Y261000D02*
X205000D01*
X205500Y260500D01*
Y244000D02*
Y260500D01*
X239760Y261000D02*
X242000D01*
X242500Y260500D01*
Y251500D02*
Y260500D01*
X245000Y261000D02*
X247240D01*
X244500Y260500D02*
X245000Y261000D01*
X166260D02*
X168500D01*
X169000Y260500D01*
Y255500D02*
Y260500D01*
X171500Y261000D02*
X173740D01*
X171000Y260500D02*
X171500Y261000D01*
X171000Y244000D02*
Y260500D01*
X275760Y347441D02*
X277941D01*
X278500Y348000D01*
Y356000D01*
X277000Y357500D02*
X278500Y356000D01*
X274500Y357500D02*
X277000D01*
X273067Y358933D02*
X274500Y357500D01*
X273067Y358933D02*
Y367000D01*
X341000Y354650D02*
X347000D01*
X344567Y361933D02*
Y367000D01*
Y361933D02*
X347000Y359500D01*
Y354650D02*
Y359500D01*
X353000Y354650D02*
X359000D01*
X356378Y362122D02*
Y367000D01*
Y362122D02*
X359000Y359500D01*
Y354650D02*
Y359500D01*
X365000Y354650D02*
X371000D01*
X368189Y362311D02*
Y367000D01*
Y362311D02*
X371000Y359500D01*
Y354650D02*
Y359500D01*
X377000Y354650D02*
X383000D01*
X380000Y362500D02*
Y367000D01*
Y362500D02*
X383000Y359500D01*
Y354650D02*
Y359500D01*
X422067Y372500D02*
X428378Y378811D01*
X408000Y354650D02*
X414000D01*
X433878Y372500D02*
X440189Y378811D01*
X424500Y372500D02*
X433878D01*
X423000Y371000D02*
X424500Y372500D01*
X420000Y354650D02*
X423000D01*
X426000D01*
X423000D02*
Y371000D01*
X408000Y354650D02*
Y371000D01*
X409500Y372500D01*
X422067D01*
X445689D02*
X452000Y378811D01*
X437500Y372500D02*
X445689D01*
X435000Y370000D02*
X437500Y372500D01*
X432000Y354650D02*
X435000D01*
X438000D01*
X435000D02*
Y370000D01*
X444000Y354650D02*
X450000D01*
X444000D02*
Y359500D01*
X456000Y354650D02*
X462000D01*
X456000D02*
Y359500D01*
X341000Y343500D02*
Y348350D01*
X353000Y343500D02*
Y348350D01*
X365000Y343500D02*
Y348350D01*
X377000Y343500D02*
Y348350D01*
X347000Y343500D02*
Y348350D01*
X359000Y343500D02*
Y348350D01*
X371000Y343500D02*
Y348350D01*
X383000Y343500D02*
Y348350D01*
X408000Y343500D02*
Y348350D01*
X414000Y343500D02*
Y348350D01*
X420000Y343500D02*
Y348350D01*
X426000Y343500D02*
Y348350D01*
X432000Y343500D02*
Y348350D01*
X438000Y343500D02*
Y348350D01*
X444000Y343500D02*
Y348350D01*
X450000Y343500D02*
Y348350D01*
X456000Y343500D02*
Y348350D01*
X462000Y343500D02*
Y348350D01*
X308500Y378811D02*
Y387500D01*
X296689Y378811D02*
Y387311D01*
X284878Y378811D02*
Y387122D01*
X328842Y283012D02*
Y287842D01*
X331500Y290500D01*
X339000D01*
X340421Y291921D01*
Y297000D01*
X330579Y291579D02*
Y297000D01*
X326874Y287874D02*
X330579Y291579D01*
X326874Y283012D02*
Y287874D01*
X330579Y297000D02*
Y303665D01*
X330500Y303744D02*
X330579Y303665D01*
X340500Y297079D02*
Y303744D01*
X340421Y297000D02*
X340500Y297079D01*
X317236Y296350D02*
X324000D01*
X317224Y291276D02*
Y296339D01*
Y291276D02*
X320969Y287531D01*
Y283012D02*
Y287531D01*
X301012Y313661D02*
X307776D01*
Y307224D02*
Y313661D01*
Y307224D02*
X312500Y302500D01*
Y293000D02*
Y302500D01*
Y293000D02*
X319000Y286500D01*
Y283012D02*
Y286500D01*
X322937Y276563D02*
X323000Y276500D01*
X322937Y276563D02*
Y283012D01*
X344122Y276122D02*
X349512D01*
X344000Y276000D02*
X344122Y276122D01*
X288488Y272185D02*
X293815D01*
X294000Y272000D01*
X342622Y227122D02*
X342744Y227000D01*
X305221Y283012D02*
Y287720D01*
X307189Y283012D02*
Y288311D01*
X306000Y289000D02*
X308000Y291000D01*
Y296114D01*
X307776Y296339D02*
X308000Y296114D01*
X439232Y176878D02*
Y188732D01*
X446500Y196000D01*
X455000D01*
X460000Y201000D01*
Y207500D01*
X436240D02*
X450000D01*
X436240Y207500D02*
X436240Y207500D01*
X450000Y215500D02*
Y223272D01*
Y215500D02*
X451500Y214000D01*
X458000D01*
X460000Y212000D01*
Y207500D02*
Y212000D01*
X445000Y216000D02*
Y223272D01*
X443000Y214000D02*
X445000Y216000D01*
X430500Y214000D02*
X443000D01*
X428760Y212260D02*
X430500Y214000D01*
X428760Y207500D02*
Y212260D01*
Y165697D02*
X439232Y155224D01*
X428760Y165697D02*
Y207500D01*
X269847Y189000D02*
X270000Y189154D01*
X229000Y189000D02*
X269847D01*
X270000Y195846D02*
Y202244D01*
X261500Y195846D02*
Y202244D01*
X253000Y195846D02*
Y202244D01*
X244500Y195846D02*
Y202244D01*
X236000Y195846D02*
Y202244D01*
X261500Y210000D02*
X264300Y212800D01*
X261500Y207756D02*
Y210000D01*
X270000Y207756D02*
Y210000D01*
X271500Y211500D01*
X253000Y210500D02*
X256600Y214100D01*
X253000Y207756D02*
Y210500D01*
X244500D02*
X249400Y215400D01*
X244500Y207756D02*
Y210500D01*
X236000D02*
X242200Y216700D01*
X236000Y207756D02*
Y210500D01*
X123000Y177110D02*
Y210000D01*
X126740Y195500D02*
X131000D01*
X133000Y197500D01*
Y210000D01*
X119000Y233500D02*
X123272D01*
X117500Y232000D02*
X119000Y233500D01*
X117500Y215500D02*
Y232000D01*
Y215500D02*
X123000Y210000D01*
X118500Y238500D02*
X123272D01*
X117000Y195500D02*
X119260D01*
X116000Y196500D02*
X117000Y195500D01*
X116000Y196500D02*
Y236000D01*
X118500Y238500D01*
X119260Y187260D02*
Y195500D01*
X115500Y183500D02*
X119260Y187260D01*
X115500Y162957D02*
Y183500D01*
Y162957D02*
X123232Y155224D01*
X328842Y217342D02*
Y221988D01*
X311126Y218126D02*
Y221988D01*
X327000Y215500D02*
X328842Y217342D01*
X299000Y206000D02*
X303200Y210200D01*
X242200Y216700D02*
X302346D01*
X303252Y217606D01*
Y221988D01*
X249400Y215400D02*
X302885D01*
X305221Y217736D01*
Y221988D01*
X256600Y214100D02*
X303423D01*
X307189Y217866D01*
Y221988D01*
X264300Y212800D02*
X303961D01*
X309157Y217996D01*
Y221988D01*
X271500Y211500D02*
X304500D01*
X311126Y218126D01*
X303200Y210200D02*
X305200D01*
X310500Y215500D01*
X327000D01*
X330811Y217473D02*
Y221988D01*
X327538Y214200D02*
X330811Y217473D01*
X317200Y214200D02*
X327538D01*
X309000Y206000D02*
X317200Y214200D01*
X310000Y191500D02*
Y197500D01*
X333000Y212500D02*
X336717Y216216D01*
Y221988D01*
X318000Y212500D02*
X333000D01*
X310000Y197500D02*
X314000Y201500D01*
Y208500D01*
X318000Y212500D01*
X320000Y191500D02*
X324000Y195500D01*
Y209000D01*
X326200Y211200D01*
X338700D02*
X352000Y224500D01*
X355000D01*
X356000Y225500D01*
X349512Y228878D02*
X355122D01*
X356000Y228000D01*
Y225500D02*
Y228000D01*
X326200Y211200D02*
X338700D01*
X376500Y170016D02*
Y200350D01*
X380847Y170000D02*
Y174346D01*
X381500Y175000D01*
Y215500D01*
X376500Y200350D02*
X379550D01*
X380200Y201000D01*
Y214962D01*
X360000Y235161D02*
X380200Y214962D01*
X360000Y235161D02*
Y245000D01*
X349512Y258405D02*
X357993D01*
X349512Y260374D02*
X360126D01*
X365500Y250500D02*
X369000Y247000D01*
X358000Y250500D02*
X365500D01*
X354031Y254468D02*
X358000Y250500D01*
X349512Y254468D02*
X354031D01*
X366038Y251800D02*
X370300Y247538D01*
X358539Y251800D02*
X366038D01*
X353902Y256437D02*
X358539Y251800D01*
X349512Y256437D02*
X353902D01*
X364000Y233000D02*
Y242500D01*
Y233000D02*
X381500Y215500D01*
X357993Y258405D02*
X359399Y257000D01*
X364000D01*
X369000Y231500D02*
Y247000D01*
Y231500D02*
X389508Y210992D01*
Y170000D02*
Y210992D01*
X370300Y232038D02*
Y247538D01*
Y232038D02*
X398169Y204169D01*
Y170000D02*
Y204169D01*
X385000Y206650D02*
Y211000D01*
X376500Y206650D02*
Y211000D01*
X150650Y232850D02*
X155000D01*
X151150Y239150D02*
X155000D01*
X144728Y238500D02*
X150500D01*
Y233000D02*
X150650Y232850D01*
X150500Y233000D02*
Y233500D01*
X144728D02*
X150500D01*
X267220Y266280D02*
X288488D01*
X263000Y270500D02*
X267220Y266280D01*
X266000Y296000D02*
X267000D01*
X269650Y298650D01*
Y301350D01*
D32*
X477500Y263500D02*
Y341500D01*
Y111500D02*
Y263500D01*
X462000Y343500D02*
X475500D01*
X477500Y341500D01*
X473500Y107500D02*
X477500Y111500D01*
X385000Y107500D02*
X473500D01*
X385000Y169823D02*
X385177Y170000D01*
X385000Y107500D02*
Y169823D01*
X162657Y179842D02*
X170000D01*
X202500D02*
X210842D01*
X202500Y160158D02*
X210842D01*
X139768Y176878D02*
X151122D01*
X155000Y173000D01*
Y162500D02*
Y173000D01*
Y162500D02*
X157343Y160158D01*
X170000D01*
X164382Y132618D02*
Y138760D01*
Y132618D02*
X167657Y129342D01*
Y117500D02*
Y129342D01*
X187343Y117500D02*
Y125343D01*
X195650Y133650D01*
Y145000D01*
Y148650D01*
X197000Y150000D01*
X201500D01*
X202500Y151000D01*
Y160158D01*
X170000Y140000D02*
Y160158D01*
Y140000D02*
X171240Y138760D01*
X174618D01*
X209000Y379311D02*
X235689D01*
X242500Y372500D01*
Y345000D02*
Y372500D01*
X179401Y373334D02*
X185378Y379311D01*
X169834Y373334D02*
X179401D01*
X167500Y371000D02*
X169834Y373334D01*
X167500Y347500D02*
Y371000D01*
X203000Y361500D02*
X209000Y367500D01*
X191378Y361500D02*
X203000D01*
X185378Y367500D02*
X191378Y361500D01*
X172106Y273894D02*
X179055D01*
X208000Y274000D02*
X214949D01*
X244500D02*
X251449D01*
X132500Y309842D02*
Y330248D01*
X152252D01*
X154500Y328000D01*
X250500D02*
X251555Y326945D01*
Y320394D02*
Y326945D01*
X215055Y320394D02*
Y327945D01*
X179055Y320394D02*
Y327945D01*
X179000Y328000D02*
X179055Y327945D01*
X154500Y328000D02*
X179000D01*
X250500D01*
X132500Y279000D02*
Y290158D01*
X165000Y395000D02*
X172500Y387500D01*
X308500D01*
X122252Y333748D02*
Y389752D01*
Y333748D02*
X125752Y330248D01*
X132500D01*
X127500Y395000D02*
X165000D01*
X122252Y389752D02*
X127500Y395000D01*
D33*
X385177Y170000D02*
Y195500D01*
D34*
X158500Y142500D02*
X164382D01*
D35*
X282500Y218000D02*
X297000D01*
X279500Y221000D02*
X282500Y218000D01*
X283500Y221000D02*
X285300Y219200D01*
X294900D02*
X295378Y219678D01*
X285300Y219200D02*
X294900D01*
X295378Y219678D02*
Y221988D01*
X297000Y218000D02*
X297346Y218347D01*
Y221988D01*
D36*
X290000Y191500D02*
D03*
X300000D02*
D03*
X310000D02*
D03*
X320000D02*
D03*
X330000D02*
D03*
X340000D02*
D03*
X339000Y206000D02*
D03*
X329000D02*
D03*
X319000D02*
D03*
X309000D02*
D03*
X299000D02*
D03*
X289000D02*
D03*
X450000Y207500D02*
D03*
X460000D02*
D03*
X133000Y210000D02*
D03*
X123000D02*
D03*
D37*
X439232Y155224D02*
D03*
Y176878D02*
D03*
X455768D02*
D03*
Y155224D02*
D03*
X132500Y351902D02*
D03*
Y330248D02*
D03*
X123232Y155224D02*
D03*
Y176878D02*
D03*
X139768D02*
D03*
Y155224D02*
D03*
D38*
X447500Y126484D02*
D03*
X132500Y380642D02*
D03*
X131500Y126484D02*
D03*
D39*
X308500Y378811D02*
D03*
X296689D02*
D03*
X284878D02*
D03*
X273067D02*
D03*
Y367000D02*
D03*
X284878D02*
D03*
X296689D02*
D03*
X308500D02*
D03*
X380000Y378811D02*
D03*
X368189D02*
D03*
X356378D02*
D03*
X344567D02*
D03*
Y367000D02*
D03*
X356378D02*
D03*
X368189D02*
D03*
X380000D02*
D03*
X452000Y378811D02*
D03*
X440189D02*
D03*
X428378D02*
D03*
X416567D02*
D03*
Y367000D02*
D03*
X428378D02*
D03*
X440189D02*
D03*
X452000D02*
D03*
X209000Y379311D02*
D03*
X197189D02*
D03*
X185378D02*
D03*
X173567D02*
D03*
Y367500D02*
D03*
X185378D02*
D03*
X197189D02*
D03*
X209000D02*
D03*
D40*
X335500Y230000D02*
D03*
X324000Y289000D02*
D03*
X355000Y274000D02*
D03*
X284000Y229500D02*
D03*
X342744Y227000D02*
D03*
X283500Y273000D02*
D03*
X301284Y276783D02*
D03*
X346500Y214000D02*
D03*
X338000D02*
D03*
X268500Y283000D02*
D03*
Y235500D02*
D03*
Y232000D02*
D03*
Y279500D02*
D03*
X372500Y268500D02*
D03*
Y272000D02*
D03*
Y275500D02*
D03*
Y279000D02*
D03*
Y282500D02*
D03*
X340500Y256500D02*
D03*
Y260000D02*
D03*
Y263500D02*
D03*
Y267000D02*
D03*
Y270500D02*
D03*
X277000Y247000D02*
D03*
X274500Y242500D02*
D03*
D41*
X385000Y107500D02*
D03*
X301000Y302500D02*
D03*
X289000Y319000D02*
D03*
X335500Y309256D02*
D03*
X323500Y313500D02*
D03*
X393839Y178661D02*
D03*
X450500Y259000D02*
D03*
X211000Y180000D02*
D03*
X162500D02*
D03*
X211000Y160000D02*
D03*
X158500Y142500D02*
D03*
X379000Y264000D02*
D03*
X333000Y167000D02*
D03*
X282500Y147500D02*
D03*
X175000Y350000D02*
D03*
Y337500D02*
D03*
X165000D02*
D03*
X201000Y350000D02*
D03*
X211000D02*
D03*
Y337500D02*
D03*
X201000D02*
D03*
X237000Y350000D02*
D03*
X247000D02*
D03*
Y337500D02*
D03*
X237000D02*
D03*
X165000Y305000D02*
D03*
X175000Y305500D02*
D03*
X165000Y290500D02*
D03*
X201000Y305000D02*
D03*
X211000D02*
D03*
Y290000D02*
D03*
X201000D02*
D03*
X237000Y305000D02*
D03*
Y290000D02*
D03*
X247000Y305000D02*
D03*
Y290000D02*
D03*
X175000Y290500D02*
D03*
X222000Y257500D02*
D03*
X185000D02*
D03*
X244500Y274000D02*
D03*
X208000D02*
D03*
X172000D02*
D03*
X154500Y263500D02*
D03*
X165000Y350000D02*
D03*
X192000Y263000D02*
D03*
X170000Y268500D02*
D03*
X216000Y257500D02*
D03*
X132500Y279000D02*
D03*
X306000Y289000D02*
D03*
X229000Y189000D02*
D03*
D42*
X270000Y352500D02*
D03*
X311000Y347500D02*
D03*
X276500Y208000D02*
D03*
X312000Y289000D02*
D03*
X394000Y221000D02*
D03*
X390000D02*
D03*
X279500D02*
D03*
X283500D02*
D03*
X278000Y260500D02*
D03*
X275000Y233000D02*
D03*
X272500Y312500D02*
D03*
Y308500D02*
D03*
Y304500D02*
D03*
X291000Y353500D02*
D03*
X248000Y252500D02*
D03*
Y244626D02*
D03*
X264500Y289500D02*
D03*
X266000Y296000D02*
D03*
X269000Y289500D02*
D03*
X266000Y300500D02*
D03*
X272500D02*
D03*
D43*
X295000Y231000D02*
D03*
X176500Y252500D02*
D03*
X198500Y264500D02*
D03*
X162000Y266000D02*
D03*
X235000Y264500D02*
D03*
X253000Y258000D02*
D03*
X444000Y359500D02*
D03*
X456000D02*
D03*
X383000Y343500D02*
D03*
X377000D02*
D03*
X371000D02*
D03*
X365000D02*
D03*
X359000D02*
D03*
X353000D02*
D03*
X347000D02*
D03*
X341000D02*
D03*
X408000D02*
D03*
X414000D02*
D03*
X420000D02*
D03*
X426000D02*
D03*
X432000D02*
D03*
X438000D02*
D03*
X444000D02*
D03*
X450000D02*
D03*
X456000D02*
D03*
X462000D02*
D03*
X323000Y276500D02*
D03*
X344000Y276000D02*
D03*
X294000Y272000D02*
D03*
X360000Y245000D02*
D03*
X360126Y260374D02*
D03*
X364000Y242500D02*
D03*
Y257000D02*
D03*
X385000Y211000D02*
D03*
X385177Y195500D02*
D03*
X376500Y211000D02*
D03*
X150500Y233500D02*
D03*
D44*
X192000Y139000D02*
D03*
M02*
