G04*
G04 #@! TF.GenerationSoftware,Altium Limited,CircuitStudio,1.5.2 (30)*
G04*
G04 Layer_Color=20142*
%FSLAX25Y25*%
%MOIN*%
G70*
G01*
G75*
%ADD20R,0.03937X0.03937*%
%ADD53R,0.04737X0.04343*%
%ADD54R,0.06312X0.07887*%
%ADD55R,0.05131X0.08280*%
%ADD56R,0.04343X0.03556*%
%ADD57R,0.01981X0.05524*%
%ADD58R,0.05524X0.01981*%
%ADD59R,0.06706X0.10642*%
%ADD60R,0.28359X0.28359*%
%ADD61R,0.04343X0.04737*%
%ADD62R,0.03162X0.02454*%
G04:AMPARAMS|DCode=63|XSize=31.62mil|YSize=65.09mil|CornerRadius=6.01mil|HoleSize=0mil|Usage=FLASHONLY|Rotation=0.000|XOffset=0mil|YOffset=0mil|HoleType=Round|Shape=RoundedRectangle|*
%AMROUNDEDRECTD63*
21,1,0.03162,0.05307,0,0,0.0*
21,1,0.01961,0.06509,0,0,0.0*
1,1,0.01202,0.00980,-0.02654*
1,1,0.01202,-0.00980,-0.02654*
1,1,0.01202,-0.00980,0.02654*
1,1,0.01202,0.00980,0.02654*
%
%ADD63ROUNDEDRECTD63*%
%ADD64R,0.04934X0.06312*%
%ADD65R,0.03950X0.06706*%
%ADD66R,0.06312X0.08674*%
%ADD67R,0.08674X0.07493*%
%ADD68R,0.05131X0.03162*%
%ADD69R,0.16548X0.16548*%
%ADD70R,0.22453X0.22453*%
%ADD71R,0.07099X0.13398*%
G04:AMPARAMS|DCode=72|XSize=31.62mil|YSize=65.09mil|CornerRadius=6.01mil|HoleSize=0mil|Usage=FLASHONLY|Rotation=270.000|XOffset=0mil|YOffset=0mil|HoleType=Round|Shape=RoundedRectangle|*
%AMROUNDEDRECTD72*
21,1,0.03162,0.05307,0,0,270.0*
21,1,0.01961,0.06509,0,0,270.0*
1,1,0.01202,-0.02654,-0.00980*
1,1,0.01202,-0.02654,0.00980*
1,1,0.01202,0.02654,0.00980*
1,1,0.01202,0.02654,-0.00980*
%
%ADD72ROUNDEDRECTD72*%
%ADD73C,0.08280*%
%ADD74C,0.11036*%
%ADD75C,0.06800*%
%ADD76C,0.00800*%
%ADD77C,0.09068*%
%ADD78C,0.03800*%
%ADD79C,0.05800*%
%ADD80C,0.04300*%
%ADD81C,0.04800*%
%ADD82C,0.04200*%
D20*
X270000Y195846D02*
D03*
Y189154D02*
D03*
X261500Y195846D02*
D03*
Y189154D02*
D03*
X253000Y195846D02*
D03*
Y189154D02*
D03*
X244500Y195846D02*
D03*
Y189154D02*
D03*
X236000Y195846D02*
D03*
Y189154D02*
D03*
D53*
X292000Y296350D02*
D03*
Y302650D02*
D03*
X286000Y308350D02*
D03*
Y314650D02*
D03*
X292000Y314650D02*
D03*
Y308350D02*
D03*
X301000Y313650D02*
D03*
Y307350D02*
D03*
X324000Y296350D02*
D03*
Y302650D02*
D03*
X341000Y348350D02*
D03*
Y354650D02*
D03*
X347000D02*
D03*
Y348350D02*
D03*
X353000D02*
D03*
Y354650D02*
D03*
X359000D02*
D03*
Y348350D02*
D03*
X365000D02*
D03*
Y354650D02*
D03*
X371000D02*
D03*
Y348350D02*
D03*
X377000D02*
D03*
Y354650D02*
D03*
X383000D02*
D03*
Y348350D02*
D03*
X408000D02*
D03*
Y354650D02*
D03*
X414000D02*
D03*
Y348350D02*
D03*
X420000D02*
D03*
Y354650D02*
D03*
X426000D02*
D03*
Y348350D02*
D03*
X432000D02*
D03*
Y354650D02*
D03*
X438000D02*
D03*
Y348350D02*
D03*
X444000D02*
D03*
Y354650D02*
D03*
X450000D02*
D03*
Y348350D02*
D03*
X456000D02*
D03*
Y354650D02*
D03*
X462000D02*
D03*
Y348350D02*
D03*
X376500Y200350D02*
D03*
Y206650D02*
D03*
X385000D02*
D03*
Y200350D02*
D03*
X333000Y162150D02*
D03*
Y155850D02*
D03*
X155000Y232850D02*
D03*
Y239150D02*
D03*
D54*
X317224Y296339D02*
D03*
Y313661D02*
D03*
X307776D02*
D03*
Y296339D02*
D03*
D55*
X340421Y297000D02*
D03*
X330579D02*
D03*
D56*
X330500Y309256D02*
D03*
Y303744D02*
D03*
X340500Y309256D02*
D03*
Y303744D02*
D03*
X270000Y207756D02*
D03*
Y202244D02*
D03*
X261500Y207756D02*
D03*
Y202244D02*
D03*
X253000Y207756D02*
D03*
Y202244D02*
D03*
X244500Y207756D02*
D03*
Y202244D02*
D03*
X236000Y207756D02*
D03*
Y202244D02*
D03*
D57*
X319000Y221988D02*
D03*
X317032D02*
D03*
X315063D02*
D03*
X320969D02*
D03*
X322937D02*
D03*
X324905D02*
D03*
X313094D02*
D03*
X326874D02*
D03*
X311126D02*
D03*
X309157D02*
D03*
X328842D02*
D03*
X307189D02*
D03*
X330811D02*
D03*
X305221D02*
D03*
X332780D02*
D03*
X303252D02*
D03*
X334748D02*
D03*
X301284D02*
D03*
X336717D02*
D03*
X299315D02*
D03*
X338685D02*
D03*
X297346D02*
D03*
X340653D02*
D03*
X295378D02*
D03*
X342622D02*
D03*
Y283012D02*
D03*
X295378D02*
D03*
X340653D02*
D03*
X297346D02*
D03*
X338685D02*
D03*
X299315D02*
D03*
X336717D02*
D03*
X301284D02*
D03*
X334748D02*
D03*
X303252D02*
D03*
X332780D02*
D03*
X305221D02*
D03*
X330811D02*
D03*
X307189D02*
D03*
X328842D02*
D03*
X309157D02*
D03*
X311126D02*
D03*
X326874D02*
D03*
X313094D02*
D03*
X324905D02*
D03*
X322937D02*
D03*
X320969D02*
D03*
X315063D02*
D03*
X317032D02*
D03*
X319000D02*
D03*
D58*
X288488Y252500D02*
D03*
Y250532D02*
D03*
Y248563D02*
D03*
Y254468D02*
D03*
Y256437D02*
D03*
Y258405D02*
D03*
Y246595D02*
D03*
Y260374D02*
D03*
Y244626D02*
D03*
Y242657D02*
D03*
Y262343D02*
D03*
Y240689D02*
D03*
Y264311D02*
D03*
Y238720D02*
D03*
Y266280D02*
D03*
Y236752D02*
D03*
Y268248D02*
D03*
Y234784D02*
D03*
Y270216D02*
D03*
Y232815D02*
D03*
Y272185D02*
D03*
Y230847D02*
D03*
Y274153D02*
D03*
Y228878D02*
D03*
Y276122D02*
D03*
X349512D02*
D03*
Y228878D02*
D03*
Y274153D02*
D03*
Y230847D02*
D03*
Y272185D02*
D03*
Y232815D02*
D03*
Y270216D02*
D03*
Y234784D02*
D03*
Y268248D02*
D03*
Y236752D02*
D03*
Y266280D02*
D03*
Y238720D02*
D03*
Y264311D02*
D03*
Y240689D02*
D03*
Y262343D02*
D03*
Y242657D02*
D03*
Y244626D02*
D03*
Y260374D02*
D03*
Y246595D02*
D03*
Y258405D02*
D03*
Y256437D02*
D03*
Y254468D02*
D03*
Y248563D02*
D03*
Y250532D02*
D03*
Y252500D02*
D03*
D59*
X251555Y273894D02*
D03*
X233445D02*
D03*
X215055D02*
D03*
X196945D02*
D03*
X179055D02*
D03*
X160945D02*
D03*
X179055Y320394D02*
D03*
X160945D02*
D03*
X215055D02*
D03*
X196945D02*
D03*
X251555D02*
D03*
X233445D02*
D03*
D60*
X242500Y298500D02*
D03*
X206000D02*
D03*
X170000D02*
D03*
Y345000D02*
D03*
X206000D02*
D03*
X242500D02*
D03*
D61*
X154350Y257500D02*
D03*
X160650D02*
D03*
X185650Y263500D02*
D03*
X179350D02*
D03*
X190850Y257500D02*
D03*
X197150D02*
D03*
X222150Y263500D02*
D03*
X215850D02*
D03*
X227850Y257500D02*
D03*
X234150D02*
D03*
X259150Y263500D02*
D03*
X252850D02*
D03*
X366850Y264000D02*
D03*
X373150D02*
D03*
X300150Y183000D02*
D03*
X293850D02*
D03*
X450650Y253500D02*
D03*
X444350D02*
D03*
X195650Y145000D02*
D03*
X189350D02*
D03*
X181850Y139000D02*
D03*
X188150D02*
D03*
D62*
X173740Y258441D02*
D03*
Y261000D02*
D03*
Y263559D02*
D03*
X166260D02*
D03*
Y261000D02*
D03*
Y258441D02*
D03*
X210240D02*
D03*
Y261000D02*
D03*
Y263559D02*
D03*
X202760D02*
D03*
Y261000D02*
D03*
Y258441D02*
D03*
X247240D02*
D03*
Y261000D02*
D03*
Y263559D02*
D03*
X239760D02*
D03*
Y261000D02*
D03*
Y258441D02*
D03*
X306740Y347441D02*
D03*
Y350000D02*
D03*
Y352559D02*
D03*
X299260D02*
D03*
Y350000D02*
D03*
Y347441D02*
D03*
X283240D02*
D03*
Y350000D02*
D03*
Y352559D02*
D03*
X275760D02*
D03*
Y350000D02*
D03*
Y347441D02*
D03*
D63*
X440000Y223272D02*
D03*
X445000D02*
D03*
X450000D02*
D03*
X455000D02*
D03*
X440000Y244728D02*
D03*
X445000D02*
D03*
X450000D02*
D03*
X455000D02*
D03*
D64*
X436240Y207500D02*
D03*
X428760D02*
D03*
X126740Y195500D02*
D03*
X119260D02*
D03*
D65*
X402500Y170000D02*
D03*
X398169D02*
D03*
X393839D02*
D03*
X389508D02*
D03*
X385177D02*
D03*
X380847D02*
D03*
X376516D02*
D03*
X372185D02*
D03*
D66*
X411870Y180236D02*
D03*
X357736D02*
D03*
Y147559D02*
D03*
X412736D02*
D03*
D67*
X167657Y117500D02*
D03*
X187343D02*
D03*
D68*
X174618Y138760D02*
D03*
Y146240D02*
D03*
X164382Y138760D02*
D03*
Y142500D02*
D03*
Y146240D02*
D03*
D69*
X282500Y136000D02*
D03*
D70*
X232106D02*
D03*
X332894D02*
D03*
D71*
X202500Y160158D02*
D03*
Y179842D02*
D03*
X170000Y160158D02*
D03*
Y179842D02*
D03*
X132500Y309842D02*
D03*
Y290158D02*
D03*
D72*
X123272Y243500D02*
D03*
Y238500D02*
D03*
Y233500D02*
D03*
Y228500D02*
D03*
X144728Y243500D02*
D03*
Y238500D02*
D03*
Y233500D02*
D03*
Y228500D02*
D03*
D73*
X290000Y191500D02*
D03*
X300000D02*
D03*
X310000D02*
D03*
X320000D02*
D03*
X330000D02*
D03*
X340000D02*
D03*
X339000Y206000D02*
D03*
X329000D02*
D03*
X319000D02*
D03*
X309000D02*
D03*
X299000D02*
D03*
X289000D02*
D03*
X450000Y207500D02*
D03*
X460000D02*
D03*
X133000Y210000D02*
D03*
X123000D02*
D03*
D74*
X439232Y155224D02*
D03*
Y176878D02*
D03*
X455768D02*
D03*
Y155224D02*
D03*
X132500Y351902D02*
D03*
Y330248D02*
D03*
X123232Y155224D02*
D03*
Y176878D02*
D03*
X139768D02*
D03*
Y155224D02*
D03*
D75*
X447500Y126484D02*
D03*
X132500Y380642D02*
D03*
X131500Y126484D02*
D03*
D76*
X281492Y395819D02*
D03*
X299996D02*
D03*
X352992D02*
D03*
X371496D02*
D03*
X424992D02*
D03*
X443496D02*
D03*
X181992Y396319D02*
D03*
X200496D02*
D03*
D77*
X308500Y378811D02*
D03*
X296689D02*
D03*
X284878D02*
D03*
X273067D02*
D03*
Y367000D02*
D03*
X284878D02*
D03*
X296689D02*
D03*
X308500D02*
D03*
X380000Y378811D02*
D03*
X368189D02*
D03*
X356378D02*
D03*
X344567D02*
D03*
Y367000D02*
D03*
X356378D02*
D03*
X368189D02*
D03*
X380000D02*
D03*
X452000Y378811D02*
D03*
X440189D02*
D03*
X428378D02*
D03*
X416567D02*
D03*
Y367000D02*
D03*
X428378D02*
D03*
X440189D02*
D03*
X452000D02*
D03*
X209000Y379311D02*
D03*
X197189D02*
D03*
X185378D02*
D03*
X173567D02*
D03*
Y367500D02*
D03*
X185378D02*
D03*
X197189D02*
D03*
X209000D02*
D03*
D78*
X335500Y230000D02*
D03*
X324000Y289000D02*
D03*
X355000Y274000D02*
D03*
X284000Y229500D02*
D03*
X342744Y227000D02*
D03*
X283500Y273000D02*
D03*
X301284Y276783D02*
D03*
X346500Y214000D02*
D03*
X338000D02*
D03*
X268500Y283000D02*
D03*
Y235500D02*
D03*
Y232000D02*
D03*
Y279500D02*
D03*
X372500Y268500D02*
D03*
Y272000D02*
D03*
Y275500D02*
D03*
Y279000D02*
D03*
Y282500D02*
D03*
X340500Y256500D02*
D03*
Y260000D02*
D03*
Y263500D02*
D03*
Y267000D02*
D03*
Y270500D02*
D03*
X277000Y247000D02*
D03*
X274500Y242500D02*
D03*
D79*
X385000Y107500D02*
D03*
X301000Y302500D02*
D03*
X289000Y319000D02*
D03*
X335500Y309256D02*
D03*
X323500Y313500D02*
D03*
X393839Y178661D02*
D03*
X450500Y259000D02*
D03*
X211000Y180000D02*
D03*
X162500D02*
D03*
X211000Y160000D02*
D03*
X158500Y142500D02*
D03*
X379000Y264000D02*
D03*
X333000Y167000D02*
D03*
X282500Y147500D02*
D03*
X175000Y350000D02*
D03*
Y337500D02*
D03*
X165000D02*
D03*
X201000Y350000D02*
D03*
X211000D02*
D03*
Y337500D02*
D03*
X201000D02*
D03*
X237000Y350000D02*
D03*
X247000D02*
D03*
Y337500D02*
D03*
X237000D02*
D03*
X165000Y305000D02*
D03*
X175000Y305500D02*
D03*
X165000Y290500D02*
D03*
X201000Y305000D02*
D03*
X211000D02*
D03*
Y290000D02*
D03*
X201000D02*
D03*
X237000Y305000D02*
D03*
Y290000D02*
D03*
X247000Y305000D02*
D03*
Y290000D02*
D03*
X175000Y290500D02*
D03*
X222000Y257500D02*
D03*
X185000D02*
D03*
X244500Y274000D02*
D03*
X208000D02*
D03*
X172000D02*
D03*
X154500Y263500D02*
D03*
X165000Y350000D02*
D03*
X192000Y263000D02*
D03*
X170000Y268500D02*
D03*
X132500Y279000D02*
D03*
X306000Y289000D02*
D03*
X229000Y189000D02*
D03*
D80*
X270000Y352500D02*
D03*
X311000Y347500D02*
D03*
X276500Y208000D02*
D03*
X312000Y289000D02*
D03*
X394000Y221000D02*
D03*
X390000D02*
D03*
X279500D02*
D03*
X283500D02*
D03*
X278000Y260500D02*
D03*
X275000Y233000D02*
D03*
X272500Y312500D02*
D03*
Y308500D02*
D03*
Y304500D02*
D03*
X291000Y353500D02*
D03*
X248000Y252500D02*
D03*
Y244626D02*
D03*
X264500Y289500D02*
D03*
X266000Y296000D02*
D03*
X269000Y289500D02*
D03*
X266000Y300500D02*
D03*
X272500D02*
D03*
D81*
X295000Y231000D02*
D03*
X176500Y252500D02*
D03*
X198500Y264500D02*
D03*
X162000Y266000D02*
D03*
X235000Y264500D02*
D03*
X253000Y258000D02*
D03*
X444000Y359500D02*
D03*
X456000D02*
D03*
X383000Y343500D02*
D03*
X377000D02*
D03*
X371000D02*
D03*
X365000D02*
D03*
X359000D02*
D03*
X353000D02*
D03*
X347000D02*
D03*
X341000D02*
D03*
X408000D02*
D03*
X414000D02*
D03*
X420000D02*
D03*
X426000D02*
D03*
X432000D02*
D03*
X438000D02*
D03*
X444000D02*
D03*
X450000D02*
D03*
X456000D02*
D03*
X462000D02*
D03*
X323000Y276500D02*
D03*
X344000Y276000D02*
D03*
X294000Y272000D02*
D03*
X360000Y245000D02*
D03*
X360126Y260374D02*
D03*
X364000Y242500D02*
D03*
Y257000D02*
D03*
X385000Y211000D02*
D03*
X385177Y195500D02*
D03*
X376500Y211000D02*
D03*
X150500Y233500D02*
D03*
D82*
X192000Y139000D02*
D03*
M02*
